G04 #@! TF.GenerationSoftware,KiCad,Pcbnew,(5.1.4)-1*
G04 #@! TF.CreationDate,2020-10-27T13:41:20+01:00*
G04 #@! TF.ProjectId,STm32f405xx board,53546d33-3266-4343-9035-787820626f61,rev?*
G04 #@! TF.SameCoordinates,Original*
G04 #@! TF.FileFunction,Soldermask,Bot*
G04 #@! TF.FilePolarity,Negative*
%FSLAX46Y46*%
G04 Gerber Fmt 4.6, Leading zero omitted, Abs format (unit mm)*
G04 Created by KiCad (PCBNEW (5.1.4)-1) date 2020-10-27 13:41:20*
%MOMM*%
%LPD*%
G04 APERTURE LIST*
%ADD10C,0.100000*%
G04 APERTURE END LIST*
D10*
G36*
X83439943Y-94856248D02*
G01*
X83995189Y-95086238D01*
X84243347Y-95252052D01*
X84494899Y-95420134D01*
X84919866Y-95845101D01*
X85068440Y-96067458D01*
X85253762Y-96344811D01*
X85483752Y-96900057D01*
X85601000Y-97489501D01*
X85601000Y-98090499D01*
X85483752Y-98679943D01*
X85253762Y-99235189D01*
X85253761Y-99235190D01*
X84919866Y-99734899D01*
X84494899Y-100159866D01*
X84354573Y-100253629D01*
X83995189Y-100493762D01*
X83439943Y-100723752D01*
X82850499Y-100841000D01*
X82249501Y-100841000D01*
X81660057Y-100723752D01*
X81104811Y-100493762D01*
X80745427Y-100253629D01*
X80605101Y-100159866D01*
X80180134Y-99734899D01*
X79846239Y-99235190D01*
X79846238Y-99235189D01*
X79616248Y-98679943D01*
X79499000Y-98090499D01*
X79499000Y-97489501D01*
X79616248Y-96900057D01*
X79846238Y-96344811D01*
X80031560Y-96067458D01*
X80180134Y-95845101D01*
X80605101Y-95420134D01*
X80856653Y-95252052D01*
X81104811Y-95086238D01*
X81660057Y-94856248D01*
X82249501Y-94739000D01*
X82850499Y-94739000D01*
X83439943Y-94856248D01*
X83439943Y-94856248D01*
G37*
G36*
X125349943Y-94856248D02*
G01*
X125905189Y-95086238D01*
X126153347Y-95252052D01*
X126404899Y-95420134D01*
X126829866Y-95845101D01*
X126978440Y-96067458D01*
X127163762Y-96344811D01*
X127393752Y-96900057D01*
X127511000Y-97489501D01*
X127511000Y-98090499D01*
X127393752Y-98679943D01*
X127163762Y-99235189D01*
X127163761Y-99235190D01*
X126829866Y-99734899D01*
X126404899Y-100159866D01*
X126264573Y-100253629D01*
X125905189Y-100493762D01*
X125349943Y-100723752D01*
X124760499Y-100841000D01*
X124159501Y-100841000D01*
X123570057Y-100723752D01*
X123014811Y-100493762D01*
X122655427Y-100253629D01*
X122515101Y-100159866D01*
X122090134Y-99734899D01*
X121756239Y-99235190D01*
X121756238Y-99235189D01*
X121526248Y-98679943D01*
X121409000Y-98090499D01*
X121409000Y-97489501D01*
X121526248Y-96900057D01*
X121756238Y-96344811D01*
X121941560Y-96067458D01*
X122090134Y-95845101D01*
X122515101Y-95420134D01*
X122766653Y-95252052D01*
X123014811Y-95086238D01*
X123570057Y-94856248D01*
X124159501Y-94739000D01*
X124760499Y-94739000D01*
X125349943Y-94856248D01*
X125349943Y-94856248D01*
G37*
G36*
X111108443Y-95371519D02*
G01*
X111174627Y-95378037D01*
X111344466Y-95429557D01*
X111500991Y-95513222D01*
X111536729Y-95542552D01*
X111638186Y-95625814D01*
X111721448Y-95727271D01*
X111750778Y-95763009D01*
X111750779Y-95763011D01*
X111818825Y-95890314D01*
X111834443Y-95919534D01*
X111885963Y-96089373D01*
X111903359Y-96266000D01*
X111885963Y-96442627D01*
X111834443Y-96612466D01*
X111750778Y-96768991D01*
X111721448Y-96804729D01*
X111638186Y-96906186D01*
X111536729Y-96989448D01*
X111500991Y-97018778D01*
X111344466Y-97102443D01*
X111174627Y-97153963D01*
X111108443Y-97160481D01*
X111042260Y-97167000D01*
X110953740Y-97167000D01*
X110887557Y-97160481D01*
X110821373Y-97153963D01*
X110651534Y-97102443D01*
X110495009Y-97018778D01*
X110459271Y-96989448D01*
X110357814Y-96906186D01*
X110274552Y-96804729D01*
X110245222Y-96768991D01*
X110161557Y-96612466D01*
X110110037Y-96442627D01*
X110092641Y-96266000D01*
X110110037Y-96089373D01*
X110161557Y-95919534D01*
X110177176Y-95890314D01*
X110245221Y-95763011D01*
X110245222Y-95763009D01*
X110274552Y-95727271D01*
X110357814Y-95625814D01*
X110459271Y-95542552D01*
X110495009Y-95513222D01*
X110651534Y-95429557D01*
X110821373Y-95378037D01*
X110887557Y-95371519D01*
X110953740Y-95365000D01*
X111042260Y-95365000D01*
X111108443Y-95371519D01*
X111108443Y-95371519D01*
G37*
G36*
X108568443Y-95371519D02*
G01*
X108634627Y-95378037D01*
X108804466Y-95429557D01*
X108960991Y-95513222D01*
X108996729Y-95542552D01*
X109098186Y-95625814D01*
X109181448Y-95727271D01*
X109210778Y-95763009D01*
X109210779Y-95763011D01*
X109278825Y-95890314D01*
X109294443Y-95919534D01*
X109345963Y-96089373D01*
X109363359Y-96266000D01*
X109345963Y-96442627D01*
X109294443Y-96612466D01*
X109210778Y-96768991D01*
X109181448Y-96804729D01*
X109098186Y-96906186D01*
X108996729Y-96989448D01*
X108960991Y-97018778D01*
X108804466Y-97102443D01*
X108634627Y-97153963D01*
X108568443Y-97160481D01*
X108502260Y-97167000D01*
X108413740Y-97167000D01*
X108347557Y-97160481D01*
X108281373Y-97153963D01*
X108111534Y-97102443D01*
X107955009Y-97018778D01*
X107919271Y-96989448D01*
X107817814Y-96906186D01*
X107734552Y-96804729D01*
X107705222Y-96768991D01*
X107621557Y-96612466D01*
X107570037Y-96442627D01*
X107552641Y-96266000D01*
X107570037Y-96089373D01*
X107621557Y-95919534D01*
X107637176Y-95890314D01*
X107705221Y-95763011D01*
X107705222Y-95763009D01*
X107734552Y-95727271D01*
X107817814Y-95625814D01*
X107919271Y-95542552D01*
X107955009Y-95513222D01*
X108111534Y-95429557D01*
X108281373Y-95378037D01*
X108347557Y-95371519D01*
X108413740Y-95365000D01*
X108502260Y-95365000D01*
X108568443Y-95371519D01*
X108568443Y-95371519D01*
G37*
G36*
X106028443Y-95371519D02*
G01*
X106094627Y-95378037D01*
X106264466Y-95429557D01*
X106420991Y-95513222D01*
X106456729Y-95542552D01*
X106558186Y-95625814D01*
X106641448Y-95727271D01*
X106670778Y-95763009D01*
X106670779Y-95763011D01*
X106738825Y-95890314D01*
X106754443Y-95919534D01*
X106805963Y-96089373D01*
X106823359Y-96266000D01*
X106805963Y-96442627D01*
X106754443Y-96612466D01*
X106670778Y-96768991D01*
X106641448Y-96804729D01*
X106558186Y-96906186D01*
X106456729Y-96989448D01*
X106420991Y-97018778D01*
X106264466Y-97102443D01*
X106094627Y-97153963D01*
X106028443Y-97160481D01*
X105962260Y-97167000D01*
X105873740Y-97167000D01*
X105807557Y-97160481D01*
X105741373Y-97153963D01*
X105571534Y-97102443D01*
X105415009Y-97018778D01*
X105379271Y-96989448D01*
X105277814Y-96906186D01*
X105194552Y-96804729D01*
X105165222Y-96768991D01*
X105081557Y-96612466D01*
X105030037Y-96442627D01*
X105012641Y-96266000D01*
X105030037Y-96089373D01*
X105081557Y-95919534D01*
X105097176Y-95890314D01*
X105165221Y-95763011D01*
X105165222Y-95763009D01*
X105194552Y-95727271D01*
X105277814Y-95625814D01*
X105379271Y-95542552D01*
X105415009Y-95513222D01*
X105571534Y-95429557D01*
X105741373Y-95378037D01*
X105807557Y-95371519D01*
X105873740Y-95365000D01*
X105962260Y-95365000D01*
X106028443Y-95371519D01*
X106028443Y-95371519D01*
G37*
G36*
X104279000Y-97167000D02*
G01*
X102477000Y-97167000D01*
X102477000Y-95365000D01*
X104279000Y-95365000D01*
X104279000Y-97167000D01*
X104279000Y-97167000D01*
G37*
G36*
X83750720Y-82607720D02*
G01*
X81948720Y-82607720D01*
X81948720Y-80805720D01*
X83750720Y-80805720D01*
X83750720Y-82607720D01*
X83750720Y-82607720D01*
G37*
G36*
X124726000Y-81800000D02*
G01*
X122924000Y-81800000D01*
X122924000Y-79998000D01*
X124726000Y-79998000D01*
X124726000Y-81800000D01*
X124726000Y-81800000D01*
G37*
G36*
X82960163Y-78272239D02*
G01*
X83026347Y-78278757D01*
X83196186Y-78330277D01*
X83352711Y-78413942D01*
X83388449Y-78443272D01*
X83489906Y-78526534D01*
X83573168Y-78627991D01*
X83602498Y-78663729D01*
X83686163Y-78820254D01*
X83737683Y-78990093D01*
X83755079Y-79166720D01*
X83737683Y-79343347D01*
X83686163Y-79513186D01*
X83602498Y-79669711D01*
X83573168Y-79705449D01*
X83489906Y-79806906D01*
X83388449Y-79890168D01*
X83352711Y-79919498D01*
X83196186Y-80003163D01*
X83026347Y-80054683D01*
X82960163Y-80061201D01*
X82893980Y-80067720D01*
X82805460Y-80067720D01*
X82739277Y-80061201D01*
X82673093Y-80054683D01*
X82503254Y-80003163D01*
X82346729Y-79919498D01*
X82310991Y-79890168D01*
X82209534Y-79806906D01*
X82126272Y-79705449D01*
X82096942Y-79669711D01*
X82013277Y-79513186D01*
X81961757Y-79343347D01*
X81944361Y-79166720D01*
X81961757Y-78990093D01*
X82013277Y-78820254D01*
X82096942Y-78663729D01*
X82126272Y-78627991D01*
X82209534Y-78526534D01*
X82310991Y-78443272D01*
X82346729Y-78413942D01*
X82503254Y-78330277D01*
X82673093Y-78278757D01*
X82739277Y-78272239D01*
X82805460Y-78265720D01*
X82893980Y-78265720D01*
X82960163Y-78272239D01*
X82960163Y-78272239D01*
G37*
G36*
X123935442Y-77464518D02*
G01*
X124001627Y-77471037D01*
X124171466Y-77522557D01*
X124327991Y-77606222D01*
X124363729Y-77635552D01*
X124465186Y-77718814D01*
X124548448Y-77820271D01*
X124577778Y-77856009D01*
X124661443Y-78012534D01*
X124712963Y-78182373D01*
X124730359Y-78359000D01*
X124712963Y-78535627D01*
X124661443Y-78705466D01*
X124577778Y-78861991D01*
X124548448Y-78897729D01*
X124465186Y-78999186D01*
X124363729Y-79082448D01*
X124327991Y-79111778D01*
X124171466Y-79195443D01*
X124001627Y-79246963D01*
X123935442Y-79253482D01*
X123869260Y-79260000D01*
X123780740Y-79260000D01*
X123714558Y-79253482D01*
X123648373Y-79246963D01*
X123478534Y-79195443D01*
X123322009Y-79111778D01*
X123286271Y-79082448D01*
X123184814Y-78999186D01*
X123101552Y-78897729D01*
X123072222Y-78861991D01*
X122988557Y-78705466D01*
X122937037Y-78535627D01*
X122919641Y-78359000D01*
X122937037Y-78182373D01*
X122988557Y-78012534D01*
X123072222Y-77856009D01*
X123101552Y-77820271D01*
X123184814Y-77718814D01*
X123286271Y-77635552D01*
X123322009Y-77606222D01*
X123478534Y-77522557D01*
X123648373Y-77471037D01*
X123714558Y-77464518D01*
X123780740Y-77458000D01*
X123869260Y-77458000D01*
X123935442Y-77464518D01*
X123935442Y-77464518D01*
G37*
G36*
X82914443Y-68193519D02*
G01*
X82980627Y-68200037D01*
X83150466Y-68251557D01*
X83306991Y-68335222D01*
X83342729Y-68364552D01*
X83444186Y-68447814D01*
X83527448Y-68549271D01*
X83556778Y-68585009D01*
X83640443Y-68741534D01*
X83691963Y-68911373D01*
X83709359Y-69088000D01*
X83691963Y-69264627D01*
X83640443Y-69434466D01*
X83556778Y-69590991D01*
X83527448Y-69626729D01*
X83444186Y-69728186D01*
X83342729Y-69811448D01*
X83306991Y-69840778D01*
X83150466Y-69924443D01*
X82980627Y-69975963D01*
X82914443Y-69982481D01*
X82848260Y-69989000D01*
X82759740Y-69989000D01*
X82693557Y-69982481D01*
X82627373Y-69975963D01*
X82457534Y-69924443D01*
X82301009Y-69840778D01*
X82265271Y-69811448D01*
X82163814Y-69728186D01*
X82080552Y-69626729D01*
X82051222Y-69590991D01*
X81967557Y-69434466D01*
X81916037Y-69264627D01*
X81898641Y-69088000D01*
X81916037Y-68911373D01*
X81967557Y-68741534D01*
X82051222Y-68585009D01*
X82080552Y-68549271D01*
X82163814Y-68447814D01*
X82265271Y-68364552D01*
X82301009Y-68335222D01*
X82457534Y-68251557D01*
X82627373Y-68200037D01*
X82693557Y-68193519D01*
X82759740Y-68187000D01*
X82848260Y-68187000D01*
X82914443Y-68193519D01*
X82914443Y-68193519D01*
G37*
G36*
X83705000Y-67449000D02*
G01*
X81903000Y-67449000D01*
X81903000Y-65647000D01*
X83705000Y-65647000D01*
X83705000Y-67449000D01*
X83705000Y-67449000D01*
G37*
G36*
X83820943Y-53200248D02*
G01*
X84376189Y-53430238D01*
X84608674Y-53585580D01*
X84875899Y-53764134D01*
X85300866Y-54189101D01*
X85449440Y-54411458D01*
X85634762Y-54688811D01*
X85864752Y-55244057D01*
X85982000Y-55833501D01*
X85982000Y-56434499D01*
X85864752Y-57023943D01*
X85634762Y-57579189D01*
X85634761Y-57579190D01*
X85300866Y-58078899D01*
X84875899Y-58503866D01*
X84756326Y-58583762D01*
X84376189Y-58837762D01*
X83820943Y-59067752D01*
X83231499Y-59185000D01*
X82630501Y-59185000D01*
X82041057Y-59067752D01*
X81485811Y-58837762D01*
X81105674Y-58583762D01*
X80986101Y-58503866D01*
X80561134Y-58078899D01*
X80227239Y-57579190D01*
X80227238Y-57579189D01*
X79997248Y-57023943D01*
X79880000Y-56434499D01*
X79880000Y-55833501D01*
X79997248Y-55244057D01*
X80227238Y-54688811D01*
X80412560Y-54411458D01*
X80561134Y-54189101D01*
X80986101Y-53764134D01*
X81253326Y-53585580D01*
X81485811Y-53430238D01*
X82041057Y-53200248D01*
X82630501Y-53083000D01*
X83231499Y-53083000D01*
X83820943Y-53200248D01*
X83820943Y-53200248D01*
G37*
G36*
X125349943Y-52946248D02*
G01*
X125905189Y-53176238D01*
X126153347Y-53342052D01*
X126404899Y-53510134D01*
X126829866Y-53935101D01*
X126934709Y-54092010D01*
X127163762Y-54434811D01*
X127393752Y-54990057D01*
X127511000Y-55579501D01*
X127511000Y-56180499D01*
X127393752Y-56769943D01*
X127163762Y-57325189D01*
X127036660Y-57515410D01*
X126829866Y-57824899D01*
X126404899Y-58249866D01*
X126264573Y-58343629D01*
X125905189Y-58583762D01*
X125349943Y-58813752D01*
X124760499Y-58931000D01*
X124159501Y-58931000D01*
X123570057Y-58813752D01*
X123014811Y-58583762D01*
X122655427Y-58343629D01*
X122515101Y-58249866D01*
X122090134Y-57824899D01*
X121883340Y-57515410D01*
X121756238Y-57325189D01*
X121526248Y-56769943D01*
X121409000Y-56180499D01*
X121409000Y-55579501D01*
X121526248Y-54990057D01*
X121756238Y-54434811D01*
X121985291Y-54092010D01*
X122090134Y-53935101D01*
X122515101Y-53510134D01*
X122766653Y-53342052D01*
X123014811Y-53176238D01*
X123570057Y-52946248D01*
X124159501Y-52829000D01*
X124760499Y-52829000D01*
X125349943Y-52946248D01*
X125349943Y-52946248D01*
G37*
G36*
X111895842Y-54617218D02*
G01*
X111962027Y-54623737D01*
X112131866Y-54675257D01*
X112288391Y-54758922D01*
X112324129Y-54788252D01*
X112425586Y-54871514D01*
X112483990Y-54942681D01*
X112538178Y-55008709D01*
X112621843Y-55165234D01*
X112673363Y-55335073D01*
X112690759Y-55511700D01*
X112673363Y-55688327D01*
X112621843Y-55858166D01*
X112538178Y-56014691D01*
X112508848Y-56050429D01*
X112425586Y-56151886D01*
X112330020Y-56230314D01*
X112288391Y-56264478D01*
X112131866Y-56348143D01*
X111962027Y-56399663D01*
X111895842Y-56406182D01*
X111829660Y-56412700D01*
X111741140Y-56412700D01*
X111674958Y-56406182D01*
X111608773Y-56399663D01*
X111438934Y-56348143D01*
X111282409Y-56264478D01*
X111240780Y-56230314D01*
X111145214Y-56151886D01*
X111061952Y-56050429D01*
X111032622Y-56014691D01*
X110948957Y-55858166D01*
X110897437Y-55688327D01*
X110880041Y-55511700D01*
X110897437Y-55335073D01*
X110948957Y-55165234D01*
X111032622Y-55008709D01*
X111086810Y-54942681D01*
X111145214Y-54871514D01*
X111246671Y-54788252D01*
X111282409Y-54758922D01*
X111438934Y-54675257D01*
X111608773Y-54623737D01*
X111674958Y-54617218D01*
X111741140Y-54610700D01*
X111829660Y-54610700D01*
X111895842Y-54617218D01*
X111895842Y-54617218D01*
G37*
G36*
X115226400Y-56412700D02*
G01*
X113424400Y-56412700D01*
X113424400Y-54610700D01*
X115226400Y-54610700D01*
X115226400Y-56412700D01*
X115226400Y-56412700D01*
G37*
M02*
