G04 #@! TF.GenerationSoftware,KiCad,Pcbnew,(5.1.4)-1*
G04 #@! TF.CreationDate,2020-10-27T13:41:20+01:00*
G04 #@! TF.ProjectId,STm32f405xx board,53546d33-3266-4343-9035-787820626f61,rev?*
G04 #@! TF.SameCoordinates,Original*
G04 #@! TF.FileFunction,Legend,Top*
G04 #@! TF.FilePolarity,Positive*
%FSLAX46Y46*%
G04 Gerber Fmt 4.6, Leading zero omitted, Abs format (unit mm)*
G04 Created by KiCad (PCBNEW (5.1.4)-1) date 2020-10-27 13:41:20*
%MOMM*%
%LPD*%
G04 APERTURE LIST*
%ADD10C,0.150000*%
%ADD11C,0.010000*%
%ADD12C,0.120000*%
G04 APERTURE END LIST*
D10*
X115030784Y-82677260D02*
X114554594Y-82677260D01*
X114554594Y-81677260D01*
X115364118Y-82153451D02*
X115697451Y-82153451D01*
X115840308Y-82677260D02*
X115364118Y-82677260D01*
X115364118Y-81677260D01*
X115840308Y-81677260D01*
X116268880Y-82677260D02*
X116268880Y-81677260D01*
X116506975Y-81677260D01*
X116649832Y-81724880D01*
X116745070Y-81820118D01*
X116792689Y-81915356D01*
X116840308Y-82105832D01*
X116840308Y-82248689D01*
X116792689Y-82439165D01*
X116745070Y-82534403D01*
X116649832Y-82629641D01*
X116506975Y-82677260D01*
X116268880Y-82677260D01*
X117268880Y-82296308D02*
X118030784Y-82296308D01*
X118459356Y-81772499D02*
X118506975Y-81724880D01*
X118602213Y-81677260D01*
X118840308Y-81677260D01*
X118935546Y-81724880D01*
X118983165Y-81772499D01*
X119030784Y-81867737D01*
X119030784Y-81962975D01*
X118983165Y-82105832D01*
X118411737Y-82677260D01*
X119030784Y-82677260D01*
X81986215Y-72225280D02*
X81890977Y-72177660D01*
X81748120Y-72177660D01*
X81605262Y-72225280D01*
X81510024Y-72320518D01*
X81462405Y-72415756D01*
X81414786Y-72606232D01*
X81414786Y-72749089D01*
X81462405Y-72939565D01*
X81510024Y-73034803D01*
X81605262Y-73130041D01*
X81748120Y-73177660D01*
X81843358Y-73177660D01*
X81986215Y-73130041D01*
X82033834Y-73082422D01*
X82033834Y-72749089D01*
X81843358Y-72749089D01*
X82462405Y-73177660D02*
X82462405Y-72177660D01*
X83033834Y-73177660D01*
X83033834Y-72177660D01*
X83510024Y-73177660D02*
X83510024Y-72177660D01*
X83748120Y-72177660D01*
X83890977Y-72225280D01*
X83986215Y-72320518D01*
X84033834Y-72415756D01*
X84081453Y-72606232D01*
X84081453Y-72749089D01*
X84033834Y-72939565D01*
X83986215Y-73034803D01*
X83890977Y-73130041D01*
X83748120Y-73177660D01*
X83510024Y-73177660D01*
X81653546Y-63470540D02*
X81986880Y-64470540D01*
X82320213Y-63470540D01*
X83224975Y-64375302D02*
X83177356Y-64422921D01*
X83034499Y-64470540D01*
X82939260Y-64470540D01*
X82796403Y-64422921D01*
X82701165Y-64327683D01*
X82653546Y-64232445D01*
X82605927Y-64041969D01*
X82605927Y-63899112D01*
X82653546Y-63708636D01*
X82701165Y-63613398D01*
X82796403Y-63518160D01*
X82939260Y-63470540D01*
X83034499Y-63470540D01*
X83177356Y-63518160D01*
X83224975Y-63565779D01*
X84224975Y-64375302D02*
X84177356Y-64422921D01*
X84034499Y-64470540D01*
X83939260Y-64470540D01*
X83796403Y-64422921D01*
X83701165Y-64327683D01*
X83653546Y-64232445D01*
X83605927Y-64041969D01*
X83605927Y-63899112D01*
X83653546Y-63708636D01*
X83701165Y-63613398D01*
X83796403Y-63518160D01*
X83939260Y-63470540D01*
X84034499Y-63470540D01*
X84177356Y-63518160D01*
X84224975Y-63565779D01*
X85879489Y-81082900D02*
X86498537Y-81082900D01*
X86165203Y-81463853D01*
X86308060Y-81463853D01*
X86403299Y-81511472D01*
X86450918Y-81559091D01*
X86498537Y-81654329D01*
X86498537Y-81892424D01*
X86450918Y-81987662D01*
X86403299Y-82035281D01*
X86308060Y-82082900D01*
X86022346Y-82082900D01*
X85927108Y-82035281D01*
X85879489Y-81987662D01*
X86927108Y-81987662D02*
X86974727Y-82035281D01*
X86927108Y-82082900D01*
X86879489Y-82035281D01*
X86927108Y-81987662D01*
X86927108Y-82082900D01*
X87308060Y-81082900D02*
X87927108Y-81082900D01*
X87593775Y-81463853D01*
X87736632Y-81463853D01*
X87831870Y-81511472D01*
X87879489Y-81559091D01*
X87927108Y-81654329D01*
X87927108Y-81892424D01*
X87879489Y-81987662D01*
X87831870Y-82035281D01*
X87736632Y-82082900D01*
X87450918Y-82082900D01*
X87355680Y-82035281D01*
X87308060Y-81987662D01*
X88212822Y-81082900D02*
X88546156Y-82082900D01*
X88879489Y-81082900D01*
X86238175Y-78336520D02*
X86142937Y-78288900D01*
X86000080Y-78288900D01*
X85857222Y-78336520D01*
X85761984Y-78431758D01*
X85714365Y-78526996D01*
X85666746Y-78717472D01*
X85666746Y-78860329D01*
X85714365Y-79050805D01*
X85761984Y-79146043D01*
X85857222Y-79241281D01*
X86000080Y-79288900D01*
X86095318Y-79288900D01*
X86238175Y-79241281D01*
X86285794Y-79193662D01*
X86285794Y-78860329D01*
X86095318Y-78860329D01*
X86714365Y-79288900D02*
X86714365Y-78288900D01*
X87285794Y-79288900D01*
X87285794Y-78288900D01*
X87761984Y-79288900D02*
X87761984Y-78288900D01*
X88000080Y-78288900D01*
X88142937Y-78336520D01*
X88238175Y-78431758D01*
X88285794Y-78526996D01*
X88333413Y-78717472D01*
X88333413Y-78860329D01*
X88285794Y-79050805D01*
X88238175Y-79146043D01*
X88142937Y-79241281D01*
X88000080Y-79288900D01*
X87761984Y-79288900D01*
X79452220Y-69126289D02*
X80452220Y-68792956D01*
X79452220Y-68459622D01*
X80452220Y-68126289D02*
X79785554Y-68126289D01*
X79452220Y-68126289D02*
X79499840Y-68173908D01*
X79547459Y-68126289D01*
X79499840Y-68078670D01*
X79452220Y-68126289D01*
X79547459Y-68126289D01*
X79785554Y-67650099D02*
X80452220Y-67650099D01*
X79880792Y-67650099D02*
X79833173Y-67602480D01*
X79785554Y-67507241D01*
X79785554Y-67364384D01*
X79833173Y-67269146D01*
X79928411Y-67221527D01*
X80452220Y-67221527D01*
X80746860Y-82903723D02*
X79746860Y-82903723D01*
X79746860Y-82522771D01*
X79794480Y-82427533D01*
X79842099Y-82379914D01*
X79937337Y-82332295D01*
X80080194Y-82332295D01*
X80175432Y-82379914D01*
X80223051Y-82427533D01*
X80270670Y-82522771D01*
X80270670Y-82903723D01*
X79746860Y-81713247D02*
X79746860Y-81522771D01*
X79794480Y-81427533D01*
X79889718Y-81332295D01*
X80080194Y-81284676D01*
X80413527Y-81284676D01*
X80604003Y-81332295D01*
X80699241Y-81427533D01*
X80746860Y-81522771D01*
X80746860Y-81713247D01*
X80699241Y-81808485D01*
X80604003Y-81903723D01*
X80413527Y-81951342D01*
X80080194Y-81951342D01*
X79889718Y-81903723D01*
X79794480Y-81808485D01*
X79746860Y-81713247D01*
X79746860Y-80951342D02*
X80746860Y-80713247D01*
X80032575Y-80522771D01*
X80746860Y-80332295D01*
X79746860Y-80094200D01*
X80223051Y-79713247D02*
X80223051Y-79379914D01*
X80746860Y-79237057D02*
X80746860Y-79713247D01*
X79746860Y-79713247D01*
X79746860Y-79237057D01*
X80746860Y-78237057D02*
X80270670Y-78570390D01*
X80746860Y-78808485D02*
X79746860Y-78808485D01*
X79746860Y-78427533D01*
X79794480Y-78332295D01*
X79842099Y-78284676D01*
X79937337Y-78237057D01*
X80080194Y-78237057D01*
X80175432Y-78284676D01*
X80223051Y-78332295D01*
X80270670Y-78427533D01*
X80270670Y-78808485D01*
X116707350Y-69809620D02*
X116707350Y-68809620D01*
X117374017Y-68809620D02*
X117564493Y-68809620D01*
X117659731Y-68857240D01*
X117754969Y-68952478D01*
X117802588Y-69142954D01*
X117802588Y-69476287D01*
X117754969Y-69666763D01*
X117659731Y-69762001D01*
X117564493Y-69809620D01*
X117374017Y-69809620D01*
X117278779Y-69762001D01*
X117183540Y-69666763D01*
X117135921Y-69476287D01*
X117135921Y-69142954D01*
X117183540Y-68952478D01*
X117278779Y-68857240D01*
X117374017Y-68809620D01*
X106707156Y-93265358D02*
X106564299Y-93217739D01*
X106326203Y-93217739D01*
X106230965Y-93265358D01*
X106183346Y-93312977D01*
X106135727Y-93408215D01*
X106135727Y-93503453D01*
X106183346Y-93598691D01*
X106230965Y-93646310D01*
X106326203Y-93693929D01*
X106516680Y-93741548D01*
X106611918Y-93789167D01*
X106659537Y-93836786D01*
X106707156Y-93932024D01*
X106707156Y-94027262D01*
X106659537Y-94122500D01*
X106611918Y-94170120D01*
X106516680Y-94217739D01*
X106278584Y-94217739D01*
X106135727Y-94170120D01*
X105135727Y-93312977D02*
X105183346Y-93265358D01*
X105326203Y-93217739D01*
X105421441Y-93217739D01*
X105564299Y-93265358D01*
X105659537Y-93360596D01*
X105707156Y-93455834D01*
X105754775Y-93646310D01*
X105754775Y-93789167D01*
X105707156Y-93979643D01*
X105659537Y-94074881D01*
X105564299Y-94170120D01*
X105421441Y-94217739D01*
X105326203Y-94217739D01*
X105183346Y-94170120D01*
X105135727Y-94122500D01*
X104230965Y-93217739D02*
X104707156Y-93217739D01*
X104707156Y-94217739D01*
X110329148Y-93146619D02*
X110329148Y-94146619D01*
X109995815Y-93432333D01*
X109662481Y-94146619D01*
X109662481Y-93146619D01*
X109186291Y-93146619D02*
X109186291Y-94146619D01*
X108757720Y-93194238D02*
X108614862Y-93146619D01*
X108376767Y-93146619D01*
X108281529Y-93194238D01*
X108233910Y-93241857D01*
X108186291Y-93337095D01*
X108186291Y-93432333D01*
X108233910Y-93527571D01*
X108281529Y-93575190D01*
X108376767Y-93622809D01*
X108567243Y-93670428D01*
X108662481Y-93718047D01*
X108710100Y-93765666D01*
X108757720Y-93860904D01*
X108757720Y-93956142D01*
X108710100Y-94051380D01*
X108662481Y-94099000D01*
X108567243Y-94146619D01*
X108329148Y-94146619D01*
X108186291Y-94099000D01*
X107567243Y-94146619D02*
X107376767Y-94146619D01*
X107281529Y-94099000D01*
X107186291Y-94003761D01*
X107138672Y-93813285D01*
X107138672Y-93479952D01*
X107186291Y-93289476D01*
X107281529Y-93194238D01*
X107376767Y-93146619D01*
X107567243Y-93146619D01*
X107662481Y-93194238D01*
X107757720Y-93289476D01*
X107805339Y-93479952D01*
X107805339Y-93813285D01*
X107757720Y-94003761D01*
X107662481Y-94099000D01*
X107567243Y-94146619D01*
X114057868Y-93105979D02*
X114057868Y-94105979D01*
X113724535Y-93391693D01*
X113391201Y-94105979D01*
X113391201Y-93105979D01*
X112724535Y-94105979D02*
X112534059Y-94105979D01*
X112438820Y-94058360D01*
X112343582Y-93963121D01*
X112295963Y-93772645D01*
X112295963Y-93439312D01*
X112343582Y-93248836D01*
X112438820Y-93153598D01*
X112534059Y-93105979D01*
X112724535Y-93105979D01*
X112819773Y-93153598D01*
X112915011Y-93248836D01*
X112962630Y-93439312D01*
X112962630Y-93772645D01*
X112915011Y-93963121D01*
X112819773Y-94058360D01*
X112724535Y-94105979D01*
X111915011Y-93153598D02*
X111772154Y-93105979D01*
X111534059Y-93105979D01*
X111438820Y-93153598D01*
X111391201Y-93201217D01*
X111343582Y-93296455D01*
X111343582Y-93391693D01*
X111391201Y-93486931D01*
X111438820Y-93534550D01*
X111534059Y-93582169D01*
X111724535Y-93629788D01*
X111819773Y-93677407D01*
X111867392Y-93725026D01*
X111915011Y-93820264D01*
X111915011Y-93915502D01*
X111867392Y-94010740D01*
X111819773Y-94058360D01*
X111724535Y-94105979D01*
X111486440Y-94105979D01*
X111343582Y-94058360D01*
X110915011Y-93105979D02*
X110915011Y-94105979D01*
X101813455Y-94003761D02*
X101956312Y-94051380D01*
X102194407Y-94051380D01*
X102289645Y-94003761D01*
X102337264Y-93956142D01*
X102384883Y-93860904D01*
X102384883Y-93765666D01*
X102337264Y-93670428D01*
X102289645Y-93622809D01*
X102194407Y-93575190D01*
X102003931Y-93527571D01*
X101908693Y-93479952D01*
X101861074Y-93432333D01*
X101813455Y-93337095D01*
X101813455Y-93241857D01*
X101861074Y-93146619D01*
X101908693Y-93099000D01*
X102003931Y-93051380D01*
X102242026Y-93051380D01*
X102384883Y-93099000D01*
X102765836Y-94003761D02*
X102908693Y-94051380D01*
X103146788Y-94051380D01*
X103242026Y-94003761D01*
X103289645Y-93956142D01*
X103337264Y-93860904D01*
X103337264Y-93765666D01*
X103289645Y-93670428D01*
X103242026Y-93622809D01*
X103146788Y-93575190D01*
X102956312Y-93527571D01*
X102861074Y-93479952D01*
X102813455Y-93432333D01*
X102765836Y-93337095D01*
X102765836Y-93241857D01*
X102813455Y-93146619D01*
X102861074Y-93099000D01*
X102956312Y-93051380D01*
X103194407Y-93051380D01*
X103337264Y-93099000D01*
X107510769Y-98650158D02*
X107367912Y-98602539D01*
X107129817Y-98602539D01*
X107034579Y-98650158D01*
X106986960Y-98697777D01*
X106939340Y-98793015D01*
X106939340Y-98888253D01*
X106986960Y-98983491D01*
X107034579Y-99031110D01*
X107129817Y-99078729D01*
X107320293Y-99126348D01*
X107415531Y-99173967D01*
X107463150Y-99221586D01*
X107510769Y-99316824D01*
X107510769Y-99412062D01*
X107463150Y-99507300D01*
X107415531Y-99554920D01*
X107320293Y-99602539D01*
X107082198Y-99602539D01*
X106939340Y-99554920D01*
X106510769Y-98602539D02*
X106510769Y-99602539D01*
X106129817Y-99602539D01*
X106034579Y-99554920D01*
X105986960Y-99507300D01*
X105939340Y-99412062D01*
X105939340Y-99269205D01*
X105986960Y-99173967D01*
X106034579Y-99126348D01*
X106129817Y-99078729D01*
X106510769Y-99078729D01*
X105510769Y-98602539D02*
X105510769Y-99602539D01*
X120548139Y-77486213D02*
X121024329Y-77152880D01*
X120548139Y-76914784D02*
X121548139Y-76914784D01*
X121548139Y-77295737D01*
X121500520Y-77390975D01*
X121452900Y-77438594D01*
X121357662Y-77486213D01*
X121214805Y-77486213D01*
X121119567Y-77438594D01*
X121071948Y-77390975D01*
X121024329Y-77295737D01*
X121024329Y-76914784D01*
X121548139Y-77819546D02*
X120548139Y-78486213D01*
X121548139Y-78486213D02*
X120548139Y-77819546D01*
X121466859Y-80203135D02*
X121466859Y-80774563D01*
X120466859Y-80488849D02*
X121466859Y-80488849D01*
X121466859Y-81012659D02*
X120466859Y-81679325D01*
X121466859Y-81679325D02*
X120466859Y-81012659D01*
X127120899Y-77445811D02*
X126311375Y-77445811D01*
X126216137Y-77493430D01*
X126168518Y-77541049D01*
X126120899Y-77636287D01*
X126120899Y-77826763D01*
X126168518Y-77922001D01*
X126216137Y-77969620D01*
X126311375Y-78017240D01*
X127120899Y-78017240D01*
X126168518Y-78445811D02*
X126120899Y-78588668D01*
X126120899Y-78826763D01*
X126168518Y-78922001D01*
X126216137Y-78969620D01*
X126311375Y-79017240D01*
X126406613Y-79017240D01*
X126501851Y-78969620D01*
X126549470Y-78922001D01*
X126597089Y-78826763D01*
X126644708Y-78636287D01*
X126692327Y-78541049D01*
X126739946Y-78493430D01*
X126835184Y-78445811D01*
X126930422Y-78445811D01*
X127025660Y-78493430D01*
X127073280Y-78541049D01*
X127120899Y-78636287D01*
X127120899Y-78874382D01*
X127073280Y-79017240D01*
X126406613Y-79398192D02*
X126406613Y-79874382D01*
X126120899Y-79302954D02*
X127120899Y-79636287D01*
X126120899Y-79969620D01*
X126120899Y-80874382D02*
X126597089Y-80541049D01*
X126120899Y-80302954D02*
X127120899Y-80302954D01*
X127120899Y-80683906D01*
X127073280Y-80779144D01*
X127025660Y-80826763D01*
X126930422Y-80874382D01*
X126787565Y-80874382D01*
X126692327Y-80826763D01*
X126644708Y-80779144D01*
X126597089Y-80683906D01*
X126597089Y-80302954D01*
X127120899Y-81160097D02*
X127120899Y-81731525D01*
X126120899Y-81445811D02*
X127120899Y-81445811D01*
X121768977Y-62685561D02*
X121911834Y-62733180D01*
X122149929Y-62733180D01*
X122245167Y-62685561D01*
X122292786Y-62637942D01*
X122340405Y-62542704D01*
X122340405Y-62447466D01*
X122292786Y-62352228D01*
X122245167Y-62304609D01*
X122149929Y-62256990D01*
X121959453Y-62209371D01*
X121864215Y-62161752D01*
X121816596Y-62114133D01*
X121768977Y-62018895D01*
X121768977Y-61923657D01*
X121816596Y-61828419D01*
X121864215Y-61780800D01*
X121959453Y-61733180D01*
X122197548Y-61733180D01*
X122340405Y-61780800D01*
X122673739Y-61733180D02*
X122911834Y-62733180D01*
X123102310Y-62018895D01*
X123292786Y-62733180D01*
X123530881Y-61733180D01*
X108904874Y-58667281D02*
X109047731Y-58714900D01*
X109285826Y-58714900D01*
X109381064Y-58667281D01*
X109428683Y-58619662D01*
X109476302Y-58524424D01*
X109476302Y-58429186D01*
X109428683Y-58333948D01*
X109381064Y-58286329D01*
X109285826Y-58238710D01*
X109095350Y-58191091D01*
X109000112Y-58143472D01*
X108952493Y-58095853D01*
X108904874Y-58000615D01*
X108904874Y-57905377D01*
X108952493Y-57810139D01*
X109000112Y-57762520D01*
X109095350Y-57714900D01*
X109333445Y-57714900D01*
X109476302Y-57762520D01*
X109904874Y-58714900D02*
X109904874Y-57714900D01*
X110142969Y-57714900D01*
X110285826Y-57762520D01*
X110381064Y-57857758D01*
X110428683Y-57952996D01*
X110476302Y-58143472D01*
X110476302Y-58286329D01*
X110428683Y-58476805D01*
X110381064Y-58572043D01*
X110285826Y-58667281D01*
X110142969Y-58714900D01*
X109904874Y-58714900D01*
X110857255Y-58429186D02*
X111333445Y-58429186D01*
X110762017Y-58714900D02*
X111095350Y-57714900D01*
X111428683Y-58714900D01*
X115086521Y-58619662D02*
X115038902Y-58667281D01*
X114896045Y-58714900D01*
X114800807Y-58714900D01*
X114657950Y-58667281D01*
X114562712Y-58572043D01*
X114515093Y-58476805D01*
X114467474Y-58286329D01*
X114467474Y-58143472D01*
X114515093Y-57952996D01*
X114562712Y-57857758D01*
X114657950Y-57762520D01*
X114800807Y-57714900D01*
X114896045Y-57714900D01*
X115038902Y-57762520D01*
X115086521Y-57810139D01*
X115991283Y-58714900D02*
X115515093Y-58714900D01*
X115515093Y-57714900D01*
X116324617Y-58714900D02*
X116324617Y-57714900D01*
X116896045Y-58714900D02*
X116467474Y-58143472D01*
X116896045Y-57714900D02*
X116324617Y-58286329D01*
X112033489Y-53467260D02*
X112033489Y-52467260D01*
X112462060Y-52562499D02*
X112509680Y-52514880D01*
X112604918Y-52467260D01*
X112843013Y-52467260D01*
X112938251Y-52514880D01*
X112985870Y-52562499D01*
X113033489Y-52657737D01*
X113033489Y-52752975D01*
X112985870Y-52895832D01*
X112414441Y-53467260D01*
X113033489Y-53467260D01*
X114033489Y-53372022D02*
X113985870Y-53419641D01*
X113843013Y-53467260D01*
X113747775Y-53467260D01*
X113604918Y-53419641D01*
X113509680Y-53324403D01*
X113462060Y-53229165D01*
X113414441Y-53038689D01*
X113414441Y-52895832D01*
X113462060Y-52705356D01*
X113509680Y-52610118D01*
X113604918Y-52514880D01*
X113747775Y-52467260D01*
X113843013Y-52467260D01*
X113985870Y-52514880D01*
X114033489Y-52562499D01*
D11*
G36*
X96765604Y-91748714D02*
G01*
X96845217Y-91758296D01*
X96846571Y-91759879D01*
X96824810Y-91810933D01*
X96765392Y-91939459D01*
X96677111Y-92126670D01*
X96568765Y-92353783D01*
X96556286Y-92379799D01*
X96446306Y-92610085D01*
X96355445Y-92802489D01*
X96292500Y-92938228D01*
X96266267Y-92998516D01*
X96266000Y-92999720D01*
X96327091Y-93011995D01*
X96411143Y-93014800D01*
X96495021Y-93002672D01*
X96538716Y-92950239D01*
X96554738Y-92833421D01*
X96556286Y-92735400D01*
X96556286Y-92456000D01*
X97064286Y-92456000D01*
X97064286Y-92735400D01*
X97074059Y-92903894D01*
X97108351Y-92990643D01*
X97173143Y-93014800D01*
X97260694Y-93058960D01*
X97282000Y-93141800D01*
X97244148Y-93243943D01*
X97173143Y-93268800D01*
X97092630Y-93307355D01*
X97064482Y-93430406D01*
X97064286Y-93446600D01*
X97053051Y-93565767D01*
X96989669Y-93614638D01*
X96829619Y-93624377D01*
X96810286Y-93624400D01*
X96640047Y-93616536D01*
X96570231Y-93572168D01*
X96556317Y-93460133D01*
X96556286Y-93446600D01*
X96556286Y-93268800D01*
X96120857Y-93268800D01*
X95866499Y-93262691D01*
X95730236Y-93241371D01*
X95685832Y-93200352D01*
X95685429Y-93194304D01*
X95707941Y-93121314D01*
X95769765Y-92971905D01*
X95862332Y-92765573D01*
X95977073Y-92521810D01*
X96020376Y-92432304D01*
X96355323Y-91744799D01*
X96600947Y-91744799D01*
X96765604Y-91748714D01*
X96765604Y-91748714D01*
G37*
X96765604Y-91748714D02*
X96845217Y-91758296D01*
X96846571Y-91759879D01*
X96824810Y-91810933D01*
X96765392Y-91939459D01*
X96677111Y-92126670D01*
X96568765Y-92353783D01*
X96556286Y-92379799D01*
X96446306Y-92610085D01*
X96355445Y-92802489D01*
X96292500Y-92938228D01*
X96266267Y-92998516D01*
X96266000Y-92999720D01*
X96327091Y-93011995D01*
X96411143Y-93014800D01*
X96495021Y-93002672D01*
X96538716Y-92950239D01*
X96554738Y-92833421D01*
X96556286Y-92735400D01*
X96556286Y-92456000D01*
X97064286Y-92456000D01*
X97064286Y-92735400D01*
X97074059Y-92903894D01*
X97108351Y-92990643D01*
X97173143Y-93014800D01*
X97260694Y-93058960D01*
X97282000Y-93141800D01*
X97244148Y-93243943D01*
X97173143Y-93268800D01*
X97092630Y-93307355D01*
X97064482Y-93430406D01*
X97064286Y-93446600D01*
X97053051Y-93565767D01*
X96989669Y-93614638D01*
X96829619Y-93624377D01*
X96810286Y-93624400D01*
X96640047Y-93616536D01*
X96570231Y-93572168D01*
X96556317Y-93460133D01*
X96556286Y-93446600D01*
X96556286Y-93268800D01*
X96120857Y-93268800D01*
X95866499Y-93262691D01*
X95730236Y-93241371D01*
X95685832Y-93200352D01*
X95685429Y-93194304D01*
X95707941Y-93121314D01*
X95769765Y-92971905D01*
X95862332Y-92765573D01*
X95977073Y-92521810D01*
X96020376Y-92432304D01*
X96355323Y-91744799D01*
X96600947Y-91744799D01*
X96765604Y-91748714D01*
G36*
X95439854Y-91745966D02*
G01*
X95622159Y-91753408D01*
X95716794Y-91773043D01*
X95752496Y-91810786D01*
X95758000Y-91871800D01*
X95746235Y-91947173D01*
X95686197Y-91984775D01*
X95540766Y-91997596D01*
X95395143Y-91998800D01*
X95032286Y-91998800D01*
X95032286Y-92557600D01*
X95322571Y-92557600D01*
X95509597Y-92564531D01*
X95592724Y-92597228D01*
X95612753Y-92673540D01*
X95612857Y-92684600D01*
X95597013Y-92766423D01*
X95522278Y-92802791D01*
X95347851Y-92811554D01*
X95322571Y-92811600D01*
X95032286Y-92811600D01*
X95032286Y-93624400D01*
X94524286Y-93624400D01*
X94524286Y-91744800D01*
X95141143Y-91744800D01*
X95439854Y-91745966D01*
X95439854Y-91745966D01*
G37*
X95439854Y-91745966D02*
X95622159Y-91753408D01*
X95716794Y-91773043D01*
X95752496Y-91810786D01*
X95758000Y-91871800D01*
X95746235Y-91947173D01*
X95686197Y-91984775D01*
X95540766Y-91997596D01*
X95395143Y-91998800D01*
X95032286Y-91998800D01*
X95032286Y-92557600D01*
X95322571Y-92557600D01*
X95509597Y-92564531D01*
X95592724Y-92597228D01*
X95612753Y-92673540D01*
X95612857Y-92684600D01*
X95597013Y-92766423D01*
X95522278Y-92802791D01*
X95347851Y-92811554D01*
X95322571Y-92811600D01*
X95032286Y-92811600D01*
X95032286Y-93624400D01*
X94524286Y-93624400D01*
X94524286Y-91744800D01*
X95141143Y-91744800D01*
X95439854Y-91745966D01*
G36*
X93773549Y-91755276D02*
G01*
X94342857Y-91770200D01*
X94362156Y-92075000D01*
X94366090Y-92215930D01*
X94349024Y-92331539D01*
X94298485Y-92447926D01*
X94201996Y-92591191D01*
X94047086Y-92787435D01*
X93985833Y-92862400D01*
X93590210Y-93345000D01*
X93984676Y-93360235D01*
X94212081Y-93372951D01*
X94329880Y-93396774D01*
X94373596Y-93444283D01*
X94379143Y-93499935D01*
X94373951Y-93557597D01*
X94340255Y-93593964D01*
X94250868Y-93613943D01*
X94078607Y-93622443D01*
X93796288Y-93624369D01*
X93689714Y-93624400D01*
X93368816Y-93622740D01*
X93166232Y-93615225D01*
X93055166Y-93598056D01*
X93008818Y-93567429D01*
X93000286Y-93526605D01*
X93034838Y-93445928D01*
X93128886Y-93298818D01*
X93268016Y-93106285D01*
X93435714Y-92891925D01*
X93679376Y-92570699D01*
X93828404Y-92323445D01*
X93883540Y-92147554D01*
X93845527Y-92040413D01*
X93715109Y-91999411D01*
X93689714Y-91998800D01*
X93560052Y-92015202D01*
X93512618Y-92084927D01*
X93508286Y-92151200D01*
X93494126Y-92253591D01*
X93422306Y-92295588D01*
X93254286Y-92303600D01*
X93096694Y-92298439D01*
X93023129Y-92264271D01*
X93001573Y-92173064D01*
X93000286Y-92081220D01*
X93015777Y-91927414D01*
X93078541Y-91828273D01*
X93213010Y-91773498D01*
X93443620Y-91752789D01*
X93773549Y-91755276D01*
X93773549Y-91755276D01*
G37*
X93773549Y-91755276D02*
X94342857Y-91770200D01*
X94362156Y-92075000D01*
X94366090Y-92215930D01*
X94349024Y-92331539D01*
X94298485Y-92447926D01*
X94201996Y-92591191D01*
X94047086Y-92787435D01*
X93985833Y-92862400D01*
X93590210Y-93345000D01*
X93984676Y-93360235D01*
X94212081Y-93372951D01*
X94329880Y-93396774D01*
X94373596Y-93444283D01*
X94379143Y-93499935D01*
X94373951Y-93557597D01*
X94340255Y-93593964D01*
X94250868Y-93613943D01*
X94078607Y-93622443D01*
X93796288Y-93624369D01*
X93689714Y-93624400D01*
X93368816Y-93622740D01*
X93166232Y-93615225D01*
X93055166Y-93598056D01*
X93008818Y-93567429D01*
X93000286Y-93526605D01*
X93034838Y-93445928D01*
X93128886Y-93298818D01*
X93268016Y-93106285D01*
X93435714Y-92891925D01*
X93679376Y-92570699D01*
X93828404Y-92323445D01*
X93883540Y-92147554D01*
X93845527Y-92040413D01*
X93715109Y-91999411D01*
X93689714Y-91998800D01*
X93560052Y-92015202D01*
X93512618Y-92084927D01*
X93508286Y-92151200D01*
X93494126Y-92253591D01*
X93422306Y-92295588D01*
X93254286Y-92303600D01*
X93096694Y-92298439D01*
X93023129Y-92264271D01*
X93001573Y-92173064D01*
X93000286Y-92081220D01*
X93015777Y-91927414D01*
X93078541Y-91828273D01*
X93213010Y-91773498D01*
X93443620Y-91752789D01*
X93773549Y-91755276D01*
G36*
X92249549Y-91755276D02*
G01*
X92818857Y-91770200D01*
X92840229Y-92110447D01*
X92847430Y-92294714D01*
X92832534Y-92406588D01*
X92784150Y-92475003D01*
X92690892Y-92528888D01*
X92672076Y-92537622D01*
X92482551Y-92624549D01*
X92672524Y-92730774D01*
X92769564Y-92792318D01*
X92824336Y-92859804D01*
X92846471Y-92961137D01*
X92845598Y-93124220D01*
X92840677Y-93218000D01*
X92818857Y-93599000D01*
X92237315Y-93613560D01*
X91870250Y-93613726D01*
X91642413Y-93592188D01*
X91566029Y-93565300D01*
X91512647Y-93479783D01*
X91480511Y-93335386D01*
X91476286Y-93258640D01*
X91476286Y-93014800D01*
X91730286Y-93014800D01*
X91900524Y-93022663D01*
X91970341Y-93067031D01*
X91984254Y-93179066D01*
X91984286Y-93192600D01*
X91997841Y-93312838D01*
X92058840Y-93362062D01*
X92165714Y-93370400D01*
X92276087Y-93361399D01*
X92329409Y-93316553D01*
X92346120Y-93209091D01*
X92347143Y-93132799D01*
X92331851Y-92972164D01*
X92266427Y-92864786D01*
X92121550Y-92763374D01*
X92116134Y-92760200D01*
X91885125Y-92625202D01*
X92116134Y-92505647D01*
X92276530Y-92401454D01*
X92339942Y-92284016D01*
X92347143Y-92192446D01*
X92336056Y-92065477D01*
X92284635Y-92010620D01*
X92165714Y-91998800D01*
X92036052Y-92015202D01*
X91988618Y-92084927D01*
X91984286Y-92151200D01*
X91970126Y-92253591D01*
X91898306Y-92295588D01*
X91730286Y-92303600D01*
X91572694Y-92298439D01*
X91499129Y-92264271D01*
X91477573Y-92173064D01*
X91476286Y-92081220D01*
X91491777Y-91927414D01*
X91554541Y-91828273D01*
X91689010Y-91773498D01*
X91919620Y-91752789D01*
X92249549Y-91755276D01*
X92249549Y-91755276D01*
G37*
X92249549Y-91755276D02*
X92818857Y-91770200D01*
X92840229Y-92110447D01*
X92847430Y-92294714D01*
X92832534Y-92406588D01*
X92784150Y-92475003D01*
X92690892Y-92528888D01*
X92672076Y-92537622D01*
X92482551Y-92624549D01*
X92672524Y-92730774D01*
X92769564Y-92792318D01*
X92824336Y-92859804D01*
X92846471Y-92961137D01*
X92845598Y-93124220D01*
X92840677Y-93218000D01*
X92818857Y-93599000D01*
X92237315Y-93613560D01*
X91870250Y-93613726D01*
X91642413Y-93592188D01*
X91566029Y-93565300D01*
X91512647Y-93479783D01*
X91480511Y-93335386D01*
X91476286Y-93258640D01*
X91476286Y-93014800D01*
X91730286Y-93014800D01*
X91900524Y-93022663D01*
X91970341Y-93067031D01*
X91984254Y-93179066D01*
X91984286Y-93192600D01*
X91997841Y-93312838D01*
X92058840Y-93362062D01*
X92165714Y-93370400D01*
X92276087Y-93361399D01*
X92329409Y-93316553D01*
X92346120Y-93209091D01*
X92347143Y-93132799D01*
X92331851Y-92972164D01*
X92266427Y-92864786D01*
X92121550Y-92763374D01*
X92116134Y-92760200D01*
X91885125Y-92625202D01*
X92116134Y-92505647D01*
X92276530Y-92401454D01*
X92339942Y-92284016D01*
X92347143Y-92192446D01*
X92336056Y-92065477D01*
X92284635Y-92010620D01*
X92165714Y-91998800D01*
X92036052Y-92015202D01*
X91988618Y-92084927D01*
X91984286Y-92151200D01*
X91970126Y-92253591D01*
X91898306Y-92295588D01*
X91730286Y-92303600D01*
X91572694Y-92298439D01*
X91499129Y-92264271D01*
X91477573Y-92173064D01*
X91476286Y-92081220D01*
X91491777Y-91927414D01*
X91554541Y-91828273D01*
X91689010Y-91773498D01*
X91919620Y-91752789D01*
X92249549Y-91755276D01*
G36*
X90328689Y-92212703D02*
G01*
X90507574Y-92680606D01*
X90856362Y-91744800D01*
X91331143Y-91744800D01*
X91331143Y-93624400D01*
X90823143Y-93624400D01*
X90814428Y-93306900D01*
X90805712Y-92989400D01*
X90731545Y-93205300D01*
X90668060Y-93345580D01*
X90588141Y-93409109D01*
X90496571Y-93421200D01*
X90385033Y-93400664D01*
X90310921Y-93322665D01*
X90261598Y-93205300D01*
X90187430Y-92989400D01*
X90170000Y-93624400D01*
X89662000Y-93624400D01*
X89662000Y-91998800D01*
X89226571Y-91998800D01*
X89226571Y-93624400D01*
X88718571Y-93624400D01*
X88718571Y-91998800D01*
X88537143Y-91998800D01*
X88399038Y-91977818D01*
X88356480Y-91895204D01*
X88355714Y-91871800D01*
X88355714Y-91744800D01*
X89252759Y-91744799D01*
X90149805Y-91744799D01*
X90328689Y-92212703D01*
X90328689Y-92212703D01*
G37*
X90328689Y-92212703D02*
X90507574Y-92680606D01*
X90856362Y-91744800D01*
X91331143Y-91744800D01*
X91331143Y-93624400D01*
X90823143Y-93624400D01*
X90814428Y-93306900D01*
X90805712Y-92989400D01*
X90731545Y-93205300D01*
X90668060Y-93345580D01*
X90588141Y-93409109D01*
X90496571Y-93421200D01*
X90385033Y-93400664D01*
X90310921Y-93322665D01*
X90261598Y-93205300D01*
X90187430Y-92989400D01*
X90170000Y-93624400D01*
X89662000Y-93624400D01*
X89662000Y-91998800D01*
X89226571Y-91998800D01*
X89226571Y-93624400D01*
X88718571Y-93624400D01*
X88718571Y-91998800D01*
X88537143Y-91998800D01*
X88399038Y-91977818D01*
X88356480Y-91895204D01*
X88355714Y-91871800D01*
X88355714Y-91744800D01*
X89252759Y-91744799D01*
X90149805Y-91744799D01*
X90328689Y-92212703D01*
G36*
X87677549Y-91755276D02*
G01*
X88246857Y-91770200D01*
X88268622Y-92062300D01*
X88290386Y-92354400D01*
X88032764Y-92354400D01*
X87860925Y-92346840D01*
X87789818Y-92303808D01*
X87775201Y-92194770D01*
X87775143Y-92176600D01*
X87761588Y-92056361D01*
X87700589Y-92007137D01*
X87593714Y-91998800D01*
X87468138Y-92013306D01*
X87418961Y-92077080D01*
X87412286Y-92165490D01*
X87431541Y-92264501D01*
X87503025Y-92365082D01*
X87647310Y-92489299D01*
X87850416Y-92635390D01*
X88288546Y-92938600D01*
X88267701Y-93268800D01*
X88246857Y-93599000D01*
X87665315Y-93613560D01*
X87298250Y-93613726D01*
X87070413Y-93592188D01*
X86994029Y-93565300D01*
X86940647Y-93479783D01*
X86908511Y-93335386D01*
X86904286Y-93258640D01*
X86904286Y-93014800D01*
X87158286Y-93014800D01*
X87328524Y-93022663D01*
X87398341Y-93067031D01*
X87412254Y-93179066D01*
X87412286Y-93192600D01*
X87425841Y-93312838D01*
X87486840Y-93362062D01*
X87593714Y-93370400D01*
X87720924Y-93355159D01*
X87769442Y-93289044D01*
X87775143Y-93209614D01*
X87752337Y-93109449D01*
X87671168Y-93000433D01*
X87512508Y-92861562D01*
X87339714Y-92731411D01*
X87129285Y-92574958D01*
X87000610Y-92463459D01*
X86933607Y-92369473D01*
X86908195Y-92265558D01*
X86904286Y-92136417D01*
X86925110Y-91937178D01*
X86984335Y-91816580D01*
X87006263Y-91799596D01*
X87143117Y-91767828D01*
X87401567Y-91753427D01*
X87677549Y-91755276D01*
X87677549Y-91755276D01*
G37*
X87677549Y-91755276D02*
X88246857Y-91770200D01*
X88268622Y-92062300D01*
X88290386Y-92354400D01*
X88032764Y-92354400D01*
X87860925Y-92346840D01*
X87789818Y-92303808D01*
X87775201Y-92194770D01*
X87775143Y-92176600D01*
X87761588Y-92056361D01*
X87700589Y-92007137D01*
X87593714Y-91998800D01*
X87468138Y-92013306D01*
X87418961Y-92077080D01*
X87412286Y-92165490D01*
X87431541Y-92264501D01*
X87503025Y-92365082D01*
X87647310Y-92489299D01*
X87850416Y-92635390D01*
X88288546Y-92938600D01*
X88267701Y-93268800D01*
X88246857Y-93599000D01*
X87665315Y-93613560D01*
X87298250Y-93613726D01*
X87070413Y-93592188D01*
X86994029Y-93565300D01*
X86940647Y-93479783D01*
X86908511Y-93335386D01*
X86904286Y-93258640D01*
X86904286Y-93014800D01*
X87158286Y-93014800D01*
X87328524Y-93022663D01*
X87398341Y-93067031D01*
X87412254Y-93179066D01*
X87412286Y-93192600D01*
X87425841Y-93312838D01*
X87486840Y-93362062D01*
X87593714Y-93370400D01*
X87720924Y-93355159D01*
X87769442Y-93289044D01*
X87775143Y-93209614D01*
X87752337Y-93109449D01*
X87671168Y-93000433D01*
X87512508Y-92861562D01*
X87339714Y-92731411D01*
X87129285Y-92574958D01*
X87000610Y-92463459D01*
X86933607Y-92369473D01*
X86908195Y-92265558D01*
X86904286Y-92136417D01*
X86925110Y-91937178D01*
X86984335Y-91816580D01*
X87006263Y-91799596D01*
X87143117Y-91767828D01*
X87401567Y-91753427D01*
X87677549Y-91755276D01*
G36*
X98099186Y-94743011D02*
G01*
X98291160Y-94749665D01*
X98393852Y-94767393D01*
X98435192Y-94801627D01*
X98443111Y-94857796D01*
X98443143Y-94869000D01*
X98419711Y-94959763D01*
X98320104Y-94992967D01*
X98225428Y-94996000D01*
X98007714Y-94996000D01*
X98007714Y-96621600D01*
X97499714Y-96621600D01*
X97499714Y-94996000D01*
X97318286Y-94996000D01*
X97180181Y-94975018D01*
X97137623Y-94892404D01*
X97136857Y-94869000D01*
X97142058Y-94808880D01*
X97176280Y-94771552D01*
X97267454Y-94751584D01*
X97443511Y-94743545D01*
X97732380Y-94742006D01*
X97790000Y-94742000D01*
X98099186Y-94743011D01*
X98099186Y-94743011D01*
G37*
X98099186Y-94743011D02*
X98291160Y-94749665D01*
X98393852Y-94767393D01*
X98435192Y-94801627D01*
X98443111Y-94857796D01*
X98443143Y-94869000D01*
X98419711Y-94959763D01*
X98320104Y-94992967D01*
X98225428Y-94996000D01*
X98007714Y-94996000D01*
X98007714Y-96621600D01*
X97499714Y-96621600D01*
X97499714Y-94996000D01*
X97318286Y-94996000D01*
X97180181Y-94975018D01*
X97137623Y-94892404D01*
X97136857Y-94869000D01*
X97142058Y-94808880D01*
X97176280Y-94771552D01*
X97267454Y-94751584D01*
X97443511Y-94743545D01*
X97732380Y-94742006D01*
X97790000Y-94742000D01*
X98099186Y-94743011D01*
G36*
X96193429Y-96367600D02*
G01*
X96556286Y-96367600D01*
X96556286Y-94742000D01*
X97067560Y-94742000D01*
X97028000Y-96596200D01*
X96446457Y-96610760D01*
X96079392Y-96610926D01*
X95851556Y-96589388D01*
X95775172Y-96562500D01*
X95738846Y-96501081D01*
X95712571Y-96369383D01*
X95695531Y-96158830D01*
X95686908Y-95860848D01*
X95685429Y-95620840D01*
X95685429Y-94742000D01*
X96193429Y-94742000D01*
X96193429Y-96367600D01*
X96193429Y-96367600D01*
G37*
X96193429Y-96367600D02*
X96556286Y-96367600D01*
X96556286Y-94742000D01*
X97067560Y-94742000D01*
X97028000Y-96596200D01*
X96446457Y-96610760D01*
X96079392Y-96610926D01*
X95851556Y-96589388D01*
X95775172Y-96562500D01*
X95738846Y-96501081D01*
X95712571Y-96369383D01*
X95695531Y-96158830D01*
X95686908Y-95860848D01*
X95685429Y-95620840D01*
X95685429Y-94742000D01*
X96193429Y-94742000D01*
X96193429Y-96367600D01*
G36*
X95143982Y-94750637D02*
G01*
X95358936Y-94774120D01*
X95453200Y-94802960D01*
X95487939Y-94877294D01*
X95514430Y-95031535D01*
X95532673Y-95244157D01*
X95542668Y-95493630D01*
X95544415Y-95758427D01*
X95537914Y-96017019D01*
X95523164Y-96247879D01*
X95500167Y-96429478D01*
X95468922Y-96540288D01*
X95453200Y-96560639D01*
X95331329Y-96594432D01*
X95113705Y-96614659D01*
X94848420Y-96621321D01*
X94583563Y-96614417D01*
X94367227Y-96593948D01*
X94248514Y-96560640D01*
X94213775Y-96486305D01*
X94187284Y-96332064D01*
X94169041Y-96119442D01*
X94159046Y-95869969D01*
X94157299Y-95605172D01*
X94163800Y-95346580D01*
X94178550Y-95115720D01*
X94193710Y-94996000D01*
X94669428Y-94996000D01*
X94669428Y-96367600D01*
X95032286Y-96367600D01*
X95032286Y-94996000D01*
X94669428Y-94996000D01*
X94193710Y-94996000D01*
X94201547Y-94934121D01*
X94232792Y-94823311D01*
X94248514Y-94802960D01*
X94368976Y-94769740D01*
X94598128Y-94748278D01*
X94850857Y-94742000D01*
X95143982Y-94750637D01*
X95143982Y-94750637D01*
G37*
X95143982Y-94750637D02*
X95358936Y-94774120D01*
X95453200Y-94802960D01*
X95487939Y-94877294D01*
X95514430Y-95031535D01*
X95532673Y-95244157D01*
X95542668Y-95493630D01*
X95544415Y-95758427D01*
X95537914Y-96017019D01*
X95523164Y-96247879D01*
X95500167Y-96429478D01*
X95468922Y-96540288D01*
X95453200Y-96560639D01*
X95331329Y-96594432D01*
X95113705Y-96614659D01*
X94848420Y-96621321D01*
X94583563Y-96614417D01*
X94367227Y-96593948D01*
X94248514Y-96560640D01*
X94213775Y-96486305D01*
X94187284Y-96332064D01*
X94169041Y-96119442D01*
X94159046Y-95869969D01*
X94157299Y-95605172D01*
X94163800Y-95346580D01*
X94178550Y-95115720D01*
X94193710Y-94996000D01*
X94669428Y-94996000D01*
X94669428Y-96367600D01*
X95032286Y-96367600D01*
X95032286Y-94996000D01*
X94669428Y-94996000D01*
X94193710Y-94996000D01*
X94201547Y-94934121D01*
X94232792Y-94823311D01*
X94248514Y-94802960D01*
X94368976Y-94769740D01*
X94598128Y-94748278D01*
X94850857Y-94742000D01*
X95143982Y-94750637D01*
G36*
X93222807Y-95034100D02*
G01*
X93227615Y-95326200D01*
X93382021Y-95034100D01*
X93471622Y-94873344D01*
X93545717Y-94785999D01*
X93637206Y-94749694D01*
X93778988Y-94742056D01*
X93811583Y-94742000D01*
X94086739Y-94742000D01*
X93933125Y-95008700D01*
X93823996Y-95197933D01*
X93717921Y-95381501D01*
X93673267Y-95458610D01*
X93628420Y-95545259D01*
X93612655Y-95623328D01*
X93632417Y-95716114D01*
X93694149Y-95846915D01*
X93804295Y-96039030D01*
X93859442Y-96131710D01*
X94151862Y-96621600D01*
X93875208Y-96621600D01*
X93725680Y-96617334D01*
X93628288Y-96590338D01*
X93552924Y-96519310D01*
X93469479Y-96382951D01*
X93426420Y-96304100D01*
X93254286Y-95986600D01*
X93211074Y-96621600D01*
X92710000Y-96621600D01*
X92710000Y-94742000D01*
X93218000Y-94742000D01*
X93222807Y-95034100D01*
X93222807Y-95034100D01*
G37*
X93222807Y-95034100D02*
X93227615Y-95326200D01*
X93382021Y-95034100D01*
X93471622Y-94873344D01*
X93545717Y-94785999D01*
X93637206Y-94749694D01*
X93778988Y-94742056D01*
X93811583Y-94742000D01*
X94086739Y-94742000D01*
X93933125Y-95008700D01*
X93823996Y-95197933D01*
X93717921Y-95381501D01*
X93673267Y-95458610D01*
X93628420Y-95545259D01*
X93612655Y-95623328D01*
X93632417Y-95716114D01*
X93694149Y-95846915D01*
X93804295Y-96039030D01*
X93859442Y-96131710D01*
X94151862Y-96621600D01*
X93875208Y-96621600D01*
X93725680Y-96617334D01*
X93628288Y-96590338D01*
X93552924Y-96519310D01*
X93469479Y-96382951D01*
X93426420Y-96304100D01*
X93254286Y-95986600D01*
X93211074Y-96621600D01*
X92710000Y-96621600D01*
X92710000Y-94742000D01*
X93218000Y-94742000D01*
X93222807Y-95034100D01*
G36*
X91916184Y-94749081D02*
G01*
X91964244Y-94751633D01*
X92234488Y-94767400D01*
X92431434Y-95580200D01*
X92515657Y-95928223D01*
X92576003Y-96188644D01*
X92611888Y-96374143D01*
X92622728Y-96497402D01*
X92607938Y-96571101D01*
X92566934Y-96607920D01*
X92499131Y-96620541D01*
X92403944Y-96621645D01*
X92383428Y-96621600D01*
X92214323Y-96614008D01*
X92144103Y-96570641D01*
X92129499Y-96460606D01*
X92129428Y-96440266D01*
X92117736Y-96320137D01*
X92065220Y-96274639D01*
X91966143Y-96275166D01*
X91843007Y-96314086D01*
X91787119Y-96416673D01*
X91780116Y-96456500D01*
X91749807Y-96568460D01*
X91669023Y-96613586D01*
X91507973Y-96621600D01*
X91328815Y-96604839D01*
X91258703Y-96560038D01*
X91258621Y-96558100D01*
X91270753Y-96489173D01*
X91304340Y-96337967D01*
X91355222Y-96122207D01*
X91388171Y-95987047D01*
X91858806Y-95987047D01*
X91943982Y-96012000D01*
X92015111Y-95997615D01*
X92039162Y-95938129D01*
X92023419Y-95809040D01*
X92015719Y-95770700D01*
X91974241Y-95599048D01*
X91941079Y-95517827D01*
X91918981Y-95530582D01*
X91910723Y-95635233D01*
X91894478Y-95788570D01*
X91865973Y-95897700D01*
X91858806Y-95987047D01*
X91388171Y-95987047D01*
X91419236Y-95859618D01*
X91476286Y-95631000D01*
X91547322Y-95348239D01*
X91608651Y-95102479D01*
X91656187Y-94910232D01*
X91685843Y-94788009D01*
X91693951Y-94751633D01*
X91757856Y-94745208D01*
X91916184Y-94749081D01*
X91916184Y-94749081D01*
G37*
X91916184Y-94749081D02*
X91964244Y-94751633D01*
X92234488Y-94767400D01*
X92431434Y-95580200D01*
X92515657Y-95928223D01*
X92576003Y-96188644D01*
X92611888Y-96374143D01*
X92622728Y-96497402D01*
X92607938Y-96571101D01*
X92566934Y-96607920D01*
X92499131Y-96620541D01*
X92403944Y-96621645D01*
X92383428Y-96621600D01*
X92214323Y-96614008D01*
X92144103Y-96570641D01*
X92129499Y-96460606D01*
X92129428Y-96440266D01*
X92117736Y-96320137D01*
X92065220Y-96274639D01*
X91966143Y-96275166D01*
X91843007Y-96314086D01*
X91787119Y-96416673D01*
X91780116Y-96456500D01*
X91749807Y-96568460D01*
X91669023Y-96613586D01*
X91507973Y-96621600D01*
X91328815Y-96604839D01*
X91258703Y-96560038D01*
X91258621Y-96558100D01*
X91270753Y-96489173D01*
X91304340Y-96337967D01*
X91355222Y-96122207D01*
X91388171Y-95987047D01*
X91858806Y-95987047D01*
X91943982Y-96012000D01*
X92015111Y-95997615D01*
X92039162Y-95938129D01*
X92023419Y-95809040D01*
X92015719Y-95770700D01*
X91974241Y-95599048D01*
X91941079Y-95517827D01*
X91918981Y-95530582D01*
X91910723Y-95635233D01*
X91894478Y-95788570D01*
X91865973Y-95897700D01*
X91858806Y-95987047D01*
X91388171Y-95987047D01*
X91419236Y-95859618D01*
X91476286Y-95631000D01*
X91547322Y-95348239D01*
X91608651Y-95102479D01*
X91656187Y-94910232D01*
X91685843Y-94788009D01*
X91693951Y-94751633D01*
X91757856Y-94745208D01*
X91916184Y-94749081D01*
G36*
X90867854Y-94743166D02*
G01*
X91050159Y-94750608D01*
X91144794Y-94770243D01*
X91180496Y-94807986D01*
X91186000Y-94869000D01*
X91174235Y-94944373D01*
X91114197Y-94981975D01*
X90968766Y-94994796D01*
X90823143Y-94996000D01*
X90460286Y-94996000D01*
X90460286Y-95504000D01*
X90786857Y-95504000D01*
X90988378Y-95509263D01*
X91083856Y-95535137D01*
X91112181Y-95596745D01*
X91113429Y-95631000D01*
X91099893Y-95709369D01*
X91033360Y-95746499D01*
X90874940Y-95757514D01*
X90786857Y-95758000D01*
X90460286Y-95758000D01*
X90460286Y-96367600D01*
X90823143Y-96367600D01*
X91038495Y-96371717D01*
X91145929Y-96392731D01*
X91182563Y-96443631D01*
X91186000Y-96494600D01*
X91180336Y-96556099D01*
X91144188Y-96593632D01*
X91048818Y-96613116D01*
X90865492Y-96620466D01*
X90569143Y-96621600D01*
X89952286Y-96621600D01*
X89952286Y-94742000D01*
X90569143Y-94742000D01*
X90867854Y-94743166D01*
X90867854Y-94743166D01*
G37*
X90867854Y-94743166D02*
X91050159Y-94750608D01*
X91144794Y-94770243D01*
X91180496Y-94807986D01*
X91186000Y-94869000D01*
X91174235Y-94944373D01*
X91114197Y-94981975D01*
X90968766Y-94994796D01*
X90823143Y-94996000D01*
X90460286Y-94996000D01*
X90460286Y-95504000D01*
X90786857Y-95504000D01*
X90988378Y-95509263D01*
X91083856Y-95535137D01*
X91112181Y-95596745D01*
X91113429Y-95631000D01*
X91099893Y-95709369D01*
X91033360Y-95746499D01*
X90874940Y-95757514D01*
X90786857Y-95758000D01*
X90460286Y-95758000D01*
X90460286Y-96367600D01*
X90823143Y-96367600D01*
X91038495Y-96371717D01*
X91145929Y-96392731D01*
X91182563Y-96443631D01*
X91186000Y-96494600D01*
X91180336Y-96556099D01*
X91144188Y-96593632D01*
X91048818Y-96613116D01*
X90865492Y-96620466D01*
X90569143Y-96621600D01*
X89952286Y-96621600D01*
X89952286Y-94742000D01*
X90569143Y-94742000D01*
X90867854Y-94743166D01*
G36*
X89099571Y-94752793D02*
G01*
X89770857Y-94767400D01*
X89770857Y-95222309D01*
X89768213Y-95439878D01*
X89755898Y-95576590D01*
X89727339Y-95653162D01*
X89675964Y-95690315D01*
X89617756Y-95704909D01*
X89464655Y-95732600D01*
X89862223Y-96621600D01*
X89598826Y-96620952D01*
X89335428Y-96620305D01*
X89143459Y-96201852D01*
X88951490Y-95783400D01*
X88936286Y-96621600D01*
X88428286Y-96621600D01*
X88428286Y-95275400D01*
X88936286Y-95275400D01*
X88940995Y-95435418D01*
X88965887Y-95518738D01*
X89027105Y-95550222D01*
X89117714Y-95554800D01*
X89221622Y-95547547D01*
X89275726Y-95509214D01*
X89296170Y-95414937D01*
X89299143Y-95275400D01*
X89294433Y-95115381D01*
X89269541Y-95032061D01*
X89208323Y-95000577D01*
X89117714Y-94996000D01*
X89013806Y-95003252D01*
X88959702Y-95041585D01*
X88939258Y-95135862D01*
X88936286Y-95275400D01*
X88428286Y-95275400D01*
X88428286Y-94738187D01*
X89099571Y-94752793D01*
X89099571Y-94752793D01*
G37*
X89099571Y-94752793D02*
X89770857Y-94767400D01*
X89770857Y-95222309D01*
X89768213Y-95439878D01*
X89755898Y-95576590D01*
X89727339Y-95653162D01*
X89675964Y-95690315D01*
X89617756Y-95704909D01*
X89464655Y-95732600D01*
X89862223Y-96621600D01*
X89598826Y-96620952D01*
X89335428Y-96620305D01*
X89143459Y-96201852D01*
X88951490Y-95783400D01*
X88936286Y-96621600D01*
X88428286Y-96621600D01*
X88428286Y-95275400D01*
X88936286Y-95275400D01*
X88940995Y-95435418D01*
X88965887Y-95518738D01*
X89027105Y-95550222D01*
X89117714Y-95554800D01*
X89221622Y-95547547D01*
X89275726Y-95509214D01*
X89296170Y-95414937D01*
X89299143Y-95275400D01*
X89294433Y-95115381D01*
X89269541Y-95032061D01*
X89208323Y-95000577D01*
X89117714Y-94996000D01*
X89013806Y-95003252D01*
X88959702Y-95041585D01*
X88939258Y-95135862D01*
X88936286Y-95275400D01*
X88428286Y-95275400D01*
X88428286Y-94738187D01*
X89099571Y-94752793D01*
G36*
X87843041Y-94749668D02*
G01*
X88081566Y-94771269D01*
X88196057Y-94802960D01*
X88244202Y-94884793D01*
X88275828Y-95030848D01*
X88283143Y-95150686D01*
X88269339Y-95338117D01*
X88219779Y-95457005D01*
X88136874Y-95530113D01*
X87990605Y-95622773D01*
X88136874Y-95731760D01*
X88222685Y-95820208D01*
X88267936Y-95942846D01*
X88282879Y-96130405D01*
X88283143Y-96170214D01*
X88269981Y-96359137D01*
X88235009Y-96501221D01*
X88196057Y-96560640D01*
X88073230Y-96593577D01*
X87829766Y-96614594D01*
X87506629Y-96621600D01*
X86904286Y-96621600D01*
X86904286Y-96062800D01*
X87412286Y-96062800D01*
X87416127Y-96231724D01*
X87437119Y-96322926D01*
X87489461Y-96360263D01*
X87587355Y-96367593D01*
X87593714Y-96367600D01*
X87698391Y-96360154D01*
X87752432Y-96321089D01*
X87772453Y-96225313D01*
X87775143Y-96093635D01*
X87761856Y-95916900D01*
X87716944Y-95820247D01*
X87660350Y-95788835D01*
X87528947Y-95764101D01*
X87454019Y-95789693D01*
X87420240Y-95882534D01*
X87412287Y-96059552D01*
X87412286Y-96062800D01*
X86904286Y-96062800D01*
X86904286Y-95250000D01*
X87412286Y-95250000D01*
X87434637Y-95424856D01*
X87502142Y-95503475D01*
X87615479Y-95486330D01*
X87688057Y-95443040D01*
X87745381Y-95354892D01*
X87774301Y-95216415D01*
X87775143Y-95189040D01*
X87763974Y-95062324D01*
X87712230Y-95007680D01*
X87593714Y-94996000D01*
X87486038Y-95004235D01*
X87432321Y-95046262D01*
X87414004Y-95148063D01*
X87412286Y-95250000D01*
X86904286Y-95250000D01*
X86904286Y-94742000D01*
X87506629Y-94742000D01*
X87843041Y-94749668D01*
X87843041Y-94749668D01*
G37*
X87843041Y-94749668D02*
X88081566Y-94771269D01*
X88196057Y-94802960D01*
X88244202Y-94884793D01*
X88275828Y-95030848D01*
X88283143Y-95150686D01*
X88269339Y-95338117D01*
X88219779Y-95457005D01*
X88136874Y-95530113D01*
X87990605Y-95622773D01*
X88136874Y-95731760D01*
X88222685Y-95820208D01*
X88267936Y-95942846D01*
X88282879Y-96130405D01*
X88283143Y-96170214D01*
X88269981Y-96359137D01*
X88235009Y-96501221D01*
X88196057Y-96560640D01*
X88073230Y-96593577D01*
X87829766Y-96614594D01*
X87506629Y-96621600D01*
X86904286Y-96621600D01*
X86904286Y-96062800D01*
X87412286Y-96062800D01*
X87416127Y-96231724D01*
X87437119Y-96322926D01*
X87489461Y-96360263D01*
X87587355Y-96367593D01*
X87593714Y-96367600D01*
X87698391Y-96360154D01*
X87752432Y-96321089D01*
X87772453Y-96225313D01*
X87775143Y-96093635D01*
X87761856Y-95916900D01*
X87716944Y-95820247D01*
X87660350Y-95788835D01*
X87528947Y-95764101D01*
X87454019Y-95789693D01*
X87420240Y-95882534D01*
X87412287Y-96059552D01*
X87412286Y-96062800D01*
X86904286Y-96062800D01*
X86904286Y-95250000D01*
X87412286Y-95250000D01*
X87434637Y-95424856D01*
X87502142Y-95503475D01*
X87615479Y-95486330D01*
X87688057Y-95443040D01*
X87745381Y-95354892D01*
X87774301Y-95216415D01*
X87775143Y-95189040D01*
X87763974Y-95062324D01*
X87712230Y-95007680D01*
X87593714Y-94996000D01*
X87486038Y-95004235D01*
X87432321Y-95046262D01*
X87414004Y-95148063D01*
X87412286Y-95250000D01*
X86904286Y-95250000D01*
X86904286Y-94742000D01*
X87506629Y-94742000D01*
X87843041Y-94749668D01*
D12*
X109726000Y-88229221D02*
X109726000Y-88554779D01*
X110746000Y-88229221D02*
X110746000Y-88554779D01*
X115407221Y-75690000D02*
X115732779Y-75690000D01*
X115407221Y-76710000D02*
X115732779Y-76710000D01*
X96134422Y-70306000D02*
X96651578Y-70306000D01*
X96134422Y-68886000D02*
X96651578Y-68886000D01*
X92762000Y-64012578D02*
X92762000Y-63495422D01*
X94182000Y-64012578D02*
X94182000Y-63495422D01*
X99820000Y-73822779D02*
X99820000Y-73497221D01*
X100840000Y-73822779D02*
X100840000Y-73497221D01*
X85487000Y-70322000D02*
X87487000Y-70322000D01*
X87487000Y-70322000D02*
X87487000Y-66422000D01*
X85487000Y-70322000D02*
X85487000Y-66422000D01*
X117309000Y-83085000D02*
X115024000Y-83085000D01*
X117309000Y-84555000D02*
X117309000Y-83085000D01*
X115024000Y-84555000D02*
X117309000Y-84555000D01*
X104737000Y-65505000D02*
X107022000Y-65505000D01*
X107022000Y-65505000D02*
X107022000Y-64035000D01*
X107022000Y-64035000D02*
X104737000Y-64035000D01*
X89245221Y-69213000D02*
X89570779Y-69213000D01*
X89245221Y-70233000D02*
X89570779Y-70233000D01*
X92578422Y-68886000D02*
X93095578Y-68886000D01*
X92578422Y-70306000D02*
X93095578Y-70306000D01*
X95960000Y-84078578D02*
X95960000Y-83561422D01*
X94540000Y-84078578D02*
X94540000Y-83561422D01*
X97154000Y-75470000D02*
X93854000Y-75470000D01*
X93854000Y-75470000D02*
X93854000Y-79470000D01*
X125155000Y-82229000D02*
X123825000Y-82229000D01*
X125155000Y-80899000D02*
X125155000Y-82229000D01*
X125155000Y-79629000D02*
X122495000Y-79629000D01*
X122495000Y-79629000D02*
X122495000Y-77029000D01*
X125155000Y-79629000D02*
X125155000Y-77029000D01*
X125155000Y-77029000D02*
X122495000Y-77029000D01*
X110455400Y-54181700D02*
X110455400Y-56841700D01*
X113055400Y-54181700D02*
X110455400Y-54181700D01*
X113055400Y-56841700D02*
X110455400Y-56841700D01*
X113055400Y-54181700D02*
X113055400Y-56841700D01*
X114325400Y-54181700D02*
X115655400Y-54181700D01*
X115655400Y-54181700D02*
X115655400Y-55511700D01*
X112328000Y-97596000D02*
X112328000Y-94936000D01*
X104648000Y-97596000D02*
X112328000Y-97596000D01*
X104648000Y-94936000D02*
X112328000Y-94936000D01*
X104648000Y-97596000D02*
X104648000Y-94936000D01*
X103378000Y-97596000D02*
X102048000Y-97596000D01*
X102048000Y-97596000D02*
X102048000Y-96266000D01*
X81474000Y-65218000D02*
X82804000Y-65218000D01*
X81474000Y-66548000D02*
X81474000Y-65218000D01*
X81474000Y-67818000D02*
X84134000Y-67818000D01*
X84134000Y-67818000D02*
X84134000Y-70418000D01*
X81474000Y-67818000D02*
X81474000Y-70418000D01*
X81474000Y-70418000D02*
X84134000Y-70418000D01*
X84179720Y-77836720D02*
X81519720Y-77836720D01*
X84179720Y-80436720D02*
X84179720Y-77836720D01*
X81519720Y-80436720D02*
X81519720Y-77836720D01*
X84179720Y-80436720D02*
X81519720Y-80436720D01*
X84179720Y-81706720D02*
X84179720Y-83036720D01*
X84179720Y-83036720D02*
X82849720Y-83036720D01*
X124421600Y-69935400D02*
X120891600Y-69935400D01*
X124421600Y-63465400D02*
X120891600Y-63465400D01*
X125746600Y-69870400D02*
X124421600Y-69870400D01*
X124421600Y-69935400D02*
X124421600Y-69870400D01*
X120891600Y-69935400D02*
X120891600Y-69870400D01*
X124421600Y-63530400D02*
X124421600Y-63465400D01*
X120891600Y-63530400D02*
X120891600Y-63465400D01*
X119669779Y-83310000D02*
X119344221Y-83310000D01*
X119669779Y-84330000D02*
X119344221Y-84330000D01*
X106732800Y-61254421D02*
X106732800Y-61579979D01*
X105712800Y-61254421D02*
X105712800Y-61579979D01*
X110840000Y-85120000D02*
X111790000Y-85120000D01*
X111790000Y-85120000D02*
X111790000Y-84170000D01*
X102520000Y-85120000D02*
X101570000Y-85120000D01*
X101570000Y-85120000D02*
X101570000Y-84170000D01*
X110840000Y-74900000D02*
X111790000Y-74900000D01*
X111790000Y-74900000D02*
X111790000Y-75850000D01*
X102520000Y-74900000D02*
X101570000Y-74900000D01*
X101570000Y-74900000D02*
X101570000Y-75850000D01*
X101570000Y-75850000D02*
X100230000Y-75850000D01*
X101097000Y-68180000D02*
X101097000Y-66920000D01*
X101097000Y-61360000D02*
X101097000Y-62620000D01*
X97337000Y-68180000D02*
X101097000Y-68180000D01*
X95087000Y-61360000D02*
X101097000Y-61360000D01*
M02*
