G04 #@! TF.GenerationSoftware,KiCad,Pcbnew,(5.1.4)-1*
G04 #@! TF.CreationDate,2020-10-27T13:41:20+01:00*
G04 #@! TF.ProjectId,STm32f405xx board,53546d33-3266-4343-9035-787820626f61,rev?*
G04 #@! TF.SameCoordinates,Original*
G04 #@! TF.FileFunction,Copper,L2,Inr*
G04 #@! TF.FilePolarity,Positive*
%FSLAX46Y46*%
G04 Gerber Fmt 4.6, Leading zero omitted, Abs format (unit mm)*
G04 Created by KiCad (PCBNEW (5.1.4)-1) date 2020-10-27 13:41:20*
%MOMM*%
%LPD*%
G04 APERTURE LIST*
%ADD10C,0.800000*%
%ADD11C,6.000000*%
%ADD12O,1.700000X1.700000*%
%ADD13R,1.700000X1.700000*%
%ADD14C,1.000000*%
%ADD15C,0.500000*%
%ADD16C,0.254000*%
G04 APERTURE END LIST*
D10*
X126050990Y-54289010D03*
X124460000Y-53630000D03*
X122869010Y-54289010D03*
X122210000Y-55880000D03*
X122869010Y-57470990D03*
X124460000Y-58130000D03*
X126050990Y-57470990D03*
X126710000Y-55880000D03*
D11*
X124460000Y-55880000D03*
X124460000Y-97790000D03*
D10*
X126710000Y-97790000D03*
X126050990Y-99380990D03*
X124460000Y-100040000D03*
X122869010Y-99380990D03*
X122210000Y-97790000D03*
X122869010Y-96199010D03*
X124460000Y-95540000D03*
X126050990Y-96199010D03*
X84521990Y-54543010D03*
X82931000Y-53884000D03*
X81340010Y-54543010D03*
X80681000Y-56134000D03*
X81340010Y-57724990D03*
X82931000Y-58384000D03*
X84521990Y-57724990D03*
X85181000Y-56134000D03*
D11*
X82931000Y-56134000D03*
X82550000Y-97790000D03*
D10*
X84800000Y-97790000D03*
X84140990Y-99380990D03*
X82550000Y-100040000D03*
X80959010Y-99380990D03*
X80300000Y-97790000D03*
X80959010Y-96199010D03*
X82550000Y-95540000D03*
X84140990Y-96199010D03*
D12*
X123825000Y-78359000D03*
D13*
X123825000Y-80899000D03*
X114325400Y-55511700D03*
D12*
X111785400Y-55511700D03*
D13*
X103378000Y-96266000D03*
D12*
X105918000Y-96266000D03*
X108458000Y-96266000D03*
X110998000Y-96266000D03*
X82804000Y-69088000D03*
D13*
X82804000Y-66548000D03*
X82849720Y-81706720D03*
D12*
X82849720Y-79166720D03*
D14*
X99730560Y-62717680D03*
X98445320Y-66421000D03*
X99832160Y-66421000D03*
X102301040Y-67604640D03*
X102199440Y-62118240D03*
X98242120Y-62666880D03*
D10*
X101442520Y-71800720D03*
X101930200Y-70434200D03*
X99004120Y-74442320D03*
X115361720Y-74985880D03*
X115473480Y-74061320D03*
X112826800Y-85272880D03*
X114147600Y-86304120D03*
X103372920Y-89987120D03*
X103291640Y-90992960D03*
X95270320Y-86334600D03*
X99100640Y-75285600D03*
X93446600Y-85247480D03*
X97165160Y-85191600D03*
X104998520Y-69316600D03*
X109306360Y-70332600D03*
X84952840Y-81559400D03*
X124266960Y-71170800D03*
X117614700Y-64135000D03*
X103898000Y-79260000D03*
X96900000Y-74800000D03*
X94132400Y-80238600D03*
X99014280Y-72882760D03*
X103357680Y-70347840D03*
D14*
X95336360Y-60248800D03*
X93619320Y-60985400D03*
X97495360Y-60309760D03*
X96230440Y-58577480D03*
X91968320Y-61066680D03*
D10*
X114345720Y-72694800D03*
X117424200Y-75016360D03*
X121574560Y-83794600D03*
X114330480Y-87467440D03*
X110261400Y-90444320D03*
X108422440Y-89733120D03*
X101340920Y-88930480D03*
X96855280Y-81427320D03*
X98069400Y-75194160D03*
X113141760Y-72918320D03*
X111780320Y-88361520D03*
X101351080Y-87782400D03*
X98689160Y-80690720D03*
D14*
X98866960Y-69448680D03*
X100223320Y-69448680D03*
X106268520Y-59065160D03*
D10*
X110286800Y-91485720D03*
X104246680Y-70774560D03*
X103393240Y-69286120D03*
X84861400Y-78958440D03*
X125836680Y-71099680D03*
X126822200Y-71160640D03*
X124627640Y-62611000D03*
D14*
X82829400Y-71516240D03*
X82829400Y-74930000D03*
X88900000Y-73660000D03*
X90170000Y-55880000D03*
X100330000Y-55880000D03*
X100330000Y-55880000D03*
X118110000Y-55880000D03*
X125730000Y-86360000D03*
X125730000Y-90170000D03*
X119380000Y-90170000D03*
X118110000Y-96520000D03*
X110490000Y-99060000D03*
X99060000Y-99060000D03*
X91440000Y-99060000D03*
X91440000Y-88900000D03*
X83820000Y-88900000D03*
X88900000Y-83820000D03*
D15*
X94132400Y-80238600D02*
X94132400Y-82092800D01*
D16*
G36*
X97155000Y-75311000D02*
G01*
X97155126Y-75316657D01*
X97244026Y-77310557D01*
X97247567Y-77335200D01*
X97255849Y-77358679D01*
X97268551Y-77380091D01*
X97285187Y-77398613D01*
X97305116Y-77413535D01*
X97327574Y-77424281D01*
X97351696Y-77430440D01*
X97370900Y-77431900D01*
X98868389Y-77431900D01*
X99517141Y-78068638D01*
X99535653Y-78083670D01*
X99611853Y-78134470D01*
X99633822Y-78146183D01*
X99657654Y-78153386D01*
X99682300Y-78155800D01*
X101699824Y-78155800D01*
X101690642Y-78816906D01*
X99567282Y-78828902D01*
X99542520Y-78831482D01*
X99518737Y-78838844D01*
X99496847Y-78850704D01*
X99477692Y-78866606D01*
X99462006Y-78885940D01*
X99450395Y-78907963D01*
X99443302Y-78931828D01*
X99441000Y-78955900D01*
X99441000Y-79121000D01*
X97282000Y-79121000D01*
X97257224Y-79123440D01*
X97233399Y-79130667D01*
X97211443Y-79142403D01*
X97192197Y-79158197D01*
X97176403Y-79177443D01*
X97164667Y-79199399D01*
X97157440Y-79223224D01*
X97155000Y-79248000D01*
X97155000Y-79502000D01*
X96520000Y-79502000D01*
X96495224Y-79504440D01*
X96471399Y-79511667D01*
X96449443Y-79523403D01*
X96430197Y-79539197D01*
X96414403Y-79558443D01*
X96402667Y-79580399D01*
X96395440Y-79604224D01*
X96393000Y-79629000D01*
X96393000Y-80641685D01*
X93853000Y-80576230D01*
X93853000Y-74295000D01*
X94361000Y-74295000D01*
X94362104Y-74294995D01*
X97155000Y-74270709D01*
X97155000Y-75311000D01*
X97155000Y-75311000D01*
G37*
X97155000Y-75311000D02*
X97155126Y-75316657D01*
X97244026Y-77310557D01*
X97247567Y-77335200D01*
X97255849Y-77358679D01*
X97268551Y-77380091D01*
X97285187Y-77398613D01*
X97305116Y-77413535D01*
X97327574Y-77424281D01*
X97351696Y-77430440D01*
X97370900Y-77431900D01*
X98868389Y-77431900D01*
X99517141Y-78068638D01*
X99535653Y-78083670D01*
X99611853Y-78134470D01*
X99633822Y-78146183D01*
X99657654Y-78153386D01*
X99682300Y-78155800D01*
X101699824Y-78155800D01*
X101690642Y-78816906D01*
X99567282Y-78828902D01*
X99542520Y-78831482D01*
X99518737Y-78838844D01*
X99496847Y-78850704D01*
X99477692Y-78866606D01*
X99462006Y-78885940D01*
X99450395Y-78907963D01*
X99443302Y-78931828D01*
X99441000Y-78955900D01*
X99441000Y-79121000D01*
X97282000Y-79121000D01*
X97257224Y-79123440D01*
X97233399Y-79130667D01*
X97211443Y-79142403D01*
X97192197Y-79158197D01*
X97176403Y-79177443D01*
X97164667Y-79199399D01*
X97157440Y-79223224D01*
X97155000Y-79248000D01*
X97155000Y-79502000D01*
X96520000Y-79502000D01*
X96495224Y-79504440D01*
X96471399Y-79511667D01*
X96449443Y-79523403D01*
X96430197Y-79539197D01*
X96414403Y-79558443D01*
X96402667Y-79580399D01*
X96395440Y-79604224D01*
X96393000Y-79629000D01*
X96393000Y-80641685D01*
X93853000Y-80576230D01*
X93853000Y-74295000D01*
X94361000Y-74295000D01*
X94362104Y-74294995D01*
X97155000Y-74270709D01*
X97155000Y-75311000D01*
G36*
X122444397Y-52833898D02*
G01*
X122417106Y-52852132D01*
X122080919Y-53321314D01*
X124460000Y-55700395D01*
X124474143Y-55686253D01*
X124653748Y-55865858D01*
X124639605Y-55880000D01*
X127018686Y-58259081D01*
X127487868Y-57922894D01*
X127610001Y-57696848D01*
X127610000Y-95970895D01*
X127506102Y-95774397D01*
X127487868Y-95747106D01*
X127018686Y-95410919D01*
X124639605Y-97790000D01*
X124653748Y-97804143D01*
X124474143Y-97983748D01*
X124460000Y-97969605D01*
X122080919Y-100348686D01*
X122417106Y-100817868D01*
X122643150Y-100940000D01*
X84369105Y-100940000D01*
X84565603Y-100836102D01*
X84592894Y-100817868D01*
X84929081Y-100348686D01*
X82550000Y-97969605D01*
X82535858Y-97983748D01*
X82356253Y-97804143D01*
X82370395Y-97790000D01*
X82729605Y-97790000D01*
X85108686Y-100169081D01*
X85577868Y-99832894D01*
X85918237Y-99202932D01*
X86129166Y-98518673D01*
X86202550Y-97806411D01*
X86199467Y-97773589D01*
X120807450Y-97773589D01*
X120874431Y-98486482D01*
X121079204Y-99172609D01*
X121413898Y-99805603D01*
X121432132Y-99832894D01*
X121901314Y-100169081D01*
X124280395Y-97790000D01*
X121901314Y-95410919D01*
X121432132Y-95747106D01*
X121091763Y-96377068D01*
X120880834Y-97061327D01*
X120807450Y-97773589D01*
X86199467Y-97773589D01*
X86135569Y-97093518D01*
X85930796Y-96407391D01*
X85596102Y-95774397D01*
X85577868Y-95747106D01*
X85115778Y-95416000D01*
X101889928Y-95416000D01*
X101889928Y-97116000D01*
X101902188Y-97240482D01*
X101938498Y-97360180D01*
X101997463Y-97470494D01*
X102076815Y-97567185D01*
X102173506Y-97646537D01*
X102283820Y-97705502D01*
X102403518Y-97741812D01*
X102528000Y-97754072D01*
X104228000Y-97754072D01*
X104352482Y-97741812D01*
X104472180Y-97705502D01*
X104582494Y-97646537D01*
X104679185Y-97567185D01*
X104758537Y-97470494D01*
X104817502Y-97360180D01*
X104838393Y-97291313D01*
X104862866Y-97321134D01*
X105088986Y-97506706D01*
X105346966Y-97644599D01*
X105626889Y-97729513D01*
X105845050Y-97751000D01*
X105990950Y-97751000D01*
X106209111Y-97729513D01*
X106489034Y-97644599D01*
X106747014Y-97506706D01*
X106973134Y-97321134D01*
X107158706Y-97095014D01*
X107188000Y-97040209D01*
X107217294Y-97095014D01*
X107402866Y-97321134D01*
X107628986Y-97506706D01*
X107886966Y-97644599D01*
X108166889Y-97729513D01*
X108385050Y-97751000D01*
X108530950Y-97751000D01*
X108749111Y-97729513D01*
X109029034Y-97644599D01*
X109287014Y-97506706D01*
X109513134Y-97321134D01*
X109698706Y-97095014D01*
X109728000Y-97040209D01*
X109757294Y-97095014D01*
X109942866Y-97321134D01*
X110168986Y-97506706D01*
X110426966Y-97644599D01*
X110706889Y-97729513D01*
X110925050Y-97751000D01*
X111070950Y-97751000D01*
X111289111Y-97729513D01*
X111569034Y-97644599D01*
X111827014Y-97506706D01*
X112053134Y-97321134D01*
X112238706Y-97095014D01*
X112376599Y-96837034D01*
X112461513Y-96557111D01*
X112490185Y-96266000D01*
X112461513Y-95974889D01*
X112376599Y-95694966D01*
X112238706Y-95436986D01*
X112069916Y-95231314D01*
X122080919Y-95231314D01*
X124460000Y-97610395D01*
X126839081Y-95231314D01*
X126502894Y-94762132D01*
X125872932Y-94421763D01*
X125188673Y-94210834D01*
X124476411Y-94137450D01*
X123763518Y-94204431D01*
X123077391Y-94409204D01*
X122444397Y-94743898D01*
X122417106Y-94762132D01*
X122080919Y-95231314D01*
X112069916Y-95231314D01*
X112053134Y-95210866D01*
X111827014Y-95025294D01*
X111569034Y-94887401D01*
X111289111Y-94802487D01*
X111070950Y-94781000D01*
X110925050Y-94781000D01*
X110706889Y-94802487D01*
X110426966Y-94887401D01*
X110168986Y-95025294D01*
X109942866Y-95210866D01*
X109757294Y-95436986D01*
X109728000Y-95491791D01*
X109698706Y-95436986D01*
X109513134Y-95210866D01*
X109287014Y-95025294D01*
X109029034Y-94887401D01*
X108749111Y-94802487D01*
X108530950Y-94781000D01*
X108385050Y-94781000D01*
X108166889Y-94802487D01*
X107886966Y-94887401D01*
X107628986Y-95025294D01*
X107402866Y-95210866D01*
X107217294Y-95436986D01*
X107188000Y-95491791D01*
X107158706Y-95436986D01*
X106973134Y-95210866D01*
X106747014Y-95025294D01*
X106489034Y-94887401D01*
X106209111Y-94802487D01*
X105990950Y-94781000D01*
X105845050Y-94781000D01*
X105626889Y-94802487D01*
X105346966Y-94887401D01*
X105088986Y-95025294D01*
X104862866Y-95210866D01*
X104838393Y-95240687D01*
X104817502Y-95171820D01*
X104758537Y-95061506D01*
X104679185Y-94964815D01*
X104582494Y-94885463D01*
X104472180Y-94826498D01*
X104352482Y-94790188D01*
X104228000Y-94777928D01*
X102528000Y-94777928D01*
X102403518Y-94790188D01*
X102283820Y-94826498D01*
X102173506Y-94885463D01*
X102076815Y-94964815D01*
X101997463Y-95061506D01*
X101938498Y-95171820D01*
X101902188Y-95291518D01*
X101889928Y-95416000D01*
X85115778Y-95416000D01*
X85108686Y-95410919D01*
X82729605Y-97790000D01*
X82370395Y-97790000D01*
X79991314Y-95410919D01*
X79522132Y-95747106D01*
X79400000Y-95973150D01*
X79400000Y-95231314D01*
X80170919Y-95231314D01*
X82550000Y-97610395D01*
X84929081Y-95231314D01*
X84592894Y-94762132D01*
X83962932Y-94421763D01*
X83278673Y-94210834D01*
X82566411Y-94137450D01*
X81853518Y-94204431D01*
X81167391Y-94409204D01*
X80534397Y-94743898D01*
X80507106Y-94762132D01*
X80170919Y-95231314D01*
X79400000Y-95231314D01*
X79400000Y-90891021D01*
X102256640Y-90891021D01*
X102256640Y-91094899D01*
X102296414Y-91294858D01*
X102374435Y-91483216D01*
X102487703Y-91652734D01*
X102631866Y-91796897D01*
X102801384Y-91910165D01*
X102989742Y-91988186D01*
X103189701Y-92027960D01*
X103393579Y-92027960D01*
X103593538Y-91988186D01*
X103781896Y-91910165D01*
X103951414Y-91796897D01*
X104095577Y-91652734D01*
X104208845Y-91483216D01*
X104286866Y-91294858D01*
X104326640Y-91094899D01*
X104326640Y-90891021D01*
X104286866Y-90691062D01*
X104233473Y-90562162D01*
X104290125Y-90477376D01*
X104368146Y-90289018D01*
X104407920Y-90089059D01*
X104407920Y-89885181D01*
X104368146Y-89685222D01*
X104290125Y-89496864D01*
X104176857Y-89327346D01*
X104032694Y-89183183D01*
X103863176Y-89069915D01*
X103674818Y-88991894D01*
X103474859Y-88952120D01*
X103270981Y-88952120D01*
X103071022Y-88991894D01*
X102882664Y-89069915D01*
X102713146Y-89183183D01*
X102568983Y-89327346D01*
X102455715Y-89496864D01*
X102377694Y-89685222D01*
X102337920Y-89885181D01*
X102337920Y-90089059D01*
X102377694Y-90289018D01*
X102431087Y-90417918D01*
X102374435Y-90502704D01*
X102296414Y-90691062D01*
X102256640Y-90891021D01*
X79400000Y-90891021D01*
X79400000Y-85145541D01*
X92411600Y-85145541D01*
X92411600Y-85349419D01*
X92451374Y-85549378D01*
X92529395Y-85737736D01*
X92642663Y-85907254D01*
X92786826Y-86051417D01*
X92956344Y-86164685D01*
X93144702Y-86242706D01*
X93344661Y-86282480D01*
X93548539Y-86282480D01*
X93748498Y-86242706D01*
X93772748Y-86232661D01*
X94235320Y-86232661D01*
X94235320Y-86436539D01*
X94275094Y-86636498D01*
X94353115Y-86824856D01*
X94466383Y-86994374D01*
X94610546Y-87138537D01*
X94780064Y-87251805D01*
X94968422Y-87329826D01*
X95168381Y-87369600D01*
X95372259Y-87369600D01*
X95572218Y-87329826D01*
X95760576Y-87251805D01*
X95930094Y-87138537D01*
X96074257Y-86994374D01*
X96187525Y-86824856D01*
X96265546Y-86636498D01*
X96305320Y-86436539D01*
X96305320Y-86232661D01*
X96265546Y-86032702D01*
X96187525Y-85844344D01*
X96074257Y-85674826D01*
X95930094Y-85530663D01*
X95760576Y-85417395D01*
X95572218Y-85339374D01*
X95372259Y-85299600D01*
X95168381Y-85299600D01*
X94968422Y-85339374D01*
X94780064Y-85417395D01*
X94610546Y-85530663D01*
X94466383Y-85674826D01*
X94353115Y-85844344D01*
X94275094Y-86032702D01*
X94235320Y-86232661D01*
X93772748Y-86232661D01*
X93936856Y-86164685D01*
X94106374Y-86051417D01*
X94250537Y-85907254D01*
X94363805Y-85737736D01*
X94441826Y-85549378D01*
X94481600Y-85349419D01*
X94481600Y-85145541D01*
X94470485Y-85089661D01*
X96130160Y-85089661D01*
X96130160Y-85293539D01*
X96169934Y-85493498D01*
X96247955Y-85681856D01*
X96361223Y-85851374D01*
X96505386Y-85995537D01*
X96674904Y-86108805D01*
X96863262Y-86186826D01*
X97063221Y-86226600D01*
X97267099Y-86226600D01*
X97467058Y-86186826D01*
X97655416Y-86108805D01*
X97824934Y-85995537D01*
X97969097Y-85851374D01*
X98082365Y-85681856D01*
X98160386Y-85493498D01*
X98200160Y-85293539D01*
X98200160Y-85170941D01*
X111791800Y-85170941D01*
X111791800Y-85374819D01*
X111831574Y-85574778D01*
X111909595Y-85763136D01*
X112022863Y-85932654D01*
X112167026Y-86076817D01*
X112336544Y-86190085D01*
X112524902Y-86268106D01*
X112724861Y-86307880D01*
X112928739Y-86307880D01*
X113112600Y-86271308D01*
X113112600Y-86406059D01*
X113152374Y-86606018D01*
X113230395Y-86794376D01*
X113343663Y-86963894D01*
X113487826Y-87108057D01*
X113657344Y-87221325D01*
X113845702Y-87299346D01*
X114045661Y-87339120D01*
X114249539Y-87339120D01*
X114449498Y-87299346D01*
X114637856Y-87221325D01*
X114807374Y-87108057D01*
X114951537Y-86963894D01*
X115064805Y-86794376D01*
X115142826Y-86606018D01*
X115182600Y-86406059D01*
X115182600Y-86202181D01*
X115142826Y-86002222D01*
X115064805Y-85813864D01*
X114951537Y-85644346D01*
X114807374Y-85500183D01*
X114637856Y-85386915D01*
X114449498Y-85308894D01*
X114249539Y-85269120D01*
X114045661Y-85269120D01*
X113861800Y-85305692D01*
X113861800Y-85170941D01*
X113822026Y-84970982D01*
X113744005Y-84782624D01*
X113630737Y-84613106D01*
X113486574Y-84468943D01*
X113317056Y-84355675D01*
X113128698Y-84277654D01*
X112928739Y-84237880D01*
X112724861Y-84237880D01*
X112524902Y-84277654D01*
X112336544Y-84355675D01*
X112167026Y-84468943D01*
X112022863Y-84613106D01*
X111909595Y-84782624D01*
X111831574Y-84970982D01*
X111791800Y-85170941D01*
X98200160Y-85170941D01*
X98200160Y-85089661D01*
X98160386Y-84889702D01*
X98082365Y-84701344D01*
X97969097Y-84531826D01*
X97824934Y-84387663D01*
X97655416Y-84274395D01*
X97467058Y-84196374D01*
X97267099Y-84156600D01*
X97063221Y-84156600D01*
X96863262Y-84196374D01*
X96674904Y-84274395D01*
X96505386Y-84387663D01*
X96361223Y-84531826D01*
X96247955Y-84701344D01*
X96169934Y-84889702D01*
X96130160Y-85089661D01*
X94470485Y-85089661D01*
X94441826Y-84945582D01*
X94363805Y-84757224D01*
X94250537Y-84587706D01*
X94106374Y-84443543D01*
X93936856Y-84330275D01*
X93748498Y-84252254D01*
X93548539Y-84212480D01*
X93344661Y-84212480D01*
X93144702Y-84252254D01*
X92956344Y-84330275D01*
X92786826Y-84443543D01*
X92642663Y-84587706D01*
X92529395Y-84757224D01*
X92451374Y-84945582D01*
X92411600Y-85145541D01*
X79400000Y-85145541D01*
X79400000Y-80856720D01*
X81361648Y-80856720D01*
X81361648Y-82556720D01*
X81373908Y-82681202D01*
X81410218Y-82800900D01*
X81469183Y-82911214D01*
X81548535Y-83007905D01*
X81645226Y-83087257D01*
X81755540Y-83146222D01*
X81875238Y-83182532D01*
X81999720Y-83194792D01*
X83699720Y-83194792D01*
X83824202Y-83182532D01*
X83943900Y-83146222D01*
X84054214Y-83087257D01*
X84150905Y-83007905D01*
X84230257Y-82911214D01*
X84289222Y-82800900D01*
X84325532Y-82681202D01*
X84337792Y-82556720D01*
X84337792Y-82393222D01*
X84462584Y-82476605D01*
X84650942Y-82554626D01*
X84850901Y-82594400D01*
X85054779Y-82594400D01*
X85254738Y-82554626D01*
X85443096Y-82476605D01*
X85612614Y-82363337D01*
X85756777Y-82219174D01*
X85870045Y-82049656D01*
X85948066Y-81861298D01*
X85987840Y-81661339D01*
X85987840Y-81457461D01*
X85948066Y-81257502D01*
X85870045Y-81069144D01*
X85756777Y-80899626D01*
X85612614Y-80755463D01*
X85443096Y-80642195D01*
X85254738Y-80564174D01*
X85054779Y-80524400D01*
X84850901Y-80524400D01*
X84650942Y-80564174D01*
X84462584Y-80642195D01*
X84325674Y-80733675D01*
X84325532Y-80732238D01*
X84289222Y-80612540D01*
X84230257Y-80502226D01*
X84150905Y-80405535D01*
X84054214Y-80326183D01*
X83943900Y-80267218D01*
X83863254Y-80242754D01*
X83947308Y-80166989D01*
X84121361Y-79933640D01*
X84246545Y-79670819D01*
X84291196Y-79523610D01*
X84169875Y-79293720D01*
X82976720Y-79293720D01*
X82976720Y-79313720D01*
X82722720Y-79313720D01*
X82722720Y-79293720D01*
X81529565Y-79293720D01*
X81408244Y-79523610D01*
X81452895Y-79670819D01*
X81578079Y-79933640D01*
X81752132Y-80166989D01*
X81836186Y-80242754D01*
X81755540Y-80267218D01*
X81645226Y-80326183D01*
X81548535Y-80405535D01*
X81469183Y-80502226D01*
X81410218Y-80612540D01*
X81373908Y-80732238D01*
X81361648Y-80856720D01*
X79400000Y-80856720D01*
X79400000Y-78809830D01*
X81408244Y-78809830D01*
X81529565Y-79039720D01*
X82722720Y-79039720D01*
X82722720Y-77845906D01*
X82976720Y-77845906D01*
X82976720Y-79039720D01*
X84169875Y-79039720D01*
X84291196Y-78809830D01*
X84246545Y-78662621D01*
X84121361Y-78399800D01*
X83947308Y-78166451D01*
X83731075Y-77971542D01*
X83480972Y-77822563D01*
X83206611Y-77725239D01*
X82976720Y-77845906D01*
X82722720Y-77845906D01*
X82492829Y-77725239D01*
X82218468Y-77822563D01*
X81968365Y-77971542D01*
X81752132Y-78166451D01*
X81578079Y-78399800D01*
X81452895Y-78662621D01*
X81408244Y-78809830D01*
X79400000Y-78809830D01*
X79400000Y-73776337D01*
X93156966Y-73776337D01*
X93156966Y-81015337D01*
X93159406Y-81040113D01*
X93166633Y-81063938D01*
X93178369Y-81085894D01*
X93194163Y-81105140D01*
X93213409Y-81120934D01*
X93235365Y-81132670D01*
X93259190Y-81139897D01*
X93283966Y-81142337D01*
X96966966Y-81142337D01*
X96991742Y-81139897D01*
X97015567Y-81132670D01*
X97037523Y-81120934D01*
X97056769Y-81105140D01*
X97072563Y-81085894D01*
X97084299Y-81063938D01*
X97091526Y-81040113D01*
X97093966Y-81015337D01*
X97093966Y-79999337D01*
X97436866Y-79999337D01*
X97461642Y-79996897D01*
X97485467Y-79989670D01*
X97507423Y-79977934D01*
X97526669Y-79962140D01*
X97542463Y-79942894D01*
X97554199Y-79920938D01*
X97561426Y-79897113D01*
X97563866Y-79872337D01*
X97563866Y-79554837D01*
X99748266Y-79554837D01*
X99773042Y-79552397D01*
X99796867Y-79545170D01*
X99818823Y-79533434D01*
X99838069Y-79517640D01*
X99853863Y-79498394D01*
X99865599Y-79476438D01*
X99872826Y-79452613D01*
X99875165Y-79432913D01*
X99883496Y-79224637D01*
X101919966Y-79224637D01*
X101944742Y-79222197D01*
X101968567Y-79214970D01*
X101990523Y-79203234D01*
X102009769Y-79187440D01*
X102025563Y-79168194D01*
X102030979Y-79158061D01*
X102863000Y-79158061D01*
X102863000Y-79361939D01*
X102902774Y-79561898D01*
X102980795Y-79750256D01*
X103094063Y-79919774D01*
X103238226Y-80063937D01*
X103407744Y-80177205D01*
X103596102Y-80255226D01*
X103796061Y-80295000D01*
X103999939Y-80295000D01*
X104199898Y-80255226D01*
X104388256Y-80177205D01*
X104557774Y-80063937D01*
X104701937Y-79919774D01*
X104815205Y-79750256D01*
X104893226Y-79561898D01*
X104933000Y-79361939D01*
X104933000Y-79158061D01*
X104893226Y-78958102D01*
X104815205Y-78769744D01*
X104701937Y-78600226D01*
X104557774Y-78456063D01*
X104412509Y-78359000D01*
X122332815Y-78359000D01*
X122361487Y-78650111D01*
X122446401Y-78930034D01*
X122584294Y-79188014D01*
X122769866Y-79414134D01*
X122799687Y-79438607D01*
X122730820Y-79459498D01*
X122620506Y-79518463D01*
X122523815Y-79597815D01*
X122444463Y-79694506D01*
X122385498Y-79804820D01*
X122349188Y-79924518D01*
X122336928Y-80049000D01*
X122336928Y-81749000D01*
X122349188Y-81873482D01*
X122385498Y-81993180D01*
X122444463Y-82103494D01*
X122523815Y-82200185D01*
X122620506Y-82279537D01*
X122730820Y-82338502D01*
X122850518Y-82374812D01*
X122975000Y-82387072D01*
X124675000Y-82387072D01*
X124799482Y-82374812D01*
X124919180Y-82338502D01*
X125029494Y-82279537D01*
X125126185Y-82200185D01*
X125205537Y-82103494D01*
X125264502Y-81993180D01*
X125300812Y-81873482D01*
X125313072Y-81749000D01*
X125313072Y-80049000D01*
X125300812Y-79924518D01*
X125264502Y-79804820D01*
X125205537Y-79694506D01*
X125126185Y-79597815D01*
X125029494Y-79518463D01*
X124919180Y-79459498D01*
X124850313Y-79438607D01*
X124880134Y-79414134D01*
X125065706Y-79188014D01*
X125203599Y-78930034D01*
X125288513Y-78650111D01*
X125317185Y-78359000D01*
X125288513Y-78067889D01*
X125203599Y-77787966D01*
X125065706Y-77529986D01*
X124880134Y-77303866D01*
X124654014Y-77118294D01*
X124396034Y-76980401D01*
X124116111Y-76895487D01*
X123897950Y-76874000D01*
X123752050Y-76874000D01*
X123533889Y-76895487D01*
X123253966Y-76980401D01*
X122995986Y-77118294D01*
X122769866Y-77303866D01*
X122584294Y-77529986D01*
X122446401Y-77787966D01*
X122361487Y-78067889D01*
X122332815Y-78359000D01*
X104412509Y-78359000D01*
X104388256Y-78342795D01*
X104199898Y-78264774D01*
X103999939Y-78225000D01*
X103796061Y-78225000D01*
X103596102Y-78264774D01*
X103407744Y-78342795D01*
X103238226Y-78456063D01*
X103094063Y-78600226D01*
X102980795Y-78769744D01*
X102902774Y-78958102D01*
X102863000Y-79158061D01*
X102030979Y-79158061D01*
X102037299Y-79146238D01*
X102044526Y-79122413D01*
X102046960Y-79096392D01*
X102034260Y-77800992D01*
X102031577Y-77776241D01*
X102024117Y-77752488D01*
X102012166Y-77730648D01*
X101996184Y-77711558D01*
X101976785Y-77695954D01*
X101954714Y-77684433D01*
X101930820Y-77677440D01*
X101905863Y-77675245D01*
X99657195Y-77700092D01*
X98970259Y-77073414D01*
X98950311Y-77058518D01*
X98927839Y-77047800D01*
X98903709Y-77041673D01*
X98884666Y-77040237D01*
X97614191Y-77040237D01*
X97604080Y-74340381D01*
X97969120Y-74340381D01*
X97969120Y-74544259D01*
X98008894Y-74744218D01*
X98086915Y-74932576D01*
X98111408Y-74969232D01*
X98105414Y-74983702D01*
X98065640Y-75183661D01*
X98065640Y-75387539D01*
X98105414Y-75587498D01*
X98183435Y-75775856D01*
X98296703Y-75945374D01*
X98440866Y-76089537D01*
X98610384Y-76202805D01*
X98798742Y-76280826D01*
X98998701Y-76320600D01*
X99202579Y-76320600D01*
X99402538Y-76280826D01*
X99590896Y-76202805D01*
X99760414Y-76089537D01*
X99904577Y-75945374D01*
X100017845Y-75775856D01*
X100095866Y-75587498D01*
X100135640Y-75387539D01*
X100135640Y-75183661D01*
X100095866Y-74983702D01*
X100054544Y-74883941D01*
X114326720Y-74883941D01*
X114326720Y-75087819D01*
X114366494Y-75287778D01*
X114444515Y-75476136D01*
X114557783Y-75645654D01*
X114701946Y-75789817D01*
X114871464Y-75903085D01*
X115059822Y-75981106D01*
X115259781Y-76020880D01*
X115463659Y-76020880D01*
X115663618Y-75981106D01*
X115851976Y-75903085D01*
X116021494Y-75789817D01*
X116165657Y-75645654D01*
X116278925Y-75476136D01*
X116356946Y-75287778D01*
X116396720Y-75087819D01*
X116396720Y-74883941D01*
X116356946Y-74683982D01*
X116336001Y-74633417D01*
X116390685Y-74551576D01*
X116468706Y-74363218D01*
X116508480Y-74163259D01*
X116508480Y-73959381D01*
X116468706Y-73759422D01*
X116390685Y-73571064D01*
X116277417Y-73401546D01*
X116133254Y-73257383D01*
X115963736Y-73144115D01*
X115775378Y-73066094D01*
X115575419Y-73026320D01*
X115371541Y-73026320D01*
X115171582Y-73066094D01*
X114983224Y-73144115D01*
X114813706Y-73257383D01*
X114669543Y-73401546D01*
X114556275Y-73571064D01*
X114478254Y-73759422D01*
X114438480Y-73959381D01*
X114438480Y-74163259D01*
X114478254Y-74363218D01*
X114499199Y-74413783D01*
X114444515Y-74495624D01*
X114366494Y-74683982D01*
X114326720Y-74883941D01*
X100054544Y-74883941D01*
X100017845Y-74795344D01*
X99993352Y-74758688D01*
X99999346Y-74744218D01*
X100039120Y-74544259D01*
X100039120Y-74340381D01*
X99999346Y-74140422D01*
X99921325Y-73952064D01*
X99808057Y-73782546D01*
X99663894Y-73638383D01*
X99494376Y-73525115D01*
X99306018Y-73447094D01*
X99106059Y-73407320D01*
X98902181Y-73407320D01*
X98702222Y-73447094D01*
X98513864Y-73525115D01*
X98344346Y-73638383D01*
X98200183Y-73782546D01*
X98086915Y-73952064D01*
X98008894Y-74140422D01*
X97969120Y-74340381D01*
X97604080Y-74340381D01*
X97601965Y-73775861D01*
X97599432Y-73751094D01*
X97592116Y-73727297D01*
X97580298Y-73705385D01*
X97564432Y-73686199D01*
X97545127Y-73670477D01*
X97523127Y-73658823D01*
X97499276Y-73651685D01*
X97474966Y-73649337D01*
X93283966Y-73649337D01*
X93259190Y-73651777D01*
X93235365Y-73659004D01*
X93213409Y-73670740D01*
X93194163Y-73686534D01*
X93178369Y-73705780D01*
X93166633Y-73727736D01*
X93159406Y-73751561D01*
X93156966Y-73776337D01*
X79400000Y-73776337D01*
X79400000Y-71698781D01*
X100407520Y-71698781D01*
X100407520Y-71902659D01*
X100447294Y-72102618D01*
X100525315Y-72290976D01*
X100638583Y-72460494D01*
X100782746Y-72604657D01*
X100952264Y-72717925D01*
X101140622Y-72795946D01*
X101340581Y-72835720D01*
X101544459Y-72835720D01*
X101744418Y-72795946D01*
X101932776Y-72717925D01*
X102102294Y-72604657D01*
X102246457Y-72460494D01*
X102359725Y-72290976D01*
X102437746Y-72102618D01*
X102477520Y-71902659D01*
X102477520Y-71698781D01*
X102437746Y-71498822D01*
X102383094Y-71366881D01*
X102420456Y-71351405D01*
X102589974Y-71238137D01*
X102734137Y-71093974D01*
X102847405Y-70924456D01*
X102925426Y-70736098D01*
X102965200Y-70536139D01*
X102965200Y-70332261D01*
X102925426Y-70132302D01*
X102847405Y-69943944D01*
X102734137Y-69774426D01*
X102589974Y-69630263D01*
X102420456Y-69516995D01*
X102232098Y-69438974D01*
X102032139Y-69399200D01*
X101828261Y-69399200D01*
X101628302Y-69438974D01*
X101439944Y-69516995D01*
X101270426Y-69630263D01*
X101126263Y-69774426D01*
X101012995Y-69943944D01*
X100934974Y-70132302D01*
X100895200Y-70332261D01*
X100895200Y-70536139D01*
X100934974Y-70736098D01*
X100989626Y-70868039D01*
X100952264Y-70883515D01*
X100782746Y-70996783D01*
X100638583Y-71140946D01*
X100525315Y-71310464D01*
X100447294Y-71498822D01*
X100407520Y-71698781D01*
X79400000Y-71698781D01*
X79400000Y-69444890D01*
X81362524Y-69444890D01*
X81407175Y-69592099D01*
X81532359Y-69854920D01*
X81706412Y-70088269D01*
X81922645Y-70283178D01*
X82172748Y-70432157D01*
X82447109Y-70529481D01*
X82677000Y-70408814D01*
X82677000Y-69215000D01*
X82931000Y-69215000D01*
X82931000Y-70408814D01*
X83160891Y-70529481D01*
X83435252Y-70432157D01*
X83685355Y-70283178D01*
X83901588Y-70088269D01*
X84075641Y-69854920D01*
X84200825Y-69592099D01*
X84245476Y-69444890D01*
X84124155Y-69215000D01*
X82931000Y-69215000D01*
X82677000Y-69215000D01*
X81483845Y-69215000D01*
X81362524Y-69444890D01*
X79400000Y-69444890D01*
X79400000Y-69214661D01*
X103963520Y-69214661D01*
X103963520Y-69418539D01*
X104003294Y-69618498D01*
X104081315Y-69806856D01*
X104194583Y-69976374D01*
X104338746Y-70120537D01*
X104508264Y-70233805D01*
X104696622Y-70311826D01*
X104896581Y-70351600D01*
X105100459Y-70351600D01*
X105300418Y-70311826D01*
X105488776Y-70233805D01*
X105493481Y-70230661D01*
X108271360Y-70230661D01*
X108271360Y-70434539D01*
X108311134Y-70634498D01*
X108389155Y-70822856D01*
X108502423Y-70992374D01*
X108646586Y-71136537D01*
X108816104Y-71249805D01*
X109004462Y-71327826D01*
X109204421Y-71367600D01*
X109408299Y-71367600D01*
X109608258Y-71327826D01*
X109796616Y-71249805D01*
X109966134Y-71136537D01*
X110033810Y-71068861D01*
X123231960Y-71068861D01*
X123231960Y-71272739D01*
X123271734Y-71472698D01*
X123349755Y-71661056D01*
X123463023Y-71830574D01*
X123607186Y-71974737D01*
X123776704Y-72088005D01*
X123965062Y-72166026D01*
X124165021Y-72205800D01*
X124368899Y-72205800D01*
X124568858Y-72166026D01*
X124757216Y-72088005D01*
X124926734Y-71974737D01*
X125070897Y-71830574D01*
X125184165Y-71661056D01*
X125262186Y-71472698D01*
X125301960Y-71272739D01*
X125301960Y-71068861D01*
X125262186Y-70868902D01*
X125184165Y-70680544D01*
X125070897Y-70511026D01*
X124926734Y-70366863D01*
X124757216Y-70253595D01*
X124568858Y-70175574D01*
X124368899Y-70135800D01*
X124165021Y-70135800D01*
X123965062Y-70175574D01*
X123776704Y-70253595D01*
X123607186Y-70366863D01*
X123463023Y-70511026D01*
X123349755Y-70680544D01*
X123271734Y-70868902D01*
X123231960Y-71068861D01*
X110033810Y-71068861D01*
X110110297Y-70992374D01*
X110223565Y-70822856D01*
X110301586Y-70634498D01*
X110341360Y-70434539D01*
X110341360Y-70230661D01*
X110301586Y-70030702D01*
X110223565Y-69842344D01*
X110110297Y-69672826D01*
X109966134Y-69528663D01*
X109796616Y-69415395D01*
X109608258Y-69337374D01*
X109408299Y-69297600D01*
X109204421Y-69297600D01*
X109004462Y-69337374D01*
X108816104Y-69415395D01*
X108646586Y-69528663D01*
X108502423Y-69672826D01*
X108389155Y-69842344D01*
X108311134Y-70030702D01*
X108271360Y-70230661D01*
X105493481Y-70230661D01*
X105658294Y-70120537D01*
X105802457Y-69976374D01*
X105915725Y-69806856D01*
X105993746Y-69618498D01*
X106033520Y-69418539D01*
X106033520Y-69214661D01*
X105993746Y-69014702D01*
X105915725Y-68826344D01*
X105802457Y-68656826D01*
X105658294Y-68512663D01*
X105488776Y-68399395D01*
X105300418Y-68321374D01*
X105100459Y-68281600D01*
X104896581Y-68281600D01*
X104696622Y-68321374D01*
X104508264Y-68399395D01*
X104338746Y-68512663D01*
X104194583Y-68656826D01*
X104081315Y-68826344D01*
X104003294Y-69014702D01*
X103963520Y-69214661D01*
X79400000Y-69214661D01*
X79400000Y-65698000D01*
X81315928Y-65698000D01*
X81315928Y-67398000D01*
X81328188Y-67522482D01*
X81364498Y-67642180D01*
X81423463Y-67752494D01*
X81502815Y-67849185D01*
X81599506Y-67928537D01*
X81709820Y-67987502D01*
X81790466Y-68011966D01*
X81706412Y-68087731D01*
X81532359Y-68321080D01*
X81407175Y-68583901D01*
X81362524Y-68731110D01*
X81483845Y-68961000D01*
X82677000Y-68961000D01*
X82677000Y-68941000D01*
X82931000Y-68941000D01*
X82931000Y-68961000D01*
X84124155Y-68961000D01*
X84245476Y-68731110D01*
X84200825Y-68583901D01*
X84075641Y-68321080D01*
X83901588Y-68087731D01*
X83817534Y-68011966D01*
X83898180Y-67987502D01*
X84008494Y-67928537D01*
X84105185Y-67849185D01*
X84184537Y-67752494D01*
X84243502Y-67642180D01*
X84279812Y-67522482D01*
X84292072Y-67398000D01*
X84292072Y-66309212D01*
X97310320Y-66309212D01*
X97310320Y-66532788D01*
X97353937Y-66752067D01*
X97439496Y-66958624D01*
X97563708Y-67144520D01*
X97721800Y-67302612D01*
X97907696Y-67426824D01*
X98114253Y-67512383D01*
X98333532Y-67556000D01*
X98557108Y-67556000D01*
X98776387Y-67512383D01*
X98982944Y-67426824D01*
X99138740Y-67322724D01*
X99294536Y-67426824D01*
X99501093Y-67512383D01*
X99720372Y-67556000D01*
X99943948Y-67556000D01*
X100163227Y-67512383D01*
X100210378Y-67492852D01*
X101166040Y-67492852D01*
X101166040Y-67716428D01*
X101209657Y-67935707D01*
X101295216Y-68142264D01*
X101419428Y-68328160D01*
X101577520Y-68486252D01*
X101763416Y-68610464D01*
X101969973Y-68696023D01*
X102189252Y-68739640D01*
X102412828Y-68739640D01*
X102632107Y-68696023D01*
X102838664Y-68610464D01*
X103024560Y-68486252D01*
X103182652Y-68328160D01*
X103306864Y-68142264D01*
X103392423Y-67935707D01*
X103436040Y-67716428D01*
X103436040Y-67492852D01*
X103392423Y-67273573D01*
X103306864Y-67067016D01*
X103182652Y-66881120D01*
X103024560Y-66723028D01*
X102838664Y-66598816D01*
X102632107Y-66513257D01*
X102412828Y-66469640D01*
X102189252Y-66469640D01*
X101969973Y-66513257D01*
X101763416Y-66598816D01*
X101577520Y-66723028D01*
X101419428Y-66881120D01*
X101295216Y-67067016D01*
X101209657Y-67273573D01*
X101166040Y-67492852D01*
X100210378Y-67492852D01*
X100369784Y-67426824D01*
X100555680Y-67302612D01*
X100713772Y-67144520D01*
X100837984Y-66958624D01*
X100923543Y-66752067D01*
X100967160Y-66532788D01*
X100967160Y-66309212D01*
X100923543Y-66089933D01*
X100837984Y-65883376D01*
X100713772Y-65697480D01*
X100555680Y-65539388D01*
X100369784Y-65415176D01*
X100163227Y-65329617D01*
X99943948Y-65286000D01*
X99720372Y-65286000D01*
X99501093Y-65329617D01*
X99294536Y-65415176D01*
X99138740Y-65519276D01*
X98982944Y-65415176D01*
X98776387Y-65329617D01*
X98557108Y-65286000D01*
X98333532Y-65286000D01*
X98114253Y-65329617D01*
X97907696Y-65415176D01*
X97721800Y-65539388D01*
X97563708Y-65697480D01*
X97439496Y-65883376D01*
X97353937Y-66089933D01*
X97310320Y-66309212D01*
X84292072Y-66309212D01*
X84292072Y-65698000D01*
X84279812Y-65573518D01*
X84243502Y-65453820D01*
X84184537Y-65343506D01*
X84105185Y-65246815D01*
X84008494Y-65167463D01*
X83898180Y-65108498D01*
X83778482Y-65072188D01*
X83654000Y-65059928D01*
X81954000Y-65059928D01*
X81829518Y-65072188D01*
X81709820Y-65108498D01*
X81599506Y-65167463D01*
X81502815Y-65246815D01*
X81423463Y-65343506D01*
X81364498Y-65453820D01*
X81328188Y-65573518D01*
X81315928Y-65698000D01*
X79400000Y-65698000D01*
X79400000Y-64033061D01*
X116579700Y-64033061D01*
X116579700Y-64236939D01*
X116619474Y-64436898D01*
X116697495Y-64625256D01*
X116810763Y-64794774D01*
X116954926Y-64938937D01*
X117124444Y-65052205D01*
X117312802Y-65130226D01*
X117512761Y-65170000D01*
X117716639Y-65170000D01*
X117916598Y-65130226D01*
X118104956Y-65052205D01*
X118274474Y-64938937D01*
X118418637Y-64794774D01*
X118531905Y-64625256D01*
X118609926Y-64436898D01*
X118649700Y-64236939D01*
X118649700Y-64033061D01*
X118609926Y-63833102D01*
X118531905Y-63644744D01*
X118418637Y-63475226D01*
X118274474Y-63331063D01*
X118104956Y-63217795D01*
X117916598Y-63139774D01*
X117716639Y-63100000D01*
X117512761Y-63100000D01*
X117312802Y-63139774D01*
X117124444Y-63217795D01*
X116954926Y-63331063D01*
X116810763Y-63475226D01*
X116697495Y-63644744D01*
X116619474Y-63833102D01*
X116579700Y-64033061D01*
X79400000Y-64033061D01*
X79400000Y-62555092D01*
X97107120Y-62555092D01*
X97107120Y-62778668D01*
X97150737Y-62997947D01*
X97236296Y-63204504D01*
X97360508Y-63390400D01*
X97518600Y-63548492D01*
X97704496Y-63672704D01*
X97911053Y-63758263D01*
X98130332Y-63801880D01*
X98353908Y-63801880D01*
X98573187Y-63758263D01*
X98779744Y-63672704D01*
X98960005Y-63552257D01*
X99007040Y-63599292D01*
X99192936Y-63723504D01*
X99399493Y-63809063D01*
X99618772Y-63852680D01*
X99842348Y-63852680D01*
X100061627Y-63809063D01*
X100268184Y-63723504D01*
X100454080Y-63599292D01*
X100612172Y-63441200D01*
X100736384Y-63255304D01*
X100821943Y-63048747D01*
X100865560Y-62829468D01*
X100865560Y-62605892D01*
X100821943Y-62386613D01*
X100736384Y-62180056D01*
X100620386Y-62006452D01*
X101064440Y-62006452D01*
X101064440Y-62230028D01*
X101108057Y-62449307D01*
X101193616Y-62655864D01*
X101317828Y-62841760D01*
X101475920Y-62999852D01*
X101661816Y-63124064D01*
X101868373Y-63209623D01*
X102087652Y-63253240D01*
X102311228Y-63253240D01*
X102530507Y-63209623D01*
X102737064Y-63124064D01*
X102922960Y-62999852D01*
X103081052Y-62841760D01*
X103205264Y-62655864D01*
X103290823Y-62449307D01*
X103334440Y-62230028D01*
X103334440Y-62006452D01*
X103290823Y-61787173D01*
X103205264Y-61580616D01*
X103081052Y-61394720D01*
X102922960Y-61236628D01*
X102737064Y-61112416D01*
X102530507Y-61026857D01*
X102311228Y-60983240D01*
X102087652Y-60983240D01*
X101868373Y-61026857D01*
X101661816Y-61112416D01*
X101475920Y-61236628D01*
X101317828Y-61394720D01*
X101193616Y-61580616D01*
X101108057Y-61787173D01*
X101064440Y-62006452D01*
X100620386Y-62006452D01*
X100612172Y-61994160D01*
X100454080Y-61836068D01*
X100268184Y-61711856D01*
X100061627Y-61626297D01*
X99842348Y-61582680D01*
X99618772Y-61582680D01*
X99399493Y-61626297D01*
X99192936Y-61711856D01*
X99012675Y-61832303D01*
X98965640Y-61785268D01*
X98779744Y-61661056D01*
X98573187Y-61575497D01*
X98353908Y-61531880D01*
X98130332Y-61531880D01*
X97911053Y-61575497D01*
X97704496Y-61661056D01*
X97518600Y-61785268D01*
X97360508Y-61943360D01*
X97236296Y-62129256D01*
X97150737Y-62335813D01*
X97107120Y-62555092D01*
X79400000Y-62555092D01*
X79400000Y-58692686D01*
X80551919Y-58692686D01*
X80888106Y-59161868D01*
X81518068Y-59502237D01*
X82202327Y-59713166D01*
X82914589Y-59786550D01*
X83627482Y-59719569D01*
X84313609Y-59514796D01*
X84946603Y-59180102D01*
X84973894Y-59161868D01*
X85310081Y-58692686D01*
X82931000Y-56313605D01*
X80551919Y-58692686D01*
X79400000Y-58692686D01*
X79400000Y-57013325D01*
X79550204Y-57516609D01*
X79884898Y-58149603D01*
X79903132Y-58176894D01*
X80372314Y-58513081D01*
X82751395Y-56134000D01*
X83110605Y-56134000D01*
X85489686Y-58513081D01*
X85593511Y-58438686D01*
X122080919Y-58438686D01*
X122417106Y-58907868D01*
X123047068Y-59248237D01*
X123731327Y-59459166D01*
X124443589Y-59532550D01*
X125156482Y-59465569D01*
X125842609Y-59260796D01*
X126475603Y-58926102D01*
X126502894Y-58907868D01*
X126839081Y-58438686D01*
X124460000Y-56059605D01*
X122080919Y-58438686D01*
X85593511Y-58438686D01*
X85958868Y-58176894D01*
X86299237Y-57546932D01*
X86510166Y-56862673D01*
X86583550Y-56150411D01*
X86523539Y-55511700D01*
X110293215Y-55511700D01*
X110321887Y-55802811D01*
X110406801Y-56082734D01*
X110544694Y-56340714D01*
X110730266Y-56566834D01*
X110956386Y-56752406D01*
X111214366Y-56890299D01*
X111494289Y-56975213D01*
X111712450Y-56996700D01*
X111858350Y-56996700D01*
X112076511Y-56975213D01*
X112356434Y-56890299D01*
X112614414Y-56752406D01*
X112840534Y-56566834D01*
X112865007Y-56537013D01*
X112885898Y-56605880D01*
X112944863Y-56716194D01*
X113024215Y-56812885D01*
X113120906Y-56892237D01*
X113231220Y-56951202D01*
X113350918Y-56987512D01*
X113475400Y-56999772D01*
X115175400Y-56999772D01*
X115299882Y-56987512D01*
X115419580Y-56951202D01*
X115529894Y-56892237D01*
X115626585Y-56812885D01*
X115705937Y-56716194D01*
X115764902Y-56605880D01*
X115801212Y-56486182D01*
X115813472Y-56361700D01*
X115813472Y-55863589D01*
X120807450Y-55863589D01*
X120874431Y-56576482D01*
X121079204Y-57262609D01*
X121413898Y-57895603D01*
X121432132Y-57922894D01*
X121901314Y-58259081D01*
X124280395Y-55880000D01*
X121901314Y-53500919D01*
X121432132Y-53837106D01*
X121091763Y-54467068D01*
X120880834Y-55151327D01*
X120807450Y-55863589D01*
X115813472Y-55863589D01*
X115813472Y-54661700D01*
X115801212Y-54537218D01*
X115764902Y-54417520D01*
X115705937Y-54307206D01*
X115626585Y-54210515D01*
X115529894Y-54131163D01*
X115419580Y-54072198D01*
X115299882Y-54035888D01*
X115175400Y-54023628D01*
X113475400Y-54023628D01*
X113350918Y-54035888D01*
X113231220Y-54072198D01*
X113120906Y-54131163D01*
X113024215Y-54210515D01*
X112944863Y-54307206D01*
X112885898Y-54417520D01*
X112865007Y-54486387D01*
X112840534Y-54456566D01*
X112614414Y-54270994D01*
X112356434Y-54133101D01*
X112076511Y-54048187D01*
X111858350Y-54026700D01*
X111712450Y-54026700D01*
X111494289Y-54048187D01*
X111214366Y-54133101D01*
X110956386Y-54270994D01*
X110730266Y-54456566D01*
X110544694Y-54682686D01*
X110406801Y-54940666D01*
X110321887Y-55220589D01*
X110293215Y-55511700D01*
X86523539Y-55511700D01*
X86516569Y-55437518D01*
X86311796Y-54751391D01*
X85977102Y-54118397D01*
X85958868Y-54091106D01*
X85489686Y-53754919D01*
X83110605Y-56134000D01*
X82751395Y-56134000D01*
X82737253Y-56119858D01*
X82916858Y-55940253D01*
X82931000Y-55954395D01*
X85310081Y-53575314D01*
X84973894Y-53106132D01*
X84343932Y-52765763D01*
X84227916Y-52730000D01*
X122640895Y-52730000D01*
X122444397Y-52833898D01*
X122444397Y-52833898D01*
G37*
X122444397Y-52833898D02*
X122417106Y-52852132D01*
X122080919Y-53321314D01*
X124460000Y-55700395D01*
X124474143Y-55686253D01*
X124653748Y-55865858D01*
X124639605Y-55880000D01*
X127018686Y-58259081D01*
X127487868Y-57922894D01*
X127610001Y-57696848D01*
X127610000Y-95970895D01*
X127506102Y-95774397D01*
X127487868Y-95747106D01*
X127018686Y-95410919D01*
X124639605Y-97790000D01*
X124653748Y-97804143D01*
X124474143Y-97983748D01*
X124460000Y-97969605D01*
X122080919Y-100348686D01*
X122417106Y-100817868D01*
X122643150Y-100940000D01*
X84369105Y-100940000D01*
X84565603Y-100836102D01*
X84592894Y-100817868D01*
X84929081Y-100348686D01*
X82550000Y-97969605D01*
X82535858Y-97983748D01*
X82356253Y-97804143D01*
X82370395Y-97790000D01*
X82729605Y-97790000D01*
X85108686Y-100169081D01*
X85577868Y-99832894D01*
X85918237Y-99202932D01*
X86129166Y-98518673D01*
X86202550Y-97806411D01*
X86199467Y-97773589D01*
X120807450Y-97773589D01*
X120874431Y-98486482D01*
X121079204Y-99172609D01*
X121413898Y-99805603D01*
X121432132Y-99832894D01*
X121901314Y-100169081D01*
X124280395Y-97790000D01*
X121901314Y-95410919D01*
X121432132Y-95747106D01*
X121091763Y-96377068D01*
X120880834Y-97061327D01*
X120807450Y-97773589D01*
X86199467Y-97773589D01*
X86135569Y-97093518D01*
X85930796Y-96407391D01*
X85596102Y-95774397D01*
X85577868Y-95747106D01*
X85115778Y-95416000D01*
X101889928Y-95416000D01*
X101889928Y-97116000D01*
X101902188Y-97240482D01*
X101938498Y-97360180D01*
X101997463Y-97470494D01*
X102076815Y-97567185D01*
X102173506Y-97646537D01*
X102283820Y-97705502D01*
X102403518Y-97741812D01*
X102528000Y-97754072D01*
X104228000Y-97754072D01*
X104352482Y-97741812D01*
X104472180Y-97705502D01*
X104582494Y-97646537D01*
X104679185Y-97567185D01*
X104758537Y-97470494D01*
X104817502Y-97360180D01*
X104838393Y-97291313D01*
X104862866Y-97321134D01*
X105088986Y-97506706D01*
X105346966Y-97644599D01*
X105626889Y-97729513D01*
X105845050Y-97751000D01*
X105990950Y-97751000D01*
X106209111Y-97729513D01*
X106489034Y-97644599D01*
X106747014Y-97506706D01*
X106973134Y-97321134D01*
X107158706Y-97095014D01*
X107188000Y-97040209D01*
X107217294Y-97095014D01*
X107402866Y-97321134D01*
X107628986Y-97506706D01*
X107886966Y-97644599D01*
X108166889Y-97729513D01*
X108385050Y-97751000D01*
X108530950Y-97751000D01*
X108749111Y-97729513D01*
X109029034Y-97644599D01*
X109287014Y-97506706D01*
X109513134Y-97321134D01*
X109698706Y-97095014D01*
X109728000Y-97040209D01*
X109757294Y-97095014D01*
X109942866Y-97321134D01*
X110168986Y-97506706D01*
X110426966Y-97644599D01*
X110706889Y-97729513D01*
X110925050Y-97751000D01*
X111070950Y-97751000D01*
X111289111Y-97729513D01*
X111569034Y-97644599D01*
X111827014Y-97506706D01*
X112053134Y-97321134D01*
X112238706Y-97095014D01*
X112376599Y-96837034D01*
X112461513Y-96557111D01*
X112490185Y-96266000D01*
X112461513Y-95974889D01*
X112376599Y-95694966D01*
X112238706Y-95436986D01*
X112069916Y-95231314D01*
X122080919Y-95231314D01*
X124460000Y-97610395D01*
X126839081Y-95231314D01*
X126502894Y-94762132D01*
X125872932Y-94421763D01*
X125188673Y-94210834D01*
X124476411Y-94137450D01*
X123763518Y-94204431D01*
X123077391Y-94409204D01*
X122444397Y-94743898D01*
X122417106Y-94762132D01*
X122080919Y-95231314D01*
X112069916Y-95231314D01*
X112053134Y-95210866D01*
X111827014Y-95025294D01*
X111569034Y-94887401D01*
X111289111Y-94802487D01*
X111070950Y-94781000D01*
X110925050Y-94781000D01*
X110706889Y-94802487D01*
X110426966Y-94887401D01*
X110168986Y-95025294D01*
X109942866Y-95210866D01*
X109757294Y-95436986D01*
X109728000Y-95491791D01*
X109698706Y-95436986D01*
X109513134Y-95210866D01*
X109287014Y-95025294D01*
X109029034Y-94887401D01*
X108749111Y-94802487D01*
X108530950Y-94781000D01*
X108385050Y-94781000D01*
X108166889Y-94802487D01*
X107886966Y-94887401D01*
X107628986Y-95025294D01*
X107402866Y-95210866D01*
X107217294Y-95436986D01*
X107188000Y-95491791D01*
X107158706Y-95436986D01*
X106973134Y-95210866D01*
X106747014Y-95025294D01*
X106489034Y-94887401D01*
X106209111Y-94802487D01*
X105990950Y-94781000D01*
X105845050Y-94781000D01*
X105626889Y-94802487D01*
X105346966Y-94887401D01*
X105088986Y-95025294D01*
X104862866Y-95210866D01*
X104838393Y-95240687D01*
X104817502Y-95171820D01*
X104758537Y-95061506D01*
X104679185Y-94964815D01*
X104582494Y-94885463D01*
X104472180Y-94826498D01*
X104352482Y-94790188D01*
X104228000Y-94777928D01*
X102528000Y-94777928D01*
X102403518Y-94790188D01*
X102283820Y-94826498D01*
X102173506Y-94885463D01*
X102076815Y-94964815D01*
X101997463Y-95061506D01*
X101938498Y-95171820D01*
X101902188Y-95291518D01*
X101889928Y-95416000D01*
X85115778Y-95416000D01*
X85108686Y-95410919D01*
X82729605Y-97790000D01*
X82370395Y-97790000D01*
X79991314Y-95410919D01*
X79522132Y-95747106D01*
X79400000Y-95973150D01*
X79400000Y-95231314D01*
X80170919Y-95231314D01*
X82550000Y-97610395D01*
X84929081Y-95231314D01*
X84592894Y-94762132D01*
X83962932Y-94421763D01*
X83278673Y-94210834D01*
X82566411Y-94137450D01*
X81853518Y-94204431D01*
X81167391Y-94409204D01*
X80534397Y-94743898D01*
X80507106Y-94762132D01*
X80170919Y-95231314D01*
X79400000Y-95231314D01*
X79400000Y-90891021D01*
X102256640Y-90891021D01*
X102256640Y-91094899D01*
X102296414Y-91294858D01*
X102374435Y-91483216D01*
X102487703Y-91652734D01*
X102631866Y-91796897D01*
X102801384Y-91910165D01*
X102989742Y-91988186D01*
X103189701Y-92027960D01*
X103393579Y-92027960D01*
X103593538Y-91988186D01*
X103781896Y-91910165D01*
X103951414Y-91796897D01*
X104095577Y-91652734D01*
X104208845Y-91483216D01*
X104286866Y-91294858D01*
X104326640Y-91094899D01*
X104326640Y-90891021D01*
X104286866Y-90691062D01*
X104233473Y-90562162D01*
X104290125Y-90477376D01*
X104368146Y-90289018D01*
X104407920Y-90089059D01*
X104407920Y-89885181D01*
X104368146Y-89685222D01*
X104290125Y-89496864D01*
X104176857Y-89327346D01*
X104032694Y-89183183D01*
X103863176Y-89069915D01*
X103674818Y-88991894D01*
X103474859Y-88952120D01*
X103270981Y-88952120D01*
X103071022Y-88991894D01*
X102882664Y-89069915D01*
X102713146Y-89183183D01*
X102568983Y-89327346D01*
X102455715Y-89496864D01*
X102377694Y-89685222D01*
X102337920Y-89885181D01*
X102337920Y-90089059D01*
X102377694Y-90289018D01*
X102431087Y-90417918D01*
X102374435Y-90502704D01*
X102296414Y-90691062D01*
X102256640Y-90891021D01*
X79400000Y-90891021D01*
X79400000Y-85145541D01*
X92411600Y-85145541D01*
X92411600Y-85349419D01*
X92451374Y-85549378D01*
X92529395Y-85737736D01*
X92642663Y-85907254D01*
X92786826Y-86051417D01*
X92956344Y-86164685D01*
X93144702Y-86242706D01*
X93344661Y-86282480D01*
X93548539Y-86282480D01*
X93748498Y-86242706D01*
X93772748Y-86232661D01*
X94235320Y-86232661D01*
X94235320Y-86436539D01*
X94275094Y-86636498D01*
X94353115Y-86824856D01*
X94466383Y-86994374D01*
X94610546Y-87138537D01*
X94780064Y-87251805D01*
X94968422Y-87329826D01*
X95168381Y-87369600D01*
X95372259Y-87369600D01*
X95572218Y-87329826D01*
X95760576Y-87251805D01*
X95930094Y-87138537D01*
X96074257Y-86994374D01*
X96187525Y-86824856D01*
X96265546Y-86636498D01*
X96305320Y-86436539D01*
X96305320Y-86232661D01*
X96265546Y-86032702D01*
X96187525Y-85844344D01*
X96074257Y-85674826D01*
X95930094Y-85530663D01*
X95760576Y-85417395D01*
X95572218Y-85339374D01*
X95372259Y-85299600D01*
X95168381Y-85299600D01*
X94968422Y-85339374D01*
X94780064Y-85417395D01*
X94610546Y-85530663D01*
X94466383Y-85674826D01*
X94353115Y-85844344D01*
X94275094Y-86032702D01*
X94235320Y-86232661D01*
X93772748Y-86232661D01*
X93936856Y-86164685D01*
X94106374Y-86051417D01*
X94250537Y-85907254D01*
X94363805Y-85737736D01*
X94441826Y-85549378D01*
X94481600Y-85349419D01*
X94481600Y-85145541D01*
X94470485Y-85089661D01*
X96130160Y-85089661D01*
X96130160Y-85293539D01*
X96169934Y-85493498D01*
X96247955Y-85681856D01*
X96361223Y-85851374D01*
X96505386Y-85995537D01*
X96674904Y-86108805D01*
X96863262Y-86186826D01*
X97063221Y-86226600D01*
X97267099Y-86226600D01*
X97467058Y-86186826D01*
X97655416Y-86108805D01*
X97824934Y-85995537D01*
X97969097Y-85851374D01*
X98082365Y-85681856D01*
X98160386Y-85493498D01*
X98200160Y-85293539D01*
X98200160Y-85170941D01*
X111791800Y-85170941D01*
X111791800Y-85374819D01*
X111831574Y-85574778D01*
X111909595Y-85763136D01*
X112022863Y-85932654D01*
X112167026Y-86076817D01*
X112336544Y-86190085D01*
X112524902Y-86268106D01*
X112724861Y-86307880D01*
X112928739Y-86307880D01*
X113112600Y-86271308D01*
X113112600Y-86406059D01*
X113152374Y-86606018D01*
X113230395Y-86794376D01*
X113343663Y-86963894D01*
X113487826Y-87108057D01*
X113657344Y-87221325D01*
X113845702Y-87299346D01*
X114045661Y-87339120D01*
X114249539Y-87339120D01*
X114449498Y-87299346D01*
X114637856Y-87221325D01*
X114807374Y-87108057D01*
X114951537Y-86963894D01*
X115064805Y-86794376D01*
X115142826Y-86606018D01*
X115182600Y-86406059D01*
X115182600Y-86202181D01*
X115142826Y-86002222D01*
X115064805Y-85813864D01*
X114951537Y-85644346D01*
X114807374Y-85500183D01*
X114637856Y-85386915D01*
X114449498Y-85308894D01*
X114249539Y-85269120D01*
X114045661Y-85269120D01*
X113861800Y-85305692D01*
X113861800Y-85170941D01*
X113822026Y-84970982D01*
X113744005Y-84782624D01*
X113630737Y-84613106D01*
X113486574Y-84468943D01*
X113317056Y-84355675D01*
X113128698Y-84277654D01*
X112928739Y-84237880D01*
X112724861Y-84237880D01*
X112524902Y-84277654D01*
X112336544Y-84355675D01*
X112167026Y-84468943D01*
X112022863Y-84613106D01*
X111909595Y-84782624D01*
X111831574Y-84970982D01*
X111791800Y-85170941D01*
X98200160Y-85170941D01*
X98200160Y-85089661D01*
X98160386Y-84889702D01*
X98082365Y-84701344D01*
X97969097Y-84531826D01*
X97824934Y-84387663D01*
X97655416Y-84274395D01*
X97467058Y-84196374D01*
X97267099Y-84156600D01*
X97063221Y-84156600D01*
X96863262Y-84196374D01*
X96674904Y-84274395D01*
X96505386Y-84387663D01*
X96361223Y-84531826D01*
X96247955Y-84701344D01*
X96169934Y-84889702D01*
X96130160Y-85089661D01*
X94470485Y-85089661D01*
X94441826Y-84945582D01*
X94363805Y-84757224D01*
X94250537Y-84587706D01*
X94106374Y-84443543D01*
X93936856Y-84330275D01*
X93748498Y-84252254D01*
X93548539Y-84212480D01*
X93344661Y-84212480D01*
X93144702Y-84252254D01*
X92956344Y-84330275D01*
X92786826Y-84443543D01*
X92642663Y-84587706D01*
X92529395Y-84757224D01*
X92451374Y-84945582D01*
X92411600Y-85145541D01*
X79400000Y-85145541D01*
X79400000Y-80856720D01*
X81361648Y-80856720D01*
X81361648Y-82556720D01*
X81373908Y-82681202D01*
X81410218Y-82800900D01*
X81469183Y-82911214D01*
X81548535Y-83007905D01*
X81645226Y-83087257D01*
X81755540Y-83146222D01*
X81875238Y-83182532D01*
X81999720Y-83194792D01*
X83699720Y-83194792D01*
X83824202Y-83182532D01*
X83943900Y-83146222D01*
X84054214Y-83087257D01*
X84150905Y-83007905D01*
X84230257Y-82911214D01*
X84289222Y-82800900D01*
X84325532Y-82681202D01*
X84337792Y-82556720D01*
X84337792Y-82393222D01*
X84462584Y-82476605D01*
X84650942Y-82554626D01*
X84850901Y-82594400D01*
X85054779Y-82594400D01*
X85254738Y-82554626D01*
X85443096Y-82476605D01*
X85612614Y-82363337D01*
X85756777Y-82219174D01*
X85870045Y-82049656D01*
X85948066Y-81861298D01*
X85987840Y-81661339D01*
X85987840Y-81457461D01*
X85948066Y-81257502D01*
X85870045Y-81069144D01*
X85756777Y-80899626D01*
X85612614Y-80755463D01*
X85443096Y-80642195D01*
X85254738Y-80564174D01*
X85054779Y-80524400D01*
X84850901Y-80524400D01*
X84650942Y-80564174D01*
X84462584Y-80642195D01*
X84325674Y-80733675D01*
X84325532Y-80732238D01*
X84289222Y-80612540D01*
X84230257Y-80502226D01*
X84150905Y-80405535D01*
X84054214Y-80326183D01*
X83943900Y-80267218D01*
X83863254Y-80242754D01*
X83947308Y-80166989D01*
X84121361Y-79933640D01*
X84246545Y-79670819D01*
X84291196Y-79523610D01*
X84169875Y-79293720D01*
X82976720Y-79293720D01*
X82976720Y-79313720D01*
X82722720Y-79313720D01*
X82722720Y-79293720D01*
X81529565Y-79293720D01*
X81408244Y-79523610D01*
X81452895Y-79670819D01*
X81578079Y-79933640D01*
X81752132Y-80166989D01*
X81836186Y-80242754D01*
X81755540Y-80267218D01*
X81645226Y-80326183D01*
X81548535Y-80405535D01*
X81469183Y-80502226D01*
X81410218Y-80612540D01*
X81373908Y-80732238D01*
X81361648Y-80856720D01*
X79400000Y-80856720D01*
X79400000Y-78809830D01*
X81408244Y-78809830D01*
X81529565Y-79039720D01*
X82722720Y-79039720D01*
X82722720Y-77845906D01*
X82976720Y-77845906D01*
X82976720Y-79039720D01*
X84169875Y-79039720D01*
X84291196Y-78809830D01*
X84246545Y-78662621D01*
X84121361Y-78399800D01*
X83947308Y-78166451D01*
X83731075Y-77971542D01*
X83480972Y-77822563D01*
X83206611Y-77725239D01*
X82976720Y-77845906D01*
X82722720Y-77845906D01*
X82492829Y-77725239D01*
X82218468Y-77822563D01*
X81968365Y-77971542D01*
X81752132Y-78166451D01*
X81578079Y-78399800D01*
X81452895Y-78662621D01*
X81408244Y-78809830D01*
X79400000Y-78809830D01*
X79400000Y-73776337D01*
X93156966Y-73776337D01*
X93156966Y-81015337D01*
X93159406Y-81040113D01*
X93166633Y-81063938D01*
X93178369Y-81085894D01*
X93194163Y-81105140D01*
X93213409Y-81120934D01*
X93235365Y-81132670D01*
X93259190Y-81139897D01*
X93283966Y-81142337D01*
X96966966Y-81142337D01*
X96991742Y-81139897D01*
X97015567Y-81132670D01*
X97037523Y-81120934D01*
X97056769Y-81105140D01*
X97072563Y-81085894D01*
X97084299Y-81063938D01*
X97091526Y-81040113D01*
X97093966Y-81015337D01*
X97093966Y-79999337D01*
X97436866Y-79999337D01*
X97461642Y-79996897D01*
X97485467Y-79989670D01*
X97507423Y-79977934D01*
X97526669Y-79962140D01*
X97542463Y-79942894D01*
X97554199Y-79920938D01*
X97561426Y-79897113D01*
X97563866Y-79872337D01*
X97563866Y-79554837D01*
X99748266Y-79554837D01*
X99773042Y-79552397D01*
X99796867Y-79545170D01*
X99818823Y-79533434D01*
X99838069Y-79517640D01*
X99853863Y-79498394D01*
X99865599Y-79476438D01*
X99872826Y-79452613D01*
X99875165Y-79432913D01*
X99883496Y-79224637D01*
X101919966Y-79224637D01*
X101944742Y-79222197D01*
X101968567Y-79214970D01*
X101990523Y-79203234D01*
X102009769Y-79187440D01*
X102025563Y-79168194D01*
X102030979Y-79158061D01*
X102863000Y-79158061D01*
X102863000Y-79361939D01*
X102902774Y-79561898D01*
X102980795Y-79750256D01*
X103094063Y-79919774D01*
X103238226Y-80063937D01*
X103407744Y-80177205D01*
X103596102Y-80255226D01*
X103796061Y-80295000D01*
X103999939Y-80295000D01*
X104199898Y-80255226D01*
X104388256Y-80177205D01*
X104557774Y-80063937D01*
X104701937Y-79919774D01*
X104815205Y-79750256D01*
X104893226Y-79561898D01*
X104933000Y-79361939D01*
X104933000Y-79158061D01*
X104893226Y-78958102D01*
X104815205Y-78769744D01*
X104701937Y-78600226D01*
X104557774Y-78456063D01*
X104412509Y-78359000D01*
X122332815Y-78359000D01*
X122361487Y-78650111D01*
X122446401Y-78930034D01*
X122584294Y-79188014D01*
X122769866Y-79414134D01*
X122799687Y-79438607D01*
X122730820Y-79459498D01*
X122620506Y-79518463D01*
X122523815Y-79597815D01*
X122444463Y-79694506D01*
X122385498Y-79804820D01*
X122349188Y-79924518D01*
X122336928Y-80049000D01*
X122336928Y-81749000D01*
X122349188Y-81873482D01*
X122385498Y-81993180D01*
X122444463Y-82103494D01*
X122523815Y-82200185D01*
X122620506Y-82279537D01*
X122730820Y-82338502D01*
X122850518Y-82374812D01*
X122975000Y-82387072D01*
X124675000Y-82387072D01*
X124799482Y-82374812D01*
X124919180Y-82338502D01*
X125029494Y-82279537D01*
X125126185Y-82200185D01*
X125205537Y-82103494D01*
X125264502Y-81993180D01*
X125300812Y-81873482D01*
X125313072Y-81749000D01*
X125313072Y-80049000D01*
X125300812Y-79924518D01*
X125264502Y-79804820D01*
X125205537Y-79694506D01*
X125126185Y-79597815D01*
X125029494Y-79518463D01*
X124919180Y-79459498D01*
X124850313Y-79438607D01*
X124880134Y-79414134D01*
X125065706Y-79188014D01*
X125203599Y-78930034D01*
X125288513Y-78650111D01*
X125317185Y-78359000D01*
X125288513Y-78067889D01*
X125203599Y-77787966D01*
X125065706Y-77529986D01*
X124880134Y-77303866D01*
X124654014Y-77118294D01*
X124396034Y-76980401D01*
X124116111Y-76895487D01*
X123897950Y-76874000D01*
X123752050Y-76874000D01*
X123533889Y-76895487D01*
X123253966Y-76980401D01*
X122995986Y-77118294D01*
X122769866Y-77303866D01*
X122584294Y-77529986D01*
X122446401Y-77787966D01*
X122361487Y-78067889D01*
X122332815Y-78359000D01*
X104412509Y-78359000D01*
X104388256Y-78342795D01*
X104199898Y-78264774D01*
X103999939Y-78225000D01*
X103796061Y-78225000D01*
X103596102Y-78264774D01*
X103407744Y-78342795D01*
X103238226Y-78456063D01*
X103094063Y-78600226D01*
X102980795Y-78769744D01*
X102902774Y-78958102D01*
X102863000Y-79158061D01*
X102030979Y-79158061D01*
X102037299Y-79146238D01*
X102044526Y-79122413D01*
X102046960Y-79096392D01*
X102034260Y-77800992D01*
X102031577Y-77776241D01*
X102024117Y-77752488D01*
X102012166Y-77730648D01*
X101996184Y-77711558D01*
X101976785Y-77695954D01*
X101954714Y-77684433D01*
X101930820Y-77677440D01*
X101905863Y-77675245D01*
X99657195Y-77700092D01*
X98970259Y-77073414D01*
X98950311Y-77058518D01*
X98927839Y-77047800D01*
X98903709Y-77041673D01*
X98884666Y-77040237D01*
X97614191Y-77040237D01*
X97604080Y-74340381D01*
X97969120Y-74340381D01*
X97969120Y-74544259D01*
X98008894Y-74744218D01*
X98086915Y-74932576D01*
X98111408Y-74969232D01*
X98105414Y-74983702D01*
X98065640Y-75183661D01*
X98065640Y-75387539D01*
X98105414Y-75587498D01*
X98183435Y-75775856D01*
X98296703Y-75945374D01*
X98440866Y-76089537D01*
X98610384Y-76202805D01*
X98798742Y-76280826D01*
X98998701Y-76320600D01*
X99202579Y-76320600D01*
X99402538Y-76280826D01*
X99590896Y-76202805D01*
X99760414Y-76089537D01*
X99904577Y-75945374D01*
X100017845Y-75775856D01*
X100095866Y-75587498D01*
X100135640Y-75387539D01*
X100135640Y-75183661D01*
X100095866Y-74983702D01*
X100054544Y-74883941D01*
X114326720Y-74883941D01*
X114326720Y-75087819D01*
X114366494Y-75287778D01*
X114444515Y-75476136D01*
X114557783Y-75645654D01*
X114701946Y-75789817D01*
X114871464Y-75903085D01*
X115059822Y-75981106D01*
X115259781Y-76020880D01*
X115463659Y-76020880D01*
X115663618Y-75981106D01*
X115851976Y-75903085D01*
X116021494Y-75789817D01*
X116165657Y-75645654D01*
X116278925Y-75476136D01*
X116356946Y-75287778D01*
X116396720Y-75087819D01*
X116396720Y-74883941D01*
X116356946Y-74683982D01*
X116336001Y-74633417D01*
X116390685Y-74551576D01*
X116468706Y-74363218D01*
X116508480Y-74163259D01*
X116508480Y-73959381D01*
X116468706Y-73759422D01*
X116390685Y-73571064D01*
X116277417Y-73401546D01*
X116133254Y-73257383D01*
X115963736Y-73144115D01*
X115775378Y-73066094D01*
X115575419Y-73026320D01*
X115371541Y-73026320D01*
X115171582Y-73066094D01*
X114983224Y-73144115D01*
X114813706Y-73257383D01*
X114669543Y-73401546D01*
X114556275Y-73571064D01*
X114478254Y-73759422D01*
X114438480Y-73959381D01*
X114438480Y-74163259D01*
X114478254Y-74363218D01*
X114499199Y-74413783D01*
X114444515Y-74495624D01*
X114366494Y-74683982D01*
X114326720Y-74883941D01*
X100054544Y-74883941D01*
X100017845Y-74795344D01*
X99993352Y-74758688D01*
X99999346Y-74744218D01*
X100039120Y-74544259D01*
X100039120Y-74340381D01*
X99999346Y-74140422D01*
X99921325Y-73952064D01*
X99808057Y-73782546D01*
X99663894Y-73638383D01*
X99494376Y-73525115D01*
X99306018Y-73447094D01*
X99106059Y-73407320D01*
X98902181Y-73407320D01*
X98702222Y-73447094D01*
X98513864Y-73525115D01*
X98344346Y-73638383D01*
X98200183Y-73782546D01*
X98086915Y-73952064D01*
X98008894Y-74140422D01*
X97969120Y-74340381D01*
X97604080Y-74340381D01*
X97601965Y-73775861D01*
X97599432Y-73751094D01*
X97592116Y-73727297D01*
X97580298Y-73705385D01*
X97564432Y-73686199D01*
X97545127Y-73670477D01*
X97523127Y-73658823D01*
X97499276Y-73651685D01*
X97474966Y-73649337D01*
X93283966Y-73649337D01*
X93259190Y-73651777D01*
X93235365Y-73659004D01*
X93213409Y-73670740D01*
X93194163Y-73686534D01*
X93178369Y-73705780D01*
X93166633Y-73727736D01*
X93159406Y-73751561D01*
X93156966Y-73776337D01*
X79400000Y-73776337D01*
X79400000Y-71698781D01*
X100407520Y-71698781D01*
X100407520Y-71902659D01*
X100447294Y-72102618D01*
X100525315Y-72290976D01*
X100638583Y-72460494D01*
X100782746Y-72604657D01*
X100952264Y-72717925D01*
X101140622Y-72795946D01*
X101340581Y-72835720D01*
X101544459Y-72835720D01*
X101744418Y-72795946D01*
X101932776Y-72717925D01*
X102102294Y-72604657D01*
X102246457Y-72460494D01*
X102359725Y-72290976D01*
X102437746Y-72102618D01*
X102477520Y-71902659D01*
X102477520Y-71698781D01*
X102437746Y-71498822D01*
X102383094Y-71366881D01*
X102420456Y-71351405D01*
X102589974Y-71238137D01*
X102734137Y-71093974D01*
X102847405Y-70924456D01*
X102925426Y-70736098D01*
X102965200Y-70536139D01*
X102965200Y-70332261D01*
X102925426Y-70132302D01*
X102847405Y-69943944D01*
X102734137Y-69774426D01*
X102589974Y-69630263D01*
X102420456Y-69516995D01*
X102232098Y-69438974D01*
X102032139Y-69399200D01*
X101828261Y-69399200D01*
X101628302Y-69438974D01*
X101439944Y-69516995D01*
X101270426Y-69630263D01*
X101126263Y-69774426D01*
X101012995Y-69943944D01*
X100934974Y-70132302D01*
X100895200Y-70332261D01*
X100895200Y-70536139D01*
X100934974Y-70736098D01*
X100989626Y-70868039D01*
X100952264Y-70883515D01*
X100782746Y-70996783D01*
X100638583Y-71140946D01*
X100525315Y-71310464D01*
X100447294Y-71498822D01*
X100407520Y-71698781D01*
X79400000Y-71698781D01*
X79400000Y-69444890D01*
X81362524Y-69444890D01*
X81407175Y-69592099D01*
X81532359Y-69854920D01*
X81706412Y-70088269D01*
X81922645Y-70283178D01*
X82172748Y-70432157D01*
X82447109Y-70529481D01*
X82677000Y-70408814D01*
X82677000Y-69215000D01*
X82931000Y-69215000D01*
X82931000Y-70408814D01*
X83160891Y-70529481D01*
X83435252Y-70432157D01*
X83685355Y-70283178D01*
X83901588Y-70088269D01*
X84075641Y-69854920D01*
X84200825Y-69592099D01*
X84245476Y-69444890D01*
X84124155Y-69215000D01*
X82931000Y-69215000D01*
X82677000Y-69215000D01*
X81483845Y-69215000D01*
X81362524Y-69444890D01*
X79400000Y-69444890D01*
X79400000Y-69214661D01*
X103963520Y-69214661D01*
X103963520Y-69418539D01*
X104003294Y-69618498D01*
X104081315Y-69806856D01*
X104194583Y-69976374D01*
X104338746Y-70120537D01*
X104508264Y-70233805D01*
X104696622Y-70311826D01*
X104896581Y-70351600D01*
X105100459Y-70351600D01*
X105300418Y-70311826D01*
X105488776Y-70233805D01*
X105493481Y-70230661D01*
X108271360Y-70230661D01*
X108271360Y-70434539D01*
X108311134Y-70634498D01*
X108389155Y-70822856D01*
X108502423Y-70992374D01*
X108646586Y-71136537D01*
X108816104Y-71249805D01*
X109004462Y-71327826D01*
X109204421Y-71367600D01*
X109408299Y-71367600D01*
X109608258Y-71327826D01*
X109796616Y-71249805D01*
X109966134Y-71136537D01*
X110033810Y-71068861D01*
X123231960Y-71068861D01*
X123231960Y-71272739D01*
X123271734Y-71472698D01*
X123349755Y-71661056D01*
X123463023Y-71830574D01*
X123607186Y-71974737D01*
X123776704Y-72088005D01*
X123965062Y-72166026D01*
X124165021Y-72205800D01*
X124368899Y-72205800D01*
X124568858Y-72166026D01*
X124757216Y-72088005D01*
X124926734Y-71974737D01*
X125070897Y-71830574D01*
X125184165Y-71661056D01*
X125262186Y-71472698D01*
X125301960Y-71272739D01*
X125301960Y-71068861D01*
X125262186Y-70868902D01*
X125184165Y-70680544D01*
X125070897Y-70511026D01*
X124926734Y-70366863D01*
X124757216Y-70253595D01*
X124568858Y-70175574D01*
X124368899Y-70135800D01*
X124165021Y-70135800D01*
X123965062Y-70175574D01*
X123776704Y-70253595D01*
X123607186Y-70366863D01*
X123463023Y-70511026D01*
X123349755Y-70680544D01*
X123271734Y-70868902D01*
X123231960Y-71068861D01*
X110033810Y-71068861D01*
X110110297Y-70992374D01*
X110223565Y-70822856D01*
X110301586Y-70634498D01*
X110341360Y-70434539D01*
X110341360Y-70230661D01*
X110301586Y-70030702D01*
X110223565Y-69842344D01*
X110110297Y-69672826D01*
X109966134Y-69528663D01*
X109796616Y-69415395D01*
X109608258Y-69337374D01*
X109408299Y-69297600D01*
X109204421Y-69297600D01*
X109004462Y-69337374D01*
X108816104Y-69415395D01*
X108646586Y-69528663D01*
X108502423Y-69672826D01*
X108389155Y-69842344D01*
X108311134Y-70030702D01*
X108271360Y-70230661D01*
X105493481Y-70230661D01*
X105658294Y-70120537D01*
X105802457Y-69976374D01*
X105915725Y-69806856D01*
X105993746Y-69618498D01*
X106033520Y-69418539D01*
X106033520Y-69214661D01*
X105993746Y-69014702D01*
X105915725Y-68826344D01*
X105802457Y-68656826D01*
X105658294Y-68512663D01*
X105488776Y-68399395D01*
X105300418Y-68321374D01*
X105100459Y-68281600D01*
X104896581Y-68281600D01*
X104696622Y-68321374D01*
X104508264Y-68399395D01*
X104338746Y-68512663D01*
X104194583Y-68656826D01*
X104081315Y-68826344D01*
X104003294Y-69014702D01*
X103963520Y-69214661D01*
X79400000Y-69214661D01*
X79400000Y-65698000D01*
X81315928Y-65698000D01*
X81315928Y-67398000D01*
X81328188Y-67522482D01*
X81364498Y-67642180D01*
X81423463Y-67752494D01*
X81502815Y-67849185D01*
X81599506Y-67928537D01*
X81709820Y-67987502D01*
X81790466Y-68011966D01*
X81706412Y-68087731D01*
X81532359Y-68321080D01*
X81407175Y-68583901D01*
X81362524Y-68731110D01*
X81483845Y-68961000D01*
X82677000Y-68961000D01*
X82677000Y-68941000D01*
X82931000Y-68941000D01*
X82931000Y-68961000D01*
X84124155Y-68961000D01*
X84245476Y-68731110D01*
X84200825Y-68583901D01*
X84075641Y-68321080D01*
X83901588Y-68087731D01*
X83817534Y-68011966D01*
X83898180Y-67987502D01*
X84008494Y-67928537D01*
X84105185Y-67849185D01*
X84184537Y-67752494D01*
X84243502Y-67642180D01*
X84279812Y-67522482D01*
X84292072Y-67398000D01*
X84292072Y-66309212D01*
X97310320Y-66309212D01*
X97310320Y-66532788D01*
X97353937Y-66752067D01*
X97439496Y-66958624D01*
X97563708Y-67144520D01*
X97721800Y-67302612D01*
X97907696Y-67426824D01*
X98114253Y-67512383D01*
X98333532Y-67556000D01*
X98557108Y-67556000D01*
X98776387Y-67512383D01*
X98982944Y-67426824D01*
X99138740Y-67322724D01*
X99294536Y-67426824D01*
X99501093Y-67512383D01*
X99720372Y-67556000D01*
X99943948Y-67556000D01*
X100163227Y-67512383D01*
X100210378Y-67492852D01*
X101166040Y-67492852D01*
X101166040Y-67716428D01*
X101209657Y-67935707D01*
X101295216Y-68142264D01*
X101419428Y-68328160D01*
X101577520Y-68486252D01*
X101763416Y-68610464D01*
X101969973Y-68696023D01*
X102189252Y-68739640D01*
X102412828Y-68739640D01*
X102632107Y-68696023D01*
X102838664Y-68610464D01*
X103024560Y-68486252D01*
X103182652Y-68328160D01*
X103306864Y-68142264D01*
X103392423Y-67935707D01*
X103436040Y-67716428D01*
X103436040Y-67492852D01*
X103392423Y-67273573D01*
X103306864Y-67067016D01*
X103182652Y-66881120D01*
X103024560Y-66723028D01*
X102838664Y-66598816D01*
X102632107Y-66513257D01*
X102412828Y-66469640D01*
X102189252Y-66469640D01*
X101969973Y-66513257D01*
X101763416Y-66598816D01*
X101577520Y-66723028D01*
X101419428Y-66881120D01*
X101295216Y-67067016D01*
X101209657Y-67273573D01*
X101166040Y-67492852D01*
X100210378Y-67492852D01*
X100369784Y-67426824D01*
X100555680Y-67302612D01*
X100713772Y-67144520D01*
X100837984Y-66958624D01*
X100923543Y-66752067D01*
X100967160Y-66532788D01*
X100967160Y-66309212D01*
X100923543Y-66089933D01*
X100837984Y-65883376D01*
X100713772Y-65697480D01*
X100555680Y-65539388D01*
X100369784Y-65415176D01*
X100163227Y-65329617D01*
X99943948Y-65286000D01*
X99720372Y-65286000D01*
X99501093Y-65329617D01*
X99294536Y-65415176D01*
X99138740Y-65519276D01*
X98982944Y-65415176D01*
X98776387Y-65329617D01*
X98557108Y-65286000D01*
X98333532Y-65286000D01*
X98114253Y-65329617D01*
X97907696Y-65415176D01*
X97721800Y-65539388D01*
X97563708Y-65697480D01*
X97439496Y-65883376D01*
X97353937Y-66089933D01*
X97310320Y-66309212D01*
X84292072Y-66309212D01*
X84292072Y-65698000D01*
X84279812Y-65573518D01*
X84243502Y-65453820D01*
X84184537Y-65343506D01*
X84105185Y-65246815D01*
X84008494Y-65167463D01*
X83898180Y-65108498D01*
X83778482Y-65072188D01*
X83654000Y-65059928D01*
X81954000Y-65059928D01*
X81829518Y-65072188D01*
X81709820Y-65108498D01*
X81599506Y-65167463D01*
X81502815Y-65246815D01*
X81423463Y-65343506D01*
X81364498Y-65453820D01*
X81328188Y-65573518D01*
X81315928Y-65698000D01*
X79400000Y-65698000D01*
X79400000Y-64033061D01*
X116579700Y-64033061D01*
X116579700Y-64236939D01*
X116619474Y-64436898D01*
X116697495Y-64625256D01*
X116810763Y-64794774D01*
X116954926Y-64938937D01*
X117124444Y-65052205D01*
X117312802Y-65130226D01*
X117512761Y-65170000D01*
X117716639Y-65170000D01*
X117916598Y-65130226D01*
X118104956Y-65052205D01*
X118274474Y-64938937D01*
X118418637Y-64794774D01*
X118531905Y-64625256D01*
X118609926Y-64436898D01*
X118649700Y-64236939D01*
X118649700Y-64033061D01*
X118609926Y-63833102D01*
X118531905Y-63644744D01*
X118418637Y-63475226D01*
X118274474Y-63331063D01*
X118104956Y-63217795D01*
X117916598Y-63139774D01*
X117716639Y-63100000D01*
X117512761Y-63100000D01*
X117312802Y-63139774D01*
X117124444Y-63217795D01*
X116954926Y-63331063D01*
X116810763Y-63475226D01*
X116697495Y-63644744D01*
X116619474Y-63833102D01*
X116579700Y-64033061D01*
X79400000Y-64033061D01*
X79400000Y-62555092D01*
X97107120Y-62555092D01*
X97107120Y-62778668D01*
X97150737Y-62997947D01*
X97236296Y-63204504D01*
X97360508Y-63390400D01*
X97518600Y-63548492D01*
X97704496Y-63672704D01*
X97911053Y-63758263D01*
X98130332Y-63801880D01*
X98353908Y-63801880D01*
X98573187Y-63758263D01*
X98779744Y-63672704D01*
X98960005Y-63552257D01*
X99007040Y-63599292D01*
X99192936Y-63723504D01*
X99399493Y-63809063D01*
X99618772Y-63852680D01*
X99842348Y-63852680D01*
X100061627Y-63809063D01*
X100268184Y-63723504D01*
X100454080Y-63599292D01*
X100612172Y-63441200D01*
X100736384Y-63255304D01*
X100821943Y-63048747D01*
X100865560Y-62829468D01*
X100865560Y-62605892D01*
X100821943Y-62386613D01*
X100736384Y-62180056D01*
X100620386Y-62006452D01*
X101064440Y-62006452D01*
X101064440Y-62230028D01*
X101108057Y-62449307D01*
X101193616Y-62655864D01*
X101317828Y-62841760D01*
X101475920Y-62999852D01*
X101661816Y-63124064D01*
X101868373Y-63209623D01*
X102087652Y-63253240D01*
X102311228Y-63253240D01*
X102530507Y-63209623D01*
X102737064Y-63124064D01*
X102922960Y-62999852D01*
X103081052Y-62841760D01*
X103205264Y-62655864D01*
X103290823Y-62449307D01*
X103334440Y-62230028D01*
X103334440Y-62006452D01*
X103290823Y-61787173D01*
X103205264Y-61580616D01*
X103081052Y-61394720D01*
X102922960Y-61236628D01*
X102737064Y-61112416D01*
X102530507Y-61026857D01*
X102311228Y-60983240D01*
X102087652Y-60983240D01*
X101868373Y-61026857D01*
X101661816Y-61112416D01*
X101475920Y-61236628D01*
X101317828Y-61394720D01*
X101193616Y-61580616D01*
X101108057Y-61787173D01*
X101064440Y-62006452D01*
X100620386Y-62006452D01*
X100612172Y-61994160D01*
X100454080Y-61836068D01*
X100268184Y-61711856D01*
X100061627Y-61626297D01*
X99842348Y-61582680D01*
X99618772Y-61582680D01*
X99399493Y-61626297D01*
X99192936Y-61711856D01*
X99012675Y-61832303D01*
X98965640Y-61785268D01*
X98779744Y-61661056D01*
X98573187Y-61575497D01*
X98353908Y-61531880D01*
X98130332Y-61531880D01*
X97911053Y-61575497D01*
X97704496Y-61661056D01*
X97518600Y-61785268D01*
X97360508Y-61943360D01*
X97236296Y-62129256D01*
X97150737Y-62335813D01*
X97107120Y-62555092D01*
X79400000Y-62555092D01*
X79400000Y-58692686D01*
X80551919Y-58692686D01*
X80888106Y-59161868D01*
X81518068Y-59502237D01*
X82202327Y-59713166D01*
X82914589Y-59786550D01*
X83627482Y-59719569D01*
X84313609Y-59514796D01*
X84946603Y-59180102D01*
X84973894Y-59161868D01*
X85310081Y-58692686D01*
X82931000Y-56313605D01*
X80551919Y-58692686D01*
X79400000Y-58692686D01*
X79400000Y-57013325D01*
X79550204Y-57516609D01*
X79884898Y-58149603D01*
X79903132Y-58176894D01*
X80372314Y-58513081D01*
X82751395Y-56134000D01*
X83110605Y-56134000D01*
X85489686Y-58513081D01*
X85593511Y-58438686D01*
X122080919Y-58438686D01*
X122417106Y-58907868D01*
X123047068Y-59248237D01*
X123731327Y-59459166D01*
X124443589Y-59532550D01*
X125156482Y-59465569D01*
X125842609Y-59260796D01*
X126475603Y-58926102D01*
X126502894Y-58907868D01*
X126839081Y-58438686D01*
X124460000Y-56059605D01*
X122080919Y-58438686D01*
X85593511Y-58438686D01*
X85958868Y-58176894D01*
X86299237Y-57546932D01*
X86510166Y-56862673D01*
X86583550Y-56150411D01*
X86523539Y-55511700D01*
X110293215Y-55511700D01*
X110321887Y-55802811D01*
X110406801Y-56082734D01*
X110544694Y-56340714D01*
X110730266Y-56566834D01*
X110956386Y-56752406D01*
X111214366Y-56890299D01*
X111494289Y-56975213D01*
X111712450Y-56996700D01*
X111858350Y-56996700D01*
X112076511Y-56975213D01*
X112356434Y-56890299D01*
X112614414Y-56752406D01*
X112840534Y-56566834D01*
X112865007Y-56537013D01*
X112885898Y-56605880D01*
X112944863Y-56716194D01*
X113024215Y-56812885D01*
X113120906Y-56892237D01*
X113231220Y-56951202D01*
X113350918Y-56987512D01*
X113475400Y-56999772D01*
X115175400Y-56999772D01*
X115299882Y-56987512D01*
X115419580Y-56951202D01*
X115529894Y-56892237D01*
X115626585Y-56812885D01*
X115705937Y-56716194D01*
X115764902Y-56605880D01*
X115801212Y-56486182D01*
X115813472Y-56361700D01*
X115813472Y-55863589D01*
X120807450Y-55863589D01*
X120874431Y-56576482D01*
X121079204Y-57262609D01*
X121413898Y-57895603D01*
X121432132Y-57922894D01*
X121901314Y-58259081D01*
X124280395Y-55880000D01*
X121901314Y-53500919D01*
X121432132Y-53837106D01*
X121091763Y-54467068D01*
X120880834Y-55151327D01*
X120807450Y-55863589D01*
X115813472Y-55863589D01*
X115813472Y-54661700D01*
X115801212Y-54537218D01*
X115764902Y-54417520D01*
X115705937Y-54307206D01*
X115626585Y-54210515D01*
X115529894Y-54131163D01*
X115419580Y-54072198D01*
X115299882Y-54035888D01*
X115175400Y-54023628D01*
X113475400Y-54023628D01*
X113350918Y-54035888D01*
X113231220Y-54072198D01*
X113120906Y-54131163D01*
X113024215Y-54210515D01*
X112944863Y-54307206D01*
X112885898Y-54417520D01*
X112865007Y-54486387D01*
X112840534Y-54456566D01*
X112614414Y-54270994D01*
X112356434Y-54133101D01*
X112076511Y-54048187D01*
X111858350Y-54026700D01*
X111712450Y-54026700D01*
X111494289Y-54048187D01*
X111214366Y-54133101D01*
X110956386Y-54270994D01*
X110730266Y-54456566D01*
X110544694Y-54682686D01*
X110406801Y-54940666D01*
X110321887Y-55220589D01*
X110293215Y-55511700D01*
X86523539Y-55511700D01*
X86516569Y-55437518D01*
X86311796Y-54751391D01*
X85977102Y-54118397D01*
X85958868Y-54091106D01*
X85489686Y-53754919D01*
X83110605Y-56134000D01*
X82751395Y-56134000D01*
X82737253Y-56119858D01*
X82916858Y-55940253D01*
X82931000Y-55954395D01*
X85310081Y-53575314D01*
X84973894Y-53106132D01*
X84343932Y-52765763D01*
X84227916Y-52730000D01*
X122640895Y-52730000D01*
X122444397Y-52833898D01*
M02*
