M48
; DRILL file {KiCad (5.1.4)-1} date 27/10/2020 13:40:57
; FORMAT={-:-/ absolute / inch / decimal}
; #@! TF.CreationDate,2020-10-27T13:40:57+01:00
; #@! TF.GenerationSoftware,Kicad,Pcbnew,(5.1.4)-1
; #@! TF.FileFunction,Plated,1,4,PTH
FMAT,2
INCH
T1C0.0157
T2C0.0197
T3C0.0315
T4C0.0394
T5C0.1181
%
G90
G05
T1
X3.341Y-3.1086
X3.3446Y-3.211
X3.679Y-3.3562
X3.706Y-3.159
X3.7508Y-3.399
X3.8132Y-3.2058
X3.815Y-2.9449
X3.8254Y-3.354
X3.861Y-2.9604
X3.8854Y-3.1768
X3.8978Y-2.9308
X3.8982Y-2.8694
X3.9016Y-2.964
X3.9898Y-3.5012
X3.9902Y-3.456
X3.9938Y-2.8268
X4.013Y-2.773
X4.0666Y-3.5824
X4.0692Y-2.7696
X4.0698Y-3.5428
X4.0706Y-2.7278
X4.0905Y-3.1205
X4.1042Y-2.7864
X4.1338Y-2.729
X4.2686Y-3.5328
X4.3034Y-2.769
X4.341Y-3.5608
X4.342Y-3.6018
X4.4008Y-3.4788
X4.442Y-3.3572
X4.4544Y-2.8708
X4.494Y-3.3978
X4.5012Y-3.4436
X4.5018Y-2.862
X4.5418Y-2.9522
X4.5462Y-2.9158
X4.623Y-2.9534
X4.6305Y-2.525
X4.7864Y-3.299
X4.8924Y-2.802
X4.9066Y-2.465
X4.9542Y-2.7992
X4.993Y-2.8016
T2
X4.8114Y-2.2
X4.8374Y-2.1374
X4.8374Y-2.2626
X4.9Y-2.1114
X4.9Y-2.2886
X4.9626Y-2.1374
X4.9626Y-2.2626
X4.9886Y-2.2
X4.8114Y-3.85
X4.8374Y-3.7874
X4.8374Y-3.9126
X4.9Y-3.7614
X4.9Y-3.9386
X4.9626Y-3.7874
X4.9626Y-3.9126
X4.9886Y-3.85
X3.1614Y-3.85
X3.1874Y-3.7874
X3.1874Y-3.9126
X3.25Y-3.7614
X3.25Y-3.9386
X3.3126Y-3.7874
X3.3126Y-3.9126
X3.3386Y-3.85
X3.1764Y-2.21
X3.2024Y-2.1474
X3.2024Y-2.2726
X3.265Y-2.1214
X3.265Y-2.2986
X3.3276Y-2.1474
X3.3276Y-2.2726
X3.3536Y-2.21
T3
X3.261Y-2.8156
X3.261Y-2.95
X3.3Y-3.5
X3.5Y-2.9
X3.5Y-3.3
X3.55Y-2.2
X3.6Y-3.5
X3.6Y-3.9
X3.6208Y-2.4042
X3.6858Y-2.401
X3.7534Y-2.372
X3.7886Y-2.3062
X3.8384Y-2.3744
X3.8678Y-2.4672
X3.8758Y-2.615
X3.8924Y-2.7342
X3.9Y-3.9
X3.9264Y-2.4692
X3.9304Y-2.615
X3.9458Y-2.7342
X3.95Y-2.2
X3.95Y-2.2
X4.0236Y-2.4456
X4.0276Y-2.6616
X4.1838Y-2.3254
X4.35Y-3.9
X4.65Y-2.2
X4.65Y-3.8
X4.7Y-3.55
X4.95Y-3.4
X4.95Y-3.55
T4
X3.26Y-2.62
X3.26Y-2.72
X4.07Y-3.79
X4.17Y-3.79
X4.27Y-3.79
X4.37Y-3.79
X3.2618Y-3.1168
X3.2618Y-3.2168
X4.401Y-2.1855
X4.501Y-2.1855
X4.875Y-3.085
X4.875Y-3.185
T5
X3.25Y-3.85
X3.265Y-2.21
X4.9Y-2.2
X4.9Y-3.85
T0
M30
