G04 #@! TF.GenerationSoftware,KiCad,Pcbnew,(5.1.4)-1*
G04 #@! TF.CreationDate,2020-10-27T13:41:20+01:00*
G04 #@! TF.ProjectId,STm32f405xx board,53546d33-3266-4343-9035-787820626f61,rev?*
G04 #@! TF.SameCoordinates,Original*
G04 #@! TF.FileFunction,Copper,L3,Inr*
G04 #@! TF.FilePolarity,Positive*
%FSLAX46Y46*%
G04 Gerber Fmt 4.6, Leading zero omitted, Abs format (unit mm)*
G04 Created by KiCad (PCBNEW (5.1.4)-1) date 2020-10-27 13:41:20*
%MOMM*%
%LPD*%
G04 APERTURE LIST*
%ADD10C,0.800000*%
%ADD11C,6.000000*%
%ADD12O,1.700000X1.700000*%
%ADD13R,1.700000X1.700000*%
%ADD14C,1.000000*%
%ADD15C,0.254000*%
G04 APERTURE END LIST*
D10*
X126050990Y-54289010D03*
X124460000Y-53630000D03*
X122869010Y-54289010D03*
X122210000Y-55880000D03*
X122869010Y-57470990D03*
X124460000Y-58130000D03*
X126050990Y-57470990D03*
X126710000Y-55880000D03*
D11*
X124460000Y-55880000D03*
X124460000Y-97790000D03*
D10*
X126710000Y-97790000D03*
X126050990Y-99380990D03*
X124460000Y-100040000D03*
X122869010Y-99380990D03*
X122210000Y-97790000D03*
X122869010Y-96199010D03*
X124460000Y-95540000D03*
X126050990Y-96199010D03*
X84521990Y-54543010D03*
X82931000Y-53884000D03*
X81340010Y-54543010D03*
X80681000Y-56134000D03*
X81340010Y-57724990D03*
X82931000Y-58384000D03*
X84521990Y-57724990D03*
X85181000Y-56134000D03*
D11*
X82931000Y-56134000D03*
X82550000Y-97790000D03*
D10*
X84800000Y-97790000D03*
X84140990Y-99380990D03*
X82550000Y-100040000D03*
X80959010Y-99380990D03*
X80300000Y-97790000D03*
X80959010Y-96199010D03*
X82550000Y-95540000D03*
X84140990Y-96199010D03*
D12*
X123825000Y-78359000D03*
D13*
X123825000Y-80899000D03*
X114325400Y-55511700D03*
D12*
X111785400Y-55511700D03*
D13*
X103378000Y-96266000D03*
D12*
X105918000Y-96266000D03*
X108458000Y-96266000D03*
X110998000Y-96266000D03*
X82804000Y-69088000D03*
D13*
X82804000Y-66548000D03*
X82849720Y-81706720D03*
D12*
X82849720Y-79166720D03*
D14*
X99730560Y-62717680D03*
X98445320Y-66421000D03*
X99832160Y-66421000D03*
X102301040Y-67604640D03*
X102199440Y-62118240D03*
X98242120Y-62666880D03*
D10*
X101442520Y-71800720D03*
X101930200Y-70434200D03*
X99004120Y-74442320D03*
X115361720Y-74985880D03*
X115473480Y-74061320D03*
X112826800Y-85272880D03*
X114147600Y-86304120D03*
X103372920Y-89987120D03*
X103291640Y-90992960D03*
X95270320Y-86334600D03*
X99100640Y-75285600D03*
X93446600Y-85247480D03*
X97165160Y-85191600D03*
X104998520Y-69316600D03*
X109306360Y-70332600D03*
X84952840Y-81559400D03*
X124266960Y-71170800D03*
X117614700Y-64135000D03*
X103898000Y-79260000D03*
X96900000Y-74800000D03*
X94132400Y-80238600D03*
X99014280Y-72882760D03*
X103357680Y-70347840D03*
D14*
X95336360Y-60248800D03*
X93619320Y-60985400D03*
X97495360Y-60309760D03*
X96230440Y-58577480D03*
X91968320Y-61066680D03*
D10*
X114345720Y-72694800D03*
X117424200Y-75016360D03*
X121574560Y-83794600D03*
X114330480Y-87467440D03*
X110261400Y-90444320D03*
X108422440Y-89733120D03*
X101340920Y-88930480D03*
X96855280Y-81427320D03*
X98069400Y-75194160D03*
X113141760Y-72918320D03*
X111780320Y-88361520D03*
X101351080Y-87782400D03*
X98689160Y-80690720D03*
D14*
X98866960Y-69448680D03*
X100223320Y-69448680D03*
X106268520Y-59065160D03*
D10*
X110286800Y-91485720D03*
X104246680Y-70774560D03*
X103393240Y-69286120D03*
X84861400Y-78958440D03*
X125836680Y-71099680D03*
X126822200Y-71160640D03*
X124627640Y-62611000D03*
D14*
X82829400Y-71516240D03*
X82829400Y-74930000D03*
X88900000Y-73660000D03*
X90170000Y-55880000D03*
X100330000Y-55880000D03*
X100330000Y-55880000D03*
X118110000Y-55880000D03*
X125730000Y-86360000D03*
X125730000Y-90170000D03*
X119380000Y-90170000D03*
X118110000Y-96520000D03*
X110490000Y-99060000D03*
X99060000Y-99060000D03*
X91440000Y-99060000D03*
X91440000Y-88900000D03*
X83820000Y-88900000D03*
X88900000Y-83820000D03*
D15*
G36*
X122142823Y-53056511D02*
G01*
X121636511Y-53562823D01*
X121238705Y-54158182D01*
X120964691Y-54819710D01*
X120825000Y-55521984D01*
X120825000Y-56238016D01*
X120964691Y-56940290D01*
X121238705Y-57601818D01*
X121636511Y-58197177D01*
X122142823Y-58703489D01*
X122738182Y-59101295D01*
X123399710Y-59375309D01*
X124101984Y-59515000D01*
X124818016Y-59515000D01*
X125520290Y-59375309D01*
X126181818Y-59101295D01*
X126777177Y-58703489D01*
X127283489Y-58197177D01*
X127610001Y-57708517D01*
X127610001Y-70484730D01*
X127481974Y-70356703D01*
X127312456Y-70243435D01*
X127124098Y-70165414D01*
X126924139Y-70125640D01*
X126720261Y-70125640D01*
X126520302Y-70165414D01*
X126385172Y-70221387D01*
X126326936Y-70182475D01*
X126138578Y-70104454D01*
X125938619Y-70064680D01*
X125734741Y-70064680D01*
X125534782Y-70104454D01*
X125346424Y-70182475D01*
X125176906Y-70295743D01*
X125032743Y-70439906D01*
X124919475Y-70609424D01*
X124841454Y-70797782D01*
X124801680Y-70997741D01*
X124801680Y-71201619D01*
X124841454Y-71401578D01*
X124919475Y-71589936D01*
X125032743Y-71759454D01*
X125176906Y-71903617D01*
X125346424Y-72016885D01*
X125534782Y-72094906D01*
X125734741Y-72134680D01*
X125938619Y-72134680D01*
X126138578Y-72094906D01*
X126273708Y-72038933D01*
X126331944Y-72077845D01*
X126520302Y-72155866D01*
X126720261Y-72195640D01*
X126924139Y-72195640D01*
X127124098Y-72155866D01*
X127312456Y-72077845D01*
X127481974Y-71964577D01*
X127610001Y-71836550D01*
X127610000Y-95961482D01*
X127283489Y-95472823D01*
X126777177Y-94966511D01*
X126181818Y-94568705D01*
X125520290Y-94294691D01*
X124818016Y-94155000D01*
X124101984Y-94155000D01*
X123399710Y-94294691D01*
X122738182Y-94568705D01*
X122142823Y-94966511D01*
X121636511Y-95472823D01*
X121238705Y-96068182D01*
X120964691Y-96729710D01*
X120825000Y-97431984D01*
X120825000Y-98148016D01*
X120964691Y-98850290D01*
X121238705Y-99511818D01*
X121636511Y-100107177D01*
X122142823Y-100613489D01*
X122631481Y-100940000D01*
X84378519Y-100940000D01*
X84867177Y-100613489D01*
X85373489Y-100107177D01*
X85771295Y-99511818D01*
X86004748Y-98948212D01*
X90305000Y-98948212D01*
X90305000Y-99171788D01*
X90348617Y-99391067D01*
X90434176Y-99597624D01*
X90558388Y-99783520D01*
X90716480Y-99941612D01*
X90902376Y-100065824D01*
X91108933Y-100151383D01*
X91328212Y-100195000D01*
X91551788Y-100195000D01*
X91771067Y-100151383D01*
X91977624Y-100065824D01*
X92163520Y-99941612D01*
X92321612Y-99783520D01*
X92445824Y-99597624D01*
X92531383Y-99391067D01*
X92575000Y-99171788D01*
X92575000Y-98948212D01*
X97925000Y-98948212D01*
X97925000Y-99171788D01*
X97968617Y-99391067D01*
X98054176Y-99597624D01*
X98178388Y-99783520D01*
X98336480Y-99941612D01*
X98522376Y-100065824D01*
X98728933Y-100151383D01*
X98948212Y-100195000D01*
X99171788Y-100195000D01*
X99391067Y-100151383D01*
X99597624Y-100065824D01*
X99783520Y-99941612D01*
X99941612Y-99783520D01*
X100065824Y-99597624D01*
X100151383Y-99391067D01*
X100195000Y-99171788D01*
X100195000Y-98948212D01*
X109355000Y-98948212D01*
X109355000Y-99171788D01*
X109398617Y-99391067D01*
X109484176Y-99597624D01*
X109608388Y-99783520D01*
X109766480Y-99941612D01*
X109952376Y-100065824D01*
X110158933Y-100151383D01*
X110378212Y-100195000D01*
X110601788Y-100195000D01*
X110821067Y-100151383D01*
X111027624Y-100065824D01*
X111213520Y-99941612D01*
X111371612Y-99783520D01*
X111495824Y-99597624D01*
X111581383Y-99391067D01*
X111625000Y-99171788D01*
X111625000Y-98948212D01*
X111581383Y-98728933D01*
X111495824Y-98522376D01*
X111371612Y-98336480D01*
X111213520Y-98178388D01*
X111027624Y-98054176D01*
X110821067Y-97968617D01*
X110601788Y-97925000D01*
X110378212Y-97925000D01*
X110158933Y-97968617D01*
X109952376Y-98054176D01*
X109766480Y-98178388D01*
X109608388Y-98336480D01*
X109484176Y-98522376D01*
X109398617Y-98728933D01*
X109355000Y-98948212D01*
X100195000Y-98948212D01*
X100151383Y-98728933D01*
X100065824Y-98522376D01*
X99941612Y-98336480D01*
X99783520Y-98178388D01*
X99597624Y-98054176D01*
X99391067Y-97968617D01*
X99171788Y-97925000D01*
X98948212Y-97925000D01*
X98728933Y-97968617D01*
X98522376Y-98054176D01*
X98336480Y-98178388D01*
X98178388Y-98336480D01*
X98054176Y-98522376D01*
X97968617Y-98728933D01*
X97925000Y-98948212D01*
X92575000Y-98948212D01*
X92531383Y-98728933D01*
X92445824Y-98522376D01*
X92321612Y-98336480D01*
X92163520Y-98178388D01*
X91977624Y-98054176D01*
X91771067Y-97968617D01*
X91551788Y-97925000D01*
X91328212Y-97925000D01*
X91108933Y-97968617D01*
X90902376Y-98054176D01*
X90716480Y-98178388D01*
X90558388Y-98336480D01*
X90434176Y-98522376D01*
X90348617Y-98728933D01*
X90305000Y-98948212D01*
X86004748Y-98948212D01*
X86045309Y-98850290D01*
X86185000Y-98148016D01*
X86185000Y-97431984D01*
X86045309Y-96729710D01*
X85771295Y-96068182D01*
X85373489Y-95472823D01*
X85316666Y-95416000D01*
X101889928Y-95416000D01*
X101889928Y-97116000D01*
X101902188Y-97240482D01*
X101938498Y-97360180D01*
X101997463Y-97470494D01*
X102076815Y-97567185D01*
X102173506Y-97646537D01*
X102283820Y-97705502D01*
X102403518Y-97741812D01*
X102528000Y-97754072D01*
X104228000Y-97754072D01*
X104352482Y-97741812D01*
X104472180Y-97705502D01*
X104582494Y-97646537D01*
X104679185Y-97567185D01*
X104758537Y-97470494D01*
X104817502Y-97360180D01*
X104838393Y-97291313D01*
X104862866Y-97321134D01*
X105088986Y-97506706D01*
X105346966Y-97644599D01*
X105626889Y-97729513D01*
X105845050Y-97751000D01*
X105990950Y-97751000D01*
X106209111Y-97729513D01*
X106489034Y-97644599D01*
X106747014Y-97506706D01*
X106973134Y-97321134D01*
X107158706Y-97095014D01*
X107188000Y-97040209D01*
X107217294Y-97095014D01*
X107402866Y-97321134D01*
X107628986Y-97506706D01*
X107886966Y-97644599D01*
X108166889Y-97729513D01*
X108385050Y-97751000D01*
X108530950Y-97751000D01*
X108749111Y-97729513D01*
X109029034Y-97644599D01*
X109287014Y-97506706D01*
X109513134Y-97321134D01*
X109698706Y-97095014D01*
X109728000Y-97040209D01*
X109757294Y-97095014D01*
X109942866Y-97321134D01*
X110168986Y-97506706D01*
X110426966Y-97644599D01*
X110706889Y-97729513D01*
X110925050Y-97751000D01*
X111070950Y-97751000D01*
X111289111Y-97729513D01*
X111569034Y-97644599D01*
X111827014Y-97506706D01*
X112053134Y-97321134D01*
X112238706Y-97095014D01*
X112376599Y-96837034D01*
X112461513Y-96557111D01*
X112476178Y-96408212D01*
X116975000Y-96408212D01*
X116975000Y-96631788D01*
X117018617Y-96851067D01*
X117104176Y-97057624D01*
X117228388Y-97243520D01*
X117386480Y-97401612D01*
X117572376Y-97525824D01*
X117778933Y-97611383D01*
X117998212Y-97655000D01*
X118221788Y-97655000D01*
X118441067Y-97611383D01*
X118647624Y-97525824D01*
X118833520Y-97401612D01*
X118991612Y-97243520D01*
X119115824Y-97057624D01*
X119201383Y-96851067D01*
X119245000Y-96631788D01*
X119245000Y-96408212D01*
X119201383Y-96188933D01*
X119115824Y-95982376D01*
X118991612Y-95796480D01*
X118833520Y-95638388D01*
X118647624Y-95514176D01*
X118441067Y-95428617D01*
X118221788Y-95385000D01*
X117998212Y-95385000D01*
X117778933Y-95428617D01*
X117572376Y-95514176D01*
X117386480Y-95638388D01*
X117228388Y-95796480D01*
X117104176Y-95982376D01*
X117018617Y-96188933D01*
X116975000Y-96408212D01*
X112476178Y-96408212D01*
X112490185Y-96266000D01*
X112461513Y-95974889D01*
X112376599Y-95694966D01*
X112238706Y-95436986D01*
X112053134Y-95210866D01*
X111827014Y-95025294D01*
X111569034Y-94887401D01*
X111289111Y-94802487D01*
X111070950Y-94781000D01*
X110925050Y-94781000D01*
X110706889Y-94802487D01*
X110426966Y-94887401D01*
X110168986Y-95025294D01*
X109942866Y-95210866D01*
X109757294Y-95436986D01*
X109728000Y-95491791D01*
X109698706Y-95436986D01*
X109513134Y-95210866D01*
X109287014Y-95025294D01*
X109029034Y-94887401D01*
X108749111Y-94802487D01*
X108530950Y-94781000D01*
X108385050Y-94781000D01*
X108166889Y-94802487D01*
X107886966Y-94887401D01*
X107628986Y-95025294D01*
X107402866Y-95210866D01*
X107217294Y-95436986D01*
X107188000Y-95491791D01*
X107158706Y-95436986D01*
X106973134Y-95210866D01*
X106747014Y-95025294D01*
X106489034Y-94887401D01*
X106209111Y-94802487D01*
X105990950Y-94781000D01*
X105845050Y-94781000D01*
X105626889Y-94802487D01*
X105346966Y-94887401D01*
X105088986Y-95025294D01*
X104862866Y-95210866D01*
X104838393Y-95240687D01*
X104817502Y-95171820D01*
X104758537Y-95061506D01*
X104679185Y-94964815D01*
X104582494Y-94885463D01*
X104472180Y-94826498D01*
X104352482Y-94790188D01*
X104228000Y-94777928D01*
X102528000Y-94777928D01*
X102403518Y-94790188D01*
X102283820Y-94826498D01*
X102173506Y-94885463D01*
X102076815Y-94964815D01*
X101997463Y-95061506D01*
X101938498Y-95171820D01*
X101902188Y-95291518D01*
X101889928Y-95416000D01*
X85316666Y-95416000D01*
X84867177Y-94966511D01*
X84271818Y-94568705D01*
X83610290Y-94294691D01*
X82908016Y-94155000D01*
X82191984Y-94155000D01*
X81489710Y-94294691D01*
X80828182Y-94568705D01*
X80232823Y-94966511D01*
X79726511Y-95472823D01*
X79400000Y-95961481D01*
X79400000Y-88788212D01*
X82685000Y-88788212D01*
X82685000Y-89011788D01*
X82728617Y-89231067D01*
X82814176Y-89437624D01*
X82938388Y-89623520D01*
X83096480Y-89781612D01*
X83282376Y-89905824D01*
X83488933Y-89991383D01*
X83708212Y-90035000D01*
X83931788Y-90035000D01*
X84151067Y-89991383D01*
X84357624Y-89905824D01*
X84543520Y-89781612D01*
X84701612Y-89623520D01*
X84825824Y-89437624D01*
X84911383Y-89231067D01*
X84955000Y-89011788D01*
X84955000Y-88788212D01*
X90305000Y-88788212D01*
X90305000Y-89011788D01*
X90348617Y-89231067D01*
X90434176Y-89437624D01*
X90558388Y-89623520D01*
X90716480Y-89781612D01*
X90902376Y-89905824D01*
X91108933Y-89991383D01*
X91328212Y-90035000D01*
X91551788Y-90035000D01*
X91771067Y-89991383D01*
X91977624Y-89905824D01*
X92163520Y-89781612D01*
X92321612Y-89623520D01*
X92445824Y-89437624D01*
X92531383Y-89231067D01*
X92575000Y-89011788D01*
X92575000Y-88828541D01*
X100305920Y-88828541D01*
X100305920Y-89032419D01*
X100345694Y-89232378D01*
X100423715Y-89420736D01*
X100536983Y-89590254D01*
X100681146Y-89734417D01*
X100850664Y-89847685D01*
X101039022Y-89925706D01*
X101238981Y-89965480D01*
X101442859Y-89965480D01*
X101642818Y-89925706D01*
X101831176Y-89847685D01*
X102000694Y-89734417D01*
X102103930Y-89631181D01*
X107387440Y-89631181D01*
X107387440Y-89835059D01*
X107427214Y-90035018D01*
X107505235Y-90223376D01*
X107618503Y-90392894D01*
X107762666Y-90537057D01*
X107932184Y-90650325D01*
X108120542Y-90728346D01*
X108320501Y-90768120D01*
X108524379Y-90768120D01*
X108724338Y-90728346D01*
X108912696Y-90650325D01*
X109082214Y-90537057D01*
X109226377Y-90392894D01*
X109226400Y-90392860D01*
X109226400Y-90546259D01*
X109266174Y-90746218D01*
X109344195Y-90934576D01*
X109377237Y-90984027D01*
X109369595Y-90995464D01*
X109291574Y-91183822D01*
X109251800Y-91383781D01*
X109251800Y-91587659D01*
X109291574Y-91787618D01*
X109369595Y-91975976D01*
X109482863Y-92145494D01*
X109627026Y-92289657D01*
X109796544Y-92402925D01*
X109984902Y-92480946D01*
X110184861Y-92520720D01*
X110388739Y-92520720D01*
X110588698Y-92480946D01*
X110777056Y-92402925D01*
X110946574Y-92289657D01*
X111090737Y-92145494D01*
X111204005Y-91975976D01*
X111282026Y-91787618D01*
X111321800Y-91587659D01*
X111321800Y-91383781D01*
X111282026Y-91183822D01*
X111204005Y-90995464D01*
X111170963Y-90946013D01*
X111178605Y-90934576D01*
X111256626Y-90746218D01*
X111296400Y-90546259D01*
X111296400Y-90342381D01*
X111256626Y-90142422D01*
X111221745Y-90058212D01*
X118245000Y-90058212D01*
X118245000Y-90281788D01*
X118288617Y-90501067D01*
X118374176Y-90707624D01*
X118498388Y-90893520D01*
X118656480Y-91051612D01*
X118842376Y-91175824D01*
X119048933Y-91261383D01*
X119268212Y-91305000D01*
X119491788Y-91305000D01*
X119711067Y-91261383D01*
X119917624Y-91175824D01*
X120103520Y-91051612D01*
X120261612Y-90893520D01*
X120385824Y-90707624D01*
X120471383Y-90501067D01*
X120515000Y-90281788D01*
X120515000Y-90058212D01*
X124595000Y-90058212D01*
X124595000Y-90281788D01*
X124638617Y-90501067D01*
X124724176Y-90707624D01*
X124848388Y-90893520D01*
X125006480Y-91051612D01*
X125192376Y-91175824D01*
X125398933Y-91261383D01*
X125618212Y-91305000D01*
X125841788Y-91305000D01*
X126061067Y-91261383D01*
X126267624Y-91175824D01*
X126453520Y-91051612D01*
X126611612Y-90893520D01*
X126735824Y-90707624D01*
X126821383Y-90501067D01*
X126865000Y-90281788D01*
X126865000Y-90058212D01*
X126821383Y-89838933D01*
X126735824Y-89632376D01*
X126611612Y-89446480D01*
X126453520Y-89288388D01*
X126267624Y-89164176D01*
X126061067Y-89078617D01*
X125841788Y-89035000D01*
X125618212Y-89035000D01*
X125398933Y-89078617D01*
X125192376Y-89164176D01*
X125006480Y-89288388D01*
X124848388Y-89446480D01*
X124724176Y-89632376D01*
X124638617Y-89838933D01*
X124595000Y-90058212D01*
X120515000Y-90058212D01*
X120471383Y-89838933D01*
X120385824Y-89632376D01*
X120261612Y-89446480D01*
X120103520Y-89288388D01*
X119917624Y-89164176D01*
X119711067Y-89078617D01*
X119491788Y-89035000D01*
X119268212Y-89035000D01*
X119048933Y-89078617D01*
X118842376Y-89164176D01*
X118656480Y-89288388D01*
X118498388Y-89446480D01*
X118374176Y-89632376D01*
X118288617Y-89838933D01*
X118245000Y-90058212D01*
X111221745Y-90058212D01*
X111178605Y-89954064D01*
X111065337Y-89784546D01*
X110921174Y-89640383D01*
X110751656Y-89527115D01*
X110563298Y-89449094D01*
X110363339Y-89409320D01*
X110159461Y-89409320D01*
X109959502Y-89449094D01*
X109771144Y-89527115D01*
X109601626Y-89640383D01*
X109457463Y-89784546D01*
X109457440Y-89784580D01*
X109457440Y-89631181D01*
X109417666Y-89431222D01*
X109339645Y-89242864D01*
X109226377Y-89073346D01*
X109082214Y-88929183D01*
X108912696Y-88815915D01*
X108724338Y-88737894D01*
X108524379Y-88698120D01*
X108320501Y-88698120D01*
X108120542Y-88737894D01*
X107932184Y-88815915D01*
X107762666Y-88929183D01*
X107618503Y-89073346D01*
X107505235Y-89242864D01*
X107427214Y-89431222D01*
X107387440Y-89631181D01*
X102103930Y-89631181D01*
X102144857Y-89590254D01*
X102258125Y-89420736D01*
X102336146Y-89232378D01*
X102375920Y-89032419D01*
X102375920Y-88828541D01*
X102336146Y-88628582D01*
X102258125Y-88440224D01*
X102207222Y-88364043D01*
X102268285Y-88272656D01*
X102273700Y-88259581D01*
X110745320Y-88259581D01*
X110745320Y-88463459D01*
X110785094Y-88663418D01*
X110863115Y-88851776D01*
X110976383Y-89021294D01*
X111120546Y-89165457D01*
X111290064Y-89278725D01*
X111478422Y-89356746D01*
X111678381Y-89396520D01*
X111882259Y-89396520D01*
X112082218Y-89356746D01*
X112270576Y-89278725D01*
X112440094Y-89165457D01*
X112584257Y-89021294D01*
X112697525Y-88851776D01*
X112775546Y-88663418D01*
X112815320Y-88463459D01*
X112815320Y-88259581D01*
X112775546Y-88059622D01*
X112697525Y-87871264D01*
X112584257Y-87701746D01*
X112440094Y-87557583D01*
X112270576Y-87444315D01*
X112082218Y-87366294D01*
X112078232Y-87365501D01*
X113295480Y-87365501D01*
X113295480Y-87569379D01*
X113335254Y-87769338D01*
X113413275Y-87957696D01*
X113526543Y-88127214D01*
X113670706Y-88271377D01*
X113840224Y-88384645D01*
X114028582Y-88462666D01*
X114228541Y-88502440D01*
X114432419Y-88502440D01*
X114632378Y-88462666D01*
X114820736Y-88384645D01*
X114990254Y-88271377D01*
X115134417Y-88127214D01*
X115247685Y-87957696D01*
X115325706Y-87769338D01*
X115365480Y-87569379D01*
X115365480Y-87365501D01*
X115325706Y-87165542D01*
X115247685Y-86977184D01*
X115134417Y-86807666D01*
X114990254Y-86663503D01*
X114820736Y-86550235D01*
X114632378Y-86472214D01*
X114432419Y-86432440D01*
X114228541Y-86432440D01*
X114028582Y-86472214D01*
X113840224Y-86550235D01*
X113670706Y-86663503D01*
X113526543Y-86807666D01*
X113413275Y-86977184D01*
X113335254Y-87165542D01*
X113295480Y-87365501D01*
X112078232Y-87365501D01*
X111882259Y-87326520D01*
X111678381Y-87326520D01*
X111478422Y-87366294D01*
X111290064Y-87444315D01*
X111120546Y-87557583D01*
X110976383Y-87701746D01*
X110863115Y-87871264D01*
X110785094Y-88059622D01*
X110745320Y-88259581D01*
X102273700Y-88259581D01*
X102346306Y-88084298D01*
X102386080Y-87884339D01*
X102386080Y-87680461D01*
X102346306Y-87480502D01*
X102268285Y-87292144D01*
X102155017Y-87122626D01*
X102010854Y-86978463D01*
X101841336Y-86865195D01*
X101652978Y-86787174D01*
X101453019Y-86747400D01*
X101249141Y-86747400D01*
X101049182Y-86787174D01*
X100860824Y-86865195D01*
X100691306Y-86978463D01*
X100547143Y-87122626D01*
X100433875Y-87292144D01*
X100355854Y-87480502D01*
X100316080Y-87680461D01*
X100316080Y-87884339D01*
X100355854Y-88084298D01*
X100433875Y-88272656D01*
X100484778Y-88348837D01*
X100423715Y-88440224D01*
X100345694Y-88628582D01*
X100305920Y-88828541D01*
X92575000Y-88828541D01*
X92575000Y-88788212D01*
X92531383Y-88568933D01*
X92445824Y-88362376D01*
X92321612Y-88176480D01*
X92163520Y-88018388D01*
X91977624Y-87894176D01*
X91771067Y-87808617D01*
X91551788Y-87765000D01*
X91328212Y-87765000D01*
X91108933Y-87808617D01*
X90902376Y-87894176D01*
X90716480Y-88018388D01*
X90558388Y-88176480D01*
X90434176Y-88362376D01*
X90348617Y-88568933D01*
X90305000Y-88788212D01*
X84955000Y-88788212D01*
X84911383Y-88568933D01*
X84825824Y-88362376D01*
X84701612Y-88176480D01*
X84543520Y-88018388D01*
X84357624Y-87894176D01*
X84151067Y-87808617D01*
X83931788Y-87765000D01*
X83708212Y-87765000D01*
X83488933Y-87808617D01*
X83282376Y-87894176D01*
X83096480Y-88018388D01*
X82938388Y-88176480D01*
X82814176Y-88362376D01*
X82728617Y-88568933D01*
X82685000Y-88788212D01*
X79400000Y-88788212D01*
X79400000Y-86248212D01*
X124595000Y-86248212D01*
X124595000Y-86471788D01*
X124638617Y-86691067D01*
X124724176Y-86897624D01*
X124848388Y-87083520D01*
X125006480Y-87241612D01*
X125192376Y-87365824D01*
X125398933Y-87451383D01*
X125618212Y-87495000D01*
X125841788Y-87495000D01*
X126061067Y-87451383D01*
X126267624Y-87365824D01*
X126453520Y-87241612D01*
X126611612Y-87083520D01*
X126735824Y-86897624D01*
X126821383Y-86691067D01*
X126865000Y-86471788D01*
X126865000Y-86248212D01*
X126821383Y-86028933D01*
X126735824Y-85822376D01*
X126611612Y-85636480D01*
X126453520Y-85478388D01*
X126267624Y-85354176D01*
X126061067Y-85268617D01*
X125841788Y-85225000D01*
X125618212Y-85225000D01*
X125398933Y-85268617D01*
X125192376Y-85354176D01*
X125006480Y-85478388D01*
X124848388Y-85636480D01*
X124724176Y-85822376D01*
X124638617Y-86028933D01*
X124595000Y-86248212D01*
X79400000Y-86248212D01*
X79400000Y-83708212D01*
X87765000Y-83708212D01*
X87765000Y-83931788D01*
X87808617Y-84151067D01*
X87894176Y-84357624D01*
X88018388Y-84543520D01*
X88176480Y-84701612D01*
X88362376Y-84825824D01*
X88568933Y-84911383D01*
X88788212Y-84955000D01*
X89011788Y-84955000D01*
X89231067Y-84911383D01*
X89437624Y-84825824D01*
X89623520Y-84701612D01*
X89781612Y-84543520D01*
X89905824Y-84357624D01*
X89991383Y-84151067D01*
X90035000Y-83931788D01*
X90035000Y-83708212D01*
X90031907Y-83692661D01*
X120539560Y-83692661D01*
X120539560Y-83896539D01*
X120579334Y-84096498D01*
X120657355Y-84284856D01*
X120770623Y-84454374D01*
X120914786Y-84598537D01*
X121084304Y-84711805D01*
X121272662Y-84789826D01*
X121472621Y-84829600D01*
X121676499Y-84829600D01*
X121876458Y-84789826D01*
X122064816Y-84711805D01*
X122234334Y-84598537D01*
X122378497Y-84454374D01*
X122491765Y-84284856D01*
X122569786Y-84096498D01*
X122609560Y-83896539D01*
X122609560Y-83692661D01*
X122569786Y-83492702D01*
X122491765Y-83304344D01*
X122378497Y-83134826D01*
X122234334Y-82990663D01*
X122064816Y-82877395D01*
X121876458Y-82799374D01*
X121676499Y-82759600D01*
X121472621Y-82759600D01*
X121272662Y-82799374D01*
X121084304Y-82877395D01*
X120914786Y-82990663D01*
X120770623Y-83134826D01*
X120657355Y-83304344D01*
X120579334Y-83492702D01*
X120539560Y-83692661D01*
X90031907Y-83692661D01*
X89991383Y-83488933D01*
X89905824Y-83282376D01*
X89781612Y-83096480D01*
X89623520Y-82938388D01*
X89437624Y-82814176D01*
X89231067Y-82728617D01*
X89011788Y-82685000D01*
X88788212Y-82685000D01*
X88568933Y-82728617D01*
X88362376Y-82814176D01*
X88176480Y-82938388D01*
X88018388Y-83096480D01*
X87894176Y-83282376D01*
X87808617Y-83488933D01*
X87765000Y-83708212D01*
X79400000Y-83708212D01*
X79400000Y-82556720D01*
X81361648Y-82556720D01*
X81373908Y-82681202D01*
X81410218Y-82800900D01*
X81469183Y-82911214D01*
X81548535Y-83007905D01*
X81645226Y-83087257D01*
X81755540Y-83146222D01*
X81875238Y-83182532D01*
X81999720Y-83194792D01*
X82563970Y-83191720D01*
X82722720Y-83032970D01*
X82722720Y-81833720D01*
X82976720Y-81833720D01*
X82976720Y-83032970D01*
X83135470Y-83191720D01*
X83699720Y-83194792D01*
X83824202Y-83182532D01*
X83943900Y-83146222D01*
X84054214Y-83087257D01*
X84150905Y-83007905D01*
X84230257Y-82911214D01*
X84289222Y-82800900D01*
X84325532Y-82681202D01*
X84337792Y-82556720D01*
X84334720Y-81992470D01*
X84175970Y-81833720D01*
X82976720Y-81833720D01*
X82722720Y-81833720D01*
X81523470Y-81833720D01*
X81364720Y-81992470D01*
X81361648Y-82556720D01*
X79400000Y-82556720D01*
X79400000Y-79166720D01*
X81357535Y-79166720D01*
X81386207Y-79457831D01*
X81471121Y-79737754D01*
X81609014Y-79995734D01*
X81794586Y-80221854D01*
X81824407Y-80246327D01*
X81755540Y-80267218D01*
X81645226Y-80326183D01*
X81548535Y-80405535D01*
X81469183Y-80502226D01*
X81410218Y-80612540D01*
X81373908Y-80732238D01*
X81361648Y-80856720D01*
X81364720Y-81420970D01*
X81523470Y-81579720D01*
X82722720Y-81579720D01*
X82722720Y-81559720D01*
X82976720Y-81559720D01*
X82976720Y-81579720D01*
X84175970Y-81579720D01*
X84334720Y-81420970D01*
X84337792Y-80856720D01*
X84325532Y-80732238D01*
X84289222Y-80612540D01*
X84230257Y-80502226D01*
X84150905Y-80405535D01*
X84054214Y-80326183D01*
X83943900Y-80267218D01*
X83875033Y-80246327D01*
X83904854Y-80221854D01*
X83974770Y-80136661D01*
X93097400Y-80136661D01*
X93097400Y-80340539D01*
X93137174Y-80540498D01*
X93215195Y-80728856D01*
X93218000Y-80733054D01*
X93218000Y-81026000D01*
X93220440Y-81050776D01*
X93227667Y-81074601D01*
X93239403Y-81096557D01*
X93255197Y-81115803D01*
X93274443Y-81131597D01*
X93296399Y-81143333D01*
X93320224Y-81150560D01*
X93345000Y-81153000D01*
X93637946Y-81153000D01*
X93642144Y-81155805D01*
X93830502Y-81233826D01*
X94030461Y-81273600D01*
X94234339Y-81273600D01*
X94434298Y-81233826D01*
X94622656Y-81155805D01*
X94626854Y-81153000D01*
X95854568Y-81153000D01*
X95820280Y-81325381D01*
X95820280Y-81529259D01*
X95860054Y-81729218D01*
X95938075Y-81917576D01*
X96051343Y-82087094D01*
X96195506Y-82231257D01*
X96365024Y-82344525D01*
X96553382Y-82422546D01*
X96753341Y-82462320D01*
X96957219Y-82462320D01*
X97157178Y-82422546D01*
X97345536Y-82344525D01*
X97515054Y-82231257D01*
X97659217Y-82087094D01*
X97772485Y-81917576D01*
X97850506Y-81729218D01*
X97890280Y-81529259D01*
X97890280Y-81355551D01*
X98029386Y-81494657D01*
X98198904Y-81607925D01*
X98387262Y-81685946D01*
X98587221Y-81725720D01*
X98791099Y-81725720D01*
X98991058Y-81685946D01*
X99179416Y-81607925D01*
X99348934Y-81494657D01*
X99493097Y-81350494D01*
X99606365Y-81180976D01*
X99684386Y-80992618D01*
X99724160Y-80792659D01*
X99724160Y-80588781D01*
X99684386Y-80388822D01*
X99606365Y-80200464D01*
X99493097Y-80030946D01*
X99348934Y-79886783D01*
X99179416Y-79773515D01*
X98991058Y-79695494D01*
X98791099Y-79655720D01*
X98587221Y-79655720D01*
X98387262Y-79695494D01*
X98198904Y-79773515D01*
X98029386Y-79886783D01*
X97885223Y-80030946D01*
X97771955Y-80200464D01*
X97693934Y-80388822D01*
X97654160Y-80588781D01*
X97654160Y-80762489D01*
X97515054Y-80623383D01*
X97345536Y-80510115D01*
X97157178Y-80432094D01*
X97155000Y-80431661D01*
X97155000Y-80010000D01*
X97497900Y-80010000D01*
X97522676Y-80007560D01*
X97546501Y-80000333D01*
X97568457Y-79988597D01*
X97587703Y-79972803D01*
X97603497Y-79953557D01*
X97615233Y-79931601D01*
X97622460Y-79907776D01*
X97624900Y-79883000D01*
X97624900Y-79565500D01*
X99809300Y-79565500D01*
X99834076Y-79563060D01*
X99857901Y-79555833D01*
X99879857Y-79544097D01*
X99899103Y-79528303D01*
X99914897Y-79509057D01*
X99926633Y-79487101D01*
X99933860Y-79463276D01*
X99936199Y-79443576D01*
X99944530Y-79235300D01*
X101981000Y-79235300D01*
X102005776Y-79232860D01*
X102029601Y-79225633D01*
X102051557Y-79213897D01*
X102070803Y-79198103D01*
X102086597Y-79178857D01*
X102097712Y-79158061D01*
X102863000Y-79158061D01*
X102863000Y-79361939D01*
X102902774Y-79561898D01*
X102980795Y-79750256D01*
X103094063Y-79919774D01*
X103238226Y-80063937D01*
X103407744Y-80177205D01*
X103596102Y-80255226D01*
X103796061Y-80295000D01*
X103999939Y-80295000D01*
X104199898Y-80255226D01*
X104388256Y-80177205D01*
X104557774Y-80063937D01*
X104701937Y-79919774D01*
X104815205Y-79750256D01*
X104893226Y-79561898D01*
X104933000Y-79361939D01*
X104933000Y-79158061D01*
X104893226Y-78958102D01*
X104815205Y-78769744D01*
X104701937Y-78600226D01*
X104557774Y-78456063D01*
X104412509Y-78359000D01*
X122332815Y-78359000D01*
X122361487Y-78650111D01*
X122446401Y-78930034D01*
X122584294Y-79188014D01*
X122769866Y-79414134D01*
X122799687Y-79438607D01*
X122730820Y-79459498D01*
X122620506Y-79518463D01*
X122523815Y-79597815D01*
X122444463Y-79694506D01*
X122385498Y-79804820D01*
X122349188Y-79924518D01*
X122336928Y-80049000D01*
X122336928Y-81749000D01*
X122349188Y-81873482D01*
X122385498Y-81993180D01*
X122444463Y-82103494D01*
X122523815Y-82200185D01*
X122620506Y-82279537D01*
X122730820Y-82338502D01*
X122850518Y-82374812D01*
X122975000Y-82387072D01*
X124675000Y-82387072D01*
X124799482Y-82374812D01*
X124919180Y-82338502D01*
X125029494Y-82279537D01*
X125126185Y-82200185D01*
X125205537Y-82103494D01*
X125264502Y-81993180D01*
X125300812Y-81873482D01*
X125313072Y-81749000D01*
X125313072Y-80049000D01*
X125300812Y-79924518D01*
X125264502Y-79804820D01*
X125205537Y-79694506D01*
X125126185Y-79597815D01*
X125029494Y-79518463D01*
X124919180Y-79459498D01*
X124850313Y-79438607D01*
X124880134Y-79414134D01*
X125065706Y-79188014D01*
X125203599Y-78930034D01*
X125288513Y-78650111D01*
X125317185Y-78359000D01*
X125288513Y-78067889D01*
X125203599Y-77787966D01*
X125065706Y-77529986D01*
X124880134Y-77303866D01*
X124654014Y-77118294D01*
X124396034Y-76980401D01*
X124116111Y-76895487D01*
X123897950Y-76874000D01*
X123752050Y-76874000D01*
X123533889Y-76895487D01*
X123253966Y-76980401D01*
X122995986Y-77118294D01*
X122769866Y-77303866D01*
X122584294Y-77529986D01*
X122446401Y-77787966D01*
X122361487Y-78067889D01*
X122332815Y-78359000D01*
X104412509Y-78359000D01*
X104388256Y-78342795D01*
X104199898Y-78264774D01*
X103999939Y-78225000D01*
X103796061Y-78225000D01*
X103596102Y-78264774D01*
X103407744Y-78342795D01*
X103238226Y-78456063D01*
X103094063Y-78600226D01*
X102980795Y-78769744D01*
X102902774Y-78958102D01*
X102863000Y-79158061D01*
X102097712Y-79158061D01*
X102098333Y-79156901D01*
X102105560Y-79133076D01*
X102107994Y-79107055D01*
X102095294Y-77811655D01*
X102092611Y-77786904D01*
X102085151Y-77763151D01*
X102073200Y-77741311D01*
X102057218Y-77722221D01*
X102037819Y-77706617D01*
X102015748Y-77695096D01*
X101991854Y-77688103D01*
X101966897Y-77685908D01*
X99718229Y-77710755D01*
X99031293Y-77084077D01*
X99011345Y-77069181D01*
X98988873Y-77058463D01*
X98964743Y-77052336D01*
X98945700Y-77050900D01*
X97675225Y-77050900D01*
X97671850Y-76149765D01*
X97767502Y-76189386D01*
X97967461Y-76229160D01*
X98171339Y-76229160D01*
X98371298Y-76189386D01*
X98559656Y-76111365D01*
X98729174Y-75998097D01*
X98873337Y-75853934D01*
X98986605Y-75684416D01*
X99064626Y-75496058D01*
X99104400Y-75296099D01*
X99104400Y-75092221D01*
X99069034Y-74914421D01*
X116389200Y-74914421D01*
X116389200Y-75118299D01*
X116428974Y-75318258D01*
X116506995Y-75506616D01*
X116620263Y-75676134D01*
X116764426Y-75820297D01*
X116933944Y-75933565D01*
X117122302Y-76011586D01*
X117322261Y-76051360D01*
X117526139Y-76051360D01*
X117726098Y-76011586D01*
X117914456Y-75933565D01*
X118083974Y-75820297D01*
X118228137Y-75676134D01*
X118341405Y-75506616D01*
X118419426Y-75318258D01*
X118459200Y-75118299D01*
X118459200Y-74914421D01*
X118419426Y-74714462D01*
X118341405Y-74526104D01*
X118228137Y-74356586D01*
X118083974Y-74212423D01*
X117914456Y-74099155D01*
X117726098Y-74021134D01*
X117526139Y-73981360D01*
X117322261Y-73981360D01*
X117122302Y-74021134D01*
X116933944Y-74099155D01*
X116764426Y-74212423D01*
X116620263Y-74356586D01*
X116506995Y-74526104D01*
X116428974Y-74714462D01*
X116389200Y-74914421D01*
X99069034Y-74914421D01*
X99064626Y-74892262D01*
X98986605Y-74703904D01*
X98873337Y-74534386D01*
X98729174Y-74390223D01*
X98559656Y-74276955D01*
X98371298Y-74198934D01*
X98171339Y-74159160D01*
X97967461Y-74159160D01*
X97767502Y-74198934D01*
X97748440Y-74206830D01*
X97703937Y-74140226D01*
X97664175Y-74100464D01*
X97662999Y-73786524D01*
X97660466Y-73761757D01*
X97653150Y-73737960D01*
X97641332Y-73716048D01*
X97625466Y-73696862D01*
X97606161Y-73681140D01*
X97584161Y-73669486D01*
X97560310Y-73662348D01*
X97536000Y-73660000D01*
X93345000Y-73660000D01*
X93320224Y-73662440D01*
X93296399Y-73669667D01*
X93274443Y-73681403D01*
X93255197Y-73697197D01*
X93239403Y-73716443D01*
X93227667Y-73738399D01*
X93220440Y-73762224D01*
X93218000Y-73787000D01*
X93218000Y-79744146D01*
X93215195Y-79748344D01*
X93137174Y-79936702D01*
X93097400Y-80136661D01*
X83974770Y-80136661D01*
X84090426Y-79995734D01*
X84211597Y-79769039D01*
X84371144Y-79875645D01*
X84559502Y-79953666D01*
X84759461Y-79993440D01*
X84963339Y-79993440D01*
X85163298Y-79953666D01*
X85351656Y-79875645D01*
X85521174Y-79762377D01*
X85665337Y-79618214D01*
X85778605Y-79448696D01*
X85856626Y-79260338D01*
X85896400Y-79060379D01*
X85896400Y-78856501D01*
X85856626Y-78656542D01*
X85778605Y-78468184D01*
X85665337Y-78298666D01*
X85521174Y-78154503D01*
X85351656Y-78041235D01*
X85163298Y-77963214D01*
X84963339Y-77923440D01*
X84759461Y-77923440D01*
X84559502Y-77963214D01*
X84371144Y-78041235D01*
X84201626Y-78154503D01*
X84057970Y-78298159D01*
X83904854Y-78111586D01*
X83678734Y-77926014D01*
X83420754Y-77788121D01*
X83140831Y-77703207D01*
X82922670Y-77681720D01*
X82776770Y-77681720D01*
X82558609Y-77703207D01*
X82278686Y-77788121D01*
X82020706Y-77926014D01*
X81794586Y-78111586D01*
X81609014Y-78337706D01*
X81471121Y-78595686D01*
X81386207Y-78875609D01*
X81357535Y-79166720D01*
X79400000Y-79166720D01*
X79400000Y-74818212D01*
X81694400Y-74818212D01*
X81694400Y-75041788D01*
X81738017Y-75261067D01*
X81823576Y-75467624D01*
X81947788Y-75653520D01*
X82105880Y-75811612D01*
X82291776Y-75935824D01*
X82498333Y-76021383D01*
X82717612Y-76065000D01*
X82941188Y-76065000D01*
X83160467Y-76021383D01*
X83367024Y-75935824D01*
X83552920Y-75811612D01*
X83711012Y-75653520D01*
X83835224Y-75467624D01*
X83920783Y-75261067D01*
X83964400Y-75041788D01*
X83964400Y-74818212D01*
X83920783Y-74598933D01*
X83835224Y-74392376D01*
X83711012Y-74206480D01*
X83552920Y-74048388D01*
X83367024Y-73924176D01*
X83160467Y-73838617D01*
X82941188Y-73795000D01*
X82717612Y-73795000D01*
X82498333Y-73838617D01*
X82291776Y-73924176D01*
X82105880Y-74048388D01*
X81947788Y-74206480D01*
X81823576Y-74392376D01*
X81738017Y-74598933D01*
X81694400Y-74818212D01*
X79400000Y-74818212D01*
X79400000Y-73548212D01*
X87765000Y-73548212D01*
X87765000Y-73771788D01*
X87808617Y-73991067D01*
X87894176Y-74197624D01*
X88018388Y-74383520D01*
X88176480Y-74541612D01*
X88362376Y-74665824D01*
X88568933Y-74751383D01*
X88788212Y-74795000D01*
X89011788Y-74795000D01*
X89231067Y-74751383D01*
X89437624Y-74665824D01*
X89623520Y-74541612D01*
X89781612Y-74383520D01*
X89905824Y-74197624D01*
X89991383Y-73991067D01*
X90035000Y-73771788D01*
X90035000Y-73548212D01*
X89991383Y-73328933D01*
X89905824Y-73122376D01*
X89781612Y-72936480D01*
X89625953Y-72780821D01*
X97979280Y-72780821D01*
X97979280Y-72984699D01*
X98019054Y-73184658D01*
X98097075Y-73373016D01*
X98210343Y-73542534D01*
X98354506Y-73686697D01*
X98524024Y-73799965D01*
X98712382Y-73877986D01*
X98912341Y-73917760D01*
X99116219Y-73917760D01*
X99316178Y-73877986D01*
X99504536Y-73799965D01*
X99674054Y-73686697D01*
X99818217Y-73542534D01*
X99931485Y-73373016D01*
X100009506Y-73184658D01*
X100049280Y-72984699D01*
X100049280Y-72816381D01*
X112106760Y-72816381D01*
X112106760Y-73020259D01*
X112146534Y-73220218D01*
X112224555Y-73408576D01*
X112337823Y-73578094D01*
X112481986Y-73722257D01*
X112651504Y-73835525D01*
X112839862Y-73913546D01*
X113039821Y-73953320D01*
X113243699Y-73953320D01*
X113443658Y-73913546D01*
X113632016Y-73835525D01*
X113801534Y-73722257D01*
X113895290Y-73628501D01*
X114043822Y-73690026D01*
X114243781Y-73729800D01*
X114447659Y-73729800D01*
X114647618Y-73690026D01*
X114835976Y-73612005D01*
X115005494Y-73498737D01*
X115149657Y-73354574D01*
X115262925Y-73185056D01*
X115340946Y-72996698D01*
X115380720Y-72796739D01*
X115380720Y-72592861D01*
X115340946Y-72392902D01*
X115262925Y-72204544D01*
X115149657Y-72035026D01*
X115005494Y-71890863D01*
X114835976Y-71777595D01*
X114647618Y-71699574D01*
X114447659Y-71659800D01*
X114243781Y-71659800D01*
X114043822Y-71699574D01*
X113855464Y-71777595D01*
X113685946Y-71890863D01*
X113592190Y-71984619D01*
X113443658Y-71923094D01*
X113243699Y-71883320D01*
X113039821Y-71883320D01*
X112839862Y-71923094D01*
X112651504Y-72001115D01*
X112481986Y-72114383D01*
X112337823Y-72258546D01*
X112224555Y-72428064D01*
X112146534Y-72616422D01*
X112106760Y-72816381D01*
X100049280Y-72816381D01*
X100049280Y-72780821D01*
X100009506Y-72580862D01*
X99931485Y-72392504D01*
X99818217Y-72222986D01*
X99674054Y-72078823D01*
X99504536Y-71965555D01*
X99316178Y-71887534D01*
X99116219Y-71847760D01*
X98912341Y-71847760D01*
X98712382Y-71887534D01*
X98524024Y-71965555D01*
X98354506Y-72078823D01*
X98210343Y-72222986D01*
X98097075Y-72392504D01*
X98019054Y-72580862D01*
X97979280Y-72780821D01*
X89625953Y-72780821D01*
X89623520Y-72778388D01*
X89437624Y-72654176D01*
X89231067Y-72568617D01*
X89011788Y-72525000D01*
X88788212Y-72525000D01*
X88568933Y-72568617D01*
X88362376Y-72654176D01*
X88176480Y-72778388D01*
X88018388Y-72936480D01*
X87894176Y-73122376D01*
X87808617Y-73328933D01*
X87765000Y-73548212D01*
X79400000Y-73548212D01*
X79400000Y-69088000D01*
X81311815Y-69088000D01*
X81340487Y-69379111D01*
X81425401Y-69659034D01*
X81563294Y-69917014D01*
X81748866Y-70143134D01*
X81974986Y-70328706D01*
X82232966Y-70466599D01*
X82327978Y-70495421D01*
X82291776Y-70510416D01*
X82105880Y-70634628D01*
X81947788Y-70792720D01*
X81823576Y-70978616D01*
X81738017Y-71185173D01*
X81694400Y-71404452D01*
X81694400Y-71628028D01*
X81738017Y-71847307D01*
X81823576Y-72053864D01*
X81947788Y-72239760D01*
X82105880Y-72397852D01*
X82291776Y-72522064D01*
X82498333Y-72607623D01*
X82717612Y-72651240D01*
X82941188Y-72651240D01*
X83160467Y-72607623D01*
X83367024Y-72522064D01*
X83552920Y-72397852D01*
X83711012Y-72239760D01*
X83835224Y-72053864D01*
X83920783Y-71847307D01*
X83964400Y-71628028D01*
X83964400Y-71404452D01*
X83920783Y-71185173D01*
X83835224Y-70978616D01*
X83711012Y-70792720D01*
X83552920Y-70634628D01*
X83367024Y-70510416D01*
X83309347Y-70486525D01*
X83375034Y-70466599D01*
X83633014Y-70328706D01*
X83859134Y-70143134D01*
X84044706Y-69917014D01*
X84182599Y-69659034D01*
X84267513Y-69379111D01*
X84271671Y-69336892D01*
X97731960Y-69336892D01*
X97731960Y-69560468D01*
X97775577Y-69779747D01*
X97861136Y-69986304D01*
X97985348Y-70172200D01*
X98143440Y-70330292D01*
X98329336Y-70454504D01*
X98535893Y-70540063D01*
X98755172Y-70583680D01*
X98978748Y-70583680D01*
X99198027Y-70540063D01*
X99404584Y-70454504D01*
X99545140Y-70360587D01*
X99685696Y-70454504D01*
X99892253Y-70540063D01*
X100111532Y-70583680D01*
X100335108Y-70583680D01*
X100554387Y-70540063D01*
X100760944Y-70454504D01*
X100946840Y-70330292D01*
X101031231Y-70245901D01*
X102322680Y-70245901D01*
X102322680Y-70449779D01*
X102362454Y-70649738D01*
X102440475Y-70838096D01*
X102553743Y-71007614D01*
X102697906Y-71151777D01*
X102867424Y-71265045D01*
X103055782Y-71343066D01*
X103255741Y-71382840D01*
X103408336Y-71382840D01*
X103442743Y-71434334D01*
X103586906Y-71578497D01*
X103756424Y-71691765D01*
X103944782Y-71769786D01*
X104144741Y-71809560D01*
X104348619Y-71809560D01*
X104548578Y-71769786D01*
X104736936Y-71691765D01*
X104906454Y-71578497D01*
X105050617Y-71434334D01*
X105163885Y-71264816D01*
X105241906Y-71076458D01*
X105281680Y-70876499D01*
X105281680Y-70672621D01*
X105241906Y-70472662D01*
X105163885Y-70284304D01*
X105050617Y-70114786D01*
X104906454Y-69970623D01*
X104736936Y-69857355D01*
X104548578Y-69779334D01*
X104348619Y-69739560D01*
X104325695Y-69739560D01*
X104388466Y-69588018D01*
X104428240Y-69388059D01*
X104428240Y-69184181D01*
X104388466Y-68984222D01*
X104310445Y-68795864D01*
X104197177Y-68626346D01*
X104053014Y-68482183D01*
X103883496Y-68368915D01*
X103695138Y-68290894D01*
X103495179Y-68251120D01*
X103291301Y-68251120D01*
X103091342Y-68290894D01*
X102902984Y-68368915D01*
X102733466Y-68482183D01*
X102589303Y-68626346D01*
X102476035Y-68795864D01*
X102398014Y-68984222D01*
X102358240Y-69184181D01*
X102358240Y-69388059D01*
X102398014Y-69588018D01*
X102476035Y-69776376D01*
X102485386Y-69790370D01*
X102440475Y-69857584D01*
X102362454Y-70045942D01*
X102322680Y-70245901D01*
X101031231Y-70245901D01*
X101104932Y-70172200D01*
X101229144Y-69986304D01*
X101314703Y-69779747D01*
X101358320Y-69560468D01*
X101358320Y-69336892D01*
X101314703Y-69117613D01*
X101229144Y-68911056D01*
X101104932Y-68725160D01*
X100946840Y-68567068D01*
X100760944Y-68442856D01*
X100554387Y-68357297D01*
X100335108Y-68313680D01*
X100111532Y-68313680D01*
X99892253Y-68357297D01*
X99685696Y-68442856D01*
X99545140Y-68536773D01*
X99404584Y-68442856D01*
X99198027Y-68357297D01*
X98978748Y-68313680D01*
X98755172Y-68313680D01*
X98535893Y-68357297D01*
X98329336Y-68442856D01*
X98143440Y-68567068D01*
X97985348Y-68725160D01*
X97861136Y-68911056D01*
X97775577Y-69117613D01*
X97731960Y-69336892D01*
X84271671Y-69336892D01*
X84296185Y-69088000D01*
X84267513Y-68796889D01*
X84182599Y-68516966D01*
X84044706Y-68258986D01*
X83859134Y-68032866D01*
X83829313Y-68008393D01*
X83898180Y-67987502D01*
X84008494Y-67928537D01*
X84105185Y-67849185D01*
X84184537Y-67752494D01*
X84243502Y-67642180D01*
X84279812Y-67522482D01*
X84292072Y-67398000D01*
X84292072Y-65698000D01*
X84279812Y-65573518D01*
X84243502Y-65453820D01*
X84184537Y-65343506D01*
X84105185Y-65246815D01*
X84008494Y-65167463D01*
X83898180Y-65108498D01*
X83778482Y-65072188D01*
X83654000Y-65059928D01*
X81954000Y-65059928D01*
X81829518Y-65072188D01*
X81709820Y-65108498D01*
X81599506Y-65167463D01*
X81502815Y-65246815D01*
X81423463Y-65343506D01*
X81364498Y-65453820D01*
X81328188Y-65573518D01*
X81315928Y-65698000D01*
X81315928Y-67398000D01*
X81328188Y-67522482D01*
X81364498Y-67642180D01*
X81423463Y-67752494D01*
X81502815Y-67849185D01*
X81599506Y-67928537D01*
X81709820Y-67987502D01*
X81778687Y-68008393D01*
X81748866Y-68032866D01*
X81563294Y-68258986D01*
X81425401Y-68516966D01*
X81340487Y-68796889D01*
X81311815Y-69088000D01*
X79400000Y-69088000D01*
X79400000Y-64033061D01*
X116579700Y-64033061D01*
X116579700Y-64236939D01*
X116619474Y-64436898D01*
X116697495Y-64625256D01*
X116810763Y-64794774D01*
X116954926Y-64938937D01*
X117124444Y-65052205D01*
X117312802Y-65130226D01*
X117512761Y-65170000D01*
X117716639Y-65170000D01*
X117916598Y-65130226D01*
X118104956Y-65052205D01*
X118274474Y-64938937D01*
X118418637Y-64794774D01*
X118531905Y-64625256D01*
X118609926Y-64436898D01*
X118649700Y-64236939D01*
X118649700Y-64033061D01*
X118609926Y-63833102D01*
X118531905Y-63644744D01*
X118418637Y-63475226D01*
X118274474Y-63331063D01*
X118104956Y-63217795D01*
X117916598Y-63139774D01*
X117716639Y-63100000D01*
X117512761Y-63100000D01*
X117312802Y-63139774D01*
X117124444Y-63217795D01*
X116954926Y-63331063D01*
X116810763Y-63475226D01*
X116697495Y-63644744D01*
X116619474Y-63833102D01*
X116579700Y-64033061D01*
X79400000Y-64033061D01*
X79400000Y-62509061D01*
X123592640Y-62509061D01*
X123592640Y-62712939D01*
X123632414Y-62912898D01*
X123710435Y-63101256D01*
X123823703Y-63270774D01*
X123967866Y-63414937D01*
X124137384Y-63528205D01*
X124325742Y-63606226D01*
X124525701Y-63646000D01*
X124729579Y-63646000D01*
X124929538Y-63606226D01*
X125117896Y-63528205D01*
X125287414Y-63414937D01*
X125431577Y-63270774D01*
X125544845Y-63101256D01*
X125622866Y-62912898D01*
X125662640Y-62712939D01*
X125662640Y-62509061D01*
X125622866Y-62309102D01*
X125544845Y-62120744D01*
X125431577Y-61951226D01*
X125287414Y-61807063D01*
X125117896Y-61693795D01*
X124929538Y-61615774D01*
X124729579Y-61576000D01*
X124525701Y-61576000D01*
X124325742Y-61615774D01*
X124137384Y-61693795D01*
X123967866Y-61807063D01*
X123823703Y-61951226D01*
X123710435Y-62120744D01*
X123632414Y-62309102D01*
X123592640Y-62509061D01*
X79400000Y-62509061D01*
X79400000Y-60954892D01*
X90833320Y-60954892D01*
X90833320Y-61178468D01*
X90876937Y-61397747D01*
X90962496Y-61604304D01*
X91086708Y-61790200D01*
X91244800Y-61948292D01*
X91430696Y-62072504D01*
X91637253Y-62158063D01*
X91856532Y-62201680D01*
X92080108Y-62201680D01*
X92299387Y-62158063D01*
X92505944Y-62072504D01*
X92691840Y-61948292D01*
X92834460Y-61805672D01*
X92895800Y-61867012D01*
X93081696Y-61991224D01*
X93288253Y-62076783D01*
X93507532Y-62120400D01*
X93731108Y-62120400D01*
X93950387Y-62076783D01*
X94156944Y-61991224D01*
X94342840Y-61867012D01*
X94500932Y-61708920D01*
X94625144Y-61523024D01*
X94710703Y-61316467D01*
X94731889Y-61209958D01*
X94798736Y-61254624D01*
X95005293Y-61340183D01*
X95224572Y-61383800D01*
X95448148Y-61383800D01*
X95667427Y-61340183D01*
X95873984Y-61254624D01*
X96059880Y-61130412D01*
X96217972Y-60972320D01*
X96342184Y-60786424D01*
X96403495Y-60638406D01*
X96403977Y-60640827D01*
X96489536Y-60847384D01*
X96613748Y-61033280D01*
X96771840Y-61191372D01*
X96957736Y-61315584D01*
X97164293Y-61401143D01*
X97383572Y-61444760D01*
X97607148Y-61444760D01*
X97826427Y-61401143D01*
X98032984Y-61315584D01*
X98218880Y-61191372D01*
X98376972Y-61033280D01*
X98501184Y-60847384D01*
X98586743Y-60640827D01*
X98630360Y-60421548D01*
X98630360Y-60197972D01*
X98586743Y-59978693D01*
X98501184Y-59772136D01*
X98376972Y-59586240D01*
X98218880Y-59428148D01*
X98032984Y-59303936D01*
X97826427Y-59218377D01*
X97607148Y-59174760D01*
X97383572Y-59174760D01*
X97167714Y-59217697D01*
X97236264Y-59115104D01*
X97303255Y-58953372D01*
X105133520Y-58953372D01*
X105133520Y-59176948D01*
X105177137Y-59396227D01*
X105262696Y-59602784D01*
X105386908Y-59788680D01*
X105545000Y-59946772D01*
X105730896Y-60070984D01*
X105937453Y-60156543D01*
X106156732Y-60200160D01*
X106380308Y-60200160D01*
X106599587Y-60156543D01*
X106806144Y-60070984D01*
X106992040Y-59946772D01*
X107150132Y-59788680D01*
X107274344Y-59602784D01*
X107359903Y-59396227D01*
X107403520Y-59176948D01*
X107403520Y-58953372D01*
X107359903Y-58734093D01*
X107274344Y-58527536D01*
X107150132Y-58341640D01*
X106992040Y-58183548D01*
X106806144Y-58059336D01*
X106599587Y-57973777D01*
X106380308Y-57930160D01*
X106156732Y-57930160D01*
X105937453Y-57973777D01*
X105730896Y-58059336D01*
X105545000Y-58183548D01*
X105386908Y-58341640D01*
X105262696Y-58527536D01*
X105177137Y-58734093D01*
X105133520Y-58953372D01*
X97303255Y-58953372D01*
X97321823Y-58908547D01*
X97365440Y-58689268D01*
X97365440Y-58465692D01*
X97321823Y-58246413D01*
X97236264Y-58039856D01*
X97112052Y-57853960D01*
X96953960Y-57695868D01*
X96768064Y-57571656D01*
X96561507Y-57486097D01*
X96342228Y-57442480D01*
X96118652Y-57442480D01*
X95899373Y-57486097D01*
X95692816Y-57571656D01*
X95506920Y-57695868D01*
X95348828Y-57853960D01*
X95224616Y-58039856D01*
X95139057Y-58246413D01*
X95095440Y-58465692D01*
X95095440Y-58689268D01*
X95139057Y-58908547D01*
X95224114Y-59113891D01*
X95005293Y-59157417D01*
X94798736Y-59242976D01*
X94612840Y-59367188D01*
X94454748Y-59525280D01*
X94330536Y-59711176D01*
X94244977Y-59917733D01*
X94223791Y-60024242D01*
X94156944Y-59979576D01*
X93950387Y-59894017D01*
X93731108Y-59850400D01*
X93507532Y-59850400D01*
X93288253Y-59894017D01*
X93081696Y-59979576D01*
X92895800Y-60103788D01*
X92753180Y-60246408D01*
X92691840Y-60185068D01*
X92505944Y-60060856D01*
X92299387Y-59975297D01*
X92080108Y-59931680D01*
X91856532Y-59931680D01*
X91637253Y-59975297D01*
X91430696Y-60060856D01*
X91244800Y-60185068D01*
X91086708Y-60343160D01*
X90962496Y-60529056D01*
X90876937Y-60735613D01*
X90833320Y-60954892D01*
X79400000Y-60954892D01*
X79400000Y-57014859D01*
X79435691Y-57194290D01*
X79709705Y-57855818D01*
X80107511Y-58451177D01*
X80613823Y-58957489D01*
X81209182Y-59355295D01*
X81870710Y-59629309D01*
X82572984Y-59769000D01*
X83289016Y-59769000D01*
X83991290Y-59629309D01*
X84652818Y-59355295D01*
X85248177Y-58957489D01*
X85754489Y-58451177D01*
X86152295Y-57855818D01*
X86426309Y-57194290D01*
X86566000Y-56492016D01*
X86566000Y-55775984D01*
X86564455Y-55768212D01*
X89035000Y-55768212D01*
X89035000Y-55991788D01*
X89078617Y-56211067D01*
X89164176Y-56417624D01*
X89288388Y-56603520D01*
X89446480Y-56761612D01*
X89632376Y-56885824D01*
X89838933Y-56971383D01*
X90058212Y-57015000D01*
X90281788Y-57015000D01*
X90501067Y-56971383D01*
X90707624Y-56885824D01*
X90893520Y-56761612D01*
X91051612Y-56603520D01*
X91175824Y-56417624D01*
X91261383Y-56211067D01*
X91305000Y-55991788D01*
X91305000Y-55768212D01*
X99195000Y-55768212D01*
X99195000Y-55991788D01*
X99238617Y-56211067D01*
X99324176Y-56417624D01*
X99448388Y-56603520D01*
X99606480Y-56761612D01*
X99792376Y-56885824D01*
X99998933Y-56971383D01*
X100218212Y-57015000D01*
X100441788Y-57015000D01*
X100661067Y-56971383D01*
X100867624Y-56885824D01*
X101053520Y-56761612D01*
X101211612Y-56603520D01*
X101335824Y-56417624D01*
X101421383Y-56211067D01*
X101465000Y-55991788D01*
X101465000Y-55768212D01*
X101421383Y-55548933D01*
X101405961Y-55511700D01*
X110293215Y-55511700D01*
X110321887Y-55802811D01*
X110406801Y-56082734D01*
X110544694Y-56340714D01*
X110730266Y-56566834D01*
X110956386Y-56752406D01*
X111214366Y-56890299D01*
X111494289Y-56975213D01*
X111712450Y-56996700D01*
X111858350Y-56996700D01*
X112076511Y-56975213D01*
X112356434Y-56890299D01*
X112614414Y-56752406D01*
X112840534Y-56566834D01*
X112865007Y-56537013D01*
X112885898Y-56605880D01*
X112944863Y-56716194D01*
X113024215Y-56812885D01*
X113120906Y-56892237D01*
X113231220Y-56951202D01*
X113350918Y-56987512D01*
X113475400Y-56999772D01*
X115175400Y-56999772D01*
X115299882Y-56987512D01*
X115419580Y-56951202D01*
X115529894Y-56892237D01*
X115626585Y-56812885D01*
X115705937Y-56716194D01*
X115764902Y-56605880D01*
X115801212Y-56486182D01*
X115813472Y-56361700D01*
X115813472Y-55768212D01*
X116975000Y-55768212D01*
X116975000Y-55991788D01*
X117018617Y-56211067D01*
X117104176Y-56417624D01*
X117228388Y-56603520D01*
X117386480Y-56761612D01*
X117572376Y-56885824D01*
X117778933Y-56971383D01*
X117998212Y-57015000D01*
X118221788Y-57015000D01*
X118441067Y-56971383D01*
X118647624Y-56885824D01*
X118833520Y-56761612D01*
X118991612Y-56603520D01*
X119115824Y-56417624D01*
X119201383Y-56211067D01*
X119245000Y-55991788D01*
X119245000Y-55768212D01*
X119201383Y-55548933D01*
X119115824Y-55342376D01*
X118991612Y-55156480D01*
X118833520Y-54998388D01*
X118647624Y-54874176D01*
X118441067Y-54788617D01*
X118221788Y-54745000D01*
X117998212Y-54745000D01*
X117778933Y-54788617D01*
X117572376Y-54874176D01*
X117386480Y-54998388D01*
X117228388Y-55156480D01*
X117104176Y-55342376D01*
X117018617Y-55548933D01*
X116975000Y-55768212D01*
X115813472Y-55768212D01*
X115813472Y-54661700D01*
X115801212Y-54537218D01*
X115764902Y-54417520D01*
X115705937Y-54307206D01*
X115626585Y-54210515D01*
X115529894Y-54131163D01*
X115419580Y-54072198D01*
X115299882Y-54035888D01*
X115175400Y-54023628D01*
X113475400Y-54023628D01*
X113350918Y-54035888D01*
X113231220Y-54072198D01*
X113120906Y-54131163D01*
X113024215Y-54210515D01*
X112944863Y-54307206D01*
X112885898Y-54417520D01*
X112865007Y-54486387D01*
X112840534Y-54456566D01*
X112614414Y-54270994D01*
X112356434Y-54133101D01*
X112076511Y-54048187D01*
X111858350Y-54026700D01*
X111712450Y-54026700D01*
X111494289Y-54048187D01*
X111214366Y-54133101D01*
X110956386Y-54270994D01*
X110730266Y-54456566D01*
X110544694Y-54682686D01*
X110406801Y-54940666D01*
X110321887Y-55220589D01*
X110293215Y-55511700D01*
X101405961Y-55511700D01*
X101335824Y-55342376D01*
X101211612Y-55156480D01*
X101053520Y-54998388D01*
X100867624Y-54874176D01*
X100661067Y-54788617D01*
X100441788Y-54745000D01*
X100218212Y-54745000D01*
X99998933Y-54788617D01*
X99792376Y-54874176D01*
X99606480Y-54998388D01*
X99448388Y-55156480D01*
X99324176Y-55342376D01*
X99238617Y-55548933D01*
X99195000Y-55768212D01*
X91305000Y-55768212D01*
X91261383Y-55548933D01*
X91175824Y-55342376D01*
X91051612Y-55156480D01*
X90893520Y-54998388D01*
X90707624Y-54874176D01*
X90501067Y-54788617D01*
X90281788Y-54745000D01*
X90058212Y-54745000D01*
X89838933Y-54788617D01*
X89632376Y-54874176D01*
X89446480Y-54998388D01*
X89288388Y-55156480D01*
X89164176Y-55342376D01*
X89078617Y-55548933D01*
X89035000Y-55768212D01*
X86564455Y-55768212D01*
X86426309Y-55073710D01*
X86152295Y-54412182D01*
X85754489Y-53816823D01*
X85248177Y-53310511D01*
X84652818Y-52912705D01*
X84211729Y-52730000D01*
X122631481Y-52730000D01*
X122142823Y-53056511D01*
X122142823Y-53056511D01*
G37*
X122142823Y-53056511D02*
X121636511Y-53562823D01*
X121238705Y-54158182D01*
X120964691Y-54819710D01*
X120825000Y-55521984D01*
X120825000Y-56238016D01*
X120964691Y-56940290D01*
X121238705Y-57601818D01*
X121636511Y-58197177D01*
X122142823Y-58703489D01*
X122738182Y-59101295D01*
X123399710Y-59375309D01*
X124101984Y-59515000D01*
X124818016Y-59515000D01*
X125520290Y-59375309D01*
X126181818Y-59101295D01*
X126777177Y-58703489D01*
X127283489Y-58197177D01*
X127610001Y-57708517D01*
X127610001Y-70484730D01*
X127481974Y-70356703D01*
X127312456Y-70243435D01*
X127124098Y-70165414D01*
X126924139Y-70125640D01*
X126720261Y-70125640D01*
X126520302Y-70165414D01*
X126385172Y-70221387D01*
X126326936Y-70182475D01*
X126138578Y-70104454D01*
X125938619Y-70064680D01*
X125734741Y-70064680D01*
X125534782Y-70104454D01*
X125346424Y-70182475D01*
X125176906Y-70295743D01*
X125032743Y-70439906D01*
X124919475Y-70609424D01*
X124841454Y-70797782D01*
X124801680Y-70997741D01*
X124801680Y-71201619D01*
X124841454Y-71401578D01*
X124919475Y-71589936D01*
X125032743Y-71759454D01*
X125176906Y-71903617D01*
X125346424Y-72016885D01*
X125534782Y-72094906D01*
X125734741Y-72134680D01*
X125938619Y-72134680D01*
X126138578Y-72094906D01*
X126273708Y-72038933D01*
X126331944Y-72077845D01*
X126520302Y-72155866D01*
X126720261Y-72195640D01*
X126924139Y-72195640D01*
X127124098Y-72155866D01*
X127312456Y-72077845D01*
X127481974Y-71964577D01*
X127610001Y-71836550D01*
X127610000Y-95961482D01*
X127283489Y-95472823D01*
X126777177Y-94966511D01*
X126181818Y-94568705D01*
X125520290Y-94294691D01*
X124818016Y-94155000D01*
X124101984Y-94155000D01*
X123399710Y-94294691D01*
X122738182Y-94568705D01*
X122142823Y-94966511D01*
X121636511Y-95472823D01*
X121238705Y-96068182D01*
X120964691Y-96729710D01*
X120825000Y-97431984D01*
X120825000Y-98148016D01*
X120964691Y-98850290D01*
X121238705Y-99511818D01*
X121636511Y-100107177D01*
X122142823Y-100613489D01*
X122631481Y-100940000D01*
X84378519Y-100940000D01*
X84867177Y-100613489D01*
X85373489Y-100107177D01*
X85771295Y-99511818D01*
X86004748Y-98948212D01*
X90305000Y-98948212D01*
X90305000Y-99171788D01*
X90348617Y-99391067D01*
X90434176Y-99597624D01*
X90558388Y-99783520D01*
X90716480Y-99941612D01*
X90902376Y-100065824D01*
X91108933Y-100151383D01*
X91328212Y-100195000D01*
X91551788Y-100195000D01*
X91771067Y-100151383D01*
X91977624Y-100065824D01*
X92163520Y-99941612D01*
X92321612Y-99783520D01*
X92445824Y-99597624D01*
X92531383Y-99391067D01*
X92575000Y-99171788D01*
X92575000Y-98948212D01*
X97925000Y-98948212D01*
X97925000Y-99171788D01*
X97968617Y-99391067D01*
X98054176Y-99597624D01*
X98178388Y-99783520D01*
X98336480Y-99941612D01*
X98522376Y-100065824D01*
X98728933Y-100151383D01*
X98948212Y-100195000D01*
X99171788Y-100195000D01*
X99391067Y-100151383D01*
X99597624Y-100065824D01*
X99783520Y-99941612D01*
X99941612Y-99783520D01*
X100065824Y-99597624D01*
X100151383Y-99391067D01*
X100195000Y-99171788D01*
X100195000Y-98948212D01*
X109355000Y-98948212D01*
X109355000Y-99171788D01*
X109398617Y-99391067D01*
X109484176Y-99597624D01*
X109608388Y-99783520D01*
X109766480Y-99941612D01*
X109952376Y-100065824D01*
X110158933Y-100151383D01*
X110378212Y-100195000D01*
X110601788Y-100195000D01*
X110821067Y-100151383D01*
X111027624Y-100065824D01*
X111213520Y-99941612D01*
X111371612Y-99783520D01*
X111495824Y-99597624D01*
X111581383Y-99391067D01*
X111625000Y-99171788D01*
X111625000Y-98948212D01*
X111581383Y-98728933D01*
X111495824Y-98522376D01*
X111371612Y-98336480D01*
X111213520Y-98178388D01*
X111027624Y-98054176D01*
X110821067Y-97968617D01*
X110601788Y-97925000D01*
X110378212Y-97925000D01*
X110158933Y-97968617D01*
X109952376Y-98054176D01*
X109766480Y-98178388D01*
X109608388Y-98336480D01*
X109484176Y-98522376D01*
X109398617Y-98728933D01*
X109355000Y-98948212D01*
X100195000Y-98948212D01*
X100151383Y-98728933D01*
X100065824Y-98522376D01*
X99941612Y-98336480D01*
X99783520Y-98178388D01*
X99597624Y-98054176D01*
X99391067Y-97968617D01*
X99171788Y-97925000D01*
X98948212Y-97925000D01*
X98728933Y-97968617D01*
X98522376Y-98054176D01*
X98336480Y-98178388D01*
X98178388Y-98336480D01*
X98054176Y-98522376D01*
X97968617Y-98728933D01*
X97925000Y-98948212D01*
X92575000Y-98948212D01*
X92531383Y-98728933D01*
X92445824Y-98522376D01*
X92321612Y-98336480D01*
X92163520Y-98178388D01*
X91977624Y-98054176D01*
X91771067Y-97968617D01*
X91551788Y-97925000D01*
X91328212Y-97925000D01*
X91108933Y-97968617D01*
X90902376Y-98054176D01*
X90716480Y-98178388D01*
X90558388Y-98336480D01*
X90434176Y-98522376D01*
X90348617Y-98728933D01*
X90305000Y-98948212D01*
X86004748Y-98948212D01*
X86045309Y-98850290D01*
X86185000Y-98148016D01*
X86185000Y-97431984D01*
X86045309Y-96729710D01*
X85771295Y-96068182D01*
X85373489Y-95472823D01*
X85316666Y-95416000D01*
X101889928Y-95416000D01*
X101889928Y-97116000D01*
X101902188Y-97240482D01*
X101938498Y-97360180D01*
X101997463Y-97470494D01*
X102076815Y-97567185D01*
X102173506Y-97646537D01*
X102283820Y-97705502D01*
X102403518Y-97741812D01*
X102528000Y-97754072D01*
X104228000Y-97754072D01*
X104352482Y-97741812D01*
X104472180Y-97705502D01*
X104582494Y-97646537D01*
X104679185Y-97567185D01*
X104758537Y-97470494D01*
X104817502Y-97360180D01*
X104838393Y-97291313D01*
X104862866Y-97321134D01*
X105088986Y-97506706D01*
X105346966Y-97644599D01*
X105626889Y-97729513D01*
X105845050Y-97751000D01*
X105990950Y-97751000D01*
X106209111Y-97729513D01*
X106489034Y-97644599D01*
X106747014Y-97506706D01*
X106973134Y-97321134D01*
X107158706Y-97095014D01*
X107188000Y-97040209D01*
X107217294Y-97095014D01*
X107402866Y-97321134D01*
X107628986Y-97506706D01*
X107886966Y-97644599D01*
X108166889Y-97729513D01*
X108385050Y-97751000D01*
X108530950Y-97751000D01*
X108749111Y-97729513D01*
X109029034Y-97644599D01*
X109287014Y-97506706D01*
X109513134Y-97321134D01*
X109698706Y-97095014D01*
X109728000Y-97040209D01*
X109757294Y-97095014D01*
X109942866Y-97321134D01*
X110168986Y-97506706D01*
X110426966Y-97644599D01*
X110706889Y-97729513D01*
X110925050Y-97751000D01*
X111070950Y-97751000D01*
X111289111Y-97729513D01*
X111569034Y-97644599D01*
X111827014Y-97506706D01*
X112053134Y-97321134D01*
X112238706Y-97095014D01*
X112376599Y-96837034D01*
X112461513Y-96557111D01*
X112476178Y-96408212D01*
X116975000Y-96408212D01*
X116975000Y-96631788D01*
X117018617Y-96851067D01*
X117104176Y-97057624D01*
X117228388Y-97243520D01*
X117386480Y-97401612D01*
X117572376Y-97525824D01*
X117778933Y-97611383D01*
X117998212Y-97655000D01*
X118221788Y-97655000D01*
X118441067Y-97611383D01*
X118647624Y-97525824D01*
X118833520Y-97401612D01*
X118991612Y-97243520D01*
X119115824Y-97057624D01*
X119201383Y-96851067D01*
X119245000Y-96631788D01*
X119245000Y-96408212D01*
X119201383Y-96188933D01*
X119115824Y-95982376D01*
X118991612Y-95796480D01*
X118833520Y-95638388D01*
X118647624Y-95514176D01*
X118441067Y-95428617D01*
X118221788Y-95385000D01*
X117998212Y-95385000D01*
X117778933Y-95428617D01*
X117572376Y-95514176D01*
X117386480Y-95638388D01*
X117228388Y-95796480D01*
X117104176Y-95982376D01*
X117018617Y-96188933D01*
X116975000Y-96408212D01*
X112476178Y-96408212D01*
X112490185Y-96266000D01*
X112461513Y-95974889D01*
X112376599Y-95694966D01*
X112238706Y-95436986D01*
X112053134Y-95210866D01*
X111827014Y-95025294D01*
X111569034Y-94887401D01*
X111289111Y-94802487D01*
X111070950Y-94781000D01*
X110925050Y-94781000D01*
X110706889Y-94802487D01*
X110426966Y-94887401D01*
X110168986Y-95025294D01*
X109942866Y-95210866D01*
X109757294Y-95436986D01*
X109728000Y-95491791D01*
X109698706Y-95436986D01*
X109513134Y-95210866D01*
X109287014Y-95025294D01*
X109029034Y-94887401D01*
X108749111Y-94802487D01*
X108530950Y-94781000D01*
X108385050Y-94781000D01*
X108166889Y-94802487D01*
X107886966Y-94887401D01*
X107628986Y-95025294D01*
X107402866Y-95210866D01*
X107217294Y-95436986D01*
X107188000Y-95491791D01*
X107158706Y-95436986D01*
X106973134Y-95210866D01*
X106747014Y-95025294D01*
X106489034Y-94887401D01*
X106209111Y-94802487D01*
X105990950Y-94781000D01*
X105845050Y-94781000D01*
X105626889Y-94802487D01*
X105346966Y-94887401D01*
X105088986Y-95025294D01*
X104862866Y-95210866D01*
X104838393Y-95240687D01*
X104817502Y-95171820D01*
X104758537Y-95061506D01*
X104679185Y-94964815D01*
X104582494Y-94885463D01*
X104472180Y-94826498D01*
X104352482Y-94790188D01*
X104228000Y-94777928D01*
X102528000Y-94777928D01*
X102403518Y-94790188D01*
X102283820Y-94826498D01*
X102173506Y-94885463D01*
X102076815Y-94964815D01*
X101997463Y-95061506D01*
X101938498Y-95171820D01*
X101902188Y-95291518D01*
X101889928Y-95416000D01*
X85316666Y-95416000D01*
X84867177Y-94966511D01*
X84271818Y-94568705D01*
X83610290Y-94294691D01*
X82908016Y-94155000D01*
X82191984Y-94155000D01*
X81489710Y-94294691D01*
X80828182Y-94568705D01*
X80232823Y-94966511D01*
X79726511Y-95472823D01*
X79400000Y-95961481D01*
X79400000Y-88788212D01*
X82685000Y-88788212D01*
X82685000Y-89011788D01*
X82728617Y-89231067D01*
X82814176Y-89437624D01*
X82938388Y-89623520D01*
X83096480Y-89781612D01*
X83282376Y-89905824D01*
X83488933Y-89991383D01*
X83708212Y-90035000D01*
X83931788Y-90035000D01*
X84151067Y-89991383D01*
X84357624Y-89905824D01*
X84543520Y-89781612D01*
X84701612Y-89623520D01*
X84825824Y-89437624D01*
X84911383Y-89231067D01*
X84955000Y-89011788D01*
X84955000Y-88788212D01*
X90305000Y-88788212D01*
X90305000Y-89011788D01*
X90348617Y-89231067D01*
X90434176Y-89437624D01*
X90558388Y-89623520D01*
X90716480Y-89781612D01*
X90902376Y-89905824D01*
X91108933Y-89991383D01*
X91328212Y-90035000D01*
X91551788Y-90035000D01*
X91771067Y-89991383D01*
X91977624Y-89905824D01*
X92163520Y-89781612D01*
X92321612Y-89623520D01*
X92445824Y-89437624D01*
X92531383Y-89231067D01*
X92575000Y-89011788D01*
X92575000Y-88828541D01*
X100305920Y-88828541D01*
X100305920Y-89032419D01*
X100345694Y-89232378D01*
X100423715Y-89420736D01*
X100536983Y-89590254D01*
X100681146Y-89734417D01*
X100850664Y-89847685D01*
X101039022Y-89925706D01*
X101238981Y-89965480D01*
X101442859Y-89965480D01*
X101642818Y-89925706D01*
X101831176Y-89847685D01*
X102000694Y-89734417D01*
X102103930Y-89631181D01*
X107387440Y-89631181D01*
X107387440Y-89835059D01*
X107427214Y-90035018D01*
X107505235Y-90223376D01*
X107618503Y-90392894D01*
X107762666Y-90537057D01*
X107932184Y-90650325D01*
X108120542Y-90728346D01*
X108320501Y-90768120D01*
X108524379Y-90768120D01*
X108724338Y-90728346D01*
X108912696Y-90650325D01*
X109082214Y-90537057D01*
X109226377Y-90392894D01*
X109226400Y-90392860D01*
X109226400Y-90546259D01*
X109266174Y-90746218D01*
X109344195Y-90934576D01*
X109377237Y-90984027D01*
X109369595Y-90995464D01*
X109291574Y-91183822D01*
X109251800Y-91383781D01*
X109251800Y-91587659D01*
X109291574Y-91787618D01*
X109369595Y-91975976D01*
X109482863Y-92145494D01*
X109627026Y-92289657D01*
X109796544Y-92402925D01*
X109984902Y-92480946D01*
X110184861Y-92520720D01*
X110388739Y-92520720D01*
X110588698Y-92480946D01*
X110777056Y-92402925D01*
X110946574Y-92289657D01*
X111090737Y-92145494D01*
X111204005Y-91975976D01*
X111282026Y-91787618D01*
X111321800Y-91587659D01*
X111321800Y-91383781D01*
X111282026Y-91183822D01*
X111204005Y-90995464D01*
X111170963Y-90946013D01*
X111178605Y-90934576D01*
X111256626Y-90746218D01*
X111296400Y-90546259D01*
X111296400Y-90342381D01*
X111256626Y-90142422D01*
X111221745Y-90058212D01*
X118245000Y-90058212D01*
X118245000Y-90281788D01*
X118288617Y-90501067D01*
X118374176Y-90707624D01*
X118498388Y-90893520D01*
X118656480Y-91051612D01*
X118842376Y-91175824D01*
X119048933Y-91261383D01*
X119268212Y-91305000D01*
X119491788Y-91305000D01*
X119711067Y-91261383D01*
X119917624Y-91175824D01*
X120103520Y-91051612D01*
X120261612Y-90893520D01*
X120385824Y-90707624D01*
X120471383Y-90501067D01*
X120515000Y-90281788D01*
X120515000Y-90058212D01*
X124595000Y-90058212D01*
X124595000Y-90281788D01*
X124638617Y-90501067D01*
X124724176Y-90707624D01*
X124848388Y-90893520D01*
X125006480Y-91051612D01*
X125192376Y-91175824D01*
X125398933Y-91261383D01*
X125618212Y-91305000D01*
X125841788Y-91305000D01*
X126061067Y-91261383D01*
X126267624Y-91175824D01*
X126453520Y-91051612D01*
X126611612Y-90893520D01*
X126735824Y-90707624D01*
X126821383Y-90501067D01*
X126865000Y-90281788D01*
X126865000Y-90058212D01*
X126821383Y-89838933D01*
X126735824Y-89632376D01*
X126611612Y-89446480D01*
X126453520Y-89288388D01*
X126267624Y-89164176D01*
X126061067Y-89078617D01*
X125841788Y-89035000D01*
X125618212Y-89035000D01*
X125398933Y-89078617D01*
X125192376Y-89164176D01*
X125006480Y-89288388D01*
X124848388Y-89446480D01*
X124724176Y-89632376D01*
X124638617Y-89838933D01*
X124595000Y-90058212D01*
X120515000Y-90058212D01*
X120471383Y-89838933D01*
X120385824Y-89632376D01*
X120261612Y-89446480D01*
X120103520Y-89288388D01*
X119917624Y-89164176D01*
X119711067Y-89078617D01*
X119491788Y-89035000D01*
X119268212Y-89035000D01*
X119048933Y-89078617D01*
X118842376Y-89164176D01*
X118656480Y-89288388D01*
X118498388Y-89446480D01*
X118374176Y-89632376D01*
X118288617Y-89838933D01*
X118245000Y-90058212D01*
X111221745Y-90058212D01*
X111178605Y-89954064D01*
X111065337Y-89784546D01*
X110921174Y-89640383D01*
X110751656Y-89527115D01*
X110563298Y-89449094D01*
X110363339Y-89409320D01*
X110159461Y-89409320D01*
X109959502Y-89449094D01*
X109771144Y-89527115D01*
X109601626Y-89640383D01*
X109457463Y-89784546D01*
X109457440Y-89784580D01*
X109457440Y-89631181D01*
X109417666Y-89431222D01*
X109339645Y-89242864D01*
X109226377Y-89073346D01*
X109082214Y-88929183D01*
X108912696Y-88815915D01*
X108724338Y-88737894D01*
X108524379Y-88698120D01*
X108320501Y-88698120D01*
X108120542Y-88737894D01*
X107932184Y-88815915D01*
X107762666Y-88929183D01*
X107618503Y-89073346D01*
X107505235Y-89242864D01*
X107427214Y-89431222D01*
X107387440Y-89631181D01*
X102103930Y-89631181D01*
X102144857Y-89590254D01*
X102258125Y-89420736D01*
X102336146Y-89232378D01*
X102375920Y-89032419D01*
X102375920Y-88828541D01*
X102336146Y-88628582D01*
X102258125Y-88440224D01*
X102207222Y-88364043D01*
X102268285Y-88272656D01*
X102273700Y-88259581D01*
X110745320Y-88259581D01*
X110745320Y-88463459D01*
X110785094Y-88663418D01*
X110863115Y-88851776D01*
X110976383Y-89021294D01*
X111120546Y-89165457D01*
X111290064Y-89278725D01*
X111478422Y-89356746D01*
X111678381Y-89396520D01*
X111882259Y-89396520D01*
X112082218Y-89356746D01*
X112270576Y-89278725D01*
X112440094Y-89165457D01*
X112584257Y-89021294D01*
X112697525Y-88851776D01*
X112775546Y-88663418D01*
X112815320Y-88463459D01*
X112815320Y-88259581D01*
X112775546Y-88059622D01*
X112697525Y-87871264D01*
X112584257Y-87701746D01*
X112440094Y-87557583D01*
X112270576Y-87444315D01*
X112082218Y-87366294D01*
X112078232Y-87365501D01*
X113295480Y-87365501D01*
X113295480Y-87569379D01*
X113335254Y-87769338D01*
X113413275Y-87957696D01*
X113526543Y-88127214D01*
X113670706Y-88271377D01*
X113840224Y-88384645D01*
X114028582Y-88462666D01*
X114228541Y-88502440D01*
X114432419Y-88502440D01*
X114632378Y-88462666D01*
X114820736Y-88384645D01*
X114990254Y-88271377D01*
X115134417Y-88127214D01*
X115247685Y-87957696D01*
X115325706Y-87769338D01*
X115365480Y-87569379D01*
X115365480Y-87365501D01*
X115325706Y-87165542D01*
X115247685Y-86977184D01*
X115134417Y-86807666D01*
X114990254Y-86663503D01*
X114820736Y-86550235D01*
X114632378Y-86472214D01*
X114432419Y-86432440D01*
X114228541Y-86432440D01*
X114028582Y-86472214D01*
X113840224Y-86550235D01*
X113670706Y-86663503D01*
X113526543Y-86807666D01*
X113413275Y-86977184D01*
X113335254Y-87165542D01*
X113295480Y-87365501D01*
X112078232Y-87365501D01*
X111882259Y-87326520D01*
X111678381Y-87326520D01*
X111478422Y-87366294D01*
X111290064Y-87444315D01*
X111120546Y-87557583D01*
X110976383Y-87701746D01*
X110863115Y-87871264D01*
X110785094Y-88059622D01*
X110745320Y-88259581D01*
X102273700Y-88259581D01*
X102346306Y-88084298D01*
X102386080Y-87884339D01*
X102386080Y-87680461D01*
X102346306Y-87480502D01*
X102268285Y-87292144D01*
X102155017Y-87122626D01*
X102010854Y-86978463D01*
X101841336Y-86865195D01*
X101652978Y-86787174D01*
X101453019Y-86747400D01*
X101249141Y-86747400D01*
X101049182Y-86787174D01*
X100860824Y-86865195D01*
X100691306Y-86978463D01*
X100547143Y-87122626D01*
X100433875Y-87292144D01*
X100355854Y-87480502D01*
X100316080Y-87680461D01*
X100316080Y-87884339D01*
X100355854Y-88084298D01*
X100433875Y-88272656D01*
X100484778Y-88348837D01*
X100423715Y-88440224D01*
X100345694Y-88628582D01*
X100305920Y-88828541D01*
X92575000Y-88828541D01*
X92575000Y-88788212D01*
X92531383Y-88568933D01*
X92445824Y-88362376D01*
X92321612Y-88176480D01*
X92163520Y-88018388D01*
X91977624Y-87894176D01*
X91771067Y-87808617D01*
X91551788Y-87765000D01*
X91328212Y-87765000D01*
X91108933Y-87808617D01*
X90902376Y-87894176D01*
X90716480Y-88018388D01*
X90558388Y-88176480D01*
X90434176Y-88362376D01*
X90348617Y-88568933D01*
X90305000Y-88788212D01*
X84955000Y-88788212D01*
X84911383Y-88568933D01*
X84825824Y-88362376D01*
X84701612Y-88176480D01*
X84543520Y-88018388D01*
X84357624Y-87894176D01*
X84151067Y-87808617D01*
X83931788Y-87765000D01*
X83708212Y-87765000D01*
X83488933Y-87808617D01*
X83282376Y-87894176D01*
X83096480Y-88018388D01*
X82938388Y-88176480D01*
X82814176Y-88362376D01*
X82728617Y-88568933D01*
X82685000Y-88788212D01*
X79400000Y-88788212D01*
X79400000Y-86248212D01*
X124595000Y-86248212D01*
X124595000Y-86471788D01*
X124638617Y-86691067D01*
X124724176Y-86897624D01*
X124848388Y-87083520D01*
X125006480Y-87241612D01*
X125192376Y-87365824D01*
X125398933Y-87451383D01*
X125618212Y-87495000D01*
X125841788Y-87495000D01*
X126061067Y-87451383D01*
X126267624Y-87365824D01*
X126453520Y-87241612D01*
X126611612Y-87083520D01*
X126735824Y-86897624D01*
X126821383Y-86691067D01*
X126865000Y-86471788D01*
X126865000Y-86248212D01*
X126821383Y-86028933D01*
X126735824Y-85822376D01*
X126611612Y-85636480D01*
X126453520Y-85478388D01*
X126267624Y-85354176D01*
X126061067Y-85268617D01*
X125841788Y-85225000D01*
X125618212Y-85225000D01*
X125398933Y-85268617D01*
X125192376Y-85354176D01*
X125006480Y-85478388D01*
X124848388Y-85636480D01*
X124724176Y-85822376D01*
X124638617Y-86028933D01*
X124595000Y-86248212D01*
X79400000Y-86248212D01*
X79400000Y-83708212D01*
X87765000Y-83708212D01*
X87765000Y-83931788D01*
X87808617Y-84151067D01*
X87894176Y-84357624D01*
X88018388Y-84543520D01*
X88176480Y-84701612D01*
X88362376Y-84825824D01*
X88568933Y-84911383D01*
X88788212Y-84955000D01*
X89011788Y-84955000D01*
X89231067Y-84911383D01*
X89437624Y-84825824D01*
X89623520Y-84701612D01*
X89781612Y-84543520D01*
X89905824Y-84357624D01*
X89991383Y-84151067D01*
X90035000Y-83931788D01*
X90035000Y-83708212D01*
X90031907Y-83692661D01*
X120539560Y-83692661D01*
X120539560Y-83896539D01*
X120579334Y-84096498D01*
X120657355Y-84284856D01*
X120770623Y-84454374D01*
X120914786Y-84598537D01*
X121084304Y-84711805D01*
X121272662Y-84789826D01*
X121472621Y-84829600D01*
X121676499Y-84829600D01*
X121876458Y-84789826D01*
X122064816Y-84711805D01*
X122234334Y-84598537D01*
X122378497Y-84454374D01*
X122491765Y-84284856D01*
X122569786Y-84096498D01*
X122609560Y-83896539D01*
X122609560Y-83692661D01*
X122569786Y-83492702D01*
X122491765Y-83304344D01*
X122378497Y-83134826D01*
X122234334Y-82990663D01*
X122064816Y-82877395D01*
X121876458Y-82799374D01*
X121676499Y-82759600D01*
X121472621Y-82759600D01*
X121272662Y-82799374D01*
X121084304Y-82877395D01*
X120914786Y-82990663D01*
X120770623Y-83134826D01*
X120657355Y-83304344D01*
X120579334Y-83492702D01*
X120539560Y-83692661D01*
X90031907Y-83692661D01*
X89991383Y-83488933D01*
X89905824Y-83282376D01*
X89781612Y-83096480D01*
X89623520Y-82938388D01*
X89437624Y-82814176D01*
X89231067Y-82728617D01*
X89011788Y-82685000D01*
X88788212Y-82685000D01*
X88568933Y-82728617D01*
X88362376Y-82814176D01*
X88176480Y-82938388D01*
X88018388Y-83096480D01*
X87894176Y-83282376D01*
X87808617Y-83488933D01*
X87765000Y-83708212D01*
X79400000Y-83708212D01*
X79400000Y-82556720D01*
X81361648Y-82556720D01*
X81373908Y-82681202D01*
X81410218Y-82800900D01*
X81469183Y-82911214D01*
X81548535Y-83007905D01*
X81645226Y-83087257D01*
X81755540Y-83146222D01*
X81875238Y-83182532D01*
X81999720Y-83194792D01*
X82563970Y-83191720D01*
X82722720Y-83032970D01*
X82722720Y-81833720D01*
X82976720Y-81833720D01*
X82976720Y-83032970D01*
X83135470Y-83191720D01*
X83699720Y-83194792D01*
X83824202Y-83182532D01*
X83943900Y-83146222D01*
X84054214Y-83087257D01*
X84150905Y-83007905D01*
X84230257Y-82911214D01*
X84289222Y-82800900D01*
X84325532Y-82681202D01*
X84337792Y-82556720D01*
X84334720Y-81992470D01*
X84175970Y-81833720D01*
X82976720Y-81833720D01*
X82722720Y-81833720D01*
X81523470Y-81833720D01*
X81364720Y-81992470D01*
X81361648Y-82556720D01*
X79400000Y-82556720D01*
X79400000Y-79166720D01*
X81357535Y-79166720D01*
X81386207Y-79457831D01*
X81471121Y-79737754D01*
X81609014Y-79995734D01*
X81794586Y-80221854D01*
X81824407Y-80246327D01*
X81755540Y-80267218D01*
X81645226Y-80326183D01*
X81548535Y-80405535D01*
X81469183Y-80502226D01*
X81410218Y-80612540D01*
X81373908Y-80732238D01*
X81361648Y-80856720D01*
X81364720Y-81420970D01*
X81523470Y-81579720D01*
X82722720Y-81579720D01*
X82722720Y-81559720D01*
X82976720Y-81559720D01*
X82976720Y-81579720D01*
X84175970Y-81579720D01*
X84334720Y-81420970D01*
X84337792Y-80856720D01*
X84325532Y-80732238D01*
X84289222Y-80612540D01*
X84230257Y-80502226D01*
X84150905Y-80405535D01*
X84054214Y-80326183D01*
X83943900Y-80267218D01*
X83875033Y-80246327D01*
X83904854Y-80221854D01*
X83974770Y-80136661D01*
X93097400Y-80136661D01*
X93097400Y-80340539D01*
X93137174Y-80540498D01*
X93215195Y-80728856D01*
X93218000Y-80733054D01*
X93218000Y-81026000D01*
X93220440Y-81050776D01*
X93227667Y-81074601D01*
X93239403Y-81096557D01*
X93255197Y-81115803D01*
X93274443Y-81131597D01*
X93296399Y-81143333D01*
X93320224Y-81150560D01*
X93345000Y-81153000D01*
X93637946Y-81153000D01*
X93642144Y-81155805D01*
X93830502Y-81233826D01*
X94030461Y-81273600D01*
X94234339Y-81273600D01*
X94434298Y-81233826D01*
X94622656Y-81155805D01*
X94626854Y-81153000D01*
X95854568Y-81153000D01*
X95820280Y-81325381D01*
X95820280Y-81529259D01*
X95860054Y-81729218D01*
X95938075Y-81917576D01*
X96051343Y-82087094D01*
X96195506Y-82231257D01*
X96365024Y-82344525D01*
X96553382Y-82422546D01*
X96753341Y-82462320D01*
X96957219Y-82462320D01*
X97157178Y-82422546D01*
X97345536Y-82344525D01*
X97515054Y-82231257D01*
X97659217Y-82087094D01*
X97772485Y-81917576D01*
X97850506Y-81729218D01*
X97890280Y-81529259D01*
X97890280Y-81355551D01*
X98029386Y-81494657D01*
X98198904Y-81607925D01*
X98387262Y-81685946D01*
X98587221Y-81725720D01*
X98791099Y-81725720D01*
X98991058Y-81685946D01*
X99179416Y-81607925D01*
X99348934Y-81494657D01*
X99493097Y-81350494D01*
X99606365Y-81180976D01*
X99684386Y-80992618D01*
X99724160Y-80792659D01*
X99724160Y-80588781D01*
X99684386Y-80388822D01*
X99606365Y-80200464D01*
X99493097Y-80030946D01*
X99348934Y-79886783D01*
X99179416Y-79773515D01*
X98991058Y-79695494D01*
X98791099Y-79655720D01*
X98587221Y-79655720D01*
X98387262Y-79695494D01*
X98198904Y-79773515D01*
X98029386Y-79886783D01*
X97885223Y-80030946D01*
X97771955Y-80200464D01*
X97693934Y-80388822D01*
X97654160Y-80588781D01*
X97654160Y-80762489D01*
X97515054Y-80623383D01*
X97345536Y-80510115D01*
X97157178Y-80432094D01*
X97155000Y-80431661D01*
X97155000Y-80010000D01*
X97497900Y-80010000D01*
X97522676Y-80007560D01*
X97546501Y-80000333D01*
X97568457Y-79988597D01*
X97587703Y-79972803D01*
X97603497Y-79953557D01*
X97615233Y-79931601D01*
X97622460Y-79907776D01*
X97624900Y-79883000D01*
X97624900Y-79565500D01*
X99809300Y-79565500D01*
X99834076Y-79563060D01*
X99857901Y-79555833D01*
X99879857Y-79544097D01*
X99899103Y-79528303D01*
X99914897Y-79509057D01*
X99926633Y-79487101D01*
X99933860Y-79463276D01*
X99936199Y-79443576D01*
X99944530Y-79235300D01*
X101981000Y-79235300D01*
X102005776Y-79232860D01*
X102029601Y-79225633D01*
X102051557Y-79213897D01*
X102070803Y-79198103D01*
X102086597Y-79178857D01*
X102097712Y-79158061D01*
X102863000Y-79158061D01*
X102863000Y-79361939D01*
X102902774Y-79561898D01*
X102980795Y-79750256D01*
X103094063Y-79919774D01*
X103238226Y-80063937D01*
X103407744Y-80177205D01*
X103596102Y-80255226D01*
X103796061Y-80295000D01*
X103999939Y-80295000D01*
X104199898Y-80255226D01*
X104388256Y-80177205D01*
X104557774Y-80063937D01*
X104701937Y-79919774D01*
X104815205Y-79750256D01*
X104893226Y-79561898D01*
X104933000Y-79361939D01*
X104933000Y-79158061D01*
X104893226Y-78958102D01*
X104815205Y-78769744D01*
X104701937Y-78600226D01*
X104557774Y-78456063D01*
X104412509Y-78359000D01*
X122332815Y-78359000D01*
X122361487Y-78650111D01*
X122446401Y-78930034D01*
X122584294Y-79188014D01*
X122769866Y-79414134D01*
X122799687Y-79438607D01*
X122730820Y-79459498D01*
X122620506Y-79518463D01*
X122523815Y-79597815D01*
X122444463Y-79694506D01*
X122385498Y-79804820D01*
X122349188Y-79924518D01*
X122336928Y-80049000D01*
X122336928Y-81749000D01*
X122349188Y-81873482D01*
X122385498Y-81993180D01*
X122444463Y-82103494D01*
X122523815Y-82200185D01*
X122620506Y-82279537D01*
X122730820Y-82338502D01*
X122850518Y-82374812D01*
X122975000Y-82387072D01*
X124675000Y-82387072D01*
X124799482Y-82374812D01*
X124919180Y-82338502D01*
X125029494Y-82279537D01*
X125126185Y-82200185D01*
X125205537Y-82103494D01*
X125264502Y-81993180D01*
X125300812Y-81873482D01*
X125313072Y-81749000D01*
X125313072Y-80049000D01*
X125300812Y-79924518D01*
X125264502Y-79804820D01*
X125205537Y-79694506D01*
X125126185Y-79597815D01*
X125029494Y-79518463D01*
X124919180Y-79459498D01*
X124850313Y-79438607D01*
X124880134Y-79414134D01*
X125065706Y-79188014D01*
X125203599Y-78930034D01*
X125288513Y-78650111D01*
X125317185Y-78359000D01*
X125288513Y-78067889D01*
X125203599Y-77787966D01*
X125065706Y-77529986D01*
X124880134Y-77303866D01*
X124654014Y-77118294D01*
X124396034Y-76980401D01*
X124116111Y-76895487D01*
X123897950Y-76874000D01*
X123752050Y-76874000D01*
X123533889Y-76895487D01*
X123253966Y-76980401D01*
X122995986Y-77118294D01*
X122769866Y-77303866D01*
X122584294Y-77529986D01*
X122446401Y-77787966D01*
X122361487Y-78067889D01*
X122332815Y-78359000D01*
X104412509Y-78359000D01*
X104388256Y-78342795D01*
X104199898Y-78264774D01*
X103999939Y-78225000D01*
X103796061Y-78225000D01*
X103596102Y-78264774D01*
X103407744Y-78342795D01*
X103238226Y-78456063D01*
X103094063Y-78600226D01*
X102980795Y-78769744D01*
X102902774Y-78958102D01*
X102863000Y-79158061D01*
X102097712Y-79158061D01*
X102098333Y-79156901D01*
X102105560Y-79133076D01*
X102107994Y-79107055D01*
X102095294Y-77811655D01*
X102092611Y-77786904D01*
X102085151Y-77763151D01*
X102073200Y-77741311D01*
X102057218Y-77722221D01*
X102037819Y-77706617D01*
X102015748Y-77695096D01*
X101991854Y-77688103D01*
X101966897Y-77685908D01*
X99718229Y-77710755D01*
X99031293Y-77084077D01*
X99011345Y-77069181D01*
X98988873Y-77058463D01*
X98964743Y-77052336D01*
X98945700Y-77050900D01*
X97675225Y-77050900D01*
X97671850Y-76149765D01*
X97767502Y-76189386D01*
X97967461Y-76229160D01*
X98171339Y-76229160D01*
X98371298Y-76189386D01*
X98559656Y-76111365D01*
X98729174Y-75998097D01*
X98873337Y-75853934D01*
X98986605Y-75684416D01*
X99064626Y-75496058D01*
X99104400Y-75296099D01*
X99104400Y-75092221D01*
X99069034Y-74914421D01*
X116389200Y-74914421D01*
X116389200Y-75118299D01*
X116428974Y-75318258D01*
X116506995Y-75506616D01*
X116620263Y-75676134D01*
X116764426Y-75820297D01*
X116933944Y-75933565D01*
X117122302Y-76011586D01*
X117322261Y-76051360D01*
X117526139Y-76051360D01*
X117726098Y-76011586D01*
X117914456Y-75933565D01*
X118083974Y-75820297D01*
X118228137Y-75676134D01*
X118341405Y-75506616D01*
X118419426Y-75318258D01*
X118459200Y-75118299D01*
X118459200Y-74914421D01*
X118419426Y-74714462D01*
X118341405Y-74526104D01*
X118228137Y-74356586D01*
X118083974Y-74212423D01*
X117914456Y-74099155D01*
X117726098Y-74021134D01*
X117526139Y-73981360D01*
X117322261Y-73981360D01*
X117122302Y-74021134D01*
X116933944Y-74099155D01*
X116764426Y-74212423D01*
X116620263Y-74356586D01*
X116506995Y-74526104D01*
X116428974Y-74714462D01*
X116389200Y-74914421D01*
X99069034Y-74914421D01*
X99064626Y-74892262D01*
X98986605Y-74703904D01*
X98873337Y-74534386D01*
X98729174Y-74390223D01*
X98559656Y-74276955D01*
X98371298Y-74198934D01*
X98171339Y-74159160D01*
X97967461Y-74159160D01*
X97767502Y-74198934D01*
X97748440Y-74206830D01*
X97703937Y-74140226D01*
X97664175Y-74100464D01*
X97662999Y-73786524D01*
X97660466Y-73761757D01*
X97653150Y-73737960D01*
X97641332Y-73716048D01*
X97625466Y-73696862D01*
X97606161Y-73681140D01*
X97584161Y-73669486D01*
X97560310Y-73662348D01*
X97536000Y-73660000D01*
X93345000Y-73660000D01*
X93320224Y-73662440D01*
X93296399Y-73669667D01*
X93274443Y-73681403D01*
X93255197Y-73697197D01*
X93239403Y-73716443D01*
X93227667Y-73738399D01*
X93220440Y-73762224D01*
X93218000Y-73787000D01*
X93218000Y-79744146D01*
X93215195Y-79748344D01*
X93137174Y-79936702D01*
X93097400Y-80136661D01*
X83974770Y-80136661D01*
X84090426Y-79995734D01*
X84211597Y-79769039D01*
X84371144Y-79875645D01*
X84559502Y-79953666D01*
X84759461Y-79993440D01*
X84963339Y-79993440D01*
X85163298Y-79953666D01*
X85351656Y-79875645D01*
X85521174Y-79762377D01*
X85665337Y-79618214D01*
X85778605Y-79448696D01*
X85856626Y-79260338D01*
X85896400Y-79060379D01*
X85896400Y-78856501D01*
X85856626Y-78656542D01*
X85778605Y-78468184D01*
X85665337Y-78298666D01*
X85521174Y-78154503D01*
X85351656Y-78041235D01*
X85163298Y-77963214D01*
X84963339Y-77923440D01*
X84759461Y-77923440D01*
X84559502Y-77963214D01*
X84371144Y-78041235D01*
X84201626Y-78154503D01*
X84057970Y-78298159D01*
X83904854Y-78111586D01*
X83678734Y-77926014D01*
X83420754Y-77788121D01*
X83140831Y-77703207D01*
X82922670Y-77681720D01*
X82776770Y-77681720D01*
X82558609Y-77703207D01*
X82278686Y-77788121D01*
X82020706Y-77926014D01*
X81794586Y-78111586D01*
X81609014Y-78337706D01*
X81471121Y-78595686D01*
X81386207Y-78875609D01*
X81357535Y-79166720D01*
X79400000Y-79166720D01*
X79400000Y-74818212D01*
X81694400Y-74818212D01*
X81694400Y-75041788D01*
X81738017Y-75261067D01*
X81823576Y-75467624D01*
X81947788Y-75653520D01*
X82105880Y-75811612D01*
X82291776Y-75935824D01*
X82498333Y-76021383D01*
X82717612Y-76065000D01*
X82941188Y-76065000D01*
X83160467Y-76021383D01*
X83367024Y-75935824D01*
X83552920Y-75811612D01*
X83711012Y-75653520D01*
X83835224Y-75467624D01*
X83920783Y-75261067D01*
X83964400Y-75041788D01*
X83964400Y-74818212D01*
X83920783Y-74598933D01*
X83835224Y-74392376D01*
X83711012Y-74206480D01*
X83552920Y-74048388D01*
X83367024Y-73924176D01*
X83160467Y-73838617D01*
X82941188Y-73795000D01*
X82717612Y-73795000D01*
X82498333Y-73838617D01*
X82291776Y-73924176D01*
X82105880Y-74048388D01*
X81947788Y-74206480D01*
X81823576Y-74392376D01*
X81738017Y-74598933D01*
X81694400Y-74818212D01*
X79400000Y-74818212D01*
X79400000Y-73548212D01*
X87765000Y-73548212D01*
X87765000Y-73771788D01*
X87808617Y-73991067D01*
X87894176Y-74197624D01*
X88018388Y-74383520D01*
X88176480Y-74541612D01*
X88362376Y-74665824D01*
X88568933Y-74751383D01*
X88788212Y-74795000D01*
X89011788Y-74795000D01*
X89231067Y-74751383D01*
X89437624Y-74665824D01*
X89623520Y-74541612D01*
X89781612Y-74383520D01*
X89905824Y-74197624D01*
X89991383Y-73991067D01*
X90035000Y-73771788D01*
X90035000Y-73548212D01*
X89991383Y-73328933D01*
X89905824Y-73122376D01*
X89781612Y-72936480D01*
X89625953Y-72780821D01*
X97979280Y-72780821D01*
X97979280Y-72984699D01*
X98019054Y-73184658D01*
X98097075Y-73373016D01*
X98210343Y-73542534D01*
X98354506Y-73686697D01*
X98524024Y-73799965D01*
X98712382Y-73877986D01*
X98912341Y-73917760D01*
X99116219Y-73917760D01*
X99316178Y-73877986D01*
X99504536Y-73799965D01*
X99674054Y-73686697D01*
X99818217Y-73542534D01*
X99931485Y-73373016D01*
X100009506Y-73184658D01*
X100049280Y-72984699D01*
X100049280Y-72816381D01*
X112106760Y-72816381D01*
X112106760Y-73020259D01*
X112146534Y-73220218D01*
X112224555Y-73408576D01*
X112337823Y-73578094D01*
X112481986Y-73722257D01*
X112651504Y-73835525D01*
X112839862Y-73913546D01*
X113039821Y-73953320D01*
X113243699Y-73953320D01*
X113443658Y-73913546D01*
X113632016Y-73835525D01*
X113801534Y-73722257D01*
X113895290Y-73628501D01*
X114043822Y-73690026D01*
X114243781Y-73729800D01*
X114447659Y-73729800D01*
X114647618Y-73690026D01*
X114835976Y-73612005D01*
X115005494Y-73498737D01*
X115149657Y-73354574D01*
X115262925Y-73185056D01*
X115340946Y-72996698D01*
X115380720Y-72796739D01*
X115380720Y-72592861D01*
X115340946Y-72392902D01*
X115262925Y-72204544D01*
X115149657Y-72035026D01*
X115005494Y-71890863D01*
X114835976Y-71777595D01*
X114647618Y-71699574D01*
X114447659Y-71659800D01*
X114243781Y-71659800D01*
X114043822Y-71699574D01*
X113855464Y-71777595D01*
X113685946Y-71890863D01*
X113592190Y-71984619D01*
X113443658Y-71923094D01*
X113243699Y-71883320D01*
X113039821Y-71883320D01*
X112839862Y-71923094D01*
X112651504Y-72001115D01*
X112481986Y-72114383D01*
X112337823Y-72258546D01*
X112224555Y-72428064D01*
X112146534Y-72616422D01*
X112106760Y-72816381D01*
X100049280Y-72816381D01*
X100049280Y-72780821D01*
X100009506Y-72580862D01*
X99931485Y-72392504D01*
X99818217Y-72222986D01*
X99674054Y-72078823D01*
X99504536Y-71965555D01*
X99316178Y-71887534D01*
X99116219Y-71847760D01*
X98912341Y-71847760D01*
X98712382Y-71887534D01*
X98524024Y-71965555D01*
X98354506Y-72078823D01*
X98210343Y-72222986D01*
X98097075Y-72392504D01*
X98019054Y-72580862D01*
X97979280Y-72780821D01*
X89625953Y-72780821D01*
X89623520Y-72778388D01*
X89437624Y-72654176D01*
X89231067Y-72568617D01*
X89011788Y-72525000D01*
X88788212Y-72525000D01*
X88568933Y-72568617D01*
X88362376Y-72654176D01*
X88176480Y-72778388D01*
X88018388Y-72936480D01*
X87894176Y-73122376D01*
X87808617Y-73328933D01*
X87765000Y-73548212D01*
X79400000Y-73548212D01*
X79400000Y-69088000D01*
X81311815Y-69088000D01*
X81340487Y-69379111D01*
X81425401Y-69659034D01*
X81563294Y-69917014D01*
X81748866Y-70143134D01*
X81974986Y-70328706D01*
X82232966Y-70466599D01*
X82327978Y-70495421D01*
X82291776Y-70510416D01*
X82105880Y-70634628D01*
X81947788Y-70792720D01*
X81823576Y-70978616D01*
X81738017Y-71185173D01*
X81694400Y-71404452D01*
X81694400Y-71628028D01*
X81738017Y-71847307D01*
X81823576Y-72053864D01*
X81947788Y-72239760D01*
X82105880Y-72397852D01*
X82291776Y-72522064D01*
X82498333Y-72607623D01*
X82717612Y-72651240D01*
X82941188Y-72651240D01*
X83160467Y-72607623D01*
X83367024Y-72522064D01*
X83552920Y-72397852D01*
X83711012Y-72239760D01*
X83835224Y-72053864D01*
X83920783Y-71847307D01*
X83964400Y-71628028D01*
X83964400Y-71404452D01*
X83920783Y-71185173D01*
X83835224Y-70978616D01*
X83711012Y-70792720D01*
X83552920Y-70634628D01*
X83367024Y-70510416D01*
X83309347Y-70486525D01*
X83375034Y-70466599D01*
X83633014Y-70328706D01*
X83859134Y-70143134D01*
X84044706Y-69917014D01*
X84182599Y-69659034D01*
X84267513Y-69379111D01*
X84271671Y-69336892D01*
X97731960Y-69336892D01*
X97731960Y-69560468D01*
X97775577Y-69779747D01*
X97861136Y-69986304D01*
X97985348Y-70172200D01*
X98143440Y-70330292D01*
X98329336Y-70454504D01*
X98535893Y-70540063D01*
X98755172Y-70583680D01*
X98978748Y-70583680D01*
X99198027Y-70540063D01*
X99404584Y-70454504D01*
X99545140Y-70360587D01*
X99685696Y-70454504D01*
X99892253Y-70540063D01*
X100111532Y-70583680D01*
X100335108Y-70583680D01*
X100554387Y-70540063D01*
X100760944Y-70454504D01*
X100946840Y-70330292D01*
X101031231Y-70245901D01*
X102322680Y-70245901D01*
X102322680Y-70449779D01*
X102362454Y-70649738D01*
X102440475Y-70838096D01*
X102553743Y-71007614D01*
X102697906Y-71151777D01*
X102867424Y-71265045D01*
X103055782Y-71343066D01*
X103255741Y-71382840D01*
X103408336Y-71382840D01*
X103442743Y-71434334D01*
X103586906Y-71578497D01*
X103756424Y-71691765D01*
X103944782Y-71769786D01*
X104144741Y-71809560D01*
X104348619Y-71809560D01*
X104548578Y-71769786D01*
X104736936Y-71691765D01*
X104906454Y-71578497D01*
X105050617Y-71434334D01*
X105163885Y-71264816D01*
X105241906Y-71076458D01*
X105281680Y-70876499D01*
X105281680Y-70672621D01*
X105241906Y-70472662D01*
X105163885Y-70284304D01*
X105050617Y-70114786D01*
X104906454Y-69970623D01*
X104736936Y-69857355D01*
X104548578Y-69779334D01*
X104348619Y-69739560D01*
X104325695Y-69739560D01*
X104388466Y-69588018D01*
X104428240Y-69388059D01*
X104428240Y-69184181D01*
X104388466Y-68984222D01*
X104310445Y-68795864D01*
X104197177Y-68626346D01*
X104053014Y-68482183D01*
X103883496Y-68368915D01*
X103695138Y-68290894D01*
X103495179Y-68251120D01*
X103291301Y-68251120D01*
X103091342Y-68290894D01*
X102902984Y-68368915D01*
X102733466Y-68482183D01*
X102589303Y-68626346D01*
X102476035Y-68795864D01*
X102398014Y-68984222D01*
X102358240Y-69184181D01*
X102358240Y-69388059D01*
X102398014Y-69588018D01*
X102476035Y-69776376D01*
X102485386Y-69790370D01*
X102440475Y-69857584D01*
X102362454Y-70045942D01*
X102322680Y-70245901D01*
X101031231Y-70245901D01*
X101104932Y-70172200D01*
X101229144Y-69986304D01*
X101314703Y-69779747D01*
X101358320Y-69560468D01*
X101358320Y-69336892D01*
X101314703Y-69117613D01*
X101229144Y-68911056D01*
X101104932Y-68725160D01*
X100946840Y-68567068D01*
X100760944Y-68442856D01*
X100554387Y-68357297D01*
X100335108Y-68313680D01*
X100111532Y-68313680D01*
X99892253Y-68357297D01*
X99685696Y-68442856D01*
X99545140Y-68536773D01*
X99404584Y-68442856D01*
X99198027Y-68357297D01*
X98978748Y-68313680D01*
X98755172Y-68313680D01*
X98535893Y-68357297D01*
X98329336Y-68442856D01*
X98143440Y-68567068D01*
X97985348Y-68725160D01*
X97861136Y-68911056D01*
X97775577Y-69117613D01*
X97731960Y-69336892D01*
X84271671Y-69336892D01*
X84296185Y-69088000D01*
X84267513Y-68796889D01*
X84182599Y-68516966D01*
X84044706Y-68258986D01*
X83859134Y-68032866D01*
X83829313Y-68008393D01*
X83898180Y-67987502D01*
X84008494Y-67928537D01*
X84105185Y-67849185D01*
X84184537Y-67752494D01*
X84243502Y-67642180D01*
X84279812Y-67522482D01*
X84292072Y-67398000D01*
X84292072Y-65698000D01*
X84279812Y-65573518D01*
X84243502Y-65453820D01*
X84184537Y-65343506D01*
X84105185Y-65246815D01*
X84008494Y-65167463D01*
X83898180Y-65108498D01*
X83778482Y-65072188D01*
X83654000Y-65059928D01*
X81954000Y-65059928D01*
X81829518Y-65072188D01*
X81709820Y-65108498D01*
X81599506Y-65167463D01*
X81502815Y-65246815D01*
X81423463Y-65343506D01*
X81364498Y-65453820D01*
X81328188Y-65573518D01*
X81315928Y-65698000D01*
X81315928Y-67398000D01*
X81328188Y-67522482D01*
X81364498Y-67642180D01*
X81423463Y-67752494D01*
X81502815Y-67849185D01*
X81599506Y-67928537D01*
X81709820Y-67987502D01*
X81778687Y-68008393D01*
X81748866Y-68032866D01*
X81563294Y-68258986D01*
X81425401Y-68516966D01*
X81340487Y-68796889D01*
X81311815Y-69088000D01*
X79400000Y-69088000D01*
X79400000Y-64033061D01*
X116579700Y-64033061D01*
X116579700Y-64236939D01*
X116619474Y-64436898D01*
X116697495Y-64625256D01*
X116810763Y-64794774D01*
X116954926Y-64938937D01*
X117124444Y-65052205D01*
X117312802Y-65130226D01*
X117512761Y-65170000D01*
X117716639Y-65170000D01*
X117916598Y-65130226D01*
X118104956Y-65052205D01*
X118274474Y-64938937D01*
X118418637Y-64794774D01*
X118531905Y-64625256D01*
X118609926Y-64436898D01*
X118649700Y-64236939D01*
X118649700Y-64033061D01*
X118609926Y-63833102D01*
X118531905Y-63644744D01*
X118418637Y-63475226D01*
X118274474Y-63331063D01*
X118104956Y-63217795D01*
X117916598Y-63139774D01*
X117716639Y-63100000D01*
X117512761Y-63100000D01*
X117312802Y-63139774D01*
X117124444Y-63217795D01*
X116954926Y-63331063D01*
X116810763Y-63475226D01*
X116697495Y-63644744D01*
X116619474Y-63833102D01*
X116579700Y-64033061D01*
X79400000Y-64033061D01*
X79400000Y-62509061D01*
X123592640Y-62509061D01*
X123592640Y-62712939D01*
X123632414Y-62912898D01*
X123710435Y-63101256D01*
X123823703Y-63270774D01*
X123967866Y-63414937D01*
X124137384Y-63528205D01*
X124325742Y-63606226D01*
X124525701Y-63646000D01*
X124729579Y-63646000D01*
X124929538Y-63606226D01*
X125117896Y-63528205D01*
X125287414Y-63414937D01*
X125431577Y-63270774D01*
X125544845Y-63101256D01*
X125622866Y-62912898D01*
X125662640Y-62712939D01*
X125662640Y-62509061D01*
X125622866Y-62309102D01*
X125544845Y-62120744D01*
X125431577Y-61951226D01*
X125287414Y-61807063D01*
X125117896Y-61693795D01*
X124929538Y-61615774D01*
X124729579Y-61576000D01*
X124525701Y-61576000D01*
X124325742Y-61615774D01*
X124137384Y-61693795D01*
X123967866Y-61807063D01*
X123823703Y-61951226D01*
X123710435Y-62120744D01*
X123632414Y-62309102D01*
X123592640Y-62509061D01*
X79400000Y-62509061D01*
X79400000Y-60954892D01*
X90833320Y-60954892D01*
X90833320Y-61178468D01*
X90876937Y-61397747D01*
X90962496Y-61604304D01*
X91086708Y-61790200D01*
X91244800Y-61948292D01*
X91430696Y-62072504D01*
X91637253Y-62158063D01*
X91856532Y-62201680D01*
X92080108Y-62201680D01*
X92299387Y-62158063D01*
X92505944Y-62072504D01*
X92691840Y-61948292D01*
X92834460Y-61805672D01*
X92895800Y-61867012D01*
X93081696Y-61991224D01*
X93288253Y-62076783D01*
X93507532Y-62120400D01*
X93731108Y-62120400D01*
X93950387Y-62076783D01*
X94156944Y-61991224D01*
X94342840Y-61867012D01*
X94500932Y-61708920D01*
X94625144Y-61523024D01*
X94710703Y-61316467D01*
X94731889Y-61209958D01*
X94798736Y-61254624D01*
X95005293Y-61340183D01*
X95224572Y-61383800D01*
X95448148Y-61383800D01*
X95667427Y-61340183D01*
X95873984Y-61254624D01*
X96059880Y-61130412D01*
X96217972Y-60972320D01*
X96342184Y-60786424D01*
X96403495Y-60638406D01*
X96403977Y-60640827D01*
X96489536Y-60847384D01*
X96613748Y-61033280D01*
X96771840Y-61191372D01*
X96957736Y-61315584D01*
X97164293Y-61401143D01*
X97383572Y-61444760D01*
X97607148Y-61444760D01*
X97826427Y-61401143D01*
X98032984Y-61315584D01*
X98218880Y-61191372D01*
X98376972Y-61033280D01*
X98501184Y-60847384D01*
X98586743Y-60640827D01*
X98630360Y-60421548D01*
X98630360Y-60197972D01*
X98586743Y-59978693D01*
X98501184Y-59772136D01*
X98376972Y-59586240D01*
X98218880Y-59428148D01*
X98032984Y-59303936D01*
X97826427Y-59218377D01*
X97607148Y-59174760D01*
X97383572Y-59174760D01*
X97167714Y-59217697D01*
X97236264Y-59115104D01*
X97303255Y-58953372D01*
X105133520Y-58953372D01*
X105133520Y-59176948D01*
X105177137Y-59396227D01*
X105262696Y-59602784D01*
X105386908Y-59788680D01*
X105545000Y-59946772D01*
X105730896Y-60070984D01*
X105937453Y-60156543D01*
X106156732Y-60200160D01*
X106380308Y-60200160D01*
X106599587Y-60156543D01*
X106806144Y-60070984D01*
X106992040Y-59946772D01*
X107150132Y-59788680D01*
X107274344Y-59602784D01*
X107359903Y-59396227D01*
X107403520Y-59176948D01*
X107403520Y-58953372D01*
X107359903Y-58734093D01*
X107274344Y-58527536D01*
X107150132Y-58341640D01*
X106992040Y-58183548D01*
X106806144Y-58059336D01*
X106599587Y-57973777D01*
X106380308Y-57930160D01*
X106156732Y-57930160D01*
X105937453Y-57973777D01*
X105730896Y-58059336D01*
X105545000Y-58183548D01*
X105386908Y-58341640D01*
X105262696Y-58527536D01*
X105177137Y-58734093D01*
X105133520Y-58953372D01*
X97303255Y-58953372D01*
X97321823Y-58908547D01*
X97365440Y-58689268D01*
X97365440Y-58465692D01*
X97321823Y-58246413D01*
X97236264Y-58039856D01*
X97112052Y-57853960D01*
X96953960Y-57695868D01*
X96768064Y-57571656D01*
X96561507Y-57486097D01*
X96342228Y-57442480D01*
X96118652Y-57442480D01*
X95899373Y-57486097D01*
X95692816Y-57571656D01*
X95506920Y-57695868D01*
X95348828Y-57853960D01*
X95224616Y-58039856D01*
X95139057Y-58246413D01*
X95095440Y-58465692D01*
X95095440Y-58689268D01*
X95139057Y-58908547D01*
X95224114Y-59113891D01*
X95005293Y-59157417D01*
X94798736Y-59242976D01*
X94612840Y-59367188D01*
X94454748Y-59525280D01*
X94330536Y-59711176D01*
X94244977Y-59917733D01*
X94223791Y-60024242D01*
X94156944Y-59979576D01*
X93950387Y-59894017D01*
X93731108Y-59850400D01*
X93507532Y-59850400D01*
X93288253Y-59894017D01*
X93081696Y-59979576D01*
X92895800Y-60103788D01*
X92753180Y-60246408D01*
X92691840Y-60185068D01*
X92505944Y-60060856D01*
X92299387Y-59975297D01*
X92080108Y-59931680D01*
X91856532Y-59931680D01*
X91637253Y-59975297D01*
X91430696Y-60060856D01*
X91244800Y-60185068D01*
X91086708Y-60343160D01*
X90962496Y-60529056D01*
X90876937Y-60735613D01*
X90833320Y-60954892D01*
X79400000Y-60954892D01*
X79400000Y-57014859D01*
X79435691Y-57194290D01*
X79709705Y-57855818D01*
X80107511Y-58451177D01*
X80613823Y-58957489D01*
X81209182Y-59355295D01*
X81870710Y-59629309D01*
X82572984Y-59769000D01*
X83289016Y-59769000D01*
X83991290Y-59629309D01*
X84652818Y-59355295D01*
X85248177Y-58957489D01*
X85754489Y-58451177D01*
X86152295Y-57855818D01*
X86426309Y-57194290D01*
X86566000Y-56492016D01*
X86566000Y-55775984D01*
X86564455Y-55768212D01*
X89035000Y-55768212D01*
X89035000Y-55991788D01*
X89078617Y-56211067D01*
X89164176Y-56417624D01*
X89288388Y-56603520D01*
X89446480Y-56761612D01*
X89632376Y-56885824D01*
X89838933Y-56971383D01*
X90058212Y-57015000D01*
X90281788Y-57015000D01*
X90501067Y-56971383D01*
X90707624Y-56885824D01*
X90893520Y-56761612D01*
X91051612Y-56603520D01*
X91175824Y-56417624D01*
X91261383Y-56211067D01*
X91305000Y-55991788D01*
X91305000Y-55768212D01*
X99195000Y-55768212D01*
X99195000Y-55991788D01*
X99238617Y-56211067D01*
X99324176Y-56417624D01*
X99448388Y-56603520D01*
X99606480Y-56761612D01*
X99792376Y-56885824D01*
X99998933Y-56971383D01*
X100218212Y-57015000D01*
X100441788Y-57015000D01*
X100661067Y-56971383D01*
X100867624Y-56885824D01*
X101053520Y-56761612D01*
X101211612Y-56603520D01*
X101335824Y-56417624D01*
X101421383Y-56211067D01*
X101465000Y-55991788D01*
X101465000Y-55768212D01*
X101421383Y-55548933D01*
X101405961Y-55511700D01*
X110293215Y-55511700D01*
X110321887Y-55802811D01*
X110406801Y-56082734D01*
X110544694Y-56340714D01*
X110730266Y-56566834D01*
X110956386Y-56752406D01*
X111214366Y-56890299D01*
X111494289Y-56975213D01*
X111712450Y-56996700D01*
X111858350Y-56996700D01*
X112076511Y-56975213D01*
X112356434Y-56890299D01*
X112614414Y-56752406D01*
X112840534Y-56566834D01*
X112865007Y-56537013D01*
X112885898Y-56605880D01*
X112944863Y-56716194D01*
X113024215Y-56812885D01*
X113120906Y-56892237D01*
X113231220Y-56951202D01*
X113350918Y-56987512D01*
X113475400Y-56999772D01*
X115175400Y-56999772D01*
X115299882Y-56987512D01*
X115419580Y-56951202D01*
X115529894Y-56892237D01*
X115626585Y-56812885D01*
X115705937Y-56716194D01*
X115764902Y-56605880D01*
X115801212Y-56486182D01*
X115813472Y-56361700D01*
X115813472Y-55768212D01*
X116975000Y-55768212D01*
X116975000Y-55991788D01*
X117018617Y-56211067D01*
X117104176Y-56417624D01*
X117228388Y-56603520D01*
X117386480Y-56761612D01*
X117572376Y-56885824D01*
X117778933Y-56971383D01*
X117998212Y-57015000D01*
X118221788Y-57015000D01*
X118441067Y-56971383D01*
X118647624Y-56885824D01*
X118833520Y-56761612D01*
X118991612Y-56603520D01*
X119115824Y-56417624D01*
X119201383Y-56211067D01*
X119245000Y-55991788D01*
X119245000Y-55768212D01*
X119201383Y-55548933D01*
X119115824Y-55342376D01*
X118991612Y-55156480D01*
X118833520Y-54998388D01*
X118647624Y-54874176D01*
X118441067Y-54788617D01*
X118221788Y-54745000D01*
X117998212Y-54745000D01*
X117778933Y-54788617D01*
X117572376Y-54874176D01*
X117386480Y-54998388D01*
X117228388Y-55156480D01*
X117104176Y-55342376D01*
X117018617Y-55548933D01*
X116975000Y-55768212D01*
X115813472Y-55768212D01*
X115813472Y-54661700D01*
X115801212Y-54537218D01*
X115764902Y-54417520D01*
X115705937Y-54307206D01*
X115626585Y-54210515D01*
X115529894Y-54131163D01*
X115419580Y-54072198D01*
X115299882Y-54035888D01*
X115175400Y-54023628D01*
X113475400Y-54023628D01*
X113350918Y-54035888D01*
X113231220Y-54072198D01*
X113120906Y-54131163D01*
X113024215Y-54210515D01*
X112944863Y-54307206D01*
X112885898Y-54417520D01*
X112865007Y-54486387D01*
X112840534Y-54456566D01*
X112614414Y-54270994D01*
X112356434Y-54133101D01*
X112076511Y-54048187D01*
X111858350Y-54026700D01*
X111712450Y-54026700D01*
X111494289Y-54048187D01*
X111214366Y-54133101D01*
X110956386Y-54270994D01*
X110730266Y-54456566D01*
X110544694Y-54682686D01*
X110406801Y-54940666D01*
X110321887Y-55220589D01*
X110293215Y-55511700D01*
X101405961Y-55511700D01*
X101335824Y-55342376D01*
X101211612Y-55156480D01*
X101053520Y-54998388D01*
X100867624Y-54874176D01*
X100661067Y-54788617D01*
X100441788Y-54745000D01*
X100218212Y-54745000D01*
X99998933Y-54788617D01*
X99792376Y-54874176D01*
X99606480Y-54998388D01*
X99448388Y-55156480D01*
X99324176Y-55342376D01*
X99238617Y-55548933D01*
X99195000Y-55768212D01*
X91305000Y-55768212D01*
X91261383Y-55548933D01*
X91175824Y-55342376D01*
X91051612Y-55156480D01*
X90893520Y-54998388D01*
X90707624Y-54874176D01*
X90501067Y-54788617D01*
X90281788Y-54745000D01*
X90058212Y-54745000D01*
X89838933Y-54788617D01*
X89632376Y-54874176D01*
X89446480Y-54998388D01*
X89288388Y-55156480D01*
X89164176Y-55342376D01*
X89078617Y-55548933D01*
X89035000Y-55768212D01*
X86564455Y-55768212D01*
X86426309Y-55073710D01*
X86152295Y-54412182D01*
X85754489Y-53816823D01*
X85248177Y-53310511D01*
X84652818Y-52912705D01*
X84211729Y-52730000D01*
X122631481Y-52730000D01*
X122142823Y-53056511D01*
M02*
