G04 #@! TF.GenerationSoftware,KiCad,Pcbnew,(5.1.4)-1*
G04 #@! TF.CreationDate,2020-10-27T13:41:20+01:00*
G04 #@! TF.ProjectId,STm32f405xx board,53546d33-3266-4343-9035-787820626f61,rev?*
G04 #@! TF.SameCoordinates,Original*
G04 #@! TF.FileFunction,Soldermask,Top*
G04 #@! TF.FilePolarity,Negative*
%FSLAX46Y46*%
G04 Gerber Fmt 4.6, Leading zero omitted, Abs format (unit mm)*
G04 Created by KiCad (PCBNEW (5.1.4)-1) date 2020-10-27 13:41:20*
%MOMM*%
%LPD*%
G04 APERTURE LIST*
%ADD10C,0.100000*%
G04 APERTURE END LIST*
D10*
G36*
X125349943Y-94856248D02*
G01*
X125905189Y-95086238D01*
X126153347Y-95252052D01*
X126404899Y-95420134D01*
X126829866Y-95845101D01*
X126978440Y-96067458D01*
X127163762Y-96344811D01*
X127393752Y-96900057D01*
X127511000Y-97489501D01*
X127511000Y-98090499D01*
X127393752Y-98679943D01*
X127163762Y-99235189D01*
X127163761Y-99235190D01*
X126829866Y-99734899D01*
X126404899Y-100159866D01*
X126264573Y-100253629D01*
X125905189Y-100493762D01*
X125349943Y-100723752D01*
X124760499Y-100841000D01*
X124159501Y-100841000D01*
X123570057Y-100723752D01*
X123014811Y-100493762D01*
X122655427Y-100253629D01*
X122515101Y-100159866D01*
X122090134Y-99734899D01*
X121756239Y-99235190D01*
X121756238Y-99235189D01*
X121526248Y-98679943D01*
X121409000Y-98090499D01*
X121409000Y-97489501D01*
X121526248Y-96900057D01*
X121756238Y-96344811D01*
X121941560Y-96067458D01*
X122090134Y-95845101D01*
X122515101Y-95420134D01*
X122766653Y-95252052D01*
X123014811Y-95086238D01*
X123570057Y-94856248D01*
X124159501Y-94739000D01*
X124760499Y-94739000D01*
X125349943Y-94856248D01*
X125349943Y-94856248D01*
G37*
G36*
X83439943Y-94856248D02*
G01*
X83995189Y-95086238D01*
X84243347Y-95252052D01*
X84494899Y-95420134D01*
X84919866Y-95845101D01*
X85068440Y-96067458D01*
X85253762Y-96344811D01*
X85483752Y-96900057D01*
X85601000Y-97489501D01*
X85601000Y-98090499D01*
X85483752Y-98679943D01*
X85253762Y-99235189D01*
X85253761Y-99235190D01*
X84919866Y-99734899D01*
X84494899Y-100159866D01*
X84354573Y-100253629D01*
X83995189Y-100493762D01*
X83439943Y-100723752D01*
X82850499Y-100841000D01*
X82249501Y-100841000D01*
X81660057Y-100723752D01*
X81104811Y-100493762D01*
X80745427Y-100253629D01*
X80605101Y-100159866D01*
X80180134Y-99734899D01*
X79846239Y-99235190D01*
X79846238Y-99235189D01*
X79616248Y-98679943D01*
X79499000Y-98090499D01*
X79499000Y-97489501D01*
X79616248Y-96900057D01*
X79846238Y-96344811D01*
X80031560Y-96067458D01*
X80180134Y-95845101D01*
X80605101Y-95420134D01*
X80856653Y-95252052D01*
X81104811Y-95086238D01*
X81660057Y-94856248D01*
X82249501Y-94739000D01*
X82850499Y-94739000D01*
X83439943Y-94856248D01*
X83439943Y-94856248D01*
G37*
G36*
X111108443Y-95371519D02*
G01*
X111174627Y-95378037D01*
X111344466Y-95429557D01*
X111500991Y-95513222D01*
X111536729Y-95542552D01*
X111638186Y-95625814D01*
X111721448Y-95727271D01*
X111750778Y-95763009D01*
X111750779Y-95763011D01*
X111818825Y-95890314D01*
X111834443Y-95919534D01*
X111885963Y-96089373D01*
X111903359Y-96266000D01*
X111885963Y-96442627D01*
X111834443Y-96612466D01*
X111750778Y-96768991D01*
X111721448Y-96804729D01*
X111638186Y-96906186D01*
X111536729Y-96989448D01*
X111500991Y-97018778D01*
X111344466Y-97102443D01*
X111174627Y-97153963D01*
X111108443Y-97160481D01*
X111042260Y-97167000D01*
X110953740Y-97167000D01*
X110887557Y-97160481D01*
X110821373Y-97153963D01*
X110651534Y-97102443D01*
X110495009Y-97018778D01*
X110459271Y-96989448D01*
X110357814Y-96906186D01*
X110274552Y-96804729D01*
X110245222Y-96768991D01*
X110161557Y-96612466D01*
X110110037Y-96442627D01*
X110092641Y-96266000D01*
X110110037Y-96089373D01*
X110161557Y-95919534D01*
X110177176Y-95890314D01*
X110245221Y-95763011D01*
X110245222Y-95763009D01*
X110274552Y-95727271D01*
X110357814Y-95625814D01*
X110459271Y-95542552D01*
X110495009Y-95513222D01*
X110651534Y-95429557D01*
X110821373Y-95378037D01*
X110887557Y-95371519D01*
X110953740Y-95365000D01*
X111042260Y-95365000D01*
X111108443Y-95371519D01*
X111108443Y-95371519D01*
G37*
G36*
X108568443Y-95371519D02*
G01*
X108634627Y-95378037D01*
X108804466Y-95429557D01*
X108960991Y-95513222D01*
X108996729Y-95542552D01*
X109098186Y-95625814D01*
X109181448Y-95727271D01*
X109210778Y-95763009D01*
X109210779Y-95763011D01*
X109278825Y-95890314D01*
X109294443Y-95919534D01*
X109345963Y-96089373D01*
X109363359Y-96266000D01*
X109345963Y-96442627D01*
X109294443Y-96612466D01*
X109210778Y-96768991D01*
X109181448Y-96804729D01*
X109098186Y-96906186D01*
X108996729Y-96989448D01*
X108960991Y-97018778D01*
X108804466Y-97102443D01*
X108634627Y-97153963D01*
X108568443Y-97160481D01*
X108502260Y-97167000D01*
X108413740Y-97167000D01*
X108347557Y-97160481D01*
X108281373Y-97153963D01*
X108111534Y-97102443D01*
X107955009Y-97018778D01*
X107919271Y-96989448D01*
X107817814Y-96906186D01*
X107734552Y-96804729D01*
X107705222Y-96768991D01*
X107621557Y-96612466D01*
X107570037Y-96442627D01*
X107552641Y-96266000D01*
X107570037Y-96089373D01*
X107621557Y-95919534D01*
X107637176Y-95890314D01*
X107705221Y-95763011D01*
X107705222Y-95763009D01*
X107734552Y-95727271D01*
X107817814Y-95625814D01*
X107919271Y-95542552D01*
X107955009Y-95513222D01*
X108111534Y-95429557D01*
X108281373Y-95378037D01*
X108347557Y-95371519D01*
X108413740Y-95365000D01*
X108502260Y-95365000D01*
X108568443Y-95371519D01*
X108568443Y-95371519D01*
G37*
G36*
X106028443Y-95371519D02*
G01*
X106094627Y-95378037D01*
X106264466Y-95429557D01*
X106420991Y-95513222D01*
X106456729Y-95542552D01*
X106558186Y-95625814D01*
X106641448Y-95727271D01*
X106670778Y-95763009D01*
X106670779Y-95763011D01*
X106738825Y-95890314D01*
X106754443Y-95919534D01*
X106805963Y-96089373D01*
X106823359Y-96266000D01*
X106805963Y-96442627D01*
X106754443Y-96612466D01*
X106670778Y-96768991D01*
X106641448Y-96804729D01*
X106558186Y-96906186D01*
X106456729Y-96989448D01*
X106420991Y-97018778D01*
X106264466Y-97102443D01*
X106094627Y-97153963D01*
X106028443Y-97160481D01*
X105962260Y-97167000D01*
X105873740Y-97167000D01*
X105807557Y-97160481D01*
X105741373Y-97153963D01*
X105571534Y-97102443D01*
X105415009Y-97018778D01*
X105379271Y-96989448D01*
X105277814Y-96906186D01*
X105194552Y-96804729D01*
X105165222Y-96768991D01*
X105081557Y-96612466D01*
X105030037Y-96442627D01*
X105012641Y-96266000D01*
X105030037Y-96089373D01*
X105081557Y-95919534D01*
X105097176Y-95890314D01*
X105165221Y-95763011D01*
X105165222Y-95763009D01*
X105194552Y-95727271D01*
X105277814Y-95625814D01*
X105379271Y-95542552D01*
X105415009Y-95513222D01*
X105571534Y-95429557D01*
X105741373Y-95378037D01*
X105807557Y-95371519D01*
X105873740Y-95365000D01*
X105962260Y-95365000D01*
X106028443Y-95371519D01*
X106028443Y-95371519D01*
G37*
G36*
X104279000Y-97167000D02*
G01*
X102477000Y-97167000D01*
X102477000Y-95365000D01*
X104279000Y-95365000D01*
X104279000Y-97167000D01*
X104279000Y-97167000D01*
G37*
G36*
X110615591Y-88695085D02*
G01*
X110649569Y-88705393D01*
X110680890Y-88722134D01*
X110708339Y-88744661D01*
X110730866Y-88772110D01*
X110747607Y-88803431D01*
X110757915Y-88837409D01*
X110762000Y-88878890D01*
X110762000Y-89480110D01*
X110757915Y-89521591D01*
X110747607Y-89555569D01*
X110730866Y-89586890D01*
X110708339Y-89614339D01*
X110680890Y-89636866D01*
X110649569Y-89653607D01*
X110615591Y-89663915D01*
X110574110Y-89668000D01*
X109897890Y-89668000D01*
X109856409Y-89663915D01*
X109822431Y-89653607D01*
X109791110Y-89636866D01*
X109763661Y-89614339D01*
X109741134Y-89586890D01*
X109724393Y-89555569D01*
X109714085Y-89521591D01*
X109710000Y-89480110D01*
X109710000Y-88878890D01*
X109714085Y-88837409D01*
X109724393Y-88803431D01*
X109741134Y-88772110D01*
X109763661Y-88744661D01*
X109791110Y-88722134D01*
X109822431Y-88705393D01*
X109856409Y-88695085D01*
X109897890Y-88691000D01*
X110574110Y-88691000D01*
X110615591Y-88695085D01*
X110615591Y-88695085D01*
G37*
G36*
X103777038Y-88506316D02*
G01*
X103797657Y-88512571D01*
X103816653Y-88522724D01*
X103833308Y-88536392D01*
X103846976Y-88553047D01*
X103857129Y-88572043D01*
X103863384Y-88592662D01*
X103866100Y-88620240D01*
X103866100Y-89128960D01*
X103863384Y-89156538D01*
X103857129Y-89177157D01*
X103846976Y-89196153D01*
X103833308Y-89212808D01*
X103816653Y-89226476D01*
X103797657Y-89236629D01*
X103777038Y-89242884D01*
X103749460Y-89245600D01*
X103290740Y-89245600D01*
X103263162Y-89242884D01*
X103242543Y-89236629D01*
X103223547Y-89226476D01*
X103206892Y-89212808D01*
X103193224Y-89196153D01*
X103183071Y-89177157D01*
X103176816Y-89156538D01*
X103174100Y-89128960D01*
X103174100Y-88620240D01*
X103176816Y-88592662D01*
X103183071Y-88572043D01*
X103193224Y-88553047D01*
X103206892Y-88536392D01*
X103223547Y-88522724D01*
X103242543Y-88512571D01*
X103263162Y-88506316D01*
X103290740Y-88503600D01*
X103749460Y-88503600D01*
X103777038Y-88506316D01*
X103777038Y-88506316D01*
G37*
G36*
X102807038Y-88506316D02*
G01*
X102827657Y-88512571D01*
X102846653Y-88522724D01*
X102863308Y-88536392D01*
X102876976Y-88553047D01*
X102887129Y-88572043D01*
X102893384Y-88592662D01*
X102896100Y-88620240D01*
X102896100Y-89128960D01*
X102893384Y-89156538D01*
X102887129Y-89177157D01*
X102876976Y-89196153D01*
X102863308Y-89212808D01*
X102846653Y-89226476D01*
X102827657Y-89236629D01*
X102807038Y-89242884D01*
X102779460Y-89245600D01*
X102320740Y-89245600D01*
X102293162Y-89242884D01*
X102272543Y-89236629D01*
X102253547Y-89226476D01*
X102236892Y-89212808D01*
X102223224Y-89196153D01*
X102213071Y-89177157D01*
X102206816Y-89156538D01*
X102204100Y-89128960D01*
X102204100Y-88620240D01*
X102206816Y-88592662D01*
X102213071Y-88572043D01*
X102223224Y-88553047D01*
X102236892Y-88536392D01*
X102253547Y-88522724D01*
X102272543Y-88512571D01*
X102293162Y-88506316D01*
X102320740Y-88503600D01*
X102779460Y-88503600D01*
X102807038Y-88506316D01*
X102807038Y-88506316D01*
G37*
G36*
X108739938Y-88152716D02*
G01*
X108760557Y-88158971D01*
X108779553Y-88169124D01*
X108796208Y-88182792D01*
X108809876Y-88199447D01*
X108820029Y-88218443D01*
X108826284Y-88239062D01*
X108829000Y-88266640D01*
X108829000Y-88725360D01*
X108826284Y-88752938D01*
X108820029Y-88773557D01*
X108809876Y-88792553D01*
X108796208Y-88809208D01*
X108779553Y-88822876D01*
X108760557Y-88833029D01*
X108739938Y-88839284D01*
X108712360Y-88842000D01*
X108203640Y-88842000D01*
X108176062Y-88839284D01*
X108155443Y-88833029D01*
X108136447Y-88822876D01*
X108119792Y-88809208D01*
X108106124Y-88792553D01*
X108095971Y-88773557D01*
X108089716Y-88752938D01*
X108087000Y-88725360D01*
X108087000Y-88266640D01*
X108089716Y-88239062D01*
X108095971Y-88218443D01*
X108106124Y-88199447D01*
X108119792Y-88182792D01*
X108136447Y-88169124D01*
X108155443Y-88158971D01*
X108176062Y-88152716D01*
X108203640Y-88150000D01*
X108712360Y-88150000D01*
X108739938Y-88152716D01*
X108739938Y-88152716D01*
G37*
G36*
X102781638Y-87452216D02*
G01*
X102802257Y-87458471D01*
X102821253Y-87468624D01*
X102837908Y-87482292D01*
X102851576Y-87498947D01*
X102861729Y-87517943D01*
X102867984Y-87538562D01*
X102870700Y-87566140D01*
X102870700Y-88074860D01*
X102867984Y-88102438D01*
X102861729Y-88123057D01*
X102851576Y-88142053D01*
X102837908Y-88158708D01*
X102821253Y-88172376D01*
X102802257Y-88182529D01*
X102781638Y-88188784D01*
X102754060Y-88191500D01*
X102295340Y-88191500D01*
X102267762Y-88188784D01*
X102247143Y-88182529D01*
X102228147Y-88172376D01*
X102211492Y-88158708D01*
X102197824Y-88142053D01*
X102187671Y-88123057D01*
X102181416Y-88102438D01*
X102178700Y-88074860D01*
X102178700Y-87566140D01*
X102181416Y-87538562D01*
X102187671Y-87517943D01*
X102197824Y-87498947D01*
X102211492Y-87482292D01*
X102228147Y-87468624D01*
X102247143Y-87458471D01*
X102267762Y-87452216D01*
X102295340Y-87449500D01*
X102754060Y-87449500D01*
X102781638Y-87452216D01*
X102781638Y-87452216D01*
G37*
G36*
X103751638Y-87452216D02*
G01*
X103772257Y-87458471D01*
X103791253Y-87468624D01*
X103807908Y-87482292D01*
X103821576Y-87498947D01*
X103831729Y-87517943D01*
X103837984Y-87538562D01*
X103840700Y-87566140D01*
X103840700Y-88074860D01*
X103837984Y-88102438D01*
X103831729Y-88123057D01*
X103821576Y-88142053D01*
X103807908Y-88158708D01*
X103791253Y-88172376D01*
X103772257Y-88182529D01*
X103751638Y-88188784D01*
X103724060Y-88191500D01*
X103265340Y-88191500D01*
X103237762Y-88188784D01*
X103217143Y-88182529D01*
X103198147Y-88172376D01*
X103181492Y-88158708D01*
X103167824Y-88142053D01*
X103157671Y-88123057D01*
X103151416Y-88102438D01*
X103148700Y-88074860D01*
X103148700Y-87566140D01*
X103151416Y-87538562D01*
X103157671Y-87517943D01*
X103167824Y-87498947D01*
X103181492Y-87482292D01*
X103198147Y-87468624D01*
X103217143Y-87458471D01*
X103237762Y-87452216D01*
X103265340Y-87449500D01*
X103724060Y-87449500D01*
X103751638Y-87452216D01*
X103751638Y-87452216D01*
G37*
G36*
X110615591Y-87120085D02*
G01*
X110649569Y-87130393D01*
X110680890Y-87147134D01*
X110708339Y-87169661D01*
X110730866Y-87197110D01*
X110747607Y-87228431D01*
X110757915Y-87262409D01*
X110762000Y-87303890D01*
X110762000Y-87905110D01*
X110757915Y-87946591D01*
X110747607Y-87980569D01*
X110730866Y-88011890D01*
X110708339Y-88039339D01*
X110680890Y-88061866D01*
X110649569Y-88078607D01*
X110615591Y-88088915D01*
X110574110Y-88093000D01*
X109897890Y-88093000D01*
X109856409Y-88088915D01*
X109822431Y-88078607D01*
X109791110Y-88061866D01*
X109763661Y-88039339D01*
X109741134Y-88011890D01*
X109724393Y-87980569D01*
X109714085Y-87946591D01*
X109710000Y-87905110D01*
X109710000Y-87303890D01*
X109714085Y-87262409D01*
X109724393Y-87228431D01*
X109741134Y-87197110D01*
X109763661Y-87169661D01*
X109791110Y-87147134D01*
X109822431Y-87130393D01*
X109856409Y-87120085D01*
X109897890Y-87116000D01*
X110574110Y-87116000D01*
X110615591Y-87120085D01*
X110615591Y-87120085D01*
G37*
G36*
X108739938Y-87182716D02*
G01*
X108760557Y-87188971D01*
X108779553Y-87199124D01*
X108796208Y-87212792D01*
X108809876Y-87229447D01*
X108820029Y-87248443D01*
X108826284Y-87269062D01*
X108829000Y-87296640D01*
X108829000Y-87755360D01*
X108826284Y-87782938D01*
X108820029Y-87803557D01*
X108809876Y-87822553D01*
X108796208Y-87839208D01*
X108779553Y-87852876D01*
X108760557Y-87863029D01*
X108739938Y-87869284D01*
X108712360Y-87872000D01*
X108203640Y-87872000D01*
X108176062Y-87869284D01*
X108155443Y-87863029D01*
X108136447Y-87852876D01*
X108119792Y-87839208D01*
X108106124Y-87822553D01*
X108095971Y-87803557D01*
X108089716Y-87782938D01*
X108087000Y-87755360D01*
X108087000Y-87296640D01*
X108089716Y-87269062D01*
X108095971Y-87248443D01*
X108106124Y-87229447D01*
X108119792Y-87212792D01*
X108136447Y-87199124D01*
X108155443Y-87188971D01*
X108176062Y-87182716D01*
X108203640Y-87180000D01*
X108712360Y-87180000D01*
X108739938Y-87182716D01*
X108739938Y-87182716D01*
G37*
G36*
X112041938Y-87009716D02*
G01*
X112062557Y-87015971D01*
X112081553Y-87026124D01*
X112098208Y-87039792D01*
X112111876Y-87056447D01*
X112122029Y-87075443D01*
X112128284Y-87096062D01*
X112131000Y-87123640D01*
X112131000Y-87582360D01*
X112128284Y-87609938D01*
X112122029Y-87630557D01*
X112111876Y-87649553D01*
X112098208Y-87666208D01*
X112081553Y-87679876D01*
X112062557Y-87690029D01*
X112041938Y-87696284D01*
X112014360Y-87699000D01*
X111505640Y-87699000D01*
X111478062Y-87696284D01*
X111457443Y-87690029D01*
X111438447Y-87679876D01*
X111421792Y-87666208D01*
X111408124Y-87649553D01*
X111397971Y-87630557D01*
X111391716Y-87609938D01*
X111389000Y-87582360D01*
X111389000Y-87123640D01*
X111391716Y-87096062D01*
X111397971Y-87075443D01*
X111408124Y-87056447D01*
X111421792Y-87039792D01*
X111438447Y-87026124D01*
X111457443Y-87015971D01*
X111478062Y-87009716D01*
X111505640Y-87007000D01*
X112014360Y-87007000D01*
X112041938Y-87009716D01*
X112041938Y-87009716D01*
G37*
G36*
X113311938Y-87009716D02*
G01*
X113332557Y-87015971D01*
X113351553Y-87026124D01*
X113368208Y-87039792D01*
X113381876Y-87056447D01*
X113392029Y-87075443D01*
X113398284Y-87096062D01*
X113401000Y-87123640D01*
X113401000Y-87582360D01*
X113398284Y-87609938D01*
X113392029Y-87630557D01*
X113381876Y-87649553D01*
X113368208Y-87666208D01*
X113351553Y-87679876D01*
X113332557Y-87690029D01*
X113311938Y-87696284D01*
X113284360Y-87699000D01*
X112775640Y-87699000D01*
X112748062Y-87696284D01*
X112727443Y-87690029D01*
X112708447Y-87679876D01*
X112691792Y-87666208D01*
X112678124Y-87649553D01*
X112667971Y-87630557D01*
X112661716Y-87609938D01*
X112659000Y-87582360D01*
X112659000Y-87123640D01*
X112661716Y-87096062D01*
X112667971Y-87075443D01*
X112678124Y-87056447D01*
X112691792Y-87039792D01*
X112708447Y-87026124D01*
X112727443Y-87015971D01*
X112748062Y-87009716D01*
X112775640Y-87007000D01*
X113284360Y-87007000D01*
X113311938Y-87009716D01*
X113311938Y-87009716D01*
G37*
G36*
X113311938Y-86039716D02*
G01*
X113332557Y-86045971D01*
X113351553Y-86056124D01*
X113368208Y-86069792D01*
X113381876Y-86086447D01*
X113392029Y-86105443D01*
X113398284Y-86126062D01*
X113401000Y-86153640D01*
X113401000Y-86612360D01*
X113398284Y-86639938D01*
X113392029Y-86660557D01*
X113381876Y-86679553D01*
X113368208Y-86696208D01*
X113351553Y-86709876D01*
X113332557Y-86720029D01*
X113311938Y-86726284D01*
X113284360Y-86729000D01*
X112775640Y-86729000D01*
X112748062Y-86726284D01*
X112727443Y-86720029D01*
X112708447Y-86709876D01*
X112691792Y-86696208D01*
X112678124Y-86679553D01*
X112667971Y-86660557D01*
X112661716Y-86639938D01*
X112659000Y-86612360D01*
X112659000Y-86153640D01*
X112661716Y-86126062D01*
X112667971Y-86105443D01*
X112678124Y-86086447D01*
X112691792Y-86069792D01*
X112708447Y-86056124D01*
X112727443Y-86045971D01*
X112748062Y-86039716D01*
X112775640Y-86037000D01*
X113284360Y-86037000D01*
X113311938Y-86039716D01*
X113311938Y-86039716D01*
G37*
G36*
X112041938Y-86039716D02*
G01*
X112062557Y-86045971D01*
X112081553Y-86056124D01*
X112098208Y-86069792D01*
X112111876Y-86086447D01*
X112122029Y-86105443D01*
X112128284Y-86126062D01*
X112131000Y-86153640D01*
X112131000Y-86612360D01*
X112128284Y-86639938D01*
X112122029Y-86660557D01*
X112111876Y-86679553D01*
X112098208Y-86696208D01*
X112081553Y-86709876D01*
X112062557Y-86720029D01*
X112041938Y-86726284D01*
X112014360Y-86729000D01*
X111505640Y-86729000D01*
X111478062Y-86726284D01*
X111457443Y-86720029D01*
X111438447Y-86709876D01*
X111421792Y-86696208D01*
X111408124Y-86679553D01*
X111397971Y-86660557D01*
X111391716Y-86639938D01*
X111389000Y-86612360D01*
X111389000Y-86153640D01*
X111391716Y-86126062D01*
X111397971Y-86105443D01*
X111408124Y-86086447D01*
X111421792Y-86069792D01*
X111438447Y-86056124D01*
X111457443Y-86045971D01*
X111478062Y-86039716D01*
X111505640Y-86037000D01*
X112014360Y-86037000D01*
X112041938Y-86039716D01*
X112041938Y-86039716D01*
G37*
G36*
X103100295Y-84860323D02*
G01*
X103107309Y-84862451D01*
X103121077Y-84869810D01*
X103143716Y-84879187D01*
X103167749Y-84883967D01*
X103192253Y-84883967D01*
X103216286Y-84879186D01*
X103238923Y-84869810D01*
X103252691Y-84862451D01*
X103259705Y-84860323D01*
X103273140Y-84859000D01*
X103586860Y-84859000D01*
X103600295Y-84860323D01*
X103607309Y-84862451D01*
X103621077Y-84869810D01*
X103643716Y-84879187D01*
X103667749Y-84883967D01*
X103692253Y-84883967D01*
X103716286Y-84879186D01*
X103738923Y-84869810D01*
X103752691Y-84862451D01*
X103759705Y-84860323D01*
X103773140Y-84859000D01*
X104086860Y-84859000D01*
X104100295Y-84860323D01*
X104107309Y-84862451D01*
X104121077Y-84869810D01*
X104143716Y-84879187D01*
X104167749Y-84883967D01*
X104192253Y-84883967D01*
X104216286Y-84879186D01*
X104238923Y-84869810D01*
X104252691Y-84862451D01*
X104259705Y-84860323D01*
X104273140Y-84859000D01*
X104586860Y-84859000D01*
X104600295Y-84860323D01*
X104607309Y-84862451D01*
X104621077Y-84869810D01*
X104643716Y-84879187D01*
X104667749Y-84883967D01*
X104692253Y-84883967D01*
X104716286Y-84879186D01*
X104738923Y-84869810D01*
X104752691Y-84862451D01*
X104759705Y-84860323D01*
X104773140Y-84859000D01*
X105086860Y-84859000D01*
X105100295Y-84860323D01*
X105107309Y-84862451D01*
X105121077Y-84869810D01*
X105143716Y-84879187D01*
X105167749Y-84883967D01*
X105192253Y-84883967D01*
X105216286Y-84879186D01*
X105238923Y-84869810D01*
X105252691Y-84862451D01*
X105259705Y-84860323D01*
X105273140Y-84859000D01*
X105586860Y-84859000D01*
X105600295Y-84860323D01*
X105607309Y-84862451D01*
X105621077Y-84869810D01*
X105643716Y-84879187D01*
X105667749Y-84883967D01*
X105692253Y-84883967D01*
X105716286Y-84879186D01*
X105738923Y-84869810D01*
X105752691Y-84862451D01*
X105759705Y-84860323D01*
X105773140Y-84859000D01*
X106086860Y-84859000D01*
X106100295Y-84860323D01*
X106107309Y-84862451D01*
X106121077Y-84869810D01*
X106143716Y-84879187D01*
X106167749Y-84883967D01*
X106192253Y-84883967D01*
X106216286Y-84879186D01*
X106238923Y-84869810D01*
X106252691Y-84862451D01*
X106259705Y-84860323D01*
X106273140Y-84859000D01*
X106586860Y-84859000D01*
X106600295Y-84860323D01*
X106607309Y-84862451D01*
X106621077Y-84869810D01*
X106643716Y-84879187D01*
X106667749Y-84883967D01*
X106692253Y-84883967D01*
X106716286Y-84879186D01*
X106738923Y-84869810D01*
X106752691Y-84862451D01*
X106759705Y-84860323D01*
X106773140Y-84859000D01*
X107086860Y-84859000D01*
X107100295Y-84860323D01*
X107107309Y-84862451D01*
X107121077Y-84869810D01*
X107143716Y-84879187D01*
X107167749Y-84883967D01*
X107192253Y-84883967D01*
X107216286Y-84879186D01*
X107238923Y-84869810D01*
X107252691Y-84862451D01*
X107259705Y-84860323D01*
X107273140Y-84859000D01*
X107586860Y-84859000D01*
X107600295Y-84860323D01*
X107607309Y-84862451D01*
X107621077Y-84869810D01*
X107643716Y-84879187D01*
X107667749Y-84883967D01*
X107692253Y-84883967D01*
X107716286Y-84879186D01*
X107738923Y-84869810D01*
X107752691Y-84862451D01*
X107759705Y-84860323D01*
X107773140Y-84859000D01*
X108086860Y-84859000D01*
X108100295Y-84860323D01*
X108107309Y-84862451D01*
X108121077Y-84869810D01*
X108143716Y-84879187D01*
X108167749Y-84883967D01*
X108192253Y-84883967D01*
X108216286Y-84879186D01*
X108238923Y-84869810D01*
X108252691Y-84862451D01*
X108259705Y-84860323D01*
X108273140Y-84859000D01*
X108586860Y-84859000D01*
X108600295Y-84860323D01*
X108607309Y-84862451D01*
X108621077Y-84869810D01*
X108643716Y-84879187D01*
X108667749Y-84883967D01*
X108692253Y-84883967D01*
X108716286Y-84879186D01*
X108738923Y-84869810D01*
X108752691Y-84862451D01*
X108759705Y-84860323D01*
X108773140Y-84859000D01*
X109086860Y-84859000D01*
X109100295Y-84860323D01*
X109107309Y-84862451D01*
X109121077Y-84869810D01*
X109143716Y-84879187D01*
X109167749Y-84883967D01*
X109192253Y-84883967D01*
X109216286Y-84879186D01*
X109238923Y-84869810D01*
X109252691Y-84862451D01*
X109259705Y-84860323D01*
X109273140Y-84859000D01*
X109586860Y-84859000D01*
X109600295Y-84860323D01*
X109607309Y-84862451D01*
X109621077Y-84869810D01*
X109643716Y-84879187D01*
X109667749Y-84883967D01*
X109692253Y-84883967D01*
X109716286Y-84879186D01*
X109738923Y-84869810D01*
X109752691Y-84862451D01*
X109759705Y-84860323D01*
X109773140Y-84859000D01*
X110086860Y-84859000D01*
X110100295Y-84860323D01*
X110107309Y-84862451D01*
X110121077Y-84869810D01*
X110143716Y-84879187D01*
X110167749Y-84883967D01*
X110192253Y-84883967D01*
X110216286Y-84879186D01*
X110238923Y-84869810D01*
X110252691Y-84862451D01*
X110259705Y-84860323D01*
X110273140Y-84859000D01*
X110586860Y-84859000D01*
X110600295Y-84860323D01*
X110607310Y-84862451D01*
X110613776Y-84865908D01*
X110619442Y-84870558D01*
X110624092Y-84876224D01*
X110627549Y-84882690D01*
X110629677Y-84889705D01*
X110631000Y-84903140D01*
X110631000Y-86466860D01*
X110629677Y-86480295D01*
X110627549Y-86487310D01*
X110624092Y-86493776D01*
X110619442Y-86499442D01*
X110613776Y-86504092D01*
X110607310Y-86507549D01*
X110600295Y-86509677D01*
X110586860Y-86511000D01*
X110273140Y-86511000D01*
X110259705Y-86509677D01*
X110252691Y-86507549D01*
X110238923Y-86500190D01*
X110216284Y-86490813D01*
X110192251Y-86486033D01*
X110167747Y-86486033D01*
X110143714Y-86490814D01*
X110121077Y-86500190D01*
X110107309Y-86507549D01*
X110100295Y-86509677D01*
X110086860Y-86511000D01*
X109773140Y-86511000D01*
X109759705Y-86509677D01*
X109752691Y-86507549D01*
X109738923Y-86500190D01*
X109716284Y-86490813D01*
X109692251Y-86486033D01*
X109667747Y-86486033D01*
X109643714Y-86490814D01*
X109621077Y-86500190D01*
X109607309Y-86507549D01*
X109600295Y-86509677D01*
X109586860Y-86511000D01*
X109273140Y-86511000D01*
X109259705Y-86509677D01*
X109252691Y-86507549D01*
X109238923Y-86500190D01*
X109216284Y-86490813D01*
X109192251Y-86486033D01*
X109167747Y-86486033D01*
X109143714Y-86490814D01*
X109121077Y-86500190D01*
X109107309Y-86507549D01*
X109100295Y-86509677D01*
X109086860Y-86511000D01*
X108773140Y-86511000D01*
X108759705Y-86509677D01*
X108752691Y-86507549D01*
X108738923Y-86500190D01*
X108716284Y-86490813D01*
X108692251Y-86486033D01*
X108667747Y-86486033D01*
X108643714Y-86490814D01*
X108621077Y-86500190D01*
X108607309Y-86507549D01*
X108600295Y-86509677D01*
X108586860Y-86511000D01*
X108273140Y-86511000D01*
X108259705Y-86509677D01*
X108252691Y-86507549D01*
X108238923Y-86500190D01*
X108216284Y-86490813D01*
X108192251Y-86486033D01*
X108167747Y-86486033D01*
X108143714Y-86490814D01*
X108121077Y-86500190D01*
X108107309Y-86507549D01*
X108100295Y-86509677D01*
X108086860Y-86511000D01*
X107773140Y-86511000D01*
X107759705Y-86509677D01*
X107752691Y-86507549D01*
X107738923Y-86500190D01*
X107716284Y-86490813D01*
X107692251Y-86486033D01*
X107667747Y-86486033D01*
X107643714Y-86490814D01*
X107621077Y-86500190D01*
X107607309Y-86507549D01*
X107600295Y-86509677D01*
X107586860Y-86511000D01*
X107273140Y-86511000D01*
X107259705Y-86509677D01*
X107252691Y-86507549D01*
X107238923Y-86500190D01*
X107216284Y-86490813D01*
X107192251Y-86486033D01*
X107167747Y-86486033D01*
X107143714Y-86490814D01*
X107121077Y-86500190D01*
X107107309Y-86507549D01*
X107100295Y-86509677D01*
X107086860Y-86511000D01*
X106773140Y-86511000D01*
X106759705Y-86509677D01*
X106752691Y-86507549D01*
X106738923Y-86500190D01*
X106716284Y-86490813D01*
X106692251Y-86486033D01*
X106667747Y-86486033D01*
X106643714Y-86490814D01*
X106621077Y-86500190D01*
X106607309Y-86507549D01*
X106600295Y-86509677D01*
X106586860Y-86511000D01*
X106273140Y-86511000D01*
X106259705Y-86509677D01*
X106252691Y-86507549D01*
X106238923Y-86500190D01*
X106216284Y-86490813D01*
X106192251Y-86486033D01*
X106167747Y-86486033D01*
X106143714Y-86490814D01*
X106121077Y-86500190D01*
X106107309Y-86507549D01*
X106100295Y-86509677D01*
X106086860Y-86511000D01*
X105773140Y-86511000D01*
X105759705Y-86509677D01*
X105752691Y-86507549D01*
X105738923Y-86500190D01*
X105716284Y-86490813D01*
X105692251Y-86486033D01*
X105667747Y-86486033D01*
X105643714Y-86490814D01*
X105621077Y-86500190D01*
X105607309Y-86507549D01*
X105600295Y-86509677D01*
X105586860Y-86511000D01*
X105273140Y-86511000D01*
X105259705Y-86509677D01*
X105252691Y-86507549D01*
X105238923Y-86500190D01*
X105216284Y-86490813D01*
X105192251Y-86486033D01*
X105167747Y-86486033D01*
X105143714Y-86490814D01*
X105121077Y-86500190D01*
X105107309Y-86507549D01*
X105100295Y-86509677D01*
X105086860Y-86511000D01*
X104773140Y-86511000D01*
X104759705Y-86509677D01*
X104752691Y-86507549D01*
X104738923Y-86500190D01*
X104716284Y-86490813D01*
X104692251Y-86486033D01*
X104667747Y-86486033D01*
X104643714Y-86490814D01*
X104621077Y-86500190D01*
X104607309Y-86507549D01*
X104600295Y-86509677D01*
X104586860Y-86511000D01*
X104273140Y-86511000D01*
X104259705Y-86509677D01*
X104252691Y-86507549D01*
X104238923Y-86500190D01*
X104216284Y-86490813D01*
X104192251Y-86486033D01*
X104167747Y-86486033D01*
X104143714Y-86490814D01*
X104121077Y-86500190D01*
X104107309Y-86507549D01*
X104100295Y-86509677D01*
X104086860Y-86511000D01*
X103773140Y-86511000D01*
X103759705Y-86509677D01*
X103752691Y-86507549D01*
X103738923Y-86500190D01*
X103716284Y-86490813D01*
X103692251Y-86486033D01*
X103667747Y-86486033D01*
X103643714Y-86490814D01*
X103621077Y-86500190D01*
X103607309Y-86507549D01*
X103600295Y-86509677D01*
X103586860Y-86511000D01*
X103273140Y-86511000D01*
X103259705Y-86509677D01*
X103252691Y-86507549D01*
X103238923Y-86500190D01*
X103216284Y-86490813D01*
X103192251Y-86486033D01*
X103167747Y-86486033D01*
X103143714Y-86490814D01*
X103121077Y-86500190D01*
X103107309Y-86507549D01*
X103100295Y-86509677D01*
X103086860Y-86511000D01*
X102773140Y-86511000D01*
X102759705Y-86509677D01*
X102752690Y-86507549D01*
X102746224Y-86504092D01*
X102740558Y-86499442D01*
X102735908Y-86493776D01*
X102732451Y-86487310D01*
X102730323Y-86480295D01*
X102729000Y-86466860D01*
X102729000Y-84903140D01*
X102730323Y-84889705D01*
X102732451Y-84882690D01*
X102735908Y-84876224D01*
X102740558Y-84870558D01*
X102746224Y-84865908D01*
X102752690Y-84862451D01*
X102759705Y-84860323D01*
X102773140Y-84859000D01*
X103086860Y-84859000D01*
X103100295Y-84860323D01*
X103100295Y-84860323D01*
G37*
G36*
X95834468Y-84223565D02*
G01*
X95873138Y-84235296D01*
X95908777Y-84254346D01*
X95940017Y-84279983D01*
X95965654Y-84311223D01*
X95984704Y-84346862D01*
X95996435Y-84385532D01*
X96001000Y-84431888D01*
X96001000Y-85083112D01*
X95996435Y-85129468D01*
X95984704Y-85168138D01*
X95965654Y-85203777D01*
X95940017Y-85235017D01*
X95908777Y-85260654D01*
X95873138Y-85279704D01*
X95834468Y-85291435D01*
X95788112Y-85296000D01*
X94711888Y-85296000D01*
X94665532Y-85291435D01*
X94626862Y-85279704D01*
X94591223Y-85260654D01*
X94559983Y-85235017D01*
X94534346Y-85203777D01*
X94515296Y-85168138D01*
X94503565Y-85129468D01*
X94499000Y-85083112D01*
X94499000Y-84431888D01*
X94503565Y-84385532D01*
X94515296Y-84346862D01*
X94534346Y-84311223D01*
X94559983Y-84279983D01*
X94591223Y-84254346D01*
X94626862Y-84235296D01*
X94665532Y-84223565D01*
X94711888Y-84219000D01*
X95788112Y-84219000D01*
X95834468Y-84223565D01*
X95834468Y-84223565D01*
G37*
G36*
X119061591Y-83298085D02*
G01*
X119095569Y-83308393D01*
X119126890Y-83325134D01*
X119154339Y-83347661D01*
X119176866Y-83375110D01*
X119193607Y-83406431D01*
X119203915Y-83440409D01*
X119208000Y-83481890D01*
X119208000Y-84158110D01*
X119203915Y-84199591D01*
X119193607Y-84233569D01*
X119176866Y-84264890D01*
X119154339Y-84292339D01*
X119126890Y-84314866D01*
X119095569Y-84331607D01*
X119061591Y-84341915D01*
X119020110Y-84346000D01*
X118418890Y-84346000D01*
X118377409Y-84341915D01*
X118343431Y-84331607D01*
X118312110Y-84314866D01*
X118284661Y-84292339D01*
X118262134Y-84264890D01*
X118245393Y-84233569D01*
X118235085Y-84199591D01*
X118231000Y-84158110D01*
X118231000Y-83481890D01*
X118235085Y-83440409D01*
X118245393Y-83406431D01*
X118262134Y-83375110D01*
X118284661Y-83347661D01*
X118312110Y-83325134D01*
X118343431Y-83308393D01*
X118377409Y-83298085D01*
X118418890Y-83294000D01*
X119020110Y-83294000D01*
X119061591Y-83298085D01*
X119061591Y-83298085D01*
G37*
G36*
X116953591Y-83298085D02*
G01*
X116987569Y-83308393D01*
X117018890Y-83325134D01*
X117046339Y-83347661D01*
X117068866Y-83375110D01*
X117085607Y-83406431D01*
X117095915Y-83440409D01*
X117100000Y-83481890D01*
X117100000Y-84158110D01*
X117095915Y-84199591D01*
X117085607Y-84233569D01*
X117068866Y-84264890D01*
X117046339Y-84292339D01*
X117018890Y-84314866D01*
X116987569Y-84331607D01*
X116953591Y-84341915D01*
X116912110Y-84346000D01*
X116310890Y-84346000D01*
X116269409Y-84341915D01*
X116235431Y-84331607D01*
X116204110Y-84314866D01*
X116176661Y-84292339D01*
X116154134Y-84264890D01*
X116137393Y-84233569D01*
X116127085Y-84199591D01*
X116123000Y-84158110D01*
X116123000Y-83481890D01*
X116127085Y-83440409D01*
X116137393Y-83406431D01*
X116154134Y-83375110D01*
X116176661Y-83347661D01*
X116204110Y-83325134D01*
X116235431Y-83308393D01*
X116269409Y-83298085D01*
X116310890Y-83294000D01*
X116912110Y-83294000D01*
X116953591Y-83298085D01*
X116953591Y-83298085D01*
G37*
G36*
X115378591Y-83298085D02*
G01*
X115412569Y-83308393D01*
X115443890Y-83325134D01*
X115471339Y-83347661D01*
X115493866Y-83375110D01*
X115510607Y-83406431D01*
X115520915Y-83440409D01*
X115525000Y-83481890D01*
X115525000Y-84158110D01*
X115520915Y-84199591D01*
X115510607Y-84233569D01*
X115493866Y-84264890D01*
X115471339Y-84292339D01*
X115443890Y-84314866D01*
X115412569Y-84331607D01*
X115378591Y-84341915D01*
X115337110Y-84346000D01*
X114735890Y-84346000D01*
X114694409Y-84341915D01*
X114660431Y-84331607D01*
X114629110Y-84314866D01*
X114601661Y-84292339D01*
X114579134Y-84264890D01*
X114562393Y-84233569D01*
X114552085Y-84199591D01*
X114548000Y-84158110D01*
X114548000Y-83481890D01*
X114552085Y-83440409D01*
X114562393Y-83406431D01*
X114579134Y-83375110D01*
X114601661Y-83347661D01*
X114629110Y-83325134D01*
X114660431Y-83308393D01*
X114694409Y-83298085D01*
X114735890Y-83294000D01*
X115337110Y-83294000D01*
X115378591Y-83298085D01*
X115378591Y-83298085D01*
G37*
G36*
X120636591Y-83298085D02*
G01*
X120670569Y-83308393D01*
X120701890Y-83325134D01*
X120729339Y-83347661D01*
X120751866Y-83375110D01*
X120768607Y-83406431D01*
X120778915Y-83440409D01*
X120783000Y-83481890D01*
X120783000Y-84158110D01*
X120778915Y-84199591D01*
X120768607Y-84233569D01*
X120751866Y-84264890D01*
X120729339Y-84292339D01*
X120701890Y-84314866D01*
X120670569Y-84331607D01*
X120636591Y-84341915D01*
X120595110Y-84346000D01*
X119993890Y-84346000D01*
X119952409Y-84341915D01*
X119918431Y-84331607D01*
X119887110Y-84314866D01*
X119859661Y-84292339D01*
X119837134Y-84264890D01*
X119820393Y-84233569D01*
X119810085Y-84199591D01*
X119806000Y-84158110D01*
X119806000Y-83481890D01*
X119810085Y-83440409D01*
X119820393Y-83406431D01*
X119837134Y-83375110D01*
X119859661Y-83347661D01*
X119887110Y-83325134D01*
X119918431Y-83308393D01*
X119952409Y-83298085D01*
X119993890Y-83294000D01*
X120595110Y-83294000D01*
X120636591Y-83298085D01*
X120636591Y-83298085D01*
G37*
G36*
X113150295Y-76060323D02*
G01*
X113157310Y-76062451D01*
X113163776Y-76065908D01*
X113169442Y-76070558D01*
X113174092Y-76076224D01*
X113177549Y-76082690D01*
X113179677Y-76089705D01*
X113181000Y-76103140D01*
X113181000Y-76416860D01*
X113179677Y-76430295D01*
X113177549Y-76437309D01*
X113170190Y-76451077D01*
X113160813Y-76473716D01*
X113156033Y-76497749D01*
X113156033Y-76522253D01*
X113160814Y-76546286D01*
X113170190Y-76568923D01*
X113177549Y-76582691D01*
X113179677Y-76589705D01*
X113181000Y-76603140D01*
X113181000Y-76916860D01*
X113179677Y-76930295D01*
X113177549Y-76937309D01*
X113170190Y-76951077D01*
X113160813Y-76973716D01*
X113156033Y-76997749D01*
X113156033Y-77022253D01*
X113160814Y-77046286D01*
X113170190Y-77068923D01*
X113177549Y-77082691D01*
X113179677Y-77089705D01*
X113181000Y-77103140D01*
X113181000Y-77416860D01*
X113179677Y-77430295D01*
X113177549Y-77437309D01*
X113170190Y-77451077D01*
X113160813Y-77473716D01*
X113156033Y-77497749D01*
X113156033Y-77522253D01*
X113160814Y-77546286D01*
X113170190Y-77568923D01*
X113177549Y-77582691D01*
X113179677Y-77589705D01*
X113181000Y-77603140D01*
X113181000Y-77916860D01*
X113179677Y-77930295D01*
X113177549Y-77937309D01*
X113170190Y-77951077D01*
X113160813Y-77973716D01*
X113156033Y-77997749D01*
X113156033Y-78022253D01*
X113160814Y-78046286D01*
X113170190Y-78068923D01*
X113177549Y-78082691D01*
X113179677Y-78089705D01*
X113181000Y-78103140D01*
X113181000Y-78416860D01*
X113179677Y-78430295D01*
X113177549Y-78437309D01*
X113170190Y-78451077D01*
X113160813Y-78473716D01*
X113156033Y-78497749D01*
X113156033Y-78522253D01*
X113160814Y-78546286D01*
X113170190Y-78568923D01*
X113177549Y-78582691D01*
X113179677Y-78589705D01*
X113181000Y-78603140D01*
X113181000Y-78916860D01*
X113179677Y-78930295D01*
X113177549Y-78937309D01*
X113170190Y-78951077D01*
X113160813Y-78973716D01*
X113156033Y-78997749D01*
X113156033Y-79022253D01*
X113160814Y-79046286D01*
X113170190Y-79068923D01*
X113177549Y-79082691D01*
X113179677Y-79089705D01*
X113181000Y-79103140D01*
X113181000Y-79416860D01*
X113179677Y-79430295D01*
X113177549Y-79437309D01*
X113170190Y-79451077D01*
X113160813Y-79473716D01*
X113156033Y-79497749D01*
X113156033Y-79522253D01*
X113160814Y-79546286D01*
X113170190Y-79568923D01*
X113177549Y-79582691D01*
X113179677Y-79589705D01*
X113181000Y-79603140D01*
X113181000Y-79916860D01*
X113179677Y-79930295D01*
X113177549Y-79937309D01*
X113170190Y-79951077D01*
X113160813Y-79973716D01*
X113156033Y-79997749D01*
X113156033Y-80022253D01*
X113160814Y-80046286D01*
X113170190Y-80068923D01*
X113177549Y-80082691D01*
X113179677Y-80089705D01*
X113181000Y-80103140D01*
X113181000Y-80416860D01*
X113179677Y-80430295D01*
X113177549Y-80437309D01*
X113170190Y-80451077D01*
X113160813Y-80473716D01*
X113156033Y-80497749D01*
X113156033Y-80522253D01*
X113160814Y-80546286D01*
X113170190Y-80568923D01*
X113177549Y-80582691D01*
X113179677Y-80589705D01*
X113181000Y-80603140D01*
X113181000Y-80916860D01*
X113179677Y-80930295D01*
X113177549Y-80937309D01*
X113170190Y-80951077D01*
X113160813Y-80973716D01*
X113156033Y-80997749D01*
X113156033Y-81022253D01*
X113160814Y-81046286D01*
X113170190Y-81068923D01*
X113177549Y-81082691D01*
X113179677Y-81089705D01*
X113181000Y-81103140D01*
X113181000Y-81416860D01*
X113179677Y-81430295D01*
X113177549Y-81437309D01*
X113170190Y-81451077D01*
X113160813Y-81473716D01*
X113156033Y-81497749D01*
X113156033Y-81522253D01*
X113160814Y-81546286D01*
X113170190Y-81568923D01*
X113177549Y-81582691D01*
X113179677Y-81589705D01*
X113181000Y-81603140D01*
X113181000Y-81916860D01*
X113179677Y-81930295D01*
X113177549Y-81937309D01*
X113170190Y-81951077D01*
X113160813Y-81973716D01*
X113156033Y-81997749D01*
X113156033Y-82022253D01*
X113160814Y-82046286D01*
X113170190Y-82068923D01*
X113177549Y-82082691D01*
X113179677Y-82089705D01*
X113181000Y-82103140D01*
X113181000Y-82416860D01*
X113179677Y-82430295D01*
X113177549Y-82437309D01*
X113170190Y-82451077D01*
X113160813Y-82473716D01*
X113156033Y-82497749D01*
X113156033Y-82522253D01*
X113160814Y-82546286D01*
X113170190Y-82568923D01*
X113177549Y-82582691D01*
X113179677Y-82589705D01*
X113181000Y-82603140D01*
X113181000Y-82916860D01*
X113179677Y-82930295D01*
X113177549Y-82937309D01*
X113170190Y-82951077D01*
X113160813Y-82973716D01*
X113156033Y-82997749D01*
X113156033Y-83022253D01*
X113160814Y-83046286D01*
X113170190Y-83068923D01*
X113177549Y-83082691D01*
X113179677Y-83089705D01*
X113181000Y-83103140D01*
X113181000Y-83416860D01*
X113179677Y-83430295D01*
X113177549Y-83437309D01*
X113170190Y-83451077D01*
X113160813Y-83473716D01*
X113156033Y-83497749D01*
X113156033Y-83522253D01*
X113160814Y-83546286D01*
X113170190Y-83568923D01*
X113177549Y-83582691D01*
X113179677Y-83589705D01*
X113181000Y-83603140D01*
X113181000Y-83916860D01*
X113179677Y-83930295D01*
X113177549Y-83937310D01*
X113174092Y-83943776D01*
X113169442Y-83949442D01*
X113163776Y-83954092D01*
X113157310Y-83957549D01*
X113150295Y-83959677D01*
X113136860Y-83961000D01*
X111573140Y-83961000D01*
X111559705Y-83959677D01*
X111552690Y-83957549D01*
X111546224Y-83954092D01*
X111540558Y-83949442D01*
X111535908Y-83943776D01*
X111532451Y-83937310D01*
X111530323Y-83930295D01*
X111529000Y-83916860D01*
X111529000Y-83603140D01*
X111530323Y-83589705D01*
X111532451Y-83582691D01*
X111539810Y-83568923D01*
X111549187Y-83546284D01*
X111553967Y-83522251D01*
X111553967Y-83497747D01*
X111549186Y-83473714D01*
X111539810Y-83451077D01*
X111532451Y-83437309D01*
X111530323Y-83430295D01*
X111529000Y-83416860D01*
X111529000Y-83103140D01*
X111530323Y-83089705D01*
X111532451Y-83082691D01*
X111539810Y-83068923D01*
X111549187Y-83046284D01*
X111553967Y-83022251D01*
X111553967Y-82997747D01*
X111549186Y-82973714D01*
X111539810Y-82951077D01*
X111532451Y-82937309D01*
X111530323Y-82930295D01*
X111529000Y-82916860D01*
X111529000Y-82603140D01*
X111530323Y-82589705D01*
X111532451Y-82582691D01*
X111539810Y-82568923D01*
X111549187Y-82546284D01*
X111553967Y-82522251D01*
X111553967Y-82497747D01*
X111549186Y-82473714D01*
X111539810Y-82451077D01*
X111532451Y-82437309D01*
X111530323Y-82430295D01*
X111529000Y-82416860D01*
X111529000Y-82103140D01*
X111530323Y-82089705D01*
X111532451Y-82082691D01*
X111539810Y-82068923D01*
X111549187Y-82046284D01*
X111553967Y-82022251D01*
X111553967Y-81997747D01*
X111549186Y-81973714D01*
X111539810Y-81951077D01*
X111532451Y-81937309D01*
X111530323Y-81930295D01*
X111529000Y-81916860D01*
X111529000Y-81603140D01*
X111530323Y-81589705D01*
X111532451Y-81582691D01*
X111539810Y-81568923D01*
X111549187Y-81546284D01*
X111553967Y-81522251D01*
X111553967Y-81497747D01*
X111549186Y-81473714D01*
X111539810Y-81451077D01*
X111532451Y-81437309D01*
X111530323Y-81430295D01*
X111529000Y-81416860D01*
X111529000Y-81103140D01*
X111530323Y-81089705D01*
X111532451Y-81082691D01*
X111539810Y-81068923D01*
X111549187Y-81046284D01*
X111553967Y-81022251D01*
X111553967Y-80997747D01*
X111549186Y-80973714D01*
X111539810Y-80951077D01*
X111532451Y-80937309D01*
X111530323Y-80930295D01*
X111529000Y-80916860D01*
X111529000Y-80603140D01*
X111530323Y-80589705D01*
X111532451Y-80582691D01*
X111539810Y-80568923D01*
X111549187Y-80546284D01*
X111553967Y-80522251D01*
X111553967Y-80497747D01*
X111549186Y-80473714D01*
X111539810Y-80451077D01*
X111532451Y-80437309D01*
X111530323Y-80430295D01*
X111529000Y-80416860D01*
X111529000Y-80103140D01*
X111530323Y-80089705D01*
X111532451Y-80082691D01*
X111539810Y-80068923D01*
X111549187Y-80046284D01*
X111553967Y-80022251D01*
X111553967Y-79997747D01*
X111549186Y-79973714D01*
X111539810Y-79951077D01*
X111532451Y-79937309D01*
X111530323Y-79930295D01*
X111529000Y-79916860D01*
X111529000Y-79603140D01*
X111530323Y-79589705D01*
X111532451Y-79582691D01*
X111539810Y-79568923D01*
X111549187Y-79546284D01*
X111553967Y-79522251D01*
X111553967Y-79497747D01*
X111549186Y-79473714D01*
X111539810Y-79451077D01*
X111532451Y-79437309D01*
X111530323Y-79430295D01*
X111529000Y-79416860D01*
X111529000Y-79103140D01*
X111530323Y-79089705D01*
X111532451Y-79082691D01*
X111539810Y-79068923D01*
X111549187Y-79046284D01*
X111553967Y-79022251D01*
X111553967Y-78997747D01*
X111549186Y-78973714D01*
X111539810Y-78951077D01*
X111532451Y-78937309D01*
X111530323Y-78930295D01*
X111529000Y-78916860D01*
X111529000Y-78603140D01*
X111530323Y-78589705D01*
X111532451Y-78582691D01*
X111539810Y-78568923D01*
X111549187Y-78546284D01*
X111553967Y-78522251D01*
X111553967Y-78497747D01*
X111549186Y-78473714D01*
X111539810Y-78451077D01*
X111532451Y-78437309D01*
X111530323Y-78430295D01*
X111529000Y-78416860D01*
X111529000Y-78103140D01*
X111530323Y-78089705D01*
X111532451Y-78082691D01*
X111539810Y-78068923D01*
X111549187Y-78046284D01*
X111553967Y-78022251D01*
X111553967Y-77997747D01*
X111549186Y-77973714D01*
X111539810Y-77951077D01*
X111532451Y-77937309D01*
X111530323Y-77930295D01*
X111529000Y-77916860D01*
X111529000Y-77603140D01*
X111530323Y-77589705D01*
X111532451Y-77582691D01*
X111539810Y-77568923D01*
X111549187Y-77546284D01*
X111553967Y-77522251D01*
X111553967Y-77497747D01*
X111549186Y-77473714D01*
X111539810Y-77451077D01*
X111532451Y-77437309D01*
X111530323Y-77430295D01*
X111529000Y-77416860D01*
X111529000Y-77103140D01*
X111530323Y-77089705D01*
X111532451Y-77082691D01*
X111539810Y-77068923D01*
X111549187Y-77046284D01*
X111553967Y-77022251D01*
X111553967Y-76997747D01*
X111549186Y-76973714D01*
X111539810Y-76951077D01*
X111532451Y-76937309D01*
X111530323Y-76930295D01*
X111529000Y-76916860D01*
X111529000Y-76603140D01*
X111530323Y-76589705D01*
X111532451Y-76582691D01*
X111539810Y-76568923D01*
X111549187Y-76546284D01*
X111553967Y-76522251D01*
X111553967Y-76497747D01*
X111549186Y-76473714D01*
X111539810Y-76451077D01*
X111532451Y-76437309D01*
X111530323Y-76430295D01*
X111529000Y-76416860D01*
X111529000Y-76103140D01*
X111530323Y-76089705D01*
X111532451Y-76082690D01*
X111535908Y-76076224D01*
X111540558Y-76070558D01*
X111546224Y-76065908D01*
X111552690Y-76062451D01*
X111559705Y-76060323D01*
X111573140Y-76059000D01*
X113136860Y-76059000D01*
X113150295Y-76060323D01*
X113150295Y-76060323D01*
G37*
G36*
X101800295Y-76060323D02*
G01*
X101807310Y-76062451D01*
X101813776Y-76065908D01*
X101819442Y-76070558D01*
X101824092Y-76076224D01*
X101827549Y-76082690D01*
X101829677Y-76089705D01*
X101831000Y-76103140D01*
X101831000Y-76416860D01*
X101829677Y-76430295D01*
X101827549Y-76437309D01*
X101820190Y-76451077D01*
X101810813Y-76473716D01*
X101806033Y-76497749D01*
X101806033Y-76522253D01*
X101810814Y-76546286D01*
X101820190Y-76568923D01*
X101827549Y-76582691D01*
X101829677Y-76589705D01*
X101831000Y-76603140D01*
X101831000Y-76916860D01*
X101829677Y-76930295D01*
X101827549Y-76937309D01*
X101820190Y-76951077D01*
X101810813Y-76973716D01*
X101806033Y-76997749D01*
X101806033Y-77022253D01*
X101810814Y-77046286D01*
X101820190Y-77068923D01*
X101827549Y-77082691D01*
X101829677Y-77089705D01*
X101831000Y-77103140D01*
X101831000Y-77416860D01*
X101829677Y-77430295D01*
X101827549Y-77437309D01*
X101820190Y-77451077D01*
X101810813Y-77473716D01*
X101806033Y-77497749D01*
X101806033Y-77522253D01*
X101810814Y-77546286D01*
X101820190Y-77568923D01*
X101827549Y-77582691D01*
X101829677Y-77589705D01*
X101831000Y-77603140D01*
X101831000Y-77916860D01*
X101829677Y-77930295D01*
X101827549Y-77937309D01*
X101820190Y-77951077D01*
X101810813Y-77973716D01*
X101806033Y-77997749D01*
X101806033Y-78022253D01*
X101810814Y-78046286D01*
X101820190Y-78068923D01*
X101827549Y-78082691D01*
X101829677Y-78089705D01*
X101831000Y-78103140D01*
X101831000Y-78416860D01*
X101829677Y-78430295D01*
X101827549Y-78437309D01*
X101820190Y-78451077D01*
X101810813Y-78473716D01*
X101806033Y-78497749D01*
X101806033Y-78522253D01*
X101810814Y-78546286D01*
X101820190Y-78568923D01*
X101827549Y-78582691D01*
X101829677Y-78589705D01*
X101831000Y-78603140D01*
X101831000Y-78916860D01*
X101829677Y-78930295D01*
X101827549Y-78937309D01*
X101820190Y-78951077D01*
X101810813Y-78973716D01*
X101806033Y-78997749D01*
X101806033Y-79022253D01*
X101810814Y-79046286D01*
X101820190Y-79068923D01*
X101827549Y-79082691D01*
X101829677Y-79089705D01*
X101831000Y-79103140D01*
X101831000Y-79416860D01*
X101829677Y-79430295D01*
X101827549Y-79437309D01*
X101820190Y-79451077D01*
X101810813Y-79473716D01*
X101806033Y-79497749D01*
X101806033Y-79522253D01*
X101810814Y-79546286D01*
X101820190Y-79568923D01*
X101827549Y-79582691D01*
X101829677Y-79589705D01*
X101831000Y-79603140D01*
X101831000Y-79916860D01*
X101829677Y-79930295D01*
X101827549Y-79937309D01*
X101820190Y-79951077D01*
X101810813Y-79973716D01*
X101806033Y-79997749D01*
X101806033Y-80022253D01*
X101810814Y-80046286D01*
X101820190Y-80068923D01*
X101827549Y-80082691D01*
X101829677Y-80089705D01*
X101831000Y-80103140D01*
X101831000Y-80416860D01*
X101829677Y-80430295D01*
X101827549Y-80437309D01*
X101820190Y-80451077D01*
X101810813Y-80473716D01*
X101806033Y-80497749D01*
X101806033Y-80522253D01*
X101810814Y-80546286D01*
X101820190Y-80568923D01*
X101827549Y-80582691D01*
X101829677Y-80589705D01*
X101831000Y-80603140D01*
X101831000Y-80916860D01*
X101829677Y-80930295D01*
X101827549Y-80937309D01*
X101820190Y-80951077D01*
X101810813Y-80973716D01*
X101806033Y-80997749D01*
X101806033Y-81022253D01*
X101810814Y-81046286D01*
X101820190Y-81068923D01*
X101827549Y-81082691D01*
X101829677Y-81089705D01*
X101831000Y-81103140D01*
X101831000Y-81416860D01*
X101829677Y-81430295D01*
X101827549Y-81437309D01*
X101820190Y-81451077D01*
X101810813Y-81473716D01*
X101806033Y-81497749D01*
X101806033Y-81522253D01*
X101810814Y-81546286D01*
X101820190Y-81568923D01*
X101827549Y-81582691D01*
X101829677Y-81589705D01*
X101831000Y-81603140D01*
X101831000Y-81916860D01*
X101829677Y-81930295D01*
X101827549Y-81937309D01*
X101820190Y-81951077D01*
X101810813Y-81973716D01*
X101806033Y-81997749D01*
X101806033Y-82022253D01*
X101810814Y-82046286D01*
X101820190Y-82068923D01*
X101827549Y-82082691D01*
X101829677Y-82089705D01*
X101831000Y-82103140D01*
X101831000Y-82416860D01*
X101829677Y-82430295D01*
X101827549Y-82437309D01*
X101820190Y-82451077D01*
X101810813Y-82473716D01*
X101806033Y-82497749D01*
X101806033Y-82522253D01*
X101810814Y-82546286D01*
X101820190Y-82568923D01*
X101827549Y-82582691D01*
X101829677Y-82589705D01*
X101831000Y-82603140D01*
X101831000Y-82916860D01*
X101829677Y-82930295D01*
X101827549Y-82937309D01*
X101820190Y-82951077D01*
X101810813Y-82973716D01*
X101806033Y-82997749D01*
X101806033Y-83022253D01*
X101810814Y-83046286D01*
X101820190Y-83068923D01*
X101827549Y-83082691D01*
X101829677Y-83089705D01*
X101831000Y-83103140D01*
X101831000Y-83416860D01*
X101829677Y-83430295D01*
X101827549Y-83437309D01*
X101820190Y-83451077D01*
X101810813Y-83473716D01*
X101806033Y-83497749D01*
X101806033Y-83522253D01*
X101810814Y-83546286D01*
X101820190Y-83568923D01*
X101827549Y-83582691D01*
X101829677Y-83589705D01*
X101831000Y-83603140D01*
X101831000Y-83916860D01*
X101829677Y-83930295D01*
X101827549Y-83937310D01*
X101824092Y-83943776D01*
X101819442Y-83949442D01*
X101813776Y-83954092D01*
X101807310Y-83957549D01*
X101800295Y-83959677D01*
X101786860Y-83961000D01*
X100223140Y-83961000D01*
X100209705Y-83959677D01*
X100202690Y-83957549D01*
X100196224Y-83954092D01*
X100190558Y-83949442D01*
X100185908Y-83943776D01*
X100182451Y-83937310D01*
X100180323Y-83930295D01*
X100179000Y-83916860D01*
X100179000Y-83603140D01*
X100180323Y-83589705D01*
X100182451Y-83582691D01*
X100189810Y-83568923D01*
X100199187Y-83546284D01*
X100203967Y-83522251D01*
X100203967Y-83497747D01*
X100199186Y-83473714D01*
X100189810Y-83451077D01*
X100182451Y-83437309D01*
X100180323Y-83430295D01*
X100179000Y-83416860D01*
X100179000Y-83103140D01*
X100180323Y-83089705D01*
X100182451Y-83082691D01*
X100189810Y-83068923D01*
X100199187Y-83046284D01*
X100203967Y-83022251D01*
X100203967Y-82997747D01*
X100199186Y-82973714D01*
X100189810Y-82951077D01*
X100182451Y-82937309D01*
X100180323Y-82930295D01*
X100179000Y-82916860D01*
X100179000Y-82603140D01*
X100180323Y-82589705D01*
X100182451Y-82582691D01*
X100189810Y-82568923D01*
X100199187Y-82546284D01*
X100203967Y-82522251D01*
X100203967Y-82497747D01*
X100199186Y-82473714D01*
X100189810Y-82451077D01*
X100182451Y-82437309D01*
X100180323Y-82430295D01*
X100179000Y-82416860D01*
X100179000Y-82103140D01*
X100180323Y-82089705D01*
X100182451Y-82082691D01*
X100189810Y-82068923D01*
X100199187Y-82046284D01*
X100203967Y-82022251D01*
X100203967Y-81997747D01*
X100199186Y-81973714D01*
X100189810Y-81951077D01*
X100182451Y-81937309D01*
X100180323Y-81930295D01*
X100179000Y-81916860D01*
X100179000Y-81603140D01*
X100180323Y-81589705D01*
X100182451Y-81582691D01*
X100189810Y-81568923D01*
X100199187Y-81546284D01*
X100203967Y-81522251D01*
X100203967Y-81497747D01*
X100199186Y-81473714D01*
X100189810Y-81451077D01*
X100182451Y-81437309D01*
X100180323Y-81430295D01*
X100179000Y-81416860D01*
X100179000Y-81103140D01*
X100180323Y-81089705D01*
X100182451Y-81082691D01*
X100189810Y-81068923D01*
X100199187Y-81046284D01*
X100203967Y-81022251D01*
X100203967Y-80997747D01*
X100199186Y-80973714D01*
X100189810Y-80951077D01*
X100182451Y-80937309D01*
X100180323Y-80930295D01*
X100179000Y-80916860D01*
X100179000Y-80603140D01*
X100180323Y-80589705D01*
X100182451Y-80582691D01*
X100189810Y-80568923D01*
X100199187Y-80546284D01*
X100203967Y-80522251D01*
X100203967Y-80497747D01*
X100199186Y-80473714D01*
X100189810Y-80451077D01*
X100182451Y-80437309D01*
X100180323Y-80430295D01*
X100179000Y-80416860D01*
X100179000Y-80103140D01*
X100180323Y-80089705D01*
X100182451Y-80082691D01*
X100189810Y-80068923D01*
X100199187Y-80046284D01*
X100203967Y-80022251D01*
X100203967Y-79997747D01*
X100199186Y-79973714D01*
X100189810Y-79951077D01*
X100182451Y-79937309D01*
X100180323Y-79930295D01*
X100179000Y-79916860D01*
X100179000Y-79603140D01*
X100180323Y-79589705D01*
X100182451Y-79582691D01*
X100189810Y-79568923D01*
X100199187Y-79546284D01*
X100203967Y-79522251D01*
X100203967Y-79497747D01*
X100199186Y-79473714D01*
X100189810Y-79451077D01*
X100182451Y-79437309D01*
X100180323Y-79430295D01*
X100179000Y-79416860D01*
X100179000Y-79103140D01*
X100180323Y-79089705D01*
X100182451Y-79082691D01*
X100189810Y-79068923D01*
X100199187Y-79046284D01*
X100203967Y-79022251D01*
X100203967Y-78997747D01*
X100199186Y-78973714D01*
X100189810Y-78951077D01*
X100182451Y-78937309D01*
X100180323Y-78930295D01*
X100179000Y-78916860D01*
X100179000Y-78603140D01*
X100180323Y-78589705D01*
X100182451Y-78582691D01*
X100189810Y-78568923D01*
X100199187Y-78546284D01*
X100203967Y-78522251D01*
X100203967Y-78497747D01*
X100199186Y-78473714D01*
X100189810Y-78451077D01*
X100182451Y-78437309D01*
X100180323Y-78430295D01*
X100179000Y-78416860D01*
X100179000Y-78103140D01*
X100180323Y-78089705D01*
X100182451Y-78082691D01*
X100189810Y-78068923D01*
X100199187Y-78046284D01*
X100203967Y-78022251D01*
X100203967Y-77997747D01*
X100199186Y-77973714D01*
X100189810Y-77951077D01*
X100182451Y-77937309D01*
X100180323Y-77930295D01*
X100179000Y-77916860D01*
X100179000Y-77603140D01*
X100180323Y-77589705D01*
X100182451Y-77582691D01*
X100189810Y-77568923D01*
X100199187Y-77546284D01*
X100203967Y-77522251D01*
X100203967Y-77497747D01*
X100199186Y-77473714D01*
X100189810Y-77451077D01*
X100182451Y-77437309D01*
X100180323Y-77430295D01*
X100179000Y-77416860D01*
X100179000Y-77103140D01*
X100180323Y-77089705D01*
X100182451Y-77082691D01*
X100189810Y-77068923D01*
X100199187Y-77046284D01*
X100203967Y-77022251D01*
X100203967Y-76997747D01*
X100199186Y-76973714D01*
X100189810Y-76951077D01*
X100182451Y-76937309D01*
X100180323Y-76930295D01*
X100179000Y-76916860D01*
X100179000Y-76603140D01*
X100180323Y-76589705D01*
X100182451Y-76582691D01*
X100189810Y-76568923D01*
X100199187Y-76546284D01*
X100203967Y-76522251D01*
X100203967Y-76497747D01*
X100199186Y-76473714D01*
X100189810Y-76451077D01*
X100182451Y-76437309D01*
X100180323Y-76430295D01*
X100179000Y-76416860D01*
X100179000Y-76103140D01*
X100180323Y-76089705D01*
X100182451Y-76082690D01*
X100185908Y-76076224D01*
X100190558Y-76070558D01*
X100196224Y-76065908D01*
X100202690Y-76062451D01*
X100209705Y-76060323D01*
X100223140Y-76059000D01*
X101786860Y-76059000D01*
X101800295Y-76060323D01*
X101800295Y-76060323D01*
G37*
G36*
X95834468Y-82348565D02*
G01*
X95873138Y-82360296D01*
X95908777Y-82379346D01*
X95940017Y-82404983D01*
X95965654Y-82436223D01*
X95984704Y-82471862D01*
X95996435Y-82510532D01*
X96001000Y-82556888D01*
X96001000Y-83208112D01*
X95996435Y-83254468D01*
X95984704Y-83293138D01*
X95965654Y-83328777D01*
X95940017Y-83360017D01*
X95908777Y-83385654D01*
X95873138Y-83404704D01*
X95834468Y-83416435D01*
X95788112Y-83421000D01*
X94711888Y-83421000D01*
X94665532Y-83416435D01*
X94626862Y-83404704D01*
X94591223Y-83385654D01*
X94559983Y-83360017D01*
X94534346Y-83328777D01*
X94515296Y-83293138D01*
X94503565Y-83254468D01*
X94499000Y-83208112D01*
X94499000Y-82556888D01*
X94503565Y-82510532D01*
X94515296Y-82471862D01*
X94534346Y-82436223D01*
X94559983Y-82404983D01*
X94591223Y-82379346D01*
X94626862Y-82360296D01*
X94665532Y-82348565D01*
X94711888Y-82344000D01*
X95788112Y-82344000D01*
X95834468Y-82348565D01*
X95834468Y-82348565D01*
G37*
G36*
X99291138Y-82031316D02*
G01*
X99311757Y-82037571D01*
X99330753Y-82047724D01*
X99347408Y-82061392D01*
X99361076Y-82078047D01*
X99371229Y-82097043D01*
X99377484Y-82117662D01*
X99380200Y-82145240D01*
X99380200Y-82603960D01*
X99377484Y-82631538D01*
X99371229Y-82652157D01*
X99361076Y-82671153D01*
X99347408Y-82687808D01*
X99330753Y-82701476D01*
X99311757Y-82711629D01*
X99291138Y-82717884D01*
X99263560Y-82720600D01*
X98754840Y-82720600D01*
X98727262Y-82717884D01*
X98706643Y-82711629D01*
X98687647Y-82701476D01*
X98670992Y-82687808D01*
X98657324Y-82671153D01*
X98647171Y-82652157D01*
X98640916Y-82631538D01*
X98638200Y-82603960D01*
X98638200Y-82145240D01*
X98640916Y-82117662D01*
X98647171Y-82097043D01*
X98657324Y-82078047D01*
X98670992Y-82061392D01*
X98687647Y-82047724D01*
X98706643Y-82037571D01*
X98727262Y-82031316D01*
X98754840Y-82028600D01*
X99263560Y-82028600D01*
X99291138Y-82031316D01*
X99291138Y-82031316D01*
G37*
G36*
X98084638Y-81993216D02*
G01*
X98105257Y-81999471D01*
X98124253Y-82009624D01*
X98140908Y-82023292D01*
X98154576Y-82039947D01*
X98164729Y-82058943D01*
X98170984Y-82079562D01*
X98173700Y-82107140D01*
X98173700Y-82565860D01*
X98170984Y-82593438D01*
X98164729Y-82614057D01*
X98154576Y-82633053D01*
X98140908Y-82649708D01*
X98124253Y-82663376D01*
X98105257Y-82673529D01*
X98084638Y-82679784D01*
X98057060Y-82682500D01*
X97548340Y-82682500D01*
X97520762Y-82679784D01*
X97500143Y-82673529D01*
X97481147Y-82663376D01*
X97464492Y-82649708D01*
X97450824Y-82633053D01*
X97440671Y-82614057D01*
X97434416Y-82593438D01*
X97431700Y-82565860D01*
X97431700Y-82107140D01*
X97434416Y-82079562D01*
X97440671Y-82058943D01*
X97450824Y-82039947D01*
X97464492Y-82023292D01*
X97481147Y-82009624D01*
X97500143Y-81999471D01*
X97520762Y-81993216D01*
X97548340Y-81990500D01*
X98057060Y-81990500D01*
X98084638Y-81993216D01*
X98084638Y-81993216D01*
G37*
G36*
X83750720Y-82607720D02*
G01*
X81948720Y-82607720D01*
X81948720Y-80805720D01*
X83750720Y-80805720D01*
X83750720Y-82607720D01*
X83750720Y-82607720D01*
G37*
G36*
X124726000Y-81800000D02*
G01*
X122924000Y-81800000D01*
X122924000Y-79998000D01*
X124726000Y-79998000D01*
X124726000Y-81800000D01*
X124726000Y-81800000D01*
G37*
G36*
X99291138Y-81061316D02*
G01*
X99311757Y-81067571D01*
X99330753Y-81077724D01*
X99347408Y-81091392D01*
X99361076Y-81108047D01*
X99371229Y-81127043D01*
X99377484Y-81147662D01*
X99380200Y-81175240D01*
X99380200Y-81633960D01*
X99377484Y-81661538D01*
X99371229Y-81682157D01*
X99361076Y-81701153D01*
X99347408Y-81717808D01*
X99330753Y-81731476D01*
X99311757Y-81741629D01*
X99291138Y-81747884D01*
X99263560Y-81750600D01*
X98754840Y-81750600D01*
X98727262Y-81747884D01*
X98706643Y-81741629D01*
X98687647Y-81731476D01*
X98670992Y-81717808D01*
X98657324Y-81701153D01*
X98647171Y-81682157D01*
X98640916Y-81661538D01*
X98638200Y-81633960D01*
X98638200Y-81175240D01*
X98640916Y-81147662D01*
X98647171Y-81127043D01*
X98657324Y-81108047D01*
X98670992Y-81091392D01*
X98687647Y-81077724D01*
X98706643Y-81067571D01*
X98727262Y-81061316D01*
X98754840Y-81058600D01*
X99263560Y-81058600D01*
X99291138Y-81061316D01*
X99291138Y-81061316D01*
G37*
G36*
X98084638Y-81023216D02*
G01*
X98105257Y-81029471D01*
X98124253Y-81039624D01*
X98140908Y-81053292D01*
X98154576Y-81069947D01*
X98164729Y-81088943D01*
X98170984Y-81109562D01*
X98173700Y-81137140D01*
X98173700Y-81595860D01*
X98170984Y-81623438D01*
X98164729Y-81644057D01*
X98154576Y-81663053D01*
X98140908Y-81679708D01*
X98124253Y-81693376D01*
X98105257Y-81703529D01*
X98084638Y-81709784D01*
X98057060Y-81712500D01*
X97548340Y-81712500D01*
X97520762Y-81709784D01*
X97500143Y-81703529D01*
X97481147Y-81693376D01*
X97464492Y-81679708D01*
X97450824Y-81663053D01*
X97440671Y-81644057D01*
X97434416Y-81623438D01*
X97431700Y-81595860D01*
X97431700Y-81137140D01*
X97434416Y-81109562D01*
X97440671Y-81088943D01*
X97450824Y-81069947D01*
X97464492Y-81053292D01*
X97481147Y-81039624D01*
X97500143Y-81029471D01*
X97520762Y-81023216D01*
X97548340Y-81020500D01*
X98057060Y-81020500D01*
X98084638Y-81023216D01*
X98084638Y-81023216D01*
G37*
G36*
X95275938Y-79895716D02*
G01*
X95296557Y-79901971D01*
X95315553Y-79912124D01*
X95332208Y-79925792D01*
X95345876Y-79942447D01*
X95356029Y-79961443D01*
X95362284Y-79982062D01*
X95365000Y-80009640D01*
X95365000Y-80518360D01*
X95362284Y-80545938D01*
X95356029Y-80566557D01*
X95345876Y-80585553D01*
X95332208Y-80602208D01*
X95315553Y-80615876D01*
X95296557Y-80626029D01*
X95275938Y-80632284D01*
X95248360Y-80635000D01*
X94789640Y-80635000D01*
X94762062Y-80632284D01*
X94741443Y-80626029D01*
X94722447Y-80615876D01*
X94705792Y-80602208D01*
X94692124Y-80585553D01*
X94681971Y-80566557D01*
X94675716Y-80545938D01*
X94673000Y-80518360D01*
X94673000Y-80009640D01*
X94675716Y-79982062D01*
X94681971Y-79961443D01*
X94692124Y-79942447D01*
X94705792Y-79925792D01*
X94722447Y-79912124D01*
X94741443Y-79901971D01*
X94762062Y-79895716D01*
X94789640Y-79893000D01*
X95248360Y-79893000D01*
X95275938Y-79895716D01*
X95275938Y-79895716D01*
G37*
G36*
X96245938Y-79895716D02*
G01*
X96266557Y-79901971D01*
X96285553Y-79912124D01*
X96302208Y-79925792D01*
X96315876Y-79942447D01*
X96326029Y-79961443D01*
X96332284Y-79982062D01*
X96335000Y-80009640D01*
X96335000Y-80518360D01*
X96332284Y-80545938D01*
X96326029Y-80566557D01*
X96315876Y-80585553D01*
X96302208Y-80602208D01*
X96285553Y-80615876D01*
X96266557Y-80626029D01*
X96245938Y-80632284D01*
X96218360Y-80635000D01*
X95759640Y-80635000D01*
X95732062Y-80632284D01*
X95711443Y-80626029D01*
X95692447Y-80615876D01*
X95675792Y-80602208D01*
X95662124Y-80585553D01*
X95651971Y-80566557D01*
X95645716Y-80545938D01*
X95643000Y-80518360D01*
X95643000Y-80009640D01*
X95645716Y-79982062D01*
X95651971Y-79961443D01*
X95662124Y-79942447D01*
X95675792Y-79925792D01*
X95692447Y-79912124D01*
X95711443Y-79901971D01*
X95732062Y-79895716D01*
X95759640Y-79893000D01*
X96218360Y-79893000D01*
X96245938Y-79895716D01*
X96245938Y-79895716D01*
G37*
G36*
X82960163Y-78272239D02*
G01*
X83026347Y-78278757D01*
X83196186Y-78330277D01*
X83352711Y-78413942D01*
X83381347Y-78437443D01*
X83489906Y-78526534D01*
X83567464Y-78621040D01*
X83602498Y-78663729D01*
X83686163Y-78820254D01*
X83737683Y-78990093D01*
X83755079Y-79166720D01*
X83737683Y-79343347D01*
X83686163Y-79513186D01*
X83602498Y-79669711D01*
X83573168Y-79705449D01*
X83489906Y-79806906D01*
X83400709Y-79880107D01*
X83352711Y-79919498D01*
X83196186Y-80003163D01*
X83026347Y-80054683D01*
X82962909Y-80060931D01*
X82893980Y-80067720D01*
X82805460Y-80067720D01*
X82736531Y-80060931D01*
X82673093Y-80054683D01*
X82503254Y-80003163D01*
X82346729Y-79919498D01*
X82298731Y-79880107D01*
X82209534Y-79806906D01*
X82126272Y-79705449D01*
X82096942Y-79669711D01*
X82013277Y-79513186D01*
X81961757Y-79343347D01*
X81944361Y-79166720D01*
X81961757Y-78990093D01*
X82013277Y-78820254D01*
X82096942Y-78663729D01*
X82131976Y-78621040D01*
X82209534Y-78526534D01*
X82318093Y-78437443D01*
X82346729Y-78413942D01*
X82503254Y-78330277D01*
X82673093Y-78278757D01*
X82739277Y-78272239D01*
X82805460Y-78265720D01*
X82893980Y-78265720D01*
X82960163Y-78272239D01*
X82960163Y-78272239D01*
G37*
G36*
X97005000Y-79321000D02*
G01*
X95703000Y-79321000D01*
X95703000Y-77819000D01*
X97005000Y-77819000D01*
X97005000Y-79321000D01*
X97005000Y-79321000D01*
G37*
G36*
X95305000Y-79321000D02*
G01*
X94003000Y-79321000D01*
X94003000Y-77819000D01*
X95305000Y-77819000D01*
X95305000Y-79321000D01*
X95305000Y-79321000D01*
G37*
G36*
X123935442Y-77464518D02*
G01*
X124001627Y-77471037D01*
X124171466Y-77522557D01*
X124171468Y-77522558D01*
X124239646Y-77559000D01*
X124327991Y-77606222D01*
X124363729Y-77635552D01*
X124465186Y-77718814D01*
X124547405Y-77819000D01*
X124577778Y-77856009D01*
X124661443Y-78012534D01*
X124712963Y-78182373D01*
X124730359Y-78359000D01*
X124712963Y-78535627D01*
X124661443Y-78705466D01*
X124577778Y-78861991D01*
X124562910Y-78880107D01*
X124465186Y-78999186D01*
X124380210Y-79068923D01*
X124327991Y-79111778D01*
X124171466Y-79195443D01*
X124001627Y-79246963D01*
X123935442Y-79253482D01*
X123869260Y-79260000D01*
X123780740Y-79260000D01*
X123714558Y-79253482D01*
X123648373Y-79246963D01*
X123478534Y-79195443D01*
X123322009Y-79111778D01*
X123269790Y-79068923D01*
X123184814Y-78999186D01*
X123087090Y-78880107D01*
X123072222Y-78861991D01*
X122988557Y-78705466D01*
X122937037Y-78535627D01*
X122919641Y-78359000D01*
X122937037Y-78182373D01*
X122988557Y-78012534D01*
X123072222Y-77856009D01*
X123102595Y-77819000D01*
X123184814Y-77718814D01*
X123286271Y-77635552D01*
X123322009Y-77606222D01*
X123410354Y-77559000D01*
X123478532Y-77522558D01*
X123478534Y-77522557D01*
X123648373Y-77471037D01*
X123714558Y-77464518D01*
X123780740Y-77458000D01*
X123869260Y-77458000D01*
X123935442Y-77464518D01*
X123935442Y-77464518D01*
G37*
G36*
X99293938Y-78371716D02*
G01*
X99314557Y-78377971D01*
X99333553Y-78388124D01*
X99350208Y-78401792D01*
X99363876Y-78418447D01*
X99374029Y-78437443D01*
X99380284Y-78458062D01*
X99383000Y-78485640D01*
X99383000Y-78994360D01*
X99380284Y-79021938D01*
X99374029Y-79042557D01*
X99363876Y-79061553D01*
X99350208Y-79078208D01*
X99333553Y-79091876D01*
X99314557Y-79102029D01*
X99293938Y-79108284D01*
X99266360Y-79111000D01*
X98807640Y-79111000D01*
X98780062Y-79108284D01*
X98759443Y-79102029D01*
X98740447Y-79091876D01*
X98723792Y-79078208D01*
X98710124Y-79061553D01*
X98699971Y-79042557D01*
X98693716Y-79021938D01*
X98691000Y-78994360D01*
X98691000Y-78485640D01*
X98693716Y-78458062D01*
X98699971Y-78437443D01*
X98710124Y-78418447D01*
X98723792Y-78401792D01*
X98740447Y-78388124D01*
X98759443Y-78377971D01*
X98780062Y-78371716D01*
X98807640Y-78369000D01*
X99266360Y-78369000D01*
X99293938Y-78371716D01*
X99293938Y-78371716D01*
G37*
G36*
X98323938Y-78371716D02*
G01*
X98344557Y-78377971D01*
X98363553Y-78388124D01*
X98380208Y-78401792D01*
X98393876Y-78418447D01*
X98404029Y-78437443D01*
X98410284Y-78458062D01*
X98413000Y-78485640D01*
X98413000Y-78994360D01*
X98410284Y-79021938D01*
X98404029Y-79042557D01*
X98393876Y-79061553D01*
X98380208Y-79078208D01*
X98363553Y-79091876D01*
X98344557Y-79102029D01*
X98323938Y-79108284D01*
X98296360Y-79111000D01*
X97837640Y-79111000D01*
X97810062Y-79108284D01*
X97789443Y-79102029D01*
X97770447Y-79091876D01*
X97753792Y-79078208D01*
X97740124Y-79061553D01*
X97729971Y-79042557D01*
X97723716Y-79021938D01*
X97721000Y-78994360D01*
X97721000Y-78485640D01*
X97723716Y-78458062D01*
X97729971Y-78437443D01*
X97740124Y-78418447D01*
X97753792Y-78401792D01*
X97770447Y-78388124D01*
X97789443Y-78377971D01*
X97810062Y-78371716D01*
X97837640Y-78369000D01*
X98296360Y-78369000D01*
X98323938Y-78371716D01*
X98323938Y-78371716D01*
G37*
G36*
X95305000Y-77121000D02*
G01*
X94003000Y-77121000D01*
X94003000Y-75619000D01*
X95305000Y-75619000D01*
X95305000Y-77121000D01*
X95305000Y-77121000D01*
G37*
G36*
X97005000Y-77121000D02*
G01*
X95703000Y-77121000D01*
X95703000Y-75619000D01*
X97005000Y-75619000D01*
X97005000Y-77121000D01*
X97005000Y-77121000D01*
G37*
G36*
X116699591Y-75678085D02*
G01*
X116733569Y-75688393D01*
X116764890Y-75705134D01*
X116792339Y-75727661D01*
X116814866Y-75755110D01*
X116831607Y-75786431D01*
X116841915Y-75820409D01*
X116846000Y-75861890D01*
X116846000Y-76538110D01*
X116841915Y-76579591D01*
X116831607Y-76613569D01*
X116814866Y-76644890D01*
X116792339Y-76672339D01*
X116764890Y-76694866D01*
X116733569Y-76711607D01*
X116699591Y-76721915D01*
X116658110Y-76726000D01*
X116056890Y-76726000D01*
X116015409Y-76721915D01*
X115981431Y-76711607D01*
X115950110Y-76694866D01*
X115922661Y-76672339D01*
X115900134Y-76644890D01*
X115883393Y-76613569D01*
X115873085Y-76579591D01*
X115869000Y-76538110D01*
X115869000Y-75861890D01*
X115873085Y-75820409D01*
X115883393Y-75786431D01*
X115900134Y-75755110D01*
X115922661Y-75727661D01*
X115950110Y-75705134D01*
X115981431Y-75688393D01*
X116015409Y-75678085D01*
X116056890Y-75674000D01*
X116658110Y-75674000D01*
X116699591Y-75678085D01*
X116699591Y-75678085D01*
G37*
G36*
X115124591Y-75678085D02*
G01*
X115158569Y-75688393D01*
X115189890Y-75705134D01*
X115217339Y-75727661D01*
X115239866Y-75755110D01*
X115256607Y-75786431D01*
X115266915Y-75820409D01*
X115271000Y-75861890D01*
X115271000Y-76538110D01*
X115266915Y-76579591D01*
X115256607Y-76613569D01*
X115239866Y-76644890D01*
X115217339Y-76672339D01*
X115189890Y-76694866D01*
X115158569Y-76711607D01*
X115124591Y-76721915D01*
X115083110Y-76726000D01*
X114481890Y-76726000D01*
X114440409Y-76721915D01*
X114406431Y-76711607D01*
X114375110Y-76694866D01*
X114347661Y-76672339D01*
X114325134Y-76644890D01*
X114308393Y-76613569D01*
X114298085Y-76579591D01*
X114294000Y-76538110D01*
X114294000Y-75861890D01*
X114298085Y-75820409D01*
X114308393Y-75786431D01*
X114325134Y-75755110D01*
X114347661Y-75727661D01*
X114375110Y-75705134D01*
X114406431Y-75688393D01*
X114440409Y-75678085D01*
X114481890Y-75674000D01*
X115083110Y-75674000D01*
X115124591Y-75678085D01*
X115124591Y-75678085D01*
G37*
G36*
X98450938Y-75831716D02*
G01*
X98471557Y-75837971D01*
X98490553Y-75848124D01*
X98507208Y-75861792D01*
X98520876Y-75878447D01*
X98531029Y-75897443D01*
X98537284Y-75918062D01*
X98540000Y-75945640D01*
X98540000Y-76454360D01*
X98537284Y-76481938D01*
X98531029Y-76502557D01*
X98520876Y-76521553D01*
X98507208Y-76538208D01*
X98490553Y-76551876D01*
X98471557Y-76562029D01*
X98450938Y-76568284D01*
X98423360Y-76571000D01*
X97964640Y-76571000D01*
X97937062Y-76568284D01*
X97916443Y-76562029D01*
X97897447Y-76551876D01*
X97880792Y-76538208D01*
X97867124Y-76521553D01*
X97856971Y-76502557D01*
X97850716Y-76481938D01*
X97848000Y-76454360D01*
X97848000Y-75945640D01*
X97850716Y-75918062D01*
X97856971Y-75897443D01*
X97867124Y-75878447D01*
X97880792Y-75861792D01*
X97897447Y-75848124D01*
X97916443Y-75837971D01*
X97937062Y-75831716D01*
X97964640Y-75829000D01*
X98423360Y-75829000D01*
X98450938Y-75831716D01*
X98450938Y-75831716D01*
G37*
G36*
X99420938Y-75831716D02*
G01*
X99441557Y-75837971D01*
X99460553Y-75848124D01*
X99477208Y-75861792D01*
X99490876Y-75878447D01*
X99501029Y-75897443D01*
X99507284Y-75918062D01*
X99510000Y-75945640D01*
X99510000Y-76454360D01*
X99507284Y-76481938D01*
X99501029Y-76502557D01*
X99490876Y-76521553D01*
X99477208Y-76538208D01*
X99460553Y-76551876D01*
X99441557Y-76562029D01*
X99420938Y-76568284D01*
X99393360Y-76571000D01*
X98934640Y-76571000D01*
X98907062Y-76568284D01*
X98886443Y-76562029D01*
X98867447Y-76551876D01*
X98850792Y-76538208D01*
X98837124Y-76521553D01*
X98826971Y-76502557D01*
X98820716Y-76481938D01*
X98818000Y-76454360D01*
X98818000Y-75945640D01*
X98820716Y-75918062D01*
X98826971Y-75897443D01*
X98837124Y-75878447D01*
X98850792Y-75861792D01*
X98867447Y-75848124D01*
X98886443Y-75837971D01*
X98907062Y-75831716D01*
X98934640Y-75829000D01*
X99393360Y-75829000D01*
X99420938Y-75831716D01*
X99420938Y-75831716D01*
G37*
G36*
X103100295Y-73510323D02*
G01*
X103107309Y-73512451D01*
X103121077Y-73519810D01*
X103143716Y-73529187D01*
X103167749Y-73533967D01*
X103192253Y-73533967D01*
X103216286Y-73529186D01*
X103238923Y-73519810D01*
X103252691Y-73512451D01*
X103259705Y-73510323D01*
X103273140Y-73509000D01*
X103586860Y-73509000D01*
X103600295Y-73510323D01*
X103607309Y-73512451D01*
X103621077Y-73519810D01*
X103643716Y-73529187D01*
X103667749Y-73533967D01*
X103692253Y-73533967D01*
X103716286Y-73529186D01*
X103738923Y-73519810D01*
X103752691Y-73512451D01*
X103759705Y-73510323D01*
X103773140Y-73509000D01*
X104086860Y-73509000D01*
X104100295Y-73510323D01*
X104107309Y-73512451D01*
X104121077Y-73519810D01*
X104143716Y-73529187D01*
X104167749Y-73533967D01*
X104192253Y-73533967D01*
X104216286Y-73529186D01*
X104238923Y-73519810D01*
X104252691Y-73512451D01*
X104259705Y-73510323D01*
X104273140Y-73509000D01*
X104586860Y-73509000D01*
X104600295Y-73510323D01*
X104607309Y-73512451D01*
X104621077Y-73519810D01*
X104643716Y-73529187D01*
X104667749Y-73533967D01*
X104692253Y-73533967D01*
X104716286Y-73529186D01*
X104738923Y-73519810D01*
X104752691Y-73512451D01*
X104759705Y-73510323D01*
X104773140Y-73509000D01*
X105086860Y-73509000D01*
X105100295Y-73510323D01*
X105107309Y-73512451D01*
X105121077Y-73519810D01*
X105143716Y-73529187D01*
X105167749Y-73533967D01*
X105192253Y-73533967D01*
X105216286Y-73529186D01*
X105238923Y-73519810D01*
X105252691Y-73512451D01*
X105259705Y-73510323D01*
X105273140Y-73509000D01*
X105586860Y-73509000D01*
X105600295Y-73510323D01*
X105607309Y-73512451D01*
X105621077Y-73519810D01*
X105643716Y-73529187D01*
X105667749Y-73533967D01*
X105692253Y-73533967D01*
X105716286Y-73529186D01*
X105738923Y-73519810D01*
X105752691Y-73512451D01*
X105759705Y-73510323D01*
X105773140Y-73509000D01*
X106086860Y-73509000D01*
X106100295Y-73510323D01*
X106107309Y-73512451D01*
X106121077Y-73519810D01*
X106143716Y-73529187D01*
X106167749Y-73533967D01*
X106192253Y-73533967D01*
X106216286Y-73529186D01*
X106238923Y-73519810D01*
X106252691Y-73512451D01*
X106259705Y-73510323D01*
X106273140Y-73509000D01*
X106586860Y-73509000D01*
X106600295Y-73510323D01*
X106607309Y-73512451D01*
X106621077Y-73519810D01*
X106643716Y-73529187D01*
X106667749Y-73533967D01*
X106692253Y-73533967D01*
X106716286Y-73529186D01*
X106738923Y-73519810D01*
X106752691Y-73512451D01*
X106759705Y-73510323D01*
X106773140Y-73509000D01*
X107086860Y-73509000D01*
X107100295Y-73510323D01*
X107107309Y-73512451D01*
X107121077Y-73519810D01*
X107143716Y-73529187D01*
X107167749Y-73533967D01*
X107192253Y-73533967D01*
X107216286Y-73529186D01*
X107238923Y-73519810D01*
X107252691Y-73512451D01*
X107259705Y-73510323D01*
X107273140Y-73509000D01*
X107586860Y-73509000D01*
X107600295Y-73510323D01*
X107607309Y-73512451D01*
X107621077Y-73519810D01*
X107643716Y-73529187D01*
X107667749Y-73533967D01*
X107692253Y-73533967D01*
X107716286Y-73529186D01*
X107738923Y-73519810D01*
X107752691Y-73512451D01*
X107759705Y-73510323D01*
X107773140Y-73509000D01*
X108086860Y-73509000D01*
X108100295Y-73510323D01*
X108107309Y-73512451D01*
X108121077Y-73519810D01*
X108143716Y-73529187D01*
X108167749Y-73533967D01*
X108192253Y-73533967D01*
X108216286Y-73529186D01*
X108238923Y-73519810D01*
X108252691Y-73512451D01*
X108259705Y-73510323D01*
X108273140Y-73509000D01*
X108586860Y-73509000D01*
X108600295Y-73510323D01*
X108607309Y-73512451D01*
X108621077Y-73519810D01*
X108643716Y-73529187D01*
X108667749Y-73533967D01*
X108692253Y-73533967D01*
X108716286Y-73529186D01*
X108738923Y-73519810D01*
X108752691Y-73512451D01*
X108759705Y-73510323D01*
X108773140Y-73509000D01*
X109086860Y-73509000D01*
X109100295Y-73510323D01*
X109107309Y-73512451D01*
X109121077Y-73519810D01*
X109143716Y-73529187D01*
X109167749Y-73533967D01*
X109192253Y-73533967D01*
X109216286Y-73529186D01*
X109238923Y-73519810D01*
X109252691Y-73512451D01*
X109259705Y-73510323D01*
X109273140Y-73509000D01*
X109586860Y-73509000D01*
X109600295Y-73510323D01*
X109607309Y-73512451D01*
X109621077Y-73519810D01*
X109643716Y-73529187D01*
X109667749Y-73533967D01*
X109692253Y-73533967D01*
X109716286Y-73529186D01*
X109738923Y-73519810D01*
X109752691Y-73512451D01*
X109759705Y-73510323D01*
X109773140Y-73509000D01*
X110086860Y-73509000D01*
X110100295Y-73510323D01*
X110107309Y-73512451D01*
X110121077Y-73519810D01*
X110143716Y-73529187D01*
X110167749Y-73533967D01*
X110192253Y-73533967D01*
X110216286Y-73529186D01*
X110238923Y-73519810D01*
X110252691Y-73512451D01*
X110259705Y-73510323D01*
X110273140Y-73509000D01*
X110586860Y-73509000D01*
X110600295Y-73510323D01*
X110607310Y-73512451D01*
X110613776Y-73515908D01*
X110619442Y-73520558D01*
X110624092Y-73526224D01*
X110627549Y-73532690D01*
X110629677Y-73539705D01*
X110631000Y-73553140D01*
X110631000Y-75116860D01*
X110629677Y-75130295D01*
X110627549Y-75137310D01*
X110624092Y-75143776D01*
X110619442Y-75149442D01*
X110613776Y-75154092D01*
X110607310Y-75157549D01*
X110600295Y-75159677D01*
X110586860Y-75161000D01*
X110273140Y-75161000D01*
X110259705Y-75159677D01*
X110252691Y-75157549D01*
X110238923Y-75150190D01*
X110216284Y-75140813D01*
X110192251Y-75136033D01*
X110167747Y-75136033D01*
X110143714Y-75140814D01*
X110121077Y-75150190D01*
X110107309Y-75157549D01*
X110100295Y-75159677D01*
X110086860Y-75161000D01*
X109773140Y-75161000D01*
X109759705Y-75159677D01*
X109752691Y-75157549D01*
X109738923Y-75150190D01*
X109716284Y-75140813D01*
X109692251Y-75136033D01*
X109667747Y-75136033D01*
X109643714Y-75140814D01*
X109621077Y-75150190D01*
X109607309Y-75157549D01*
X109600295Y-75159677D01*
X109586860Y-75161000D01*
X109273140Y-75161000D01*
X109259705Y-75159677D01*
X109252691Y-75157549D01*
X109238923Y-75150190D01*
X109216284Y-75140813D01*
X109192251Y-75136033D01*
X109167747Y-75136033D01*
X109143714Y-75140814D01*
X109121077Y-75150190D01*
X109107309Y-75157549D01*
X109100295Y-75159677D01*
X109086860Y-75161000D01*
X108773140Y-75161000D01*
X108759705Y-75159677D01*
X108752691Y-75157549D01*
X108738923Y-75150190D01*
X108716284Y-75140813D01*
X108692251Y-75136033D01*
X108667747Y-75136033D01*
X108643714Y-75140814D01*
X108621077Y-75150190D01*
X108607309Y-75157549D01*
X108600295Y-75159677D01*
X108586860Y-75161000D01*
X108273140Y-75161000D01*
X108259705Y-75159677D01*
X108252691Y-75157549D01*
X108238923Y-75150190D01*
X108216284Y-75140813D01*
X108192251Y-75136033D01*
X108167747Y-75136033D01*
X108143714Y-75140814D01*
X108121077Y-75150190D01*
X108107309Y-75157549D01*
X108100295Y-75159677D01*
X108086860Y-75161000D01*
X107773140Y-75161000D01*
X107759705Y-75159677D01*
X107752691Y-75157549D01*
X107738923Y-75150190D01*
X107716284Y-75140813D01*
X107692251Y-75136033D01*
X107667747Y-75136033D01*
X107643714Y-75140814D01*
X107621077Y-75150190D01*
X107607309Y-75157549D01*
X107600295Y-75159677D01*
X107586860Y-75161000D01*
X107273140Y-75161000D01*
X107259705Y-75159677D01*
X107252691Y-75157549D01*
X107238923Y-75150190D01*
X107216284Y-75140813D01*
X107192251Y-75136033D01*
X107167747Y-75136033D01*
X107143714Y-75140814D01*
X107121077Y-75150190D01*
X107107309Y-75157549D01*
X107100295Y-75159677D01*
X107086860Y-75161000D01*
X106773140Y-75161000D01*
X106759705Y-75159677D01*
X106752691Y-75157549D01*
X106738923Y-75150190D01*
X106716284Y-75140813D01*
X106692251Y-75136033D01*
X106667747Y-75136033D01*
X106643714Y-75140814D01*
X106621077Y-75150190D01*
X106607309Y-75157549D01*
X106600295Y-75159677D01*
X106586860Y-75161000D01*
X106273140Y-75161000D01*
X106259705Y-75159677D01*
X106252691Y-75157549D01*
X106238923Y-75150190D01*
X106216284Y-75140813D01*
X106192251Y-75136033D01*
X106167747Y-75136033D01*
X106143714Y-75140814D01*
X106121077Y-75150190D01*
X106107309Y-75157549D01*
X106100295Y-75159677D01*
X106086860Y-75161000D01*
X105773140Y-75161000D01*
X105759705Y-75159677D01*
X105752691Y-75157549D01*
X105738923Y-75150190D01*
X105716284Y-75140813D01*
X105692251Y-75136033D01*
X105667747Y-75136033D01*
X105643714Y-75140814D01*
X105621077Y-75150190D01*
X105607309Y-75157549D01*
X105600295Y-75159677D01*
X105586860Y-75161000D01*
X105273140Y-75161000D01*
X105259705Y-75159677D01*
X105252691Y-75157549D01*
X105238923Y-75150190D01*
X105216284Y-75140813D01*
X105192251Y-75136033D01*
X105167747Y-75136033D01*
X105143714Y-75140814D01*
X105121077Y-75150190D01*
X105107309Y-75157549D01*
X105100295Y-75159677D01*
X105086860Y-75161000D01*
X104773140Y-75161000D01*
X104759705Y-75159677D01*
X104752691Y-75157549D01*
X104738923Y-75150190D01*
X104716284Y-75140813D01*
X104692251Y-75136033D01*
X104667747Y-75136033D01*
X104643714Y-75140814D01*
X104621077Y-75150190D01*
X104607309Y-75157549D01*
X104600295Y-75159677D01*
X104586860Y-75161000D01*
X104273140Y-75161000D01*
X104259705Y-75159677D01*
X104252691Y-75157549D01*
X104238923Y-75150190D01*
X104216284Y-75140813D01*
X104192251Y-75136033D01*
X104167747Y-75136033D01*
X104143714Y-75140814D01*
X104121077Y-75150190D01*
X104107309Y-75157549D01*
X104100295Y-75159677D01*
X104086860Y-75161000D01*
X103773140Y-75161000D01*
X103759705Y-75159677D01*
X103752691Y-75157549D01*
X103738923Y-75150190D01*
X103716284Y-75140813D01*
X103692251Y-75136033D01*
X103667747Y-75136033D01*
X103643714Y-75140814D01*
X103621077Y-75150190D01*
X103607309Y-75157549D01*
X103600295Y-75159677D01*
X103586860Y-75161000D01*
X103273140Y-75161000D01*
X103259705Y-75159677D01*
X103252691Y-75157549D01*
X103238923Y-75150190D01*
X103216284Y-75140813D01*
X103192251Y-75136033D01*
X103167747Y-75136033D01*
X103143714Y-75140814D01*
X103121077Y-75150190D01*
X103107309Y-75157549D01*
X103100295Y-75159677D01*
X103086860Y-75161000D01*
X102773140Y-75161000D01*
X102759705Y-75159677D01*
X102752690Y-75157549D01*
X102746224Y-75154092D01*
X102740558Y-75149442D01*
X102735908Y-75143776D01*
X102732451Y-75137310D01*
X102730323Y-75130295D01*
X102729000Y-75116860D01*
X102729000Y-73553140D01*
X102730323Y-73539705D01*
X102732451Y-73532690D01*
X102735908Y-73526224D01*
X102740558Y-73520558D01*
X102746224Y-73515908D01*
X102752690Y-73512451D01*
X102759705Y-73510323D01*
X102773140Y-73509000D01*
X103086860Y-73509000D01*
X103100295Y-73510323D01*
X103100295Y-73510323D01*
G37*
G36*
X113311938Y-74436716D02*
G01*
X113332557Y-74442971D01*
X113351553Y-74453124D01*
X113368208Y-74466792D01*
X113381876Y-74483447D01*
X113392029Y-74502443D01*
X113398284Y-74523062D01*
X113401000Y-74550640D01*
X113401000Y-75009360D01*
X113398284Y-75036938D01*
X113392029Y-75057557D01*
X113381876Y-75076553D01*
X113368208Y-75093208D01*
X113351553Y-75106876D01*
X113332557Y-75117029D01*
X113311938Y-75123284D01*
X113284360Y-75126000D01*
X112775640Y-75126000D01*
X112748062Y-75123284D01*
X112727443Y-75117029D01*
X112708447Y-75106876D01*
X112691792Y-75093208D01*
X112678124Y-75076553D01*
X112667971Y-75057557D01*
X112661716Y-75036938D01*
X112659000Y-75009360D01*
X112659000Y-74550640D01*
X112661716Y-74523062D01*
X112667971Y-74502443D01*
X112678124Y-74483447D01*
X112691792Y-74466792D01*
X112708447Y-74453124D01*
X112727443Y-74442971D01*
X112748062Y-74436716D01*
X112775640Y-74434000D01*
X113284360Y-74434000D01*
X113311938Y-74436716D01*
X113311938Y-74436716D01*
G37*
G36*
X114581938Y-74436716D02*
G01*
X114602557Y-74442971D01*
X114621553Y-74453124D01*
X114638208Y-74466792D01*
X114651876Y-74483447D01*
X114662029Y-74502443D01*
X114668284Y-74523062D01*
X114671000Y-74550640D01*
X114671000Y-75009360D01*
X114668284Y-75036938D01*
X114662029Y-75057557D01*
X114651876Y-75076553D01*
X114638208Y-75093208D01*
X114621553Y-75106876D01*
X114602557Y-75117029D01*
X114581938Y-75123284D01*
X114554360Y-75126000D01*
X114045640Y-75126000D01*
X114018062Y-75123284D01*
X113997443Y-75117029D01*
X113978447Y-75106876D01*
X113961792Y-75093208D01*
X113948124Y-75076553D01*
X113937971Y-75057557D01*
X113931716Y-75036938D01*
X113929000Y-75009360D01*
X113929000Y-74550640D01*
X113931716Y-74523062D01*
X113937971Y-74502443D01*
X113948124Y-74483447D01*
X113961792Y-74466792D01*
X113978447Y-74453124D01*
X113997443Y-74442971D01*
X114018062Y-74436716D01*
X114045640Y-74434000D01*
X114554360Y-74434000D01*
X114581938Y-74436716D01*
X114581938Y-74436716D01*
G37*
G36*
X96245938Y-74307716D02*
G01*
X96266557Y-74313971D01*
X96285553Y-74324124D01*
X96302208Y-74337792D01*
X96315876Y-74354447D01*
X96326029Y-74373443D01*
X96332284Y-74394062D01*
X96335000Y-74421640D01*
X96335000Y-74930360D01*
X96332284Y-74957938D01*
X96326029Y-74978557D01*
X96315876Y-74997553D01*
X96302208Y-75014208D01*
X96285553Y-75027876D01*
X96266557Y-75038029D01*
X96245938Y-75044284D01*
X96218360Y-75047000D01*
X95759640Y-75047000D01*
X95732062Y-75044284D01*
X95711443Y-75038029D01*
X95692447Y-75027876D01*
X95675792Y-75014208D01*
X95662124Y-74997553D01*
X95651971Y-74978557D01*
X95645716Y-74957938D01*
X95643000Y-74930360D01*
X95643000Y-74421640D01*
X95645716Y-74394062D01*
X95651971Y-74373443D01*
X95662124Y-74354447D01*
X95675792Y-74337792D01*
X95692447Y-74324124D01*
X95711443Y-74313971D01*
X95732062Y-74307716D01*
X95759640Y-74305000D01*
X96218360Y-74305000D01*
X96245938Y-74307716D01*
X96245938Y-74307716D01*
G37*
G36*
X95275938Y-74307716D02*
G01*
X95296557Y-74313971D01*
X95315553Y-74324124D01*
X95332208Y-74337792D01*
X95345876Y-74354447D01*
X95356029Y-74373443D01*
X95362284Y-74394062D01*
X95365000Y-74421640D01*
X95365000Y-74930360D01*
X95362284Y-74957938D01*
X95356029Y-74978557D01*
X95345876Y-74997553D01*
X95332208Y-75014208D01*
X95315553Y-75027876D01*
X95296557Y-75038029D01*
X95275938Y-75044284D01*
X95248360Y-75047000D01*
X94789640Y-75047000D01*
X94762062Y-75044284D01*
X94741443Y-75038029D01*
X94722447Y-75027876D01*
X94705792Y-75014208D01*
X94692124Y-74997553D01*
X94681971Y-74978557D01*
X94675716Y-74957938D01*
X94673000Y-74930360D01*
X94673000Y-74421640D01*
X94675716Y-74394062D01*
X94681971Y-74373443D01*
X94692124Y-74354447D01*
X94705792Y-74337792D01*
X94722447Y-74324124D01*
X94741443Y-74313971D01*
X94762062Y-74307716D01*
X94789640Y-74305000D01*
X95248360Y-74305000D01*
X95275938Y-74307716D01*
X95275938Y-74307716D01*
G37*
G36*
X100709591Y-73963085D02*
G01*
X100743569Y-73973393D01*
X100774890Y-73990134D01*
X100802339Y-74012661D01*
X100824866Y-74040110D01*
X100841607Y-74071431D01*
X100851915Y-74105409D01*
X100856000Y-74146890D01*
X100856000Y-74748110D01*
X100851915Y-74789591D01*
X100841607Y-74823569D01*
X100824866Y-74854890D01*
X100802339Y-74882339D01*
X100774890Y-74904866D01*
X100743569Y-74921607D01*
X100709591Y-74931915D01*
X100668110Y-74936000D01*
X99991890Y-74936000D01*
X99950409Y-74931915D01*
X99916431Y-74921607D01*
X99885110Y-74904866D01*
X99857661Y-74882339D01*
X99835134Y-74854890D01*
X99818393Y-74823569D01*
X99808085Y-74789591D01*
X99804000Y-74748110D01*
X99804000Y-74146890D01*
X99808085Y-74105409D01*
X99818393Y-74071431D01*
X99835134Y-74040110D01*
X99857661Y-74012661D01*
X99885110Y-73990134D01*
X99916431Y-73973393D01*
X99950409Y-73963085D01*
X99991890Y-73959000D01*
X100668110Y-73959000D01*
X100709591Y-73963085D01*
X100709591Y-73963085D01*
G37*
G36*
X113311938Y-73466716D02*
G01*
X113332557Y-73472971D01*
X113351553Y-73483124D01*
X113368208Y-73496792D01*
X113381876Y-73513447D01*
X113392029Y-73532443D01*
X113398284Y-73553062D01*
X113401000Y-73580640D01*
X113401000Y-74039360D01*
X113398284Y-74066938D01*
X113392029Y-74087557D01*
X113381876Y-74106553D01*
X113368208Y-74123208D01*
X113351553Y-74136876D01*
X113332557Y-74147029D01*
X113311938Y-74153284D01*
X113284360Y-74156000D01*
X112775640Y-74156000D01*
X112748062Y-74153284D01*
X112727443Y-74147029D01*
X112708447Y-74136876D01*
X112691792Y-74123208D01*
X112678124Y-74106553D01*
X112667971Y-74087557D01*
X112661716Y-74066938D01*
X112659000Y-74039360D01*
X112659000Y-73580640D01*
X112661716Y-73553062D01*
X112667971Y-73532443D01*
X112678124Y-73513447D01*
X112691792Y-73496792D01*
X112708447Y-73483124D01*
X112727443Y-73472971D01*
X112748062Y-73466716D01*
X112775640Y-73464000D01*
X113284360Y-73464000D01*
X113311938Y-73466716D01*
X113311938Y-73466716D01*
G37*
G36*
X114581938Y-73466716D02*
G01*
X114602557Y-73472971D01*
X114621553Y-73483124D01*
X114638208Y-73496792D01*
X114651876Y-73513447D01*
X114662029Y-73532443D01*
X114668284Y-73553062D01*
X114671000Y-73580640D01*
X114671000Y-74039360D01*
X114668284Y-74066938D01*
X114662029Y-74087557D01*
X114651876Y-74106553D01*
X114638208Y-74123208D01*
X114621553Y-74136876D01*
X114602557Y-74147029D01*
X114581938Y-74153284D01*
X114554360Y-74156000D01*
X114045640Y-74156000D01*
X114018062Y-74153284D01*
X113997443Y-74147029D01*
X113978447Y-74136876D01*
X113961792Y-74123208D01*
X113948124Y-74106553D01*
X113937971Y-74087557D01*
X113931716Y-74066938D01*
X113929000Y-74039360D01*
X113929000Y-73580640D01*
X113931716Y-73553062D01*
X113937971Y-73532443D01*
X113948124Y-73513447D01*
X113961792Y-73496792D01*
X113978447Y-73483124D01*
X113997443Y-73472971D01*
X114018062Y-73466716D01*
X114045640Y-73464000D01*
X114554360Y-73464000D01*
X114581938Y-73466716D01*
X114581938Y-73466716D01*
G37*
G36*
X100709591Y-72388085D02*
G01*
X100743569Y-72398393D01*
X100774890Y-72415134D01*
X100802339Y-72437661D01*
X100824866Y-72465110D01*
X100841607Y-72496431D01*
X100851915Y-72530409D01*
X100856000Y-72571890D01*
X100856000Y-73173110D01*
X100851915Y-73214591D01*
X100841607Y-73248569D01*
X100824866Y-73279890D01*
X100802339Y-73307339D01*
X100774890Y-73329866D01*
X100743569Y-73346607D01*
X100709591Y-73356915D01*
X100668110Y-73361000D01*
X99991890Y-73361000D01*
X99950409Y-73356915D01*
X99916431Y-73346607D01*
X99885110Y-73329866D01*
X99857661Y-73307339D01*
X99835134Y-73279890D01*
X99818393Y-73248569D01*
X99808085Y-73214591D01*
X99804000Y-73173110D01*
X99804000Y-72571890D01*
X99808085Y-72530409D01*
X99818393Y-72496431D01*
X99835134Y-72465110D01*
X99857661Y-72437661D01*
X99885110Y-72415134D01*
X99916431Y-72398393D01*
X99950409Y-72388085D01*
X99991890Y-72384000D01*
X100668110Y-72384000D01*
X100709591Y-72388085D01*
X100709591Y-72388085D01*
G37*
G36*
X102641938Y-72148716D02*
G01*
X102662557Y-72154971D01*
X102681553Y-72165124D01*
X102698208Y-72178792D01*
X102711876Y-72195447D01*
X102722029Y-72214443D01*
X102728284Y-72235062D01*
X102731000Y-72262640D01*
X102731000Y-72771360D01*
X102728284Y-72798938D01*
X102722029Y-72819557D01*
X102711876Y-72838553D01*
X102698208Y-72855208D01*
X102681553Y-72868876D01*
X102662557Y-72879029D01*
X102641938Y-72885284D01*
X102614360Y-72888000D01*
X102155640Y-72888000D01*
X102128062Y-72885284D01*
X102107443Y-72879029D01*
X102088447Y-72868876D01*
X102071792Y-72855208D01*
X102058124Y-72838553D01*
X102047971Y-72819557D01*
X102041716Y-72798938D01*
X102039000Y-72771360D01*
X102039000Y-72262640D01*
X102041716Y-72235062D01*
X102047971Y-72214443D01*
X102058124Y-72195447D01*
X102071792Y-72178792D01*
X102088447Y-72165124D01*
X102107443Y-72154971D01*
X102128062Y-72148716D01*
X102155640Y-72146000D01*
X102614360Y-72146000D01*
X102641938Y-72148716D01*
X102641938Y-72148716D01*
G37*
G36*
X103611938Y-72148716D02*
G01*
X103632557Y-72154971D01*
X103651553Y-72165124D01*
X103668208Y-72178792D01*
X103681876Y-72195447D01*
X103692029Y-72214443D01*
X103698284Y-72235062D01*
X103701000Y-72262640D01*
X103701000Y-72771360D01*
X103698284Y-72798938D01*
X103692029Y-72819557D01*
X103681876Y-72838553D01*
X103668208Y-72855208D01*
X103651553Y-72868876D01*
X103632557Y-72879029D01*
X103611938Y-72885284D01*
X103584360Y-72888000D01*
X103125640Y-72888000D01*
X103098062Y-72885284D01*
X103077443Y-72879029D01*
X103058447Y-72868876D01*
X103041792Y-72855208D01*
X103028124Y-72838553D01*
X103017971Y-72819557D01*
X103011716Y-72798938D01*
X103009000Y-72771360D01*
X103009000Y-72262640D01*
X103011716Y-72235062D01*
X103017971Y-72214443D01*
X103028124Y-72195447D01*
X103041792Y-72178792D01*
X103058447Y-72165124D01*
X103077443Y-72154971D01*
X103098062Y-72148716D01*
X103125640Y-72146000D01*
X103584360Y-72146000D01*
X103611938Y-72148716D01*
X103611938Y-72148716D01*
G37*
G36*
X105310938Y-72150716D02*
G01*
X105331557Y-72156971D01*
X105350553Y-72167124D01*
X105367208Y-72180792D01*
X105380876Y-72197447D01*
X105391029Y-72216443D01*
X105397284Y-72237062D01*
X105400000Y-72264640D01*
X105400000Y-72723360D01*
X105397284Y-72750938D01*
X105391029Y-72771557D01*
X105380876Y-72790553D01*
X105367208Y-72807208D01*
X105350553Y-72820876D01*
X105331557Y-72831029D01*
X105310938Y-72837284D01*
X105283360Y-72840000D01*
X104774640Y-72840000D01*
X104747062Y-72837284D01*
X104726443Y-72831029D01*
X104707447Y-72820876D01*
X104690792Y-72807208D01*
X104677124Y-72790553D01*
X104666971Y-72771557D01*
X104660716Y-72750938D01*
X104658000Y-72723360D01*
X104658000Y-72264640D01*
X104660716Y-72237062D01*
X104666971Y-72216443D01*
X104677124Y-72197447D01*
X104690792Y-72180792D01*
X104707447Y-72167124D01*
X104726443Y-72156971D01*
X104747062Y-72150716D01*
X104774640Y-72148000D01*
X105283360Y-72148000D01*
X105310938Y-72150716D01*
X105310938Y-72150716D01*
G37*
G36*
X105310938Y-71180716D02*
G01*
X105331557Y-71186971D01*
X105350553Y-71197124D01*
X105367208Y-71210792D01*
X105380876Y-71227447D01*
X105391029Y-71246443D01*
X105397284Y-71267062D01*
X105400000Y-71294640D01*
X105400000Y-71753360D01*
X105397284Y-71780938D01*
X105391029Y-71801557D01*
X105380876Y-71820553D01*
X105367208Y-71837208D01*
X105350553Y-71850876D01*
X105331557Y-71861029D01*
X105310938Y-71867284D01*
X105283360Y-71870000D01*
X104774640Y-71870000D01*
X104747062Y-71867284D01*
X104726443Y-71861029D01*
X104707447Y-71850876D01*
X104690792Y-71837208D01*
X104677124Y-71820553D01*
X104666971Y-71801557D01*
X104660716Y-71780938D01*
X104658000Y-71753360D01*
X104658000Y-71294640D01*
X104660716Y-71267062D01*
X104666971Y-71246443D01*
X104677124Y-71227447D01*
X104690792Y-71210792D01*
X104707447Y-71197124D01*
X104726443Y-71186971D01*
X104747062Y-71180716D01*
X104774640Y-71178000D01*
X105283360Y-71178000D01*
X105310938Y-71180716D01*
X105310938Y-71180716D01*
G37*
G36*
X103611938Y-71005716D02*
G01*
X103632557Y-71011971D01*
X103651553Y-71022124D01*
X103668208Y-71035792D01*
X103681876Y-71052447D01*
X103692029Y-71071443D01*
X103698284Y-71092062D01*
X103701000Y-71119640D01*
X103701000Y-71628360D01*
X103698284Y-71655938D01*
X103692029Y-71676557D01*
X103681876Y-71695553D01*
X103668208Y-71712208D01*
X103651553Y-71725876D01*
X103632557Y-71736029D01*
X103611938Y-71742284D01*
X103584360Y-71745000D01*
X103125640Y-71745000D01*
X103098062Y-71742284D01*
X103077443Y-71736029D01*
X103058447Y-71725876D01*
X103041792Y-71712208D01*
X103028124Y-71695553D01*
X103017971Y-71676557D01*
X103011716Y-71655938D01*
X103009000Y-71628360D01*
X103009000Y-71119640D01*
X103011716Y-71092062D01*
X103017971Y-71071443D01*
X103028124Y-71052447D01*
X103041792Y-71035792D01*
X103058447Y-71022124D01*
X103077443Y-71011971D01*
X103098062Y-71005716D01*
X103125640Y-71003000D01*
X103584360Y-71003000D01*
X103611938Y-71005716D01*
X103611938Y-71005716D01*
G37*
G36*
X102641938Y-71005716D02*
G01*
X102662557Y-71011971D01*
X102681553Y-71022124D01*
X102698208Y-71035792D01*
X102711876Y-71052447D01*
X102722029Y-71071443D01*
X102728284Y-71092062D01*
X102731000Y-71119640D01*
X102731000Y-71628360D01*
X102728284Y-71655938D01*
X102722029Y-71676557D01*
X102711876Y-71695553D01*
X102698208Y-71712208D01*
X102681553Y-71725876D01*
X102662557Y-71736029D01*
X102641938Y-71742284D01*
X102614360Y-71745000D01*
X102155640Y-71745000D01*
X102128062Y-71742284D01*
X102107443Y-71736029D01*
X102088447Y-71725876D01*
X102071792Y-71712208D01*
X102058124Y-71695553D01*
X102047971Y-71676557D01*
X102041716Y-71655938D01*
X102039000Y-71628360D01*
X102039000Y-71119640D01*
X102041716Y-71092062D01*
X102047971Y-71071443D01*
X102058124Y-71052447D01*
X102071792Y-71035792D01*
X102088447Y-71022124D01*
X102107443Y-71011971D01*
X102128062Y-71005716D01*
X102155640Y-71003000D01*
X102614360Y-71003000D01*
X102641938Y-71005716D01*
X102641938Y-71005716D01*
G37*
G36*
X108564938Y-69989716D02*
G01*
X108585557Y-69995971D01*
X108604553Y-70006124D01*
X108621208Y-70019792D01*
X108634876Y-70036447D01*
X108645029Y-70055443D01*
X108651284Y-70076062D01*
X108654000Y-70103640D01*
X108654000Y-70612360D01*
X108651284Y-70639938D01*
X108645029Y-70660557D01*
X108634876Y-70679553D01*
X108621208Y-70696208D01*
X108604553Y-70709876D01*
X108585557Y-70720029D01*
X108564938Y-70726284D01*
X108537360Y-70729000D01*
X108078640Y-70729000D01*
X108051062Y-70726284D01*
X108030443Y-70720029D01*
X108011447Y-70709876D01*
X107994792Y-70696208D01*
X107981124Y-70679553D01*
X107970971Y-70660557D01*
X107964716Y-70639938D01*
X107962000Y-70612360D01*
X107962000Y-70103640D01*
X107964716Y-70076062D01*
X107970971Y-70055443D01*
X107981124Y-70036447D01*
X107994792Y-70019792D01*
X108011447Y-70006124D01*
X108030443Y-69995971D01*
X108051062Y-69989716D01*
X108078640Y-69987000D01*
X108537360Y-69987000D01*
X108564938Y-69989716D01*
X108564938Y-69989716D01*
G37*
G36*
X106405938Y-69989716D02*
G01*
X106426557Y-69995971D01*
X106445553Y-70006124D01*
X106462208Y-70019792D01*
X106475876Y-70036447D01*
X106486029Y-70055443D01*
X106492284Y-70076062D01*
X106495000Y-70103640D01*
X106495000Y-70612360D01*
X106492284Y-70639938D01*
X106486029Y-70660557D01*
X106475876Y-70679553D01*
X106462208Y-70696208D01*
X106445553Y-70709876D01*
X106426557Y-70720029D01*
X106405938Y-70726284D01*
X106378360Y-70729000D01*
X105919640Y-70729000D01*
X105892062Y-70726284D01*
X105871443Y-70720029D01*
X105852447Y-70709876D01*
X105835792Y-70696208D01*
X105822124Y-70679553D01*
X105811971Y-70660557D01*
X105805716Y-70639938D01*
X105803000Y-70612360D01*
X105803000Y-70103640D01*
X105805716Y-70076062D01*
X105811971Y-70055443D01*
X105822124Y-70036447D01*
X105835792Y-70019792D01*
X105852447Y-70006124D01*
X105871443Y-69995971D01*
X105892062Y-69989716D01*
X105919640Y-69987000D01*
X106378360Y-69987000D01*
X106405938Y-69989716D01*
X106405938Y-69989716D01*
G37*
G36*
X107594938Y-69989716D02*
G01*
X107615557Y-69995971D01*
X107634553Y-70006124D01*
X107651208Y-70019792D01*
X107664876Y-70036447D01*
X107675029Y-70055443D01*
X107681284Y-70076062D01*
X107684000Y-70103640D01*
X107684000Y-70612360D01*
X107681284Y-70639938D01*
X107675029Y-70660557D01*
X107664876Y-70679553D01*
X107651208Y-70696208D01*
X107634553Y-70709876D01*
X107615557Y-70720029D01*
X107594938Y-70726284D01*
X107567360Y-70729000D01*
X107108640Y-70729000D01*
X107081062Y-70726284D01*
X107060443Y-70720029D01*
X107041447Y-70709876D01*
X107024792Y-70696208D01*
X107011124Y-70679553D01*
X107000971Y-70660557D01*
X106994716Y-70639938D01*
X106992000Y-70612360D01*
X106992000Y-70103640D01*
X106994716Y-70076062D01*
X107000971Y-70055443D01*
X107011124Y-70036447D01*
X107024792Y-70019792D01*
X107041447Y-70006124D01*
X107060443Y-69995971D01*
X107081062Y-69989716D01*
X107108640Y-69987000D01*
X107567360Y-69987000D01*
X107594938Y-69989716D01*
X107594938Y-69989716D01*
G37*
G36*
X105435938Y-69989716D02*
G01*
X105456557Y-69995971D01*
X105475553Y-70006124D01*
X105492208Y-70019792D01*
X105505876Y-70036447D01*
X105516029Y-70055443D01*
X105522284Y-70076062D01*
X105525000Y-70103640D01*
X105525000Y-70612360D01*
X105522284Y-70639938D01*
X105516029Y-70660557D01*
X105505876Y-70679553D01*
X105492208Y-70696208D01*
X105475553Y-70709876D01*
X105456557Y-70720029D01*
X105435938Y-70726284D01*
X105408360Y-70729000D01*
X104949640Y-70729000D01*
X104922062Y-70726284D01*
X104901443Y-70720029D01*
X104882447Y-70709876D01*
X104865792Y-70696208D01*
X104852124Y-70679553D01*
X104841971Y-70660557D01*
X104835716Y-70639938D01*
X104833000Y-70612360D01*
X104833000Y-70103640D01*
X104835716Y-70076062D01*
X104841971Y-70055443D01*
X104852124Y-70036447D01*
X104865792Y-70019792D01*
X104882447Y-70006124D01*
X104901443Y-69995971D01*
X104922062Y-69989716D01*
X104949640Y-69987000D01*
X105408360Y-69987000D01*
X105435938Y-69989716D01*
X105435938Y-69989716D01*
G37*
G36*
X95827468Y-68849565D02*
G01*
X95866138Y-68861296D01*
X95901777Y-68880346D01*
X95933017Y-68905983D01*
X95958654Y-68937223D01*
X95977704Y-68972862D01*
X95989435Y-69011532D01*
X95994000Y-69057888D01*
X95994000Y-70134112D01*
X95989435Y-70180468D01*
X95977704Y-70219138D01*
X95958654Y-70254777D01*
X95933017Y-70286017D01*
X95901777Y-70311654D01*
X95866138Y-70330704D01*
X95827468Y-70342435D01*
X95781112Y-70347000D01*
X95129888Y-70347000D01*
X95083532Y-70342435D01*
X95044862Y-70330704D01*
X95009223Y-70311654D01*
X94977983Y-70286017D01*
X94952346Y-70254777D01*
X94933296Y-70219138D01*
X94921565Y-70180468D01*
X94917000Y-70134112D01*
X94917000Y-69057888D01*
X94921565Y-69011532D01*
X94933296Y-68972862D01*
X94952346Y-68937223D01*
X94977983Y-68905983D01*
X95009223Y-68880346D01*
X95044862Y-68861296D01*
X95083532Y-68849565D01*
X95129888Y-68845000D01*
X95781112Y-68845000D01*
X95827468Y-68849565D01*
X95827468Y-68849565D01*
G37*
G36*
X94146468Y-68849565D02*
G01*
X94185138Y-68861296D01*
X94220777Y-68880346D01*
X94252017Y-68905983D01*
X94277654Y-68937223D01*
X94296704Y-68972862D01*
X94308435Y-69011532D01*
X94313000Y-69057888D01*
X94313000Y-70134112D01*
X94308435Y-70180468D01*
X94296704Y-70219138D01*
X94277654Y-70254777D01*
X94252017Y-70286017D01*
X94220777Y-70311654D01*
X94185138Y-70330704D01*
X94146468Y-70342435D01*
X94100112Y-70347000D01*
X93448888Y-70347000D01*
X93402532Y-70342435D01*
X93363862Y-70330704D01*
X93328223Y-70311654D01*
X93296983Y-70286017D01*
X93271346Y-70254777D01*
X93252296Y-70219138D01*
X93240565Y-70180468D01*
X93236000Y-70134112D01*
X93236000Y-69057888D01*
X93240565Y-69011532D01*
X93252296Y-68972862D01*
X93271346Y-68937223D01*
X93296983Y-68905983D01*
X93328223Y-68880346D01*
X93363862Y-68861296D01*
X93402532Y-68849565D01*
X93448888Y-68845000D01*
X94100112Y-68845000D01*
X94146468Y-68849565D01*
X94146468Y-68849565D01*
G37*
G36*
X97702468Y-68849565D02*
G01*
X97741138Y-68861296D01*
X97776777Y-68880346D01*
X97808017Y-68905983D01*
X97833654Y-68937223D01*
X97852704Y-68972862D01*
X97864435Y-69011532D01*
X97869000Y-69057888D01*
X97869000Y-70134112D01*
X97864435Y-70180468D01*
X97852704Y-70219138D01*
X97833654Y-70254777D01*
X97808017Y-70286017D01*
X97776777Y-70311654D01*
X97741138Y-70330704D01*
X97702468Y-70342435D01*
X97656112Y-70347000D01*
X97004888Y-70347000D01*
X96958532Y-70342435D01*
X96919862Y-70330704D01*
X96884223Y-70311654D01*
X96852983Y-70286017D01*
X96827346Y-70254777D01*
X96808296Y-70219138D01*
X96796565Y-70180468D01*
X96792000Y-70134112D01*
X96792000Y-69057888D01*
X96796565Y-69011532D01*
X96808296Y-68972862D01*
X96827346Y-68937223D01*
X96852983Y-68905983D01*
X96884223Y-68880346D01*
X96919862Y-68861296D01*
X96958532Y-68849565D01*
X97004888Y-68845000D01*
X97656112Y-68845000D01*
X97702468Y-68849565D01*
X97702468Y-68849565D01*
G37*
G36*
X92271468Y-68849565D02*
G01*
X92310138Y-68861296D01*
X92345777Y-68880346D01*
X92377017Y-68905983D01*
X92402654Y-68937223D01*
X92421704Y-68972862D01*
X92433435Y-69011532D01*
X92438000Y-69057888D01*
X92438000Y-70134112D01*
X92433435Y-70180468D01*
X92421704Y-70219138D01*
X92402654Y-70254777D01*
X92377017Y-70286017D01*
X92345777Y-70311654D01*
X92310138Y-70330704D01*
X92271468Y-70342435D01*
X92225112Y-70347000D01*
X91573888Y-70347000D01*
X91527532Y-70342435D01*
X91488862Y-70330704D01*
X91453223Y-70311654D01*
X91421983Y-70286017D01*
X91396346Y-70254777D01*
X91377296Y-70219138D01*
X91365565Y-70180468D01*
X91361000Y-70134112D01*
X91361000Y-69057888D01*
X91365565Y-69011532D01*
X91377296Y-68972862D01*
X91396346Y-68937223D01*
X91421983Y-68905983D01*
X91453223Y-68880346D01*
X91488862Y-68861296D01*
X91527532Y-68849565D01*
X91573888Y-68845000D01*
X92225112Y-68845000D01*
X92271468Y-68849565D01*
X92271468Y-68849565D01*
G37*
G36*
X90537591Y-69201085D02*
G01*
X90571569Y-69211393D01*
X90602890Y-69228134D01*
X90630339Y-69250661D01*
X90652866Y-69278110D01*
X90669607Y-69309431D01*
X90679915Y-69343409D01*
X90684000Y-69384890D01*
X90684000Y-70061110D01*
X90679915Y-70102591D01*
X90669607Y-70136569D01*
X90652866Y-70167890D01*
X90630339Y-70195339D01*
X90602890Y-70217866D01*
X90571569Y-70234607D01*
X90537591Y-70244915D01*
X90496110Y-70249000D01*
X89894890Y-70249000D01*
X89853409Y-70244915D01*
X89819431Y-70234607D01*
X89788110Y-70217866D01*
X89760661Y-70195339D01*
X89738134Y-70167890D01*
X89721393Y-70136569D01*
X89711085Y-70102591D01*
X89707000Y-70061110D01*
X89707000Y-69384890D01*
X89711085Y-69343409D01*
X89721393Y-69309431D01*
X89738134Y-69278110D01*
X89760661Y-69250661D01*
X89788110Y-69228134D01*
X89819431Y-69211393D01*
X89853409Y-69201085D01*
X89894890Y-69197000D01*
X90496110Y-69197000D01*
X90537591Y-69201085D01*
X90537591Y-69201085D01*
G37*
G36*
X88962591Y-69201085D02*
G01*
X88996569Y-69211393D01*
X89027890Y-69228134D01*
X89055339Y-69250661D01*
X89077866Y-69278110D01*
X89094607Y-69309431D01*
X89104915Y-69343409D01*
X89109000Y-69384890D01*
X89109000Y-70061110D01*
X89104915Y-70102591D01*
X89094607Y-70136569D01*
X89077866Y-70167890D01*
X89055339Y-70195339D01*
X89027890Y-70217866D01*
X88996569Y-70234607D01*
X88962591Y-70244915D01*
X88921110Y-70249000D01*
X88319890Y-70249000D01*
X88278409Y-70244915D01*
X88244431Y-70234607D01*
X88213110Y-70217866D01*
X88185661Y-70195339D01*
X88163134Y-70167890D01*
X88146393Y-70136569D01*
X88136085Y-70102591D01*
X88132000Y-70061110D01*
X88132000Y-69384890D01*
X88136085Y-69343409D01*
X88146393Y-69309431D01*
X88163134Y-69278110D01*
X88185661Y-69250661D01*
X88213110Y-69228134D01*
X88244431Y-69211393D01*
X88278409Y-69201085D01*
X88319890Y-69197000D01*
X88921110Y-69197000D01*
X88962591Y-69201085D01*
X88962591Y-69201085D01*
G37*
G36*
X87138000Y-70223000D02*
G01*
X85836000Y-70223000D01*
X85836000Y-69221000D01*
X87138000Y-69221000D01*
X87138000Y-70223000D01*
X87138000Y-70223000D01*
G37*
G36*
X82914443Y-68193519D02*
G01*
X82980627Y-68200037D01*
X83150466Y-68251557D01*
X83306991Y-68335222D01*
X83342729Y-68364552D01*
X83444186Y-68447814D01*
X83527448Y-68549271D01*
X83556778Y-68585009D01*
X83640443Y-68741534D01*
X83691963Y-68911373D01*
X83709359Y-69088000D01*
X83691963Y-69264627D01*
X83640443Y-69434466D01*
X83556778Y-69590991D01*
X83527448Y-69626729D01*
X83444186Y-69728186D01*
X83342729Y-69811448D01*
X83306991Y-69840778D01*
X83150466Y-69924443D01*
X82980627Y-69975963D01*
X82914443Y-69982481D01*
X82848260Y-69989000D01*
X82759740Y-69989000D01*
X82693557Y-69982481D01*
X82627373Y-69975963D01*
X82457534Y-69924443D01*
X82301009Y-69840778D01*
X82265271Y-69811448D01*
X82163814Y-69728186D01*
X82080552Y-69626729D01*
X82051222Y-69590991D01*
X81967557Y-69434466D01*
X81916037Y-69264627D01*
X81898641Y-69088000D01*
X81916037Y-68911373D01*
X81967557Y-68741534D01*
X82051222Y-68585009D01*
X82080552Y-68549271D01*
X82163814Y-68447814D01*
X82265271Y-68364552D01*
X82301009Y-68335222D01*
X82457534Y-68251557D01*
X82627373Y-68200037D01*
X82693557Y-68193519D01*
X82759740Y-68187000D01*
X82848260Y-68187000D01*
X82914443Y-68193519D01*
X82914443Y-68193519D01*
G37*
G36*
X125857600Y-69661400D02*
G01*
X123355600Y-69661400D01*
X123355600Y-68819400D01*
X125857600Y-68819400D01*
X125857600Y-69661400D01*
X125857600Y-69661400D01*
G37*
G36*
X121957600Y-69661400D02*
G01*
X119455600Y-69661400D01*
X119455600Y-68819400D01*
X121957600Y-68819400D01*
X121957600Y-69661400D01*
X121957600Y-69661400D01*
G37*
G36*
X125857600Y-68391400D02*
G01*
X123355600Y-68391400D01*
X123355600Y-67549400D01*
X125857600Y-67549400D01*
X125857600Y-68391400D01*
X125857600Y-68391400D01*
G37*
G36*
X121957600Y-68391400D02*
G01*
X119455600Y-68391400D01*
X119455600Y-67549400D01*
X121957600Y-67549400D01*
X121957600Y-68391400D01*
X121957600Y-68391400D01*
G37*
G36*
X97088000Y-67871000D02*
G01*
X94986000Y-67871000D01*
X94986000Y-66269000D01*
X97088000Y-66269000D01*
X97088000Y-67871000D01*
X97088000Y-67871000D01*
G37*
G36*
X83705000Y-67449000D02*
G01*
X81903000Y-67449000D01*
X81903000Y-65647000D01*
X83705000Y-65647000D01*
X83705000Y-67449000D01*
X83705000Y-67449000D01*
G37*
G36*
X125857600Y-67121400D02*
G01*
X123355600Y-67121400D01*
X123355600Y-66279400D01*
X125857600Y-66279400D01*
X125857600Y-67121400D01*
X125857600Y-67121400D01*
G37*
G36*
X121957600Y-67121400D02*
G01*
X119455600Y-67121400D01*
X119455600Y-66279400D01*
X121957600Y-66279400D01*
X121957600Y-67121400D01*
X121957600Y-67121400D01*
G37*
G36*
X87138000Y-66923000D02*
G01*
X85836000Y-66923000D01*
X85836000Y-65921000D01*
X87138000Y-65921000D01*
X87138000Y-66923000D01*
X87138000Y-66923000D01*
G37*
G36*
X103388000Y-66721000D02*
G01*
X101286000Y-66721000D01*
X101286000Y-62819000D01*
X103388000Y-62819000D01*
X103388000Y-66721000D01*
X103388000Y-66721000D01*
G37*
G36*
X121957600Y-65851400D02*
G01*
X119455600Y-65851400D01*
X119455600Y-65009400D01*
X121957600Y-65009400D01*
X121957600Y-65851400D01*
X121957600Y-65851400D01*
G37*
G36*
X125857600Y-65851400D02*
G01*
X123355600Y-65851400D01*
X123355600Y-65009400D01*
X125857600Y-65009400D01*
X125857600Y-65851400D01*
X125857600Y-65851400D01*
G37*
G36*
X97088000Y-65571000D02*
G01*
X94986000Y-65571000D01*
X94986000Y-63969000D01*
X97088000Y-63969000D01*
X97088000Y-65571000D01*
X97088000Y-65571000D01*
G37*
G36*
X105091591Y-64248085D02*
G01*
X105125569Y-64258393D01*
X105156890Y-64275134D01*
X105184339Y-64297661D01*
X105206866Y-64325110D01*
X105223607Y-64356431D01*
X105233915Y-64390409D01*
X105238000Y-64431890D01*
X105238000Y-65108110D01*
X105233915Y-65149591D01*
X105223607Y-65183569D01*
X105206866Y-65214890D01*
X105184339Y-65242339D01*
X105156890Y-65264866D01*
X105125569Y-65281607D01*
X105091591Y-65291915D01*
X105050110Y-65296000D01*
X104448890Y-65296000D01*
X104407409Y-65291915D01*
X104373431Y-65281607D01*
X104342110Y-65264866D01*
X104314661Y-65242339D01*
X104292134Y-65214890D01*
X104275393Y-65183569D01*
X104265085Y-65149591D01*
X104261000Y-65108110D01*
X104261000Y-64431890D01*
X104265085Y-64390409D01*
X104275393Y-64356431D01*
X104292134Y-64325110D01*
X104314661Y-64297661D01*
X104342110Y-64275134D01*
X104373431Y-64258393D01*
X104407409Y-64248085D01*
X104448890Y-64244000D01*
X105050110Y-64244000D01*
X105091591Y-64248085D01*
X105091591Y-64248085D01*
G37*
G36*
X106666591Y-64248085D02*
G01*
X106700569Y-64258393D01*
X106731890Y-64275134D01*
X106759339Y-64297661D01*
X106781866Y-64325110D01*
X106798607Y-64356431D01*
X106808915Y-64390409D01*
X106813000Y-64431890D01*
X106813000Y-65108110D01*
X106808915Y-65149591D01*
X106798607Y-65183569D01*
X106781866Y-65214890D01*
X106759339Y-65242339D01*
X106731890Y-65264866D01*
X106700569Y-65281607D01*
X106666591Y-65291915D01*
X106625110Y-65296000D01*
X106023890Y-65296000D01*
X105982409Y-65291915D01*
X105948431Y-65281607D01*
X105917110Y-65264866D01*
X105889661Y-65242339D01*
X105867134Y-65214890D01*
X105850393Y-65183569D01*
X105840085Y-65149591D01*
X105836000Y-65108110D01*
X105836000Y-64431890D01*
X105840085Y-64390409D01*
X105850393Y-64356431D01*
X105867134Y-64325110D01*
X105889661Y-64297661D01*
X105917110Y-64275134D01*
X105948431Y-64258393D01*
X105982409Y-64248085D01*
X106023890Y-64244000D01*
X106625110Y-64244000D01*
X106666591Y-64248085D01*
X106666591Y-64248085D01*
G37*
G36*
X94056468Y-64157565D02*
G01*
X94095138Y-64169296D01*
X94130777Y-64188346D01*
X94162017Y-64213983D01*
X94187654Y-64245223D01*
X94206704Y-64280862D01*
X94218435Y-64319532D01*
X94223000Y-64365888D01*
X94223000Y-65017112D01*
X94218435Y-65063468D01*
X94206704Y-65102138D01*
X94187654Y-65137777D01*
X94162017Y-65169017D01*
X94130777Y-65194654D01*
X94095138Y-65213704D01*
X94056468Y-65225435D01*
X94010112Y-65230000D01*
X92933888Y-65230000D01*
X92887532Y-65225435D01*
X92848862Y-65213704D01*
X92813223Y-65194654D01*
X92781983Y-65169017D01*
X92756346Y-65137777D01*
X92737296Y-65102138D01*
X92725565Y-65063468D01*
X92721000Y-65017112D01*
X92721000Y-64365888D01*
X92725565Y-64319532D01*
X92737296Y-64280862D01*
X92756346Y-64245223D01*
X92781983Y-64213983D01*
X92813223Y-64188346D01*
X92848862Y-64169296D01*
X92887532Y-64157565D01*
X92933888Y-64153000D01*
X94010112Y-64153000D01*
X94056468Y-64157565D01*
X94056468Y-64157565D01*
G37*
G36*
X121957600Y-64581400D02*
G01*
X119455600Y-64581400D01*
X119455600Y-63739400D01*
X121957600Y-63739400D01*
X121957600Y-64581400D01*
X121957600Y-64581400D01*
G37*
G36*
X125857600Y-64581400D02*
G01*
X123355600Y-64581400D01*
X123355600Y-63739400D01*
X125857600Y-63739400D01*
X125857600Y-64581400D01*
X125857600Y-64581400D01*
G37*
G36*
X94056468Y-62282565D02*
G01*
X94095138Y-62294296D01*
X94130777Y-62313346D01*
X94162017Y-62338983D01*
X94187654Y-62370223D01*
X94206704Y-62405862D01*
X94218435Y-62444532D01*
X94223000Y-62490888D01*
X94223000Y-63142112D01*
X94218435Y-63188468D01*
X94206704Y-63227138D01*
X94187654Y-63262777D01*
X94162017Y-63294017D01*
X94130777Y-63319654D01*
X94095138Y-63338704D01*
X94056468Y-63350435D01*
X94010112Y-63355000D01*
X92933888Y-63355000D01*
X92887532Y-63350435D01*
X92848862Y-63338704D01*
X92813223Y-63319654D01*
X92781983Y-63294017D01*
X92756346Y-63262777D01*
X92737296Y-63227138D01*
X92725565Y-63188468D01*
X92721000Y-63142112D01*
X92721000Y-62490888D01*
X92725565Y-62444532D01*
X92737296Y-62405862D01*
X92756346Y-62370223D01*
X92781983Y-62338983D01*
X92813223Y-62313346D01*
X92848862Y-62294296D01*
X92887532Y-62282565D01*
X92933888Y-62278000D01*
X94010112Y-62278000D01*
X94056468Y-62282565D01*
X94056468Y-62282565D01*
G37*
G36*
X97088000Y-63271000D02*
G01*
X94986000Y-63271000D01*
X94986000Y-61669000D01*
X97088000Y-61669000D01*
X97088000Y-63271000D01*
X97088000Y-63271000D01*
G37*
G36*
X106602391Y-61720285D02*
G01*
X106636369Y-61730593D01*
X106667690Y-61747334D01*
X106695139Y-61769861D01*
X106717666Y-61797310D01*
X106734407Y-61828631D01*
X106744715Y-61862609D01*
X106748800Y-61904090D01*
X106748800Y-62505310D01*
X106744715Y-62546791D01*
X106734407Y-62580769D01*
X106717666Y-62612090D01*
X106695139Y-62639539D01*
X106667690Y-62662066D01*
X106636369Y-62678807D01*
X106602391Y-62689115D01*
X106560910Y-62693200D01*
X105884690Y-62693200D01*
X105843209Y-62689115D01*
X105809231Y-62678807D01*
X105777910Y-62662066D01*
X105750461Y-62639539D01*
X105727934Y-62612090D01*
X105711193Y-62580769D01*
X105700885Y-62546791D01*
X105696800Y-62505310D01*
X105696800Y-61904090D01*
X105700885Y-61862609D01*
X105711193Y-61828631D01*
X105727934Y-61797310D01*
X105750461Y-61769861D01*
X105777910Y-61747334D01*
X105809231Y-61730593D01*
X105843209Y-61720285D01*
X105884690Y-61716200D01*
X106560910Y-61716200D01*
X106602391Y-61720285D01*
X106602391Y-61720285D01*
G37*
G36*
X106602391Y-60145285D02*
G01*
X106636369Y-60155593D01*
X106667690Y-60172334D01*
X106695139Y-60194861D01*
X106717666Y-60222310D01*
X106734407Y-60253631D01*
X106744715Y-60287609D01*
X106748800Y-60329090D01*
X106748800Y-60930310D01*
X106744715Y-60971791D01*
X106734407Y-61005769D01*
X106717666Y-61037090D01*
X106695139Y-61064539D01*
X106667690Y-61087066D01*
X106636369Y-61103807D01*
X106602391Y-61114115D01*
X106560910Y-61118200D01*
X105884690Y-61118200D01*
X105843209Y-61114115D01*
X105809231Y-61103807D01*
X105777910Y-61087066D01*
X105750461Y-61064539D01*
X105727934Y-61037090D01*
X105711193Y-61005769D01*
X105700885Y-60971791D01*
X105696800Y-60930310D01*
X105696800Y-60329090D01*
X105700885Y-60287609D01*
X105711193Y-60253631D01*
X105727934Y-60222310D01*
X105750461Y-60194861D01*
X105777910Y-60172334D01*
X105809231Y-60155593D01*
X105843209Y-60145285D01*
X105884690Y-60141200D01*
X106560910Y-60141200D01*
X106602391Y-60145285D01*
X106602391Y-60145285D01*
G37*
G36*
X83820943Y-53200248D02*
G01*
X84376189Y-53430238D01*
X84608674Y-53585580D01*
X84875899Y-53764134D01*
X85300866Y-54189101D01*
X85449440Y-54411458D01*
X85634762Y-54688811D01*
X85864752Y-55244057D01*
X85982000Y-55833501D01*
X85982000Y-56434499D01*
X85864752Y-57023943D01*
X85634762Y-57579189D01*
X85634761Y-57579190D01*
X85300866Y-58078899D01*
X84875899Y-58503866D01*
X84756326Y-58583762D01*
X84376189Y-58837762D01*
X83820943Y-59067752D01*
X83231499Y-59185000D01*
X82630501Y-59185000D01*
X82041057Y-59067752D01*
X81485811Y-58837762D01*
X81105674Y-58583762D01*
X80986101Y-58503866D01*
X80561134Y-58078899D01*
X80227239Y-57579190D01*
X80227238Y-57579189D01*
X79997248Y-57023943D01*
X79880000Y-56434499D01*
X79880000Y-55833501D01*
X79997248Y-55244057D01*
X80227238Y-54688811D01*
X80412560Y-54411458D01*
X80561134Y-54189101D01*
X80986101Y-53764134D01*
X81253326Y-53585580D01*
X81485811Y-53430238D01*
X82041057Y-53200248D01*
X82630501Y-53083000D01*
X83231499Y-53083000D01*
X83820943Y-53200248D01*
X83820943Y-53200248D01*
G37*
G36*
X125349943Y-52946248D02*
G01*
X125905189Y-53176238D01*
X126153347Y-53342052D01*
X126404899Y-53510134D01*
X126829866Y-53935101D01*
X126934709Y-54092010D01*
X127163762Y-54434811D01*
X127393752Y-54990057D01*
X127511000Y-55579501D01*
X127511000Y-56180499D01*
X127393752Y-56769943D01*
X127163762Y-57325189D01*
X127036660Y-57515410D01*
X126829866Y-57824899D01*
X126404899Y-58249866D01*
X126264573Y-58343629D01*
X125905189Y-58583762D01*
X125349943Y-58813752D01*
X124760499Y-58931000D01*
X124159501Y-58931000D01*
X123570057Y-58813752D01*
X123014811Y-58583762D01*
X122655427Y-58343629D01*
X122515101Y-58249866D01*
X122090134Y-57824899D01*
X121883340Y-57515410D01*
X121756238Y-57325189D01*
X121526248Y-56769943D01*
X121409000Y-56180499D01*
X121409000Y-55579501D01*
X121526248Y-54990057D01*
X121756238Y-54434811D01*
X121985291Y-54092010D01*
X122090134Y-53935101D01*
X122515101Y-53510134D01*
X122766653Y-53342052D01*
X123014811Y-53176238D01*
X123570057Y-52946248D01*
X124159501Y-52829000D01*
X124760499Y-52829000D01*
X125349943Y-52946248D01*
X125349943Y-52946248D01*
G37*
G36*
X115226400Y-56412700D02*
G01*
X113424400Y-56412700D01*
X113424400Y-54610700D01*
X115226400Y-54610700D01*
X115226400Y-56412700D01*
X115226400Y-56412700D01*
G37*
G36*
X111895842Y-54617218D02*
G01*
X111962027Y-54623737D01*
X112131866Y-54675257D01*
X112288391Y-54758922D01*
X112324129Y-54788252D01*
X112425586Y-54871514D01*
X112483990Y-54942681D01*
X112538178Y-55008709D01*
X112621843Y-55165234D01*
X112673363Y-55335073D01*
X112690759Y-55511700D01*
X112673363Y-55688327D01*
X112621843Y-55858166D01*
X112538178Y-56014691D01*
X112508848Y-56050429D01*
X112425586Y-56151886D01*
X112330020Y-56230314D01*
X112288391Y-56264478D01*
X112131866Y-56348143D01*
X111962027Y-56399663D01*
X111895842Y-56406182D01*
X111829660Y-56412700D01*
X111741140Y-56412700D01*
X111674958Y-56406182D01*
X111608773Y-56399663D01*
X111438934Y-56348143D01*
X111282409Y-56264478D01*
X111240780Y-56230314D01*
X111145214Y-56151886D01*
X111061952Y-56050429D01*
X111032622Y-56014691D01*
X110948957Y-55858166D01*
X110897437Y-55688327D01*
X110880041Y-55511700D01*
X110897437Y-55335073D01*
X110948957Y-55165234D01*
X111032622Y-55008709D01*
X111086810Y-54942681D01*
X111145214Y-54871514D01*
X111246671Y-54788252D01*
X111282409Y-54758922D01*
X111438934Y-54675257D01*
X111608773Y-54623737D01*
X111674958Y-54617218D01*
X111741140Y-54610700D01*
X111829660Y-54610700D01*
X111895842Y-54617218D01*
X111895842Y-54617218D01*
G37*
M02*
